<svg width="81" height="81" viewBox="0 0 81 81" fill="none" xmlns="http://www.w3.org/2000/svg">
<path d="M75.8141 30.4544C78.9425 26.6201 80.4195 21.7 79.9203 16.7766C79.4211 11.8532 76.9865 7.32978 73.1521 4.20142C69.3178 1.07306 64.3977 -0.403975 59.4743 0.0952463C54.5509 0.594468 50.0275 3.02905 46.8992 6.86342C45.7609 8.31758 44.2257 9.41085 42.4792 10.011C40.7328 10.6112 38.8499 10.6926 37.0581 10.2454C33.9819 9.3909 30.7657 9.16071 27.5991 9.56842C22.3858 10.2733 17.5441 12.6578 13.8074 16.3608C10.0706 20.0638 7.64227 24.8837 6.89015 30.0904C6.22861 34.8673 7.03053 39.7325 9.19015 44.0444C6.83366 44.078 4.57734 45.0028 2.87514 46.6327C1.17294 48.2627 0.1512 50.4768 0.0154832 52.8296C-0.120234 55.1824 0.640147 57.4993 2.14364 59.3142C3.64713 61.129 5.78215 62.3071 8.11915 62.6114L9.55715 77.3644C9.55715 78.0715 9.83803 78.7496 10.338 79.2496C10.838 79.7495 11.5161 80.0304 12.2231 80.0304H19.9991C20.3837 80.0301 20.7636 79.9465 21.1128 79.7854C21.462 79.6244 21.7722 79.3897 22.0221 79.0974C22.282 78.787 22.4695 78.4225 22.5708 78.0305C22.6722 77.6386 22.6849 77.2289 22.6081 76.8314L19.0461 62.7004H19.7121C21.1865 62.7083 22.6588 62.8142 24.1191 63.0174C26.4614 68.0973 30.2103 72.3995 34.9218 75.4149C39.6334 78.4302 45.1103 80.0323 50.7042 80.0314C51.5842 80.0314 52.4728 79.9917 53.3701 79.9124C60.2257 79.2361 66.6292 76.1852 71.4735 71.2875C76.3178 66.3897 79.2982 59.9529 79.8991 53.0904C80.421 46.8088 78.89 40.5274 75.5361 35.1904C75.0813 34.4711 74.8634 33.6273 74.9133 32.7777C74.9632 31.9281 75.2782 31.1155 75.8141 30.4544ZM8.00515 59.9004C6.49844 59.5943 5.14389 58.7767 4.17096 57.5862C3.19803 56.3956 2.66655 54.9054 2.66655 53.3679C2.66655 51.8304 3.19803 50.3402 4.17096 49.1497C5.14389 47.9592 6.49844 47.1416 8.00515 46.8354V59.9004ZM19.9991 77.3644L12.2151 77.2314L10.7991 62.7004H16.2991L19.9991 77.3644ZM10.6691 60.0334V46.7024H13.3351V60.0344L10.6691 60.0334ZM19.7071 60.0334H15.9991V46.7024H19.7091C23.5773 46.7036 27.4202 46.0796 31.0891 44.8544L37.3281 42.7744V63.9614L31.0891 61.8814C27.4201 60.6567 23.5772 60.033 19.7091 60.0344L19.7071 60.0334ZM77.2271 52.8754C76.7696 58.5771 74.4873 63.9796 70.7185 68.2824C66.9496 72.5853 61.8948 75.5593 56.3031 76.7639C50.7113 77.9685 44.8803 77.3394 39.6741 74.9701C34.4679 72.6007 30.1637 68.617 27.3991 63.6094C28.3561 63.8374 29.3081 64.0974 30.2471 64.4094L44.9091 69.2964C45.1092 69.3637 45.3225 69.3823 45.5312 69.3506C45.7399 69.319 45.938 69.238 46.1092 69.1144C46.2803 68.9908 46.4194 68.8281 46.5151 68.64C46.6108 68.4518 46.6601 68.2435 46.6591 68.0324V61.3674C47.3594 61.3674 48.0529 61.2295 48.6998 60.9615C49.3468 60.6934 49.9347 60.3006 50.4298 59.8054C50.9249 59.3101 51.3177 58.7222 51.5856 58.0752C51.8535 57.4282 51.9913 56.7347 51.9911 56.0344V50.7024C51.9913 50.0021 51.8535 49.3087 51.5856 48.6616C51.3177 48.0146 50.9249 47.4267 50.4298 46.9315C49.9347 46.4363 49.3468 46.0434 48.6998 45.7754C48.0529 45.5074 47.3594 45.3694 46.6591 45.3694V38.7034C46.6592 38.4922 46.609 38.2841 46.5129 38.096C46.4167 37.908 46.2772 37.7456 46.1059 37.622C45.9346 37.4985 45.7364 37.4174 45.5276 37.3855C45.3189 37.3536 45.1055 37.3717 44.9051 37.4384L30.2431 42.3264C26.8467 43.4595 23.2896 44.0369 19.7091 44.0364H12.2231C10.0963 40.3752 9.10887 36.1631 9.38703 31.938C9.66519 27.7129 11.1963 23.6667 13.7848 20.3158C16.3733 16.965 19.9018 14.4617 23.9196 13.1256C27.9375 11.7894 32.2624 11.6811 36.3421 12.8144C38.6321 13.4018 41.0434 13.3122 43.2834 12.5564C45.5235 11.8006 47.4961 10.4111 48.9622 8.55642C50.2893 6.92961 51.9239 5.58012 53.7725 4.58501C55.6212 3.5899 57.6478 2.96866 59.7365 2.75676C61.8253 2.54486 63.9353 2.74644 65.9462 3.35C67.957 3.95356 69.8293 4.94728 71.4561 6.27442C73.083 7.60156 74.4324 9.23613 75.4276 11.0848C76.4227 12.9335 77.0439 14.96 77.2558 17.0488C77.4677 19.1376 77.2661 21.2476 76.6626 23.2585C76.059 25.2693 75.0653 27.1416 73.7381 28.7684C72.851 29.861 72.3283 31.2041 72.2435 32.6089C72.1586 34.0138 72.5159 35.41 73.2651 36.6014C76.3136 41.4542 77.7046 47.1653 77.2291 52.8764L77.2271 52.8754ZM39.9991 64.8504V41.8904L43.9991 40.5574V66.1834L39.9991 64.8504ZM46.6642 58.7004V48.0354C47.3712 48.0354 48.0493 48.3163 48.5493 48.8163C49.0493 49.3162 49.3302 49.9944 49.3302 50.7014V56.0344C49.3302 56.3849 49.261 56.732 49.1267 57.0558C48.9924 57.3796 48.7956 57.6737 48.5475 57.9213C48.2994 58.169 48.005 58.3652 47.6809 58.4989C47.3569 58.6326 47.0097 58.7011 46.6591 58.7004H46.6642Z" fill="white"/>
<g opacity="0.7">
<g opacity="0.7">
<path opacity="0.7" d="M24.0012 54.7014H18.6682V57.3674H24.0012V54.7014Z" fill="white"/>
</g>
</g>
<g opacity="0.7">
<g opacity="0.7">
<path opacity="0.7" d="M24.0012 49.3684H18.6682V52.0344H24.0012V49.3684Z" fill="white"/>
</g>
</g>
<path d="M67.7621 17.9674C67.6644 17.8209 67.5387 17.6951 67.3922 17.5974L59.3922 12.2644C59.1914 12.1304 58.958 12.0535 58.717 12.0417C58.4759 12.03 58.2362 12.0839 58.0233 12.1978C57.8105 12.3116 57.6326 12.4811 57.5086 12.6882C57.3846 12.8952 57.3191 13.1321 57.3192 13.3734V24.0394C57.3191 24.2808 57.3846 24.5176 57.5086 24.7247C57.6326 24.9317 57.8105 25.1012 58.0233 25.2151C58.2362 25.3289 58.4759 25.3829 58.717 25.3711C58.958 25.3594 59.1914 25.2824 59.3922 25.1484L67.3922 19.8154C67.6862 19.6194 67.8904 19.3146 67.9597 18.968C68.0291 18.6215 67.9581 18.2616 67.7621 17.9674ZM59.9872 21.5484V15.8654L64.2531 18.7064L59.9872 21.5484Z" fill="url(#paint0_linear)"/>
<path d="M61.3181 6.70844C58.9448 6.70844 56.6247 7.41222 54.6513 8.7308C52.6779 10.0494 51.1398 11.9235 50.2316 14.1162C49.3233 16.3089 49.0857 18.7217 49.5487 21.0495C50.0117 23.3773 51.1546 25.5155 52.8328 27.1937C54.5111 28.8719 56.6493 30.0148 58.977 30.4779C61.3048 30.9409 63.7176 30.7032 65.9103 29.795C68.103 28.8867 69.9772 27.3487 71.2958 25.3753C72.6143 23.4019 73.3181 21.0818 73.3181 18.7084C73.3181 15.5258 72.0539 12.4736 69.8034 10.2232C67.553 7.97272 64.5007 6.70844 61.3181 6.70844ZM61.3181 28.0394C59.4724 28.0394 57.6682 27.4921 56.1336 26.4667C54.5989 25.4413 53.4028 23.9838 52.6965 22.2786C51.9902 20.5734 51.8054 18.6971 52.1655 16.8869C52.5255 15.0766 53.4143 13.4138 54.7194 12.1087C56.0245 10.8036 57.6873 9.91483 59.4975 9.55475C61.3078 9.19467 63.1841 9.37948 64.8893 10.0858C66.5945 10.7921 68.052 11.9882 69.0774 13.5229C70.1028 15.0575 70.6501 16.8617 70.6501 18.7074C70.6501 21.1824 69.6669 23.5561 67.9169 25.3062C66.1668 27.0562 63.7931 28.0394 61.3181 28.0394Z" fill="white"/>
<path d="M34.6661 24.0394H33.3331C32.9796 24.0394 32.6406 23.899 32.3906 23.649C32.1406 23.399 32.0001 23.06 32.0001 22.7064V18.7064C32.0001 17.6456 31.5787 16.6281 30.8286 15.878C30.0784 15.1278 29.061 14.7064 28.0001 14.7064C26.9393 14.7064 25.9219 15.1278 25.1717 15.878C24.4216 16.6281 24.0001 17.6456 24.0001 18.7064V22.7064C24.0001 23.06 23.8597 23.399 23.6097 23.649C23.3597 23.899 23.0207 24.0394 22.6671 24.0394C22.6671 23.6859 22.5267 23.3468 22.2767 23.0968C22.0267 22.8469 21.6877 22.7064 21.3341 22.7064H16.0012C15.6476 22.7064 15.3086 22.8469 15.0586 23.0968C14.8086 23.3468 14.6682 23.6859 14.6682 24.0394V38.7044C14.6682 39.058 14.8086 39.397 15.0586 39.647C15.3086 39.897 15.6476 40.0374 16.0012 40.0374H21.3341C21.6877 40.0374 22.0267 39.897 22.2767 39.647C22.5267 39.397 22.6671 39.058 22.6671 38.7044H34.6671C35.728 38.7044 36.7454 38.283 37.4956 37.5328C38.2457 36.7827 38.6671 35.7653 38.6671 34.7044V28.0384C38.667 27.5131 38.5634 26.993 38.3623 26.5078C38.1611 26.0225 37.8664 25.5816 37.4949 25.2103C37.1233 24.8389 36.6823 24.5444 36.197 24.3435C35.7116 24.1426 35.1914 24.0393 34.6661 24.0394ZM20.0012 37.3714H17.3341V25.3714H20.0001L20.0012 37.3714ZM36.0012 34.7054C36.0012 35.059 35.8607 35.398 35.6107 35.648C35.3607 35.898 35.0217 36.0384 34.6682 36.0384H22.6682V26.7064C23.729 26.7064 24.7464 26.285 25.4966 25.5349C26.2467 24.7847 26.6682 23.7673 26.6682 22.7064V18.7064C26.6682 18.3529 26.8086 18.0138 27.0586 17.7638C27.3086 17.5139 27.6476 17.3734 28.0012 17.3734C28.3547 17.3734 28.6937 17.5139 28.9437 17.7638C29.1937 18.0138 29.3341 18.3529 29.3341 18.7064V22.7064C29.3341 23.7673 29.7556 24.7847 30.5057 25.5349C31.2559 26.285 32.2733 26.7064 33.3341 26.7064H34.6671C35.0207 26.7064 35.3597 26.8469 35.6097 27.0968C35.8597 27.3468 36.0001 27.6859 36.0001 28.0394L36.0012 34.7054Z" fill="url(#paint1_linear)"/>
<path d="M73.4762 48.4384L72.9082 47.8674C72.253 47.2162 71.3934 46.8108 70.4741 46.7197C69.5549 46.6287 68.6323 46.8574 67.8622 47.3674L66.4212 48.3284L64.9802 47.3674C64.2102 46.8569 63.2875 46.6278 62.3681 46.7189C61.4487 46.81 60.589 47.2157 59.9342 47.8674L59.3632 48.4384C58.6136 49.1885 58.1925 50.2055 58.1925 51.2659C58.1925 52.3263 58.6136 53.3434 59.3632 54.0934L65.4772 60.2064C65.7272 60.4564 66.0662 60.5968 66.4197 60.5968C66.7732 60.5968 67.1122 60.4564 67.3622 60.2064L73.4762 54.0934C74.2257 53.3434 74.6468 52.3263 74.6468 51.2659C74.6468 50.2055 74.2257 49.1885 73.4762 48.4384ZM71.5932 52.2074L66.4221 57.3774L61.2522 52.2124C61.0022 51.9624 60.8618 51.6234 60.8618 51.2699C60.8618 50.9164 61.0022 50.5774 61.2522 50.3274L61.8212 49.7584C62.039 49.5404 62.3257 49.4047 62.6323 49.3743C62.939 49.3438 63.2467 49.4205 63.5032 49.5914L65.6832 51.0444C65.9023 51.1907 66.1597 51.2687 66.4232 51.2687C66.6866 51.2687 66.9441 51.1907 67.1632 51.0444L69.3442 49.5914C69.6003 49.4205 69.9077 49.3436 70.2141 49.3737C70.5206 49.4038 70.8071 49.539 71.0252 49.7564V49.7514L71.5932 50.3204C71.7176 50.4439 71.8164 50.5907 71.8839 50.7524C71.9515 50.9142 71.9866 51.0876 71.987 51.2629C71.9875 51.4382 71.9534 51.6118 71.8867 51.7739C71.8199 51.936 71.7219 52.0833 71.5982 52.2074H71.5932Z" fill="url(#paint2_linear)"/>
<path d="M52.0338 35.7149L50.6992 41.0474L53.2844 41.6945L54.6191 36.362L52.0338 35.7149Z" fill="white"/>
<path d="M59.3907 40.1771L54.0581 42.8434L55.2504 45.228L60.583 42.5617L59.3907 40.1771Z" fill="white"/>
<path d="M53.2776 66.3751L50.6921 67.0214L52.0252 72.3543L54.6107 71.708L53.2776 66.3751Z" fill="white"/>
<path d="M55.2494 62.8399L54.0572 65.2244L59.3897 67.8907L60.582 65.5062L55.2494 62.8399Z" fill="white"/>
<path d="M1.34015 36.0384H4.00615C4.00615 17.9474 14.7341 6.70842 32.0061 6.70842V4.04242C13.0911 4.04242 1.34015 16.3074 1.34015 36.0384Z" fill="white"/>
<defs>
<linearGradient id="paint0_linear" x1="67.9857" y1="25.3727" x2="54.9782" y2="14.9662" gradientUnits="userSpaceOnUse">
<stop stop-color="#FDC830"/>
<stop offset="1" stop-color="#F37335"/>
</linearGradient>
<linearGradient id="paint1_linear" x1="38.6671" y1="40.0374" x2="13.3731" y2="16.0734" gradientUnits="userSpaceOnUse">
<stop stop-color="#FDC830"/>
<stop offset="1" stop-color="#F37335"/>
</linearGradient>
<linearGradient id="paint2_linear" x1="74.6468" y1="60.5968" x2="60.9452" y2="44.3744" gradientUnits="userSpaceOnUse">
<stop stop-color="#FDC830"/>
<stop offset="1" stop-color="#F37335"/>
</linearGradient>
</defs>
</svg>
