<svg width="70" height="70" viewBox="0 0 70 70" fill="none" xmlns="http://www.w3.org/2000/svg">
<g clip-path="url(#clip0)">
<path d="M57.9318 8.59822C57.9318 6.59869 56.3106 4.97749 54.311 4.97749H50.6903C50.6903 2.97795 49.0691 1.35675 47.0696 1.35675C45.07 1.35675 43.4488 2.97795 43.4488 4.97749H38.6212C38.6212 2.97795 37 1.35675 35.0004 1.35675C33.0009 1.35675 31.3797 2.97795 31.3797 4.97749H26.5521C26.5521 2.97795 24.9309 1.35675 22.9313 1.35675C20.9318 1.35675 19.3106 2.97795 19.3106 4.97749H14.4829C14.4829 2.97795 12.8617 1.35675 10.8622 1.35675C8.86267 1.35675 7.24147 2.97795 7.24147 4.97749H3.62074C1.6212 4.97749 0 6.59869 0 8.59822V59.2885C0 59.955 0.540399 60.4954 1.20691 60.4954H4.82765V64.1162C4.82765 64.7827 5.36805 65.3231 6.03456 65.3231H37.8162C37.8321 65.3231 37.8439 65.3148 37.8586 65.3148C44.2509 69.7235 52.5855 70.1425 59.388 66.3962C66.1904 62.6506 70.292 55.3826 69.9838 47.6237C69.6756 39.8642 65.01 32.9451 57.9318 29.7504V8.59822ZM45.8627 4.97749C45.8627 4.31097 46.4031 3.77057 47.0696 3.77057C47.7361 3.77057 48.2765 4.31097 48.2765 4.97749V8.59822H45.8627V4.97749ZM33.7935 4.97749C33.7935 4.31097 34.3339 3.77057 35.0004 3.77057C35.667 3.77057 36.2074 4.31097 36.2074 4.97749V8.59822H33.7935V4.97749ZM21.7244 4.97749C21.7244 4.31097 22.2648 3.77057 22.9313 3.77057C23.5978 3.77057 24.1382 4.31097 24.1382 4.97749V8.59822H21.7244V4.97749ZM9.6553 4.97749C9.6553 4.31097 10.1957 3.77057 10.8622 3.77057C11.5287 3.77057 12.0691 4.31097 12.0691 4.97749V8.59822H9.6553V4.97749ZM2.41382 8.59822C2.41382 7.93171 2.95422 7.39131 3.62074 7.39131H7.24147V9.80514C7.24147 10.4716 7.78187 11.012 8.44838 11.012H13.276C13.9425 11.012 14.4829 10.4716 14.4829 9.80514V7.39131H19.3106V9.80514C19.3106 10.4716 19.851 11.012 20.5175 11.012H25.3451C26.0117 11.012 26.5521 10.4716 26.5521 9.80514V7.39131H31.3797V9.80514C31.3797 10.4716 31.9201 11.012 32.5866 11.012H37.4143C38.0808 11.012 38.6212 10.4716 38.6212 9.80514V7.39131H43.4488V9.80514C43.4488 10.4716 43.9892 11.012 44.6557 11.012H49.4834C50.1499 11.012 50.6903 10.4716 50.6903 9.80514V7.39131H54.311C54.9776 7.39131 55.5179 7.93171 55.5179 8.59822V14.6328H2.41382V8.59822ZM7.24147 60.4954H32.9284C33.5443 61.3511 34.2255 62.1579 34.9657 62.9093H7.24147V60.4954ZM67.5871 48.4263C67.5871 58.4246 59.4817 66.53 49.4834 66.53C39.4851 66.53 31.3797 58.4246 31.3797 48.4263C31.3797 38.428 39.4851 30.3226 49.4834 30.3226C59.4769 30.3338 67.5759 38.4328 67.5871 48.4263ZM49.4834 27.9088C42.2743 27.9041 35.5927 31.6851 31.8853 37.8676C28.178 44.0495 27.9894 51.7253 31.3891 58.0816H2.41382V17.0466H55.5179V28.8175C53.5632 28.2147 51.5289 27.9082 49.4834 27.9088Z" fill="white"/>
<path d="M10.8629 41.1848C8.86339 41.1848 7.24219 42.806 7.24219 44.8056C7.24219 46.8051 8.86339 48.4263 10.8629 48.4263C12.8625 48.4263 14.4837 46.8051 14.4837 44.8056C14.4837 42.806 12.8625 41.1848 10.8629 41.1848ZM10.8629 46.0125C10.1964 46.0125 9.65601 45.4721 9.65601 44.8056C9.65601 44.1391 10.1964 43.5987 10.8629 43.5987C11.5294 43.5987 12.0698 44.1391 12.0698 44.8056C12.0698 45.4721 11.5294 46.0125 10.8629 46.0125Z" fill="white"/>
<path d="M22.9313 31.5295C20.9317 31.5295 19.3105 33.1507 19.3105 35.1503C19.3105 37.1498 20.9317 38.771 22.9313 38.771C24.9308 38.771 26.552 37.1498 26.552 35.1503C26.552 33.1507 24.9308 31.5295 22.9313 31.5295ZM22.9313 36.3572C22.2648 36.3572 21.7244 35.8168 21.7244 35.1503C21.7244 34.4838 22.2648 33.9434 22.9313 33.9434C23.5978 33.9434 24.1382 34.4838 24.1382 35.1503C24.1382 35.8168 23.5978 36.3572 22.9313 36.3572Z" fill="white"/>
<path fill-rule="evenodd" clip-rule="evenodd" d="M33.793 48.4263C33.793 57.0916 40.8176 64.1162 49.4828 64.1162C58.1481 64.1162 65.1727 57.0916 65.1727 48.4263C65.1727 39.7611 58.1481 32.7365 49.4828 32.7365C40.8217 32.7465 33.803 39.7652 33.793 48.4263ZM62.7589 48.4263H60.345C59.6785 48.4263 59.1381 48.9667 59.1381 49.6332C59.1381 50.2997 59.6785 50.8401 60.345 50.8401H62.5284C61.44 56.682 56.6064 61.0918 50.6897 61.6411V59.2885C50.6897 58.622 50.1493 58.0816 49.4828 58.0816C48.8163 58.0816 48.2759 58.622 48.2759 59.2885V61.6411C42.3592 61.0918 37.5257 56.682 36.4372 50.8401H38.6206C39.2871 50.8401 39.8275 50.2997 39.8275 49.6332C39.8275 48.9667 39.2871 48.4263 38.6206 48.4263H36.2068C36.2156 41.5667 41.4452 35.8409 48.2759 35.2122V37.5641C48.2759 38.2306 48.8163 38.771 49.4828 38.771C50.1493 38.771 50.6897 38.2306 50.6897 37.5641V35.2122C57.5205 35.8409 62.75 41.5667 62.7589 48.4263ZM22.9313 41.1848C20.9317 41.1848 19.3105 42.806 19.3105 44.8056C19.3105 46.8051 20.9317 48.4263 22.9313 48.4263C24.9308 48.4263 26.552 46.8051 26.552 44.8056C26.552 42.806 24.9308 41.1848 22.9313 41.1848ZM22.9313 46.0125C22.2648 46.0125 21.7244 45.4721 21.7244 44.8056C21.7244 44.1391 22.2648 43.5987 22.9313 43.5987C23.5978 43.5987 24.1382 44.1391 24.1382 44.8056C24.1382 45.4721 23.5978 46.0125 22.9313 46.0125ZM48.0738 45.343L49.7428 47.847L55.9523 42.6705C56.465 42.2438 57.2264 42.3139 57.6531 42.8266C58.0798 43.3388 58.0102 44.1002 57.4975 44.5268L50.2561 50.5614C50.0392 50.7417 49.7657 50.8407 49.4835 50.8401C49.4251 50.8407 49.3674 50.836 49.3096 50.8272C48.9714 50.7777 48.6696 50.5873 48.4793 50.3033L46.0655 46.6825C45.6954 46.128 45.8451 45.3784 46.3996 45.0083C46.9541 44.6388 47.7037 44.7885 48.0738 45.343Z" fill="white"/>
<path fill-rule="evenodd" clip-rule="evenodd" d="M33.793 48.4263C33.793 57.0916 40.8176 64.1162 49.4828 64.1162C58.1481 64.1162 65.1727 57.0916 65.1727 48.4263C65.1727 39.7611 58.1481 32.7365 49.4828 32.7365C40.8217 32.7465 33.803 39.7652 33.793 48.4263ZM62.7589 48.4263H60.345C59.6785 48.4263 59.1381 48.9667 59.1381 49.6332C59.1381 50.2997 59.6785 50.8401 60.345 50.8401H62.5284C61.44 56.682 56.6064 61.0918 50.6897 61.6411V59.2885C50.6897 58.622 50.1493 58.0816 49.4828 58.0816C48.8163 58.0816 48.2759 58.622 48.2759 59.2885V61.6411C42.3592 61.0918 37.5257 56.682 36.4372 50.8401H38.6206C39.2871 50.8401 39.8275 50.2997 39.8275 49.6332C39.8275 48.9667 39.2871 48.4263 38.6206 48.4263H36.2068C36.2156 41.5667 41.4452 35.8409 48.2759 35.2122V37.5641C48.2759 38.2306 48.8163 38.771 49.4828 38.771C50.1493 38.771 50.6897 38.2306 50.6897 37.5641V35.2122C57.5205 35.8409 62.75 41.5667 62.7589 48.4263ZM22.9313 41.1848C20.9317 41.1848 19.3105 42.806 19.3105 44.8056C19.3105 46.8051 20.9317 48.4263 22.9313 48.4263C24.9308 48.4263 26.552 46.8051 26.552 44.8056C26.552 42.806 24.9308 41.1848 22.9313 41.1848ZM22.9313 46.0125C22.2648 46.0125 21.7244 45.4721 21.7244 44.8056C21.7244 44.1391 22.2648 43.5987 22.9313 43.5987C23.5978 43.5987 24.1382 44.1391 24.1382 44.8056C24.1382 45.4721 23.5978 46.0125 22.9313 46.0125ZM48.0738 45.343L49.7428 47.847L55.9523 42.6705C56.465 42.2438 57.2264 42.3139 57.6531 42.8266C58.0798 43.3388 58.0102 44.1002 57.4975 44.5268L50.2561 50.5614C50.0392 50.7417 49.7657 50.8407 49.4835 50.8401C49.4251 50.8407 49.3674 50.836 49.3096 50.8272C48.9714 50.7777 48.6696 50.5873 48.4793 50.3033L46.0655 46.6825C45.6954 46.128 45.8451 45.3784 46.3996 45.0083C46.9541 44.6388 47.7037 44.7885 48.0738 45.343Z" fill="url(#paint0_linear)"/>
<path d="M10.8629 31.5295C8.86339 31.5295 7.24219 33.1507 7.24219 35.1503C7.24219 37.1498 8.86339 38.771 10.8629 38.771C12.8625 38.771 14.4837 37.1498 14.4837 35.1503C14.4837 33.1507 12.8625 31.5295 10.8629 31.5295ZM10.8629 36.3572C10.1964 36.3572 9.65601 35.8168 9.65601 35.1503C9.65601 34.4838 10.1964 33.9434 10.8629 33.9434C11.5294 33.9434 12.0698 34.4838 12.0698 35.1503C12.0698 35.8168 11.5294 36.3572 10.8629 36.3572Z" fill="white"/>
<path d="M34.9996 21.8742C33.0001 21.8742 31.3789 23.4954 31.3789 25.495C31.3789 27.4945 33.0001 29.1157 34.9996 29.1157C36.9992 29.1157 38.6204 27.4945 38.6204 25.495C38.6204 23.4954 36.9992 21.8742 34.9996 21.8742ZM34.9996 26.7019C34.3331 26.7019 33.7927 26.1615 33.7927 25.495C33.7927 24.8285 34.3331 24.2881 34.9996 24.2881C35.6662 24.2881 36.2066 24.8285 36.2066 25.495C36.2066 26.1615 35.6662 26.7019 34.9996 26.7019Z" fill="white"/>
<path d="M22.9313 21.8742C20.9317 21.8742 19.3105 23.4954 19.3105 25.495C19.3105 27.4945 20.9317 29.1157 22.9313 29.1157C24.9308 29.1157 26.552 27.4945 26.552 25.495C26.552 23.4954 24.9308 21.8742 22.9313 21.8742ZM22.9313 26.7019C22.2648 26.7019 21.7244 26.1615 21.7244 25.495C21.7244 24.8285 22.2648 24.2881 22.9313 24.2881C23.5978 24.2881 24.1382 24.8285 24.1382 25.495C24.1382 26.1615 23.5978 26.7019 22.9313 26.7019Z" fill="white"/>
<path d="M10.8629 21.8742C8.86339 21.8742 7.24219 23.4954 7.24219 25.495C7.24219 27.4945 8.86339 29.1157 10.8629 29.1157C12.8625 29.1157 14.4837 27.4945 14.4837 25.495C14.4837 23.4954 12.8625 21.8742 10.8629 21.8742ZM10.8629 26.7019C10.1964 26.7019 9.65601 26.1615 9.65601 25.495C9.65601 24.8285 10.1964 24.2881 10.8629 24.2881C11.5294 24.2881 12.0698 24.8285 12.0698 25.495C12.0698 26.1615 11.5294 26.7019 10.8629 26.7019Z" fill="white"/>
</g>
<defs>
<linearGradient id="paint0_linear" x1="60.8622" y1="72.721" x2="27.5563" y2="35.7087" gradientUnits="userSpaceOnUse">
<stop stop-color="#FDC830"/>
<stop offset="0.1884" stop-color="#FCC230"/>
<stop offset="0.4334" stop-color="#FAB231"/>
<stop offset="0.7096" stop-color="#F79733"/>
<stop offset="1" stop-color="#F37335"/>
</linearGradient>
<clipPath id="clip0">
<rect width="70" height="70" fill="white"/>
</clipPath>
</defs>
</svg>
