<svg width="42" height="42" viewBox="0 0 42 42" fill="none" xmlns="http://www.w3.org/2000/svg">
<path d="M32.8126 12.4688H21C20.5469 12.4688 20.1797 12.836 20.1797 13.2891C20.1797 13.7421 20.5469 14.1094 21 14.1094H32.8126C33.2657 14.1094 33.6329 13.7421 33.6329 13.2891C33.6329 12.836 33.2657 12.4688 32.8126 12.4688Z" fill="white"/>
<path d="M21.578 3.76769C21.4254 3.61512 21.2138 3.52734 20.998 3.52734C20.7823 3.52734 20.5707 3.61512 20.4181 3.76769C20.2655 3.92027 20.1777 4.13191 20.1777 4.34765C20.1777 4.5634 20.2655 4.77504 20.4181 4.92761C20.5707 5.08019 20.7823 5.16797 20.998 5.16797C21.2138 5.16797 21.4254 5.08019 21.578 4.92761C21.7306 4.77504 21.8184 4.5634 21.8184 4.34765C21.8184 4.13191 21.7306 3.92027 21.578 3.76769Z" fill="white"/>
<path d="M25.9118 16.4062H21C20.5469 16.4062 20.1797 16.7735 20.1797 17.2266C20.1797 17.6796 20.5469 18.0469 21 18.0469H25.9118C26.3648 18.0469 26.7321 17.6796 26.7321 17.2266C26.7321 16.7735 26.3648 16.4062 25.9118 16.4062Z" fill="white"/>
<path d="M32.8126 21.3281H21C20.5469 21.3281 20.1797 21.6954 20.1797 22.1484C20.1797 22.6015 20.5469 22.9687 21 22.9687H32.8126C33.2657 22.9687 33.6329 22.6015 33.6329 22.1484C33.6329 21.6954 33.2657 21.3281 32.8126 21.3281Z" fill="white"/>
<path d="M25.9118 25.2656H21C20.5469 25.2656 20.1797 25.6329 20.1797 26.0859C20.1797 26.539 20.5469 26.9062 21 26.9062H25.9118C26.3648 26.9062 26.7321 26.539 26.7321 26.0859C26.7321 25.6329 26.3648 25.2656 25.9118 25.2656Z" fill="white"/>
<path d="M32.8126 30.1875H21C20.5469 30.1875 20.1797 30.5548 20.1797 31.0078C20.1797 31.4609 20.5469 31.8281 21 31.8281H32.8126C33.2657 31.8281 33.6329 31.4609 33.6329 31.0078C33.6329 30.5548 33.2657 30.1875 32.8126 30.1875Z" fill="white"/>
<path d="M25.9118 34.125H21C20.5469 34.125 20.1797 34.4923 20.1797 34.9453C20.1797 35.3984 20.5469 35.7656 21 35.7656H25.9118C26.3648 35.7656 26.7321 35.3984 26.7321 34.9453C26.7321 34.4923 26.3648 34.125 25.9118 34.125Z" fill="white"/>
<path d="M34.3909 3.19929H28.1254C27.2197 2.33625 25.9954 1.80468 24.6485 1.80468H23.93C23.3806 0.717116 22.2519 0 20.9999 0C19.7478 0 18.6193 0.717116 18.0698 1.80468H17.3495C16.0026 1.80468 14.7784 2.33625 13.8727 3.19929H7.60905C5.40364 3.19929 3.60938 4.99356 3.60938 7.19897V38.0003C3.60938 40.2057 5.40364 42 7.60905 42H34.3908C36.5962 42 38.3905 40.2057 38.3905 38.0003V7.19897C38.3906 4.99356 36.5963 3.19929 34.3909 3.19929ZM17.3496 3.44531H18.6281C18.9971 3.44531 19.3206 3.19897 19.4188 2.84336C19.6145 2.13519 20.2646 1.64062 21 1.64062C21.7353 1.64062 22.3855 2.13519 22.581 2.84336C22.6792 3.19897 23.0028 3.44531 23.3717 3.44531H24.6485C26.429 3.44531 27.8946 4.81933 28.0409 6.56257H13.9573C14.1035 4.81933 15.5692 3.44531 17.3496 3.44531ZM36.7499 38.0004C36.7499 39.3012 35.6917 40.3595 34.3909 40.3595H7.60905C6.30828 40.3595 5.25 39.3012 5.25 38.0004V7.19897C5.25 5.8982 6.30828 4.83992 7.60905 4.83992H12.7234C12.4547 5.45613 12.3047 6.13552 12.3047 6.84968V7.38288C12.3047 7.83594 12.6719 8.20319 13.125 8.20319H28.8732C29.3263 8.20319 29.6935 7.83594 29.6935 7.38288V6.84968C29.6935 6.1356 29.5435 5.45613 29.2748 4.83992H34.3909C35.6917 4.83992 36.7499 5.8982 36.7499 7.19897V38.0004Z" fill="white"/>
<path fill-rule="evenodd" clip-rule="evenodd" d="M14.6236 12.2719C14.9439 11.9517 15.4633 11.9517 15.7837 12.272C16.104 12.5924 16.104 13.1118 15.7837 13.4322L11.6958 17.52C11.5357 17.6802 11.3257 17.7603 11.1158 17.7603C10.9059 17.7603 10.6959 17.6802 10.5357 17.52L8.87501 15.8593C8.55468 15.5389 8.55468 15.0195 8.87501 14.6991C9.19543 14.3789 9.71485 14.3789 10.0352 14.6991L11.1158 15.7798L14.6236 12.2719ZM29.363 16.4063C29.5788 16.4063 29.7904 16.4941 29.943 16.6467C30.0956 16.7992 30.1833 17.0109 30.1833 17.2266C30.1833 17.4424 30.0956 17.654 29.943 17.8066C29.7904 17.9592 29.5788 18.0469 29.363 18.0469C29.1473 18.0469 28.9357 17.9592 28.7831 17.8066C28.6305 17.654 28.5427 17.4424 28.5427 17.2266C28.5427 17.0109 28.6305 16.7992 28.7831 16.6467C28.9357 16.4941 29.1473 16.4063 29.363 16.4063ZM29.363 25.2657C29.5788 25.2657 29.7904 25.3535 29.943 25.506C30.0956 25.6586 30.1833 25.8703 30.1833 26.086C30.1833 26.3017 30.0956 26.5134 29.943 26.666C29.7904 26.8185 29.5788 26.9063 29.363 26.9063C29.1473 26.9063 28.9357 26.8185 28.7831 26.666C28.6305 26.5134 28.5427 26.3017 28.5427 26.086C28.5427 25.8703 28.6305 25.6586 28.7831 25.506C28.9357 25.3535 29.1473 25.2657 29.363 25.2657ZM29.943 34.3654C29.7904 34.2128 29.5788 34.1251 29.363 34.1251C29.1473 34.1251 28.9357 34.2128 28.7831 34.3654C28.6305 34.518 28.5427 34.7296 28.5427 34.9454C28.5427 35.1611 28.6305 35.3728 28.7831 35.5253C28.9357 35.6779 29.1473 35.7657 29.363 35.7657C29.5788 35.7657 29.7904 35.6779 29.943 35.5253C30.0956 35.3728 30.1833 35.1611 30.1833 34.9454C30.1833 34.7296 30.0956 34.518 29.943 34.3654ZM13.7822 30.1876H9.84473C9.39167 30.1876 9.02441 30.5548 9.02441 31.0079V34.9454C9.02441 35.3984 9.39167 35.7657 9.84473 35.7657H13.7822C14.2353 35.7657 14.6025 35.3984 14.6025 34.9454V31.0079C14.6025 30.5548 14.2353 30.1876 13.7822 30.1876ZM12.9619 34.1251H10.665V31.8282H12.9619V34.1251ZM9.84473 21.3282H13.7822C14.2353 21.3282 14.6025 21.6954 14.6025 22.1485V26.086C14.6025 26.539 14.2353 26.9063 13.7822 26.9063H9.84473C9.39167 26.9063 9.02441 26.539 9.02441 26.086V22.1485C9.02441 21.6954 9.39167 21.3282 9.84473 21.3282ZM10.665 25.2657H12.9619V22.9688H10.665V25.2657Z" fill="white"/>
<path fill-rule="evenodd" clip-rule="evenodd" d="M14.6236 12.2719C14.9439 11.9517 15.4633 11.9517 15.7837 12.272C16.104 12.5924 16.104 13.1118 15.7837 13.4322L11.6958 17.52C11.5357 17.6802 11.3257 17.7603 11.1158 17.7603C10.9059 17.7603 10.6959 17.6802 10.5357 17.52L8.87501 15.8593C8.55468 15.5389 8.55468 15.0195 8.87501 14.6991C9.19543 14.3789 9.71485 14.3789 10.0352 14.6991L11.1158 15.7798L14.6236 12.2719ZM29.363 16.4063C29.5788 16.4063 29.7904 16.4941 29.943 16.6467C30.0956 16.7992 30.1833 17.0109 30.1833 17.2266C30.1833 17.4424 30.0956 17.654 29.943 17.8066C29.7904 17.9592 29.5788 18.0469 29.363 18.0469C29.1473 18.0469 28.9357 17.9592 28.7831 17.8066C28.6305 17.654 28.5427 17.4424 28.5427 17.2266C28.5427 17.0109 28.6305 16.7992 28.7831 16.6467C28.9357 16.4941 29.1473 16.4063 29.363 16.4063ZM29.363 25.2657C29.5788 25.2657 29.7904 25.3535 29.943 25.506C30.0956 25.6586 30.1833 25.8703 30.1833 26.086C30.1833 26.3017 30.0956 26.5134 29.943 26.666C29.7904 26.8185 29.5788 26.9063 29.363 26.9063C29.1473 26.9063 28.9357 26.8185 28.7831 26.666C28.6305 26.5134 28.5427 26.3017 28.5427 26.086C28.5427 25.8703 28.6305 25.6586 28.7831 25.506C28.9357 25.3535 29.1473 25.2657 29.363 25.2657ZM29.943 34.3654C29.7904 34.2128 29.5788 34.1251 29.363 34.1251C29.1473 34.1251 28.9357 34.2128 28.7831 34.3654C28.6305 34.518 28.5427 34.7296 28.5427 34.9454C28.5427 35.1611 28.6305 35.3728 28.7831 35.5253C28.9357 35.6779 29.1473 35.7657 29.363 35.7657C29.5788 35.7657 29.7904 35.6779 29.943 35.5253C30.0956 35.3728 30.1833 35.1611 30.1833 34.9454C30.1833 34.7296 30.0956 34.518 29.943 34.3654ZM13.7822 30.1876H9.84473C9.39167 30.1876 9.02441 30.5548 9.02441 31.0079V34.9454C9.02441 35.3984 9.39167 35.7657 9.84473 35.7657H13.7822C14.2353 35.7657 14.6025 35.3984 14.6025 34.9454V31.0079C14.6025 30.5548 14.2353 30.1876 13.7822 30.1876ZM12.9619 34.1251H10.665V31.8282H12.9619V34.1251ZM9.84473 21.3282H13.7822C14.2353 21.3282 14.6025 21.6954 14.6025 22.1485V26.086C14.6025 26.539 14.2353 26.9063 13.7822 26.9063H9.84473C9.39167 26.9063 9.02441 26.539 9.02441 26.086V22.1485C9.02441 21.6954 9.39167 21.3282 9.84473 21.3282ZM10.665 25.2657H12.9619V22.9688H10.665V25.2657Z" fill="url(#paint0_linear)"/>
<defs>
<linearGradient id="paint0_linear" x1="8.63477" y1="12.0317" x2="31.0158" y2="12.8445" gradientUnits="userSpaceOnUse">
<stop stop-color="#F37535"/>
<stop offset="1" stop-color="#FDC630"/>
</linearGradient>
</defs>
</svg>
