<svg width="50" height="50" viewBox="0 0 50 50" fill="none" xmlns="http://www.w3.org/2000/svg">
<g clip-path="url(#clip0)">
<path d="M45.8984 35.7695C45.8984 34.6645 45.4205 33.6692 44.6608 32.9795C45.4206 32.2904 45.8984 31.2958 45.8984 30.1916C45.8984 28.1146 44.2101 26.4248 42.1348 26.4248H30.211C31.2815 23.5132 32.5246 18.6177 30.3939 15.3719C29.6076 14.1747 28.906 13.4471 27.6138 12.4888C27.2245 12.1997 26.3133 11.5226 25.3858 11.9048C24.4965 12.2714 24.2289 13.335 24.0954 14.2194L24.088 14.268C23.8294 15.9681 23.348 19.1326 22.2025 21.8312C20.8904 24.9223 19.1729 26.4249 16.9515 26.4249H14.9104C14.6649 24.8573 13.3046 23.6539 11.668 23.6539H7.38086C5.57266 23.6539 4.10156 25.1251 4.10156 26.9335V32.085C4.10156 32.6244 4.53877 33.0616 5.07812 33.0616C5.61748 33.0616 6.05469 32.6244 6.05469 32.085V26.9335C6.05469 26.2021 6.64961 25.607 7.38086 25.607H11.668C12.4008 25.607 12.9969 26.2021 12.9969 26.9335V46.0061C12.9969 46.7375 12.4008 47.3326 11.668 47.3326H7.38086C6.64961 47.3326 6.05469 46.7374 6.05469 46.0061V40.8545C6.05469 40.3152 5.61748 39.878 5.07812 39.878C4.53877 39.878 4.10156 40.3152 4.10156 40.8545V46.0061C4.10156 47.8145 5.57266 49.2857 7.38086 49.2857H11.668C13.3046 49.2857 14.6649 48.0825 14.9104 46.5148C14.9104 46.5148 17.8874 46.5143 18.097 46.5297C18.1103 46.5531 18.1238 46.5771 18.1364 46.5994C18.258 46.8147 18.4417 47.1402 18.7629 47.5682C19.8866 49.0702 22.6152 49.9999 24.4989 49.9999H39.8403H39.987C41.8716 49.9999 43.4047 48.4653 43.4047 46.5791C43.4047 46.0126 43.2654 45.4786 43.0206 45.0077C44.6697 44.6079 45.8984 43.1189 45.8984 41.3473C45.8984 40.2431 45.4205 39.2486 44.6608 38.5594C45.4205 37.8698 45.8984 36.8745 45.8984 35.7695ZM31.1188 48.0468H24.499C22.9885 48.0468 20.9608 47.2457 20.326 46.3971C20.0803 46.0696 19.9456 45.8311 19.8374 45.6394C19.2285 44.5607 18.7285 44.5593 17.0783 44.5617H14.9502V28.3779H16.9517C20 28.3779 22.3716 26.432 24.0006 22.5942C25.2421 19.6692 25.7475 16.3466 26.0189 14.5616L26.0266 14.5119C26.0729 14.205 26.1229 13.9978 26.1653 13.8607C26.2392 13.9068 26.3328 13.9701 26.4498 14.057C27.5613 14.8813 28.1015 15.439 28.7614 16.4438C30.5946 19.2365 28.9909 24.1822 28.2165 26.1782C28.1237 26.4167 27.8415 27.1427 28.2681 27.7663C28.6864 28.3779 29.4406 28.3779 29.6885 28.3779H30.8665C30.5696 28.9163 30.4003 29.5344 30.4003 30.1915C30.4003 31.306 30.8875 32.3083 31.6596 32.9982C30.9116 33.6871 30.4419 34.6743 30.4419 35.7694C30.4419 36.8744 30.9198 37.8697 31.6795 38.5593C30.9198 39.2485 30.4419 40.243 30.4419 41.3472C30.4419 42.4874 30.9514 43.51 31.7535 44.2014C31.1564 44.8171 30.7878 45.6556 30.7878 46.5791C30.7877 47.1041 30.9067 47.6018 31.1188 48.0468ZM39.9871 48.0468H34.2054C33.3978 48.0468 32.7408 47.3884 32.7408 46.5792C32.7408 45.7713 33.3979 45.1142 34.2054 45.1142H39.9871C40.7947 45.1142 41.4517 45.7713 41.4517 46.5792C41.4517 47.3884 40.7946 48.0468 39.9871 48.0468ZM42.1348 43.161H39.9871H34.2054C33.207 43.161 32.3949 42.3473 32.3949 41.3473C32.3949 40.3487 33.207 39.5364 34.2054 39.5364H42.1348C43.1331 39.5364 43.9453 40.3488 43.9453 41.3473C43.9453 42.3474 43.1331 43.161 42.1348 43.161ZM42.1348 37.5832H34.2054C33.207 37.5832 32.3949 36.7696 32.3949 35.7695C32.3949 34.7694 33.207 33.9557 34.2054 33.9557H42.1348C43.1331 33.9557 43.9453 34.7694 43.9453 35.7695C43.9453 36.7696 43.1331 37.5832 42.1348 37.5832ZM42.1348 32.0026H34.1639C33.1655 32.0026 32.3533 31.1902 32.3533 30.1916C32.3533 29.1915 33.1655 28.378 34.1639 28.378H42.1348C43.1331 28.378 43.9453 29.1916 43.9453 30.1916C43.9453 31.1902 43.1331 32.0026 42.1348 32.0026Z" fill="white"/>
<path fill-rule="evenodd" clip-rule="evenodd" d="M27.5762 6.47139C27.5762 7.01074 27.1389 7.44795 26.5996 7.44795C26.0603 7.44795 25.623 7.01074 25.623 6.47139V0.976562C25.623 0.437207 26.0604 0 26.5996 0C27.1389 0 27.5762 0.437207 27.5762 0.976562V6.47139ZM24.4338 31.1771C24.3606 30.6427 24.7342 30.1501 25.2686 30.0768C25.8036 30.0035 26.2955 30.3773 26.3688 30.9116C26.6483 32.949 26.2247 34.7729 25.1441 36.1864C23.8936 37.8218 21.8656 38.8317 19.1168 39.1878C19.0742 39.1934 19.0318 39.196 18.99 39.196C18.5066 39.196 18.0866 38.8372 18.0229 38.3449C17.9535 37.81 18.331 37.3202 18.8658 37.2509C21.0795 36.9641 22.6697 36.2068 23.5925 35C24.3501 34.0092 24.641 32.6872 24.4338 31.1771ZM33.6541 9.56048C33.8202 9.67074 34.0078 9.72347 34.1933 9.72347C34.5095 9.72347 34.8198 9.57005 35.0078 9.28685L38.0357 4.72493C38.3339 4.27552 38.2115 3.66947 37.762 3.37122C37.3127 3.07308 36.7065 3.19544 36.4083 3.64486L33.3805 8.20677C33.0823 8.65619 33.2048 9.26224 33.6541 9.56048ZM19.0063 9.72338C18.6902 9.72338 18.38 9.57016 18.1919 9.28715L15.1613 4.72524C14.8628 4.27602 14.9851 3.66987 15.4343 3.37143C15.8836 3.07289 16.4896 3.19516 16.7881 3.64448L19.8188 8.20639C20.1172 8.65561 19.995 9.26176 19.5458 9.5602C19.3795 9.67055 19.1919 9.72338 19.0063 9.72338Z" fill="white"/>
<path fill-rule="evenodd" clip-rule="evenodd" d="M27.5762 6.47139C27.5762 7.01074 27.1389 7.44795 26.5996 7.44795C26.0603 7.44795 25.623 7.01074 25.623 6.47139V0.976562C25.623 0.437207 26.0604 0 26.5996 0C27.1389 0 27.5762 0.437207 27.5762 0.976562V6.47139ZM24.4338 31.1771C24.3606 30.6427 24.7342 30.1501 25.2686 30.0768C25.8036 30.0035 26.2955 30.3773 26.3688 30.9116C26.6483 32.949 26.2247 34.7729 25.1441 36.1864C23.8936 37.8218 21.8656 38.8317 19.1168 39.1878C19.0742 39.1934 19.0318 39.196 18.99 39.196C18.5066 39.196 18.0866 38.8372 18.0229 38.3449C17.9535 37.81 18.331 37.3202 18.8658 37.2509C21.0795 36.9641 22.6697 36.2068 23.5925 35C24.3501 34.0092 24.641 32.6872 24.4338 31.1771ZM33.6541 9.56048C33.8202 9.67074 34.0078 9.72347 34.1933 9.72347C34.5095 9.72347 34.8198 9.57005 35.0078 9.28685L38.0357 4.72493C38.3339 4.27552 38.2115 3.66947 37.762 3.37122C37.3127 3.07308 36.7065 3.19544 36.4083 3.64486L33.3805 8.20677C33.0823 8.65619 33.2048 9.26224 33.6541 9.56048ZM19.0063 9.72338C18.6902 9.72338 18.38 9.57016 18.1919 9.28715L15.1613 4.72524C14.8628 4.27602 14.9851 3.66987 15.4343 3.37143C15.8836 3.07289 16.4896 3.19516 16.7881 3.64448L19.8188 8.20639C20.1172 8.65561 19.995 9.26176 19.5458 9.5602C19.3795 9.67055 19.1919 9.72338 19.0063 9.72338Z" fill="url(#paint0_linear)"/>
<path d="M5.07812 37.4491C5.61748 37.4491 6.05469 37.0092 6.05469 36.4698C6.05469 35.9305 5.61748 35.4933 5.07812 35.4933C4.53877 35.4933 4.10156 35.9305 4.10156 36.4698V36.4754C4.10156 37.0148 4.53877 37.4491 5.07812 37.4491Z" fill="white"/>
</g>
<defs>
<linearGradient id="paint0_linear" x1="14.998" y1="0" x2="39.1132" y2="0.570963" gradientUnits="userSpaceOnUse">
<stop stop-color="#F37535"/>
<stop offset="1" stop-color="#FDC630"/>
</linearGradient>
<clipPath id="clip0">
<rect width="50" height="50" fill="white"/>
</clipPath>
</defs>
</svg>
