<svg width="50" height="50" viewBox="0 0 50 50" fill="none" xmlns="http://www.w3.org/2000/svg">
<path d="M5 3.33333V11.6667H6.66667V3.33333C6.66667 2.41271 7.41271 1.66667 8.33333 1.66667H41.6667C42.5873 1.66667 43.3333 2.41271 43.3333 3.33333H45C45 1.4925 43.5075 0 41.6667 0H8.33333C6.4925 0 5 1.4925 5 3.33333Z" fill="white"/>
<path d="M3.33333 50H41.6667C43.5075 50 45 48.5075 45 46.6667V43.3333H43.3333V46.6667C43.3333 47.5873 42.5873 48.3333 41.6667 48.3333C40.746 48.3333 40 47.5873 40 46.6667V44.1666C40 43.7062 39.6271 43.3333 39.1667 43.3333H6.66667V26.6666H5V43.3333H0.833333C0.372917 43.3333 0 43.7062 0 44.1666V46.6667C0 48.5075 1.4925 50 3.33333 50ZM1.66667 45H38.3333V46.6667C38.3329 47.2523 38.4867 47.8271 38.781 48.3333H3.33333C2.41271 48.3333 1.66667 47.5873 1.66667 46.6667V45Z" fill="white"/>
<path fill-rule="evenodd" clip-rule="evenodd" d="M17.5 24.9999H0.833333C0.372917 24.9999 0 24.627 0 24.1666V14.1666C0 13.7062 0.372917 13.3333 0.833333 13.3333H17.5C17.9604 13.3333 18.3333 13.7062 18.3333 14.1666V24.1666C18.3333 24.627 17.9604 24.9999 17.5 24.9999ZM16.6667 14.9999H1.66667V23.3333H16.6667V14.9999ZM3.57752 18.5776L5.24419 16.9109L6.42252 18.0892L5.34502 19.1667L6.42252 20.2442L5.24419 21.4226L3.57752 19.7559C3.25232 19.4303 3.25232 18.9032 3.57752 18.5776ZM13.0892 16.9109L11.9109 18.0892L12.9884 19.1667L11.9109 20.2442L13.0892 21.4226L14.7559 19.7559C15.0811 19.4303 15.0811 18.9032 14.7559 18.5776L13.0892 16.9109ZM9.20961 16.4025L7.54211 21.4031L9.12295 21.9302L10.7913 16.93L9.20961 16.4025Z" fill="white"/>
<path fill-rule="evenodd" clip-rule="evenodd" d="M17.5 24.9999H0.833333C0.372917 24.9999 0 24.627 0 24.1666V14.1666C0 13.7062 0.372917 13.3333 0.833333 13.3333H17.5C17.9604 13.3333 18.3333 13.7062 18.3333 14.1666V24.1666C18.3333 24.627 17.9604 24.9999 17.5 24.9999ZM16.6667 14.9999H1.66667V23.3333H16.6667V14.9999ZM3.57752 18.5776L5.24419 16.9109L6.42252 18.0892L5.34502 19.1667L6.42252 20.2442L5.24419 21.4226L3.57752 19.7559C3.25232 19.4303 3.25232 18.9032 3.57752 18.5776ZM13.0892 16.9109L11.9109 18.0892L12.9884 19.1667L11.9109 20.2442L13.0892 21.4226L14.7559 19.7559C15.0811 19.4303 15.0811 18.9032 14.7559 18.5776L13.0892 16.9109ZM9.20961 16.4025L7.54211 21.4031L9.12295 21.9302L10.7913 16.93L9.20961 16.4025Z" fill="url(#paint0_linear)"/>
<path d="M49.1667 5H20.8333C20.3729 5 20 5.37292 20 5.83333V22.5C20 22.9604 20.3729 23.3333 20.8333 23.3333H49.1667C49.6271 23.3333 50 22.9604 50 22.5V5.83333C50 5.37292 49.6271 5 49.1667 5ZM48.3333 21.6667H21.6667V19.6383L29.15 15.1483L36.4456 19.8667C36.6963 20.0281 37.0144 20.0438 37.279 19.9067L43.3121 16.7817L48.3333 19.65V21.6667ZM48.3333 17.7308L43.75 15.11C43.5046 14.9692 43.2044 14.9635 42.9531 15.0933L36.9475 18.2044L29.6225 13.4667C29.3554 13.2942 29.0133 13.2885 28.7406 13.4525L21.6667 17.695V6.66667H48.3333V17.7308Z" fill="white"/>
<path d="M39.5832 14.1667C41.194 14.1667 42.4998 12.8609 42.4998 11.25C42.4998 9.63921 41.194 8.33337 39.5832 8.33337C37.9723 8.33337 36.6665 9.63921 36.6665 11.25C36.6665 12.8609 37.9723 14.1667 39.5832 14.1667ZM39.5832 10C40.2736 10 40.8332 10.5596 40.8332 11.25C40.8332 11.9405 40.2736 12.5 39.5832 12.5C38.8928 12.5 38.3332 11.9405 38.3332 11.25C38.3332 10.5596 38.8928 10 39.5832 10Z" fill="white"/>
<path d="M8.3335 27.5V37.5C8.3335 37.9604 8.70641 38.3333 9.16683 38.3333H30.0002C30.4606 38.3333 30.8335 37.9604 30.8335 37.5V27.5C30.8335 27.0395 30.4606 26.6666 30.0002 26.6666H9.16683C8.70641 26.6666 8.3335 27.0395 8.3335 27.5ZM10.0002 28.3333H29.1668V36.6667H10.0002V28.3333Z" fill="white"/>
<path d="M11.6665 30H14.9998V31.6667H11.6665V30Z" fill="white"/>
<path d="M16.6665 30H24.1665V31.6667H16.6665V30Z" fill="white"/>
<path d="M25.8335 30H27.5002V31.6667H25.8335V30Z" fill="white"/>
<path d="M11.6665 33.3334H21.6665V35H11.6665V33.3334Z" fill="white"/>
<path d="M23.3335 33.3334H27.5002V35H23.3335V33.3334Z" fill="white"/>
<path d="M8.3335 3.33337H10.0002V5.00004H8.3335V3.33337Z" fill="white"/>
<path d="M11.6665 3.33337H13.3332V5.00004H11.6665V3.33337Z" fill="white"/>
<path d="M15 3.33337H16.6667V5.00004H15V3.33337Z" fill="white"/>
<path d="M8.3335 6.66663H18.3335V8.3333H8.3335V6.66663Z" fill="white"/>
<path fill-rule="evenodd" clip-rule="evenodd" d="M49.1667 30H33.3333C32.8729 30 32.5 30.3729 32.5 30.8333V40.8333C32.5 41.2937 32.8729 41.6667 33.3333 41.6667H49.1667C49.6271 41.6667 50 41.2937 50 40.8333V30.8333C50 30.3729 49.6271 30 49.1667 30ZM48.3333 40H34.1667V31.6667H48.3333V40ZM35.8334 33.3334H37.5V35H35.8334V33.3334ZM37.5 36.6666H35.8334V38.3333H37.5V36.6666ZM39.1666 33.3334H46.6666V35H39.1666V33.3334ZM46.6666 36.6666H39.1666V38.3333H46.6666V36.6666Z" fill="white"/>
<path fill-rule="evenodd" clip-rule="evenodd" d="M49.1667 30H33.3333C32.8729 30 32.5 30.3729 32.5 30.8333V40.8333C32.5 41.2937 32.8729 41.6667 33.3333 41.6667H49.1667C49.6271 41.6667 50 41.2937 50 40.8333V30.8333C50 30.3729 49.6271 30 49.1667 30ZM48.3333 40H34.1667V31.6667H48.3333V40ZM35.8334 33.3334H37.5V35H35.8334V33.3334ZM37.5 36.6666H35.8334V38.3333H37.5V36.6666ZM39.1666 33.3334H46.6666V35H39.1666V33.3334ZM46.6666 36.6666H39.1666V38.3333H46.6666V36.6666Z" fill="url(#paint1_linear)"/>
<path d="M43.3335 25H45.0002V28.3333H43.3335V25Z" fill="white"/>
<defs>
<linearGradient id="paint0_linear" x1="0" y1="13.3333" x2="18.9916" y2="14.527" gradientUnits="userSpaceOnUse">
<stop stop-color="#F37535"/>
<stop offset="1" stop-color="#FDC630"/>
</linearGradient>
<linearGradient id="paint1_linear" x1="32.5" y1="30" x2="50.6347" y2="31.0881" gradientUnits="userSpaceOnUse">
<stop stop-color="#F37535"/>
<stop offset="1" stop-color="#FDC630"/>
</linearGradient>
</defs>
</svg>
