<svg width="62" height="62" viewBox="0 0 62 62" fill="none" xmlns="http://www.w3.org/2000/svg">
<g clip-path="url(#clip0)">
<path d="M59.9704 44.0853L51.2159 35.3309C49.9093 34.0243 48.1722 33.3047 46.3243 33.3047C44.4764 33.3047 42.7394 34.0243 41.4328 35.3309L38.38 38.3836C38.3798 38.3838 38.3797 38.3839 38.3796 38.384C38.3795 38.3841 38.3793 38.3842 38.3792 38.3844L37.1597 39.6038L22.3859 24.83L26.6589 20.5571C29.356 17.8598 29.356 13.4711 26.6589 10.7739L17.912 2.02705C15.2148 -0.669825 10.8262 -0.669825 8.12892 2.02705L5.82172 4.33413C-1.93276 12.0887 -1.93276 24.7063 5.82172 32.4609L14.3288 40.968C14.8017 41.4408 15.5684 41.4408 16.0414 40.968C16.5143 40.4951 16.5143 39.7284 16.0414 39.2554L7.53435 30.7483C1.26702 24.4811 0.767751 14.5968 6.03593 7.75273L15.2319 16.9488C15.4684 17.1852 15.7783 17.3035 16.0882 17.3035C16.398 17.3035 16.708 17.1852 16.9444 16.9488C17.4173 16.476 17.4174 15.7092 16.9444 15.2362L7.64466 5.93632L9.84143 3.73956C11.5944 1.98685 14.4465 1.98661 16.1995 3.73956L24.9463 12.4864C26.6992 14.2394 26.6992 17.0915 24.9463 18.8444L19.817 23.9736C19.59 24.2008 19.4623 24.5087 19.4623 24.8299C19.4623 25.151 19.59 25.4589 19.817 25.6861L36.3034 42.1725C36.7764 42.6455 37.5432 42.6454 38.0159 42.1725L39.2358 40.9528L54.2454 55.9623C51.2071 58.3077 47.5013 59.579 43.5998 59.579C38.9343 59.579 34.5481 57.7622 31.249 54.4631L22.6208 45.8349C22.1481 45.3622 21.3812 45.3622 20.9083 45.8349C20.4354 46.3078 20.4354 47.0745 20.9083 47.5475L29.5365 56.1757C33.2929 59.9322 38.2874 62.0009 43.5998 62.0009C48.9123 62.0009 53.9068 59.9322 57.6633 56.1757L59.9704 53.8685C61.277 52.562 61.9965 50.8248 61.9965 48.9769C61.9965 47.1292 61.277 45.3921 59.9704 44.0853ZM58.2579 52.1559L56.061 54.3528L40.9485 39.2403L43.1454 37.0434C43.9945 36.1941 45.1234 35.7265 46.3243 35.7265C47.5252 35.7265 48.6541 36.1941 49.5033 37.0434L58.2577 45.798C59.107 46.6471 59.5746 47.7762 59.5746 48.9769C59.5746 50.1778 59.1071 51.3069 58.2579 52.1559Z" fill="white"/>
<path fill-rule="evenodd" clip-rule="evenodd" d="M51.0476 8.74723C50.9047 6.67072 49.2309 4.99708 47.1545 4.85394C45.9768 4.7739 44.8548 5.17 43.9951 5.97261C43.1473 6.76396 42.661 7.88274 42.661 9.04234C42.661 9.71102 43.2031 10.2533 43.8719 10.2533C44.5407 10.2533 45.0829 9.71102 45.0829 9.04234C45.0829 8.54452 45.2834 8.08303 45.6476 7.74312C46.0113 7.40358 46.4867 7.2361 46.988 7.27025C47.8646 7.33056 48.5712 8.03726 48.6315 8.91386C48.6927 9.80014 48.1117 10.5834 47.2503 10.7762C46.3071 10.9869 45.6484 11.8069 45.6484 12.77V14.9511C45.6484 15.6198 46.1905 16.162 46.8593 16.162C47.5281 16.162 48.0703 15.6198 48.0703 14.9511V13.0636C49.9465 12.5039 51.1847 10.7351 51.0476 8.74723ZM19.0278 17.8214C19.3463 17.8214 19.6587 17.9497 19.884 18.1762C20.1092 18.4014 20.2388 18.7138 20.2388 19.0323C20.2388 19.3508 20.1092 19.6632 19.884 19.8885C19.6587 20.1137 19.3463 20.2433 19.0278 20.2433C18.7093 20.2433 18.3969 20.1137 18.1717 19.8885C17.9465 19.6632 17.8169 19.3508 17.8169 19.0323C17.8169 18.7128 17.9465 18.4014 18.1717 18.1762C18.3969 17.9497 18.7093 17.8214 19.0278 17.8214ZM18.6758 42.3912C18.9943 42.3912 19.3067 42.5209 19.5319 42.7461C19.7571 42.9712 19.8867 43.2836 19.8867 43.6021C19.8867 43.9207 19.7571 44.2331 19.5319 44.4582C19.3067 44.6836 18.9943 44.813 18.6758 44.813C18.3573 44.813 18.0449 44.6835 17.8196 44.4582C17.5944 44.2331 17.4648 43.9207 17.4648 43.6021C17.4648 43.2836 17.5944 42.9712 17.8196 42.7461C18.0449 42.5207 18.3573 42.3912 18.6758 42.3912ZM46.8595 18.0502C47.178 18.0502 47.4904 18.1786 47.7156 18.4038C47.9409 18.6303 48.0704 18.9415 48.0704 19.2612C48.0704 19.5797 47.9409 19.892 47.7156 20.1173C47.4904 20.3427 47.178 20.4721 46.8595 20.4721C46.541 20.4721 46.2286 20.3426 46.0034 20.1173C45.7781 19.8921 45.6486 19.5797 45.6486 19.2612C45.6486 18.9415 45.7781 18.6303 46.0034 18.4038C46.2286 18.1787 46.541 18.0502 46.8595 18.0502Z" fill="white"/>
<path fill-rule="evenodd" clip-rule="evenodd" d="M51.0476 8.74723C50.9047 6.67072 49.2309 4.99708 47.1545 4.85394C45.9768 4.7739 44.8548 5.17 43.9951 5.97261C43.1473 6.76396 42.661 7.88274 42.661 9.04234C42.661 9.71102 43.2031 10.2533 43.8719 10.2533C44.5407 10.2533 45.0829 9.71102 45.0829 9.04234C45.0829 8.54452 45.2834 8.08303 45.6476 7.74312C46.0113 7.40358 46.4867 7.2361 46.988 7.27025C47.8646 7.33056 48.5712 8.03726 48.6315 8.91386C48.6927 9.80014 48.1117 10.5834 47.2503 10.7762C46.3071 10.9869 45.6484 11.8069 45.6484 12.77V14.9511C45.6484 15.6198 46.1905 16.162 46.8593 16.162C47.5281 16.162 48.0703 15.6198 48.0703 14.9511V13.0636C49.9465 12.5039 51.1847 10.7351 51.0476 8.74723ZM19.0278 17.8214C19.3463 17.8214 19.6587 17.9497 19.884 18.1762C20.1092 18.4014 20.2388 18.7138 20.2388 19.0323C20.2388 19.3508 20.1092 19.6632 19.884 19.8885C19.6587 20.1137 19.3463 20.2433 19.0278 20.2433C18.7093 20.2433 18.3969 20.1137 18.1717 19.8885C17.9465 19.6632 17.8169 19.3508 17.8169 19.0323C17.8169 18.7128 17.9465 18.4014 18.1717 18.1762C18.3969 17.9497 18.7093 17.8214 19.0278 17.8214ZM18.6758 42.3912C18.9943 42.3912 19.3067 42.5209 19.5319 42.7461C19.7571 42.9712 19.8867 43.2836 19.8867 43.6021C19.8867 43.9207 19.7571 44.2331 19.5319 44.4582C19.3067 44.6836 18.9943 44.813 18.6758 44.813C18.3573 44.813 18.0449 44.6835 17.8196 44.4582C17.5944 44.2331 17.4648 43.9207 17.4648 43.6021C17.4648 43.2836 17.5944 42.9712 17.8196 42.7461C18.0449 42.5207 18.3573 42.3912 18.6758 42.3912ZM46.8595 18.0502C47.178 18.0502 47.4904 18.1786 47.7156 18.4038C47.9409 18.6303 48.0704 18.9415 48.0704 19.2612C48.0704 19.5797 47.9409 19.892 47.7156 20.1173C47.4904 20.3427 47.178 20.4721 46.8595 20.4721C46.541 20.4721 46.2286 20.3426 46.0034 20.1173C45.7781 19.8921 45.6486 19.5797 45.6486 19.2612C45.6486 18.9415 45.7781 18.6303 46.0034 18.4038C46.2286 18.1787 46.541 18.0502 46.8595 18.0502Z" fill="url(#paint0_linear)"/>
<path d="M55.9414 0H37.7773C34.4388 0 31.7227 2.71613 31.7227 6.05469V19.8561C31.7227 23.1947 34.4388 25.9108 37.7773 25.9108H42.3698L45.9146 30.5266C46.1438 30.8251 46.4988 31 46.875 31C46.8757 31 46.8764 31 46.8772 31C47.2543 30.9993 47.6094 30.823 47.8381 30.5231L51.3536 25.9108H55.9413C59.2798 25.9108 61.996 23.1947 61.996 19.8561V6.05469C61.9961 2.71613 59.2801 0 55.9414 0ZM59.5745 19.8561H59.5742C59.5742 21.8592 57.9445 23.4889 55.9414 23.4889H50.7542C50.3764 23.4889 50.0202 23.6652 49.7912 23.9658L46.8716 27.7962L43.9273 23.9623C43.6981 23.6638 43.3432 23.4889 42.9669 23.4889H37.7776C35.7745 23.4889 34.1448 21.8592 34.1448 19.8561V6.05469C34.1448 4.05155 35.7745 2.42188 37.7776 2.42188H55.9416C57.9448 2.42188 59.5745 4.05155 59.5745 6.05469V19.8561Z" fill="white"/>
</g>
<defs>
<linearGradient id="paint0_linear" x1="47.9006" y1="55.7732" x2="9.18746" y2="31.0331" gradientUnits="userSpaceOnUse">
<stop stop-color="#FDC830"/>
<stop offset="0.1884" stop-color="#FCC230"/>
<stop offset="0.4334" stop-color="#FAB231"/>
<stop offset="0.7096" stop-color="#F79733"/>
<stop offset="1" stop-color="#F37335"/>
</linearGradient>
<clipPath id="clip0">
<rect width="62" height="62" fill="white"/>
</clipPath>
</defs>
</svg>
