<svg width="80" height="80" viewBox="0 0 80 80" fill="none" xmlns="http://www.w3.org/2000/svg">
<path d="M69.0825 58.6668C69.5064 56.4189 69.4955 54.1107 69.0504 51.8668L75.1637 37.1296C75.1644 37.1198 75.1644 37.11 75.1637 37.1003C76.1544 34.391 77.6061 31.8731 79.455 29.6576C79.9151 29.1723 80.1001 28.4884 79.9476 27.8376L77.4408 17.0244C77.411 16.9113 77.3661 16.8028 77.3074 16.7017C77.2967 16.6817 77.2927 16.6577 77.282 16.639C77.2713 16.6204 77.2246 16.575 77.1979 16.5404C77.1433 16.4605 77.0802 16.3867 77.0097 16.3204C76.9633 16.2878 76.9147 16.2584 76.8642 16.2324C76.7991 16.1845 76.7299 16.1426 76.6573 16.1071C76.5567 16.0691 76.4518 16.0436 76.345 16.0311C76.3143 16.0311 76.2876 16.0111 76.2569 16.0084C76.0011 15.9914 75.7457 16.0483 75.5214 16.1724C75.5014 16.1831 75.4774 16.1871 75.4574 16.1991H75.444L66.0192 22.075C65.4484 22.4281 65.0941 23.0446 65.0768 23.715C64.815 26.5939 64.0558 29.4056 62.8331 32.0256V32.0403L59.7778 39.4176C58.2782 38.6213 56.6728 38.0421 55.0099 37.6976C55.6394 33.3575 55.8708 28.9691 55.7014 24.587C58.186 21.6091 59.3785 17.7639 59.0143 13.9044C58.18 6.13378 51.1498 0.521814 50.8494 0.285815C50.3981 -0.0692595 49.7699 -0.0959634 49.2899 0.219522C48.81 0.535007 48.586 1.12189 48.7338 1.67647C49.4212 4.25512 48.8259 6.97644 43.7484 12.5724C41.4672 14.7728 40.7441 18.1325 41.9185 21.075C42.3675 22.2005 43.0108 23.2385 43.8192 24.1417C43.4962 26.2017 43.2425 28.1523 43.0677 30.0523C42.7666 33.1948 42.689 36.3547 42.8354 39.5082C41.6447 40.1531 40.5299 40.9291 39.5119 41.8216L33.0382 14.1684C33.0382 14.1404 33.0115 14.1204 33.0035 14.0951C32.9818 14.0062 32.9504 13.9199 32.9101 13.8377L26.2976 1.63914C25.6358 0.418179 24.2378 -0.209237 22.8845 0.107377C21.5312 0.423991 20.5575 1.60628 20.5073 2.9938L20.0054 16.8537C20.0058 16.9537 20.017 17.0534 20.0388 17.151C20.0388 17.1724 20.0388 17.191 20.0388 17.211L26.6433 45.3669C25.6014 45.4128 24.5672 45.567 23.5573 45.8269L16.2921 28.3003C15.7095 26.9605 14.1644 26.3284 12.8083 26.875L1.70433 31.467C0.345347 32.0336 -0.30048 33.5901 0.258764 34.9509L10.1121 58.6948C4.33718 58.9977 -0.145443 63.8402 0.00361164 69.6148C0.152666 75.3895 4.87916 79.9948 10.662 80H69.3921C73.2071 79.9447 76.7028 77.8606 78.5623 74.5328C80.4219 71.2049 80.3629 67.1388 78.4075 63.8661C76.4521 60.5935 72.8974 58.6115 69.0825 58.6668ZM67.7223 24.155L73.3177 20.667L71.3369 25.4457C71.0546 26.1261 71.3779 26.9063 72.059 27.1883C72.7402 27.4704 73.5212 27.1474 73.8036 26.467L75.7844 21.6884L77.2673 28.1056C75.6807 30.0392 74.3774 32.1882 73.3965 34.4883C72.0049 35.1326 70.4068 35.1661 68.9894 34.5805C67.572 33.9949 66.4645 32.8437 65.9351 31.4056C66.8725 29.0858 67.4743 26.6444 67.7223 24.155ZM64.6524 34.6229C65.5354 35.7014 66.6813 36.5347 67.98 37.0429C69.0122 37.4864 70.1225 37.7203 71.2461 37.7309C71.5165 37.7299 71.7866 37.7135 72.055 37.6816L67.7958 47.9482C66.5204 45.1393 64.5474 42.7026 62.0642 40.8696L64.6524 34.6229ZM46.3659 25.1003L53.0718 25.5097C53.1132 26.755 53.0985 28.043 53.0572 29.351C50.8232 29.5104 48.5781 29.4021 46.3699 29.0283C46.2017 29.0043 46.0376 28.9856 45.8707 28.963C46.0042 27.707 46.167 26.435 46.3633 25.1003H46.3659ZM45.7292 14.3631C49.2731 10.4578 51.1097 7.45377 51.5368 4.62979C54.0842 7.24783 55.7656 10.5838 56.3541 14.1871C56.6344 17.3238 55.6635 20.4443 53.6525 22.8697C51.0158 22.7097 48.4081 22.5497 45.8293 22.3897C44.7213 21.3549 44.0839 19.9133 44.0644 18.3983C44.045 16.8832 44.6454 15.4258 45.7266 14.3631H45.7292ZM45.6278 31.6203L46.0149 31.671C47.7348 31.9367 49.471 32.0841 51.2112 32.1123C51.7638 32.1123 52.3457 32.0683 52.929 32.023C52.8076 33.7389 52.6087 35.5309 52.3564 37.3829C52.0267 37.3656 51.7037 37.3336 51.3727 37.3336C49.3575 37.3372 47.3574 37.6812 45.4569 38.3509C45.3954 36.106 45.4515 33.8594 45.6251 31.6203H45.6278ZM35.3033 47.2122L31.4845 30.963C31.306 30.258 30.5949 29.8259 29.8861 29.9918C29.1773 30.1576 28.7323 30.8601 28.8857 31.571L32.3174 46.1962C31.3739 45.8591 30.3992 45.6166 29.4076 45.4722L23.5493 20.499C24.3699 20.8723 25.261 21.0659 26.1628 21.067C26.2469 21.067 26.3363 21.055 26.4217 21.051L27.3654 25.0763C27.4671 25.5475 27.8154 25.9271 28.2764 26.0693C28.7375 26.2115 29.2394 26.0941 29.5893 25.7622C29.9392 25.4303 30.0825 24.9356 29.9642 24.4683L29.0192 20.4404C29.9248 20.0399 30.7235 19.4325 31.351 18.667L37.3068 44.1055C36.5334 45.0692 35.862 46.1103 35.3033 47.2122ZM27.1478 18.279C25.4408 18.6097 23.6978 17.9126 22.691 16.4964L22.8605 11.8004C23.325 11.8871 23.7963 11.9317 24.2687 11.9337C24.725 11.9357 25.1801 11.8851 25.6248 11.7831C26.5253 11.5469 27.3676 11.1284 28.0995 10.5538L30.3473 14.6977C30.0795 16.4171 28.8273 17.8198 27.1478 18.2817V18.279ZM23.4919 2.70313C23.6737 2.66107 23.8613 2.74498 23.951 2.90847L26.8128 8.1951C26.2966 8.66162 25.6801 9.00371 25.0108 9.1951C24.3268 9.32051 23.6231 9.28721 22.954 9.09776L23.1715 3.0898C23.1788 2.90349 23.31 2.74509 23.4919 2.70313ZM13.8321 29.3336L14.8519 31.795L9.9132 33.8376C9.32771 34.0832 8.9965 34.7068 9.12123 35.3288C9.24595 35.9508 9.79207 36.3989 10.4271 36.4003C10.6025 36.3999 10.7761 36.3655 10.9383 36.2989L15.877 34.2549L16.8981 36.7189L14.4274 37.7416C13.8386 37.985 13.5041 38.6103 13.6289 39.2345C13.7536 39.8588 14.3027 40.3079 14.94 40.3069C15.1149 40.3063 15.288 40.2719 15.4498 40.2056L17.9205 39.1829L18.9416 41.6469L13.9989 43.6936C13.4101 43.937 13.0757 44.5622 13.2004 45.1865C13.3251 45.8108 13.8742 46.2599 14.5115 46.2589C14.6864 46.2584 14.8596 46.224 15.0214 46.1575L19.9601 44.1149L21.0399 46.7189C16.6904 48.702 13.5009 52.5798 12.3972 57.2268L2.72276 33.9256L13.8321 29.3336ZM69.3921 77.3334H10.662C6.23895 77.3334 2.65335 73.7516 2.65335 69.3334C2.65335 64.9151 6.23895 61.3334 10.662 61.3334C11.4354 61.3309 12.205 61.4423 12.9458 61.6641C13.346 61.7849 13.7798 61.7113 14.1177 61.4654C14.4556 61.2195 14.6587 60.8297 14.6663 60.4121C14.7613 55.6602 17.5113 51.3614 21.7882 49.2789C26.0652 47.1964 31.1493 47.6809 34.9549 50.5335C35.2912 50.7835 35.7256 50.8612 36.1278 50.7433C36.5301 50.6253 36.8535 50.3255 37.0011 49.9335C39.6089 42.9911 46.8163 38.9075 54.1195 40.2344C61.4228 41.5613 66.729 47.9185 66.7226 55.3335C66.7252 56.8583 66.498 58.3749 66.0485 59.8321C65.9082 60.2855 66.0198 60.7792 66.3414 61.1285C66.663 61.4778 67.1462 61.6299 67.6102 61.5281C68.1955 61.3994 68.7929 61.3342 69.3921 61.3334C73.8152 61.3334 77.4008 64.9151 77.4008 69.3334C77.4008 73.7516 73.8152 77.3334 69.3921 77.3334Z" fill="white"/>
<path fill-rule="evenodd" clip-rule="evenodd" d="M52.6875 20.4071C52.434 20.7403 52.0386 20.9353 51.6196 20.9337L51.6276 20.931C51.1221 20.931 50.6599 20.6457 50.4338 20.194C50.2077 19.7423 50.2565 19.2017 50.5598 18.7977C51.7266 17.1974 52.2035 15.197 51.8839 13.2431C51.7484 12.7787 51.8753 12.2774 52.2155 11.9332C52.5557 11.5889 53.0558 11.4558 53.5224 11.5852C53.989 11.7146 54.3489 12.0863 54.4627 12.5564C54.9978 15.3062 54.3539 18.1541 52.6875 20.4071ZM47.0013 62.0003C47.8929 61.5646 48.8718 61.3367 49.8644 61.3336C52.4708 61.336 54.8374 62.8539 55.9242 65.2203C56.2302 65.8904 55.9344 66.6814 55.2635 66.987C54.5927 67.2926 53.8009 66.9971 53.4949 66.327C52.8421 64.9109 51.425 64.0028 49.8644 64.0003C48.9627 63.9998 48.0881 64.3086 47.387 64.875C47.3417 64.9016 47.2949 64.9256 47.2469 64.947C47.2075 64.9803 47.166 65.011 47.1227 65.039C47.0881 65.0493 47.0529 65.0578 47.0173 65.0643C46.8529 65.1194 46.6808 65.1482 46.5074 65.1496C46.4226 65.1454 46.3385 65.1325 46.2565 65.111C46.1742 65.0938 46.0937 65.0688 46.0162 65.0363C45.9408 64.9989 45.8693 64.9542 45.8026 64.903C45.7277 64.8527 45.6584 64.7946 45.5958 64.7296C45.5834 64.7167 45.5693 64.7068 45.5553 64.6971C45.5392 64.6858 45.5232 64.6747 45.5103 64.659C45.4843 64.6159 45.4607 64.5714 45.4396 64.5256C45.4062 64.4856 45.375 64.4437 45.3461 64.4003C44.478 62.5221 42.5919 61.3234 40.5209 61.3336C37.5722 61.3336 35.1818 63.7215 35.1818 66.667C35.1819 67.4032 35.3317 68.1317 35.6223 68.8083C35.7611 69.1336 35.7648 69.5007 35.6326 69.8288C35.5005 70.1568 35.2432 70.419 34.9175 70.5576C34.7522 70.6284 34.5742 70.6647 34.3943 70.6643C33.8593 70.6643 33.376 70.3452 33.1663 69.8536C31.5726 66.1132 33.0403 61.7736 36.5785 59.7652C40.1166 57.7568 44.6001 58.7182 47.0013 62.0003ZM23.588 52.0681C23.3864 52.1335 18.6707 53.7628 18.6707 58.6668C18.6707 59.4032 19.2683 60.0001 20.0054 60.0001C20.7426 60.0001 21.3402 59.4032 21.3402 58.6668C21.4492 56.8068 22.6743 55.1977 24.4395 54.5961C25.1399 54.3612 25.5169 53.6037 25.2818 52.9041C25.0466 52.2046 24.2883 51.8279 23.588 52.0628V52.0681ZM42.6967 50.667C42.5873 50.6673 42.4783 50.6539 42.3723 50.627C41.6573 50.448 41.2228 49.7239 41.4019 49.0097C42.2982 45.3269 45.5767 42.7174 49.3705 42.667C50.1077 42.6652 50.7068 43.2607 50.7086 43.997C50.7105 44.7334 50.1144 45.3318 49.3772 45.3337C46.8109 45.3968 44.6044 47.1679 43.9901 49.6576C43.8414 50.2504 43.3084 50.6663 42.6967 50.667Z" fill="white"/>
<path fill-rule="evenodd" clip-rule="evenodd" d="M52.6875 20.4071C52.434 20.7403 52.0386 20.9353 51.6196 20.9337L51.6276 20.931C51.1221 20.931 50.6599 20.6457 50.4338 20.194C50.2077 19.7423 50.2565 19.2017 50.5598 18.7977C51.7266 17.1974 52.2035 15.197 51.8839 13.2431C51.7484 12.7787 51.8753 12.2774 52.2155 11.9332C52.5557 11.5889 53.0558 11.4558 53.5224 11.5852C53.989 11.7146 54.3489 12.0863 54.4627 12.5564C54.9978 15.3062 54.3539 18.1541 52.6875 20.4071ZM47.0013 62.0003C47.8929 61.5646 48.8718 61.3367 49.8644 61.3336C52.4708 61.336 54.8374 62.8539 55.9242 65.2203C56.2302 65.8904 55.9344 66.6814 55.2635 66.987C54.5927 67.2926 53.8009 66.9971 53.4949 66.327C52.8421 64.9109 51.425 64.0028 49.8644 64.0003C48.9627 63.9998 48.0881 64.3086 47.387 64.875C47.3417 64.9016 47.2949 64.9256 47.2469 64.947C47.2075 64.9803 47.166 65.011 47.1227 65.039C47.0881 65.0493 47.0529 65.0578 47.0173 65.0643C46.8529 65.1194 46.6808 65.1482 46.5074 65.1496C46.4226 65.1454 46.3385 65.1325 46.2565 65.111C46.1742 65.0938 46.0937 65.0688 46.0162 65.0363C45.9408 64.9989 45.8693 64.9542 45.8026 64.903C45.7277 64.8527 45.6584 64.7946 45.5958 64.7296C45.5834 64.7167 45.5693 64.7068 45.5553 64.6971C45.5392 64.6858 45.5232 64.6747 45.5103 64.659C45.4843 64.6159 45.4607 64.5714 45.4396 64.5256C45.4062 64.4856 45.375 64.4437 45.3461 64.4003C44.478 62.5221 42.5919 61.3234 40.5209 61.3336C37.5722 61.3336 35.1818 63.7215 35.1818 66.667C35.1819 67.4032 35.3317 68.1317 35.6223 68.8083C35.7611 69.1336 35.7648 69.5007 35.6326 69.8288C35.5005 70.1568 35.2432 70.419 34.9175 70.5576C34.7522 70.6284 34.5742 70.6647 34.3943 70.6643C33.8593 70.6643 33.376 70.3452 33.1663 69.8536C31.5726 66.1132 33.0403 61.7736 36.5785 59.7652C40.1166 57.7568 44.6001 58.7182 47.0013 62.0003ZM23.588 52.0681C23.3864 52.1335 18.6707 53.7628 18.6707 58.6668C18.6707 59.4032 19.2683 60.0001 20.0054 60.0001C20.7426 60.0001 21.3402 59.4032 21.3402 58.6668C21.4492 56.8068 22.6743 55.1977 24.4395 54.5961C25.1399 54.3612 25.5169 53.6037 25.2818 52.9041C25.0466 52.2046 24.2883 51.8279 23.588 52.0628V52.0681ZM42.6967 50.667C42.5873 50.6673 42.4783 50.6539 42.3723 50.627C41.6573 50.448 41.2228 49.7239 41.4019 49.0097C42.2982 45.3269 45.5767 42.7174 49.3705 42.667C50.1077 42.6652 50.7068 43.2607 50.7086 43.997C50.7105 44.7334 50.1144 45.3318 49.3772 45.3337C46.8109 45.3968 44.6044 47.1679 43.9901 49.6576C43.8414 50.2504 43.3084 50.6663 42.6967 50.667Z" fill="url(#paint0_linear)"/>
<defs>
<linearGradient id="paint0_linear" x1="56.0449" y1="70.6643" x2="2.63565" y2="36.9046" gradientUnits="userSpaceOnUse">
<stop stop-color="#FDC830"/>
<stop offset="1" stop-color="#F37335"/>
</linearGradient>
</defs>
</svg>
