<svg width="60" height="60" viewBox="0 0 60 60" fill="none" xmlns="http://www.w3.org/2000/svg">
<path fill-rule="evenodd" clip-rule="evenodd" d="M29.9998 0.5C31.3645 0.5 32.3062 1.59248 33.239 2.6746C33.7915 3.31559 34.339 3.95073 34.6742 4.0124C35.0174 4.07587 35.7543 3.66039 36.4867 3.24717C37.6985 2.56342 38.9035 1.88416 40.1374 2.3505C41.3851 2.82224 41.8524 4.15014 42.3179 5.47353C42.5937 6.25677 42.8682 7.0373 43.1306 7.1935C43.3936 7.34969 44.2018 7.2061 45.0088 7.06296C46.3637 6.82214 47.7169 6.58176 48.7215 7.44197C49.7209 8.29813 49.7147 9.69579 49.7085 11.0935C49.7049 11.9186 49.701 12.7437 49.8974 12.98C50.0938 13.2167 50.8945 13.3536 51.6957 13.4904C53.0555 13.7231 54.4175 13.9559 55.0839 15.1105C55.7485 16.2624 55.2901 17.5763 54.8299 18.8947C54.5536 19.6856 54.2765 20.4792 54.3883 20.784C54.5 21.0878 55.209 21.5064 55.9214 21.9273C57.1292 22.6403 58.344 23.3574 58.5848 24.7037C58.8215 26.0271 57.9601 27.1277 57.0911 28.2386C56.5581 28.9201 56.0203 29.6075 56.0203 30C56.0203 30.393 56.5581 31.0803 57.0911 31.7618C57.9601 32.8723 58.8215 33.9729 58.5848 35.2963C58.344 36.6426 57.1292 37.3601 55.9214 38.0732C55.209 38.4936 54.5 38.9122 54.3883 39.2165C54.2765 39.5212 54.5536 40.3148 54.8299 41.1057C55.2901 42.4242 55.7485 43.7381 55.0839 44.8895C54.4175 46.0446 53.0555 46.2773 51.6957 46.5096C50.8945 46.6469 50.0938 46.7837 49.8974 47.02C49.701 47.2568 49.7049 48.0819 49.7085 48.907C49.7147 50.3047 49.7209 51.7023 48.7215 52.5585C47.7169 53.4187 46.3637 53.1783 45.0088 52.9375C44.2018 52.7943 43.3936 52.6508 43.1306 52.807C42.8682 52.9632 42.5937 53.7437 42.3179 54.5269C41.8524 55.8503 41.3851 57.1782 40.1374 57.6499C38.9035 58.1163 37.6985 57.4366 36.4867 56.7533C35.7543 56.3401 35.0178 55.9246 34.6742 55.9881C34.339 56.0497 33.7915 56.6849 33.239 57.3254C32.3062 58.4075 31.3645 59.5 29.9998 59.5C28.6355 59.5 27.6938 58.4075 26.7605 57.3254C26.2085 56.6844 25.6609 56.0493 25.3253 55.9876C24.9821 55.9241 24.2457 56.3396 23.5128 56.7528C22.3011 57.4366 21.0964 58.1158 19.8625 57.6495C18.6145 57.1778 18.1476 55.8499 17.6816 54.5265C17.4063 53.7437 17.1314 52.9627 16.8689 52.8065C16.6064 52.6503 15.7982 52.7939 14.9908 52.9375C13.6358 53.1779 12.2827 53.4182 11.278 52.558C10.2786 51.7019 10.2848 50.3042 10.2911 48.9065C10.295 48.0814 10.2986 47.2563 10.1022 47.02C9.90576 46.7833 9.10548 46.6464 8.30387 46.5096C6.94405 46.2773 5.58201 46.0441 4.91563 44.8895C4.25146 43.7376 4.7099 42.4237 5.17012 41.1053C5.44634 40.3144 5.723 39.5208 5.61128 39.216C5.49999 38.9122 4.79104 38.4936 4.0781 38.0727C2.8708 37.3597 1.65552 36.6426 1.41521 35.2963C1.17845 33.9729 2.03948 32.8719 2.90849 31.7614C3.44186 31.0799 3.97967 30.3925 3.97967 29.9995C3.97967 29.607 3.44186 28.9197 2.90849 28.2382C2.03948 27.1272 1.17845 26.0271 1.41521 24.7033C1.65552 23.3569 2.8708 22.6399 4.0781 21.9268C4.79104 21.506 5.49999 21.0873 5.61128 20.7835C5.723 20.4788 5.44634 19.6852 5.17012 18.8943C4.7099 17.5758 4.25101 16.2619 4.91563 15.1105C5.58201 13.9554 6.94405 13.7227 8.30387 13.4904C9.10548 13.3531 9.90576 13.2163 10.1022 12.98C10.2986 12.7432 10.295 11.9181 10.2911 11.093C10.2848 9.69534 10.2786 8.29723 11.278 7.44197C12.2827 6.58176 13.6358 6.82169 14.9908 7.06251C15.7982 7.20565 16.6064 7.34924 16.8689 7.19305C17.1314 7.0373 17.4063 6.25632 17.6816 5.47308C18.1471 4.15014 18.6149 2.82179 19.8625 2.35005C21.0964 1.88371 22.3011 2.56342 23.5128 3.24672C24.2457 3.65994 24.9821 4.07542 25.3253 4.01195C25.6609 3.95028 26.2085 3.31514 26.7605 2.6746C27.6938 1.59248 28.6355 0.5 29.9998 0.5ZM23.3918 18.6746C22.0905 18.6746 20.9124 19.2098 20.0594 20.0759C19.2068 20.9419 18.6792 22.138 18.6792 23.4591C18.6792 24.7798 19.2068 25.9762 20.0594 26.8419C20.9124 27.7079 22.0905 28.2436 23.3918 28.2436C24.6931 28.2436 25.8711 27.7079 26.7241 26.8419C27.5767 25.9762 28.1044 24.7798 28.1044 23.4591C28.1044 22.138 27.5767 20.9419 26.7241 20.0759C25.8711 19.2098 24.6931 18.6746 23.3918 18.6746ZM25.1214 21.7031C24.6789 21.2539 24.0675 20.9757 23.3918 20.9757C22.7165 20.9757 22.1047 21.2539 21.6622 21.7031C21.2197 22.1524 20.9461 22.7731 20.9461 23.4591C20.9461 24.1447 21.2197 24.7658 21.6622 25.2151C22.1047 25.6639 22.7165 25.942 23.3918 25.942C24.0675 25.942 24.6789 25.6643 25.1214 25.2151C25.5638 24.7658 25.8374 24.1447 25.8374 23.4591C25.8374 22.7731 25.5638 22.1524 25.1214 21.7031ZM35.6652 19.1959L22.4487 39.5455C22.1064 40.0745 22.251 40.7848 22.7719 41.1323C23.2929 41.4798 23.9925 41.333 24.3348 40.8041L37.5513 20.4545C37.8935 19.9255 37.749 19.2152 37.228 18.8677C36.7071 18.5202 36.0074 18.667 35.6652 19.1959ZM36.6082 31.7564C35.3069 31.7564 34.1284 32.2921 33.2758 33.1577C32.4232 34.0238 31.8956 35.2202 31.8956 36.5409C31.8956 37.862 32.4232 39.0581 33.2758 39.9241C34.1289 40.7897 35.3069 41.3254 36.6082 41.3254C37.9095 41.3254 39.0875 40.7897 39.9401 39.9241C40.7932 39.0581 41.3208 37.862 41.3208 36.5409C41.3208 35.2198 40.7932 34.0238 39.9401 33.1577C39.0875 32.2921 37.9095 31.7564 36.6082 31.7564ZM38.3374 34.7849C37.8953 34.3361 37.2835 34.058 36.6082 34.058C35.9325 34.058 35.3211 34.3357 34.8786 34.7849C34.4361 35.2342 34.1621 35.8553 34.1621 36.5409C34.1621 37.2269 34.4361 37.8476 34.8786 38.2969C35.3211 38.7461 35.9325 39.0238 36.6082 39.0238C37.2835 39.0238 37.8953 38.7461 38.3374 38.2969C38.7803 37.8476 39.0538 37.2269 39.0538 36.5409C39.0538 35.8553 38.7803 35.2346 38.3374 34.7849ZM31.5392 4.18525C30.9455 3.49654 30.3465 2.80154 30.0002 2.80154C29.6535 2.80154 29.0545 3.49654 28.4608 4.18525C27.6481 5.12783 26.8421 6.06276 25.7239 6.26892C24.5889 6.47823 23.4991 5.86335 22.415 5.25162C21.6595 4.82534 20.908 4.40176 20.6509 4.49899C20.3972 4.59487 20.106 5.42222 19.816 6.24641C19.4032 7.41901 18.9922 8.58801 18.0115 9.17094C17.0241 9.75836 15.8119 9.5432 14.6015 9.32803C13.7658 9.17994 12.9304 9.03139 12.7398 9.19524C12.542 9.36449 12.5456 10.2247 12.5496 11.0845C12.5553 12.3336 12.5607 13.5827 11.8291 14.4636C11.0998 15.3418 9.88847 15.5489 8.67585 15.756C7.83655 15.8995 6.99504 16.0431 6.86424 16.2705C6.73389 16.496 7.01853 17.3121 7.30451 18.1304C7.71596 19.3093 8.12873 20.4918 7.72793 21.5838C7.33244 22.6619 6.275 23.2862 5.2118 23.9142C4.45363 24.3616 3.69059 24.8122 3.63783 25.1084C3.58418 25.4086 4.12953 26.1054 4.67975 26.809C5.46009 27.806 6.24707 28.8116 6.24707 30C6.24707 31.1888 5.46009 32.194 4.67975 33.1915C4.12953 33.8946 3.58418 34.5914 3.63783 34.8921C3.69059 35.1882 4.45363 35.6384 5.2118 36.0863C6.275 36.7138 7.33244 37.3381 7.72793 38.4162C8.12873 39.5086 7.71596 40.6911 7.30451 41.87C7.01853 42.6884 6.73389 43.504 6.86424 43.73C6.99504 43.9569 7.83611 44.1009 8.67585 44.244C9.88892 44.4516 11.0998 44.6582 11.8291 45.5368C12.5607 46.4173 12.5553 47.6664 12.5496 48.916C12.5456 49.7757 12.542 50.6355 12.7398 50.8052C12.9309 50.9686 13.7658 50.8205 14.6015 50.672C15.8119 50.4573 17.0241 50.2416 18.0115 50.8291C18.9922 51.412 19.4037 52.581 19.816 53.7536C20.106 54.5778 20.3972 55.4056 20.6509 55.501C20.908 55.5982 21.6595 55.1747 22.415 54.7484C23.4991 54.1371 24.5889 53.5222 25.7239 53.7315C26.8425 53.9372 27.6481 54.8722 28.4608 55.8152C29.0545 56.5039 29.6535 57.1989 30.0002 57.1989C30.3465 57.1989 30.9455 56.5039 31.5392 55.8152C32.3519 54.8722 33.1579 53.9372 34.2756 53.7315C35.4107 53.5222 36.5009 54.1371 37.585 54.7484C38.3405 55.1747 39.092 55.5982 39.3491 55.501C39.6027 55.4056 39.894 54.5778 40.184 53.7536C40.5968 52.581 41.0078 51.4124 41.9881 50.8291C42.9759 50.2416 44.1876 50.4568 45.398 50.672C46.2342 50.8205 47.0691 50.9691 47.2606 50.8052C47.4579 50.6355 47.4544 49.7757 47.4504 48.916C47.4446 47.6669 47.4393 46.4173 48.1709 45.5368C48.9002 44.6582 50.1111 44.4516 51.3237 44.244C52.1634 44.1009 53.005 43.9569 53.1357 43.73C53.2661 43.504 52.9815 42.6884 52.6955 41.87C52.284 40.6911 51.8713 39.5086 52.2721 38.4162C52.6671 37.3381 53.725 36.7138 54.7877 36.0863C55.5464 35.6384 56.309 35.1882 56.3622 34.8921C56.4158 34.5914 55.8705 33.8946 55.3202 33.1915C54.5399 32.194 53.7529 31.1888 53.7529 30C53.7529 28.8116 54.5399 27.806 55.3202 26.809C55.8705 26.1054 56.4158 25.4086 56.3622 25.1084C56.309 24.8122 55.5464 24.3616 54.7877 23.9142C53.725 23.2862 52.6671 22.6619 52.2721 21.5838C51.8713 20.4918 52.284 19.3093 52.6955 18.1304C52.9815 17.3121 53.2661 16.496 53.1357 16.2705C53.005 16.0431 52.1634 15.8995 51.3237 15.756C50.1111 15.5489 48.9002 15.3418 48.1709 14.4636C47.4393 13.5827 47.4446 12.3336 47.4504 11.0845C47.4544 10.2247 47.4579 9.36449 47.2606 9.19524C47.0691 9.03139 46.2342 9.17994 45.398 9.32803C44.1876 9.5432 42.9759 9.75836 41.9885 9.17094C41.0078 8.58801 40.5963 7.41901 40.184 6.24641C39.894 5.42222 39.6027 4.59487 39.3491 4.49899C39.092 4.40176 38.3405 4.82534 37.585 5.25162C36.5005 5.86335 35.4107 6.47823 34.2756 6.26892C33.1575 6.06276 32.3519 5.12783 31.5392 4.18525Z" fill="white"/>
<path fill-rule="evenodd" clip-rule="evenodd" d="M44.0653 15.3856C43.4384 15.3856 42.9303 15.9014 42.9303 16.5379C42.9303 16.8215 43.0313 17.0812 43.1989 17.282L43.202 17.286C43.2251 17.3135 43.2495 17.3396 43.2748 17.3643C46.3274 20.6683 48.1966 25.1125 48.1966 30.0001C48.1966 35.1019 46.1602 39.7203 42.8673 43.0634C39.5744 46.407 35.025 48.4745 29.9998 48.4745C27.8486 48.4745 25.7847 48.0955 23.8693 47.3996C23.8352 47.3852 23.7997 47.3726 23.7638 47.3613L23.7611 47.3599C23.6569 47.328 23.5461 47.3109 23.4317 47.3109C22.8052 47.3109 22.2967 47.8267 22.2967 48.4632C22.2967 48.9854 22.6389 49.4261 23.1076 49.5679C25.261 50.3497 27.5816 50.776 29.9998 50.776C35.6506 50.776 40.7666 48.4502 44.4696 44.6907C48.1731 40.9307 50.4636 35.737 50.4636 30.0001C50.4636 24.5102 48.366 19.5182 44.9409 15.8042C44.7326 15.5485 44.4178 15.3856 44.0653 15.3856ZM40.6398 12.4606C40.0133 12.4606 39.5048 12.9764 39.5048 13.6129C39.5048 14.249 40.0133 14.7653 40.6398 14.7653C41.2667 14.7653 41.7748 14.249 41.7748 13.6129C41.7748 12.9764 41.2667 12.4606 40.6398 12.4606ZM36.9558 10.4557C34.7842 9.65895 32.4423 9.22412 29.9998 9.22412C24.349 9.22412 19.2334 11.5495 15.5299 15.3095C11.8269 19.069 9.53601 24.2631 9.53601 30.0001C9.53601 35.4782 11.6247 40.4607 15.0369 44.1725C15.2453 44.4255 15.5583 44.5867 15.9086 44.5867C16.5355 44.5867 17.0436 44.0708 17.0436 43.4343C17.0436 43.1516 16.9434 42.8928 16.7767 42.6925L16.7723 42.6867C16.7501 42.6601 16.7266 42.6349 16.7022 42.611C13.6633 39.3093 11.803 34.8755 11.803 30.0001C11.803 24.8982 13.8398 20.2794 17.1327 16.9367C20.4256 13.5931 24.9751 11.5257 29.9998 11.5257C32.1714 11.5257 34.2539 11.9119 36.1848 12.6204C36.3214 12.6794 36.4717 12.7118 36.6295 12.7118C37.2564 12.7118 37.7645 12.1959 37.7645 11.5594C37.7645 11.0382 37.4236 10.5979 36.9558 10.4557ZM19.3598 45.2349C18.7333 45.2349 18.2247 45.7507 18.2247 46.3872C18.2247 47.0237 18.7333 47.5396 19.3598 47.5396C19.9867 47.5396 20.4948 47.0237 20.4948 46.3872C20.4948 45.7507 19.9867 45.2349 19.3598 45.2349ZM23.3918 18.6747C22.0905 18.6747 20.9125 19.2099 20.0594 20.076C19.2068 20.942 18.6792 22.138 18.6792 23.4592C18.6792 24.7799 19.2068 25.9763 20.0594 26.8419C20.9125 27.708 22.0905 28.2436 23.3918 28.2436C24.6931 28.2436 25.8711 27.708 26.7242 26.8419C27.5768 25.9763 28.1044 24.7799 28.1044 23.4592C28.1044 22.138 27.5768 20.942 26.7242 20.076C25.8711 19.2099 24.6931 18.6747 23.3918 18.6747ZM25.1214 21.7032C24.6789 21.254 24.0675 20.9758 23.3918 20.9758C22.7165 20.9758 22.1047 21.254 21.6622 21.7032C21.2197 22.1524 20.9462 22.7732 20.9462 23.4592C20.9462 24.1447 21.2197 24.7659 21.6622 25.2151C22.1047 25.6639 22.7165 25.9421 23.3918 25.9421C24.0675 25.9421 24.6789 25.6644 25.1214 25.2151C25.5639 24.7659 25.8374 24.1447 25.8374 23.4592C25.8374 22.7732 25.5639 22.1524 25.1214 21.7032ZM35.6652 19.1959L22.4487 39.5456C22.1065 40.0745 22.251 40.7848 22.772 41.1323C23.2929 41.4798 23.9926 41.3331 24.3348 40.8042L37.5513 20.4545C37.8936 19.9256 37.749 19.2153 37.2281 18.8678C36.7071 18.5203 36.0075 18.667 35.6652 19.1959ZM36.6082 31.7565C35.3069 31.7565 34.1285 32.2922 33.2759 33.1578C32.4233 34.0238 31.8956 35.2203 31.8956 36.541C31.8956 37.8621 32.4233 39.0581 33.2759 39.9242C34.1289 40.7898 35.3069 41.3254 36.6082 41.3254C37.9095 41.3254 39.0876 40.7898 39.9402 39.9242C40.7932 39.0581 41.3208 37.8621 41.3208 36.541C41.3208 35.2198 40.7932 34.0238 39.9402 33.1578C39.0876 32.2922 37.9095 31.7565 36.6082 31.7565ZM38.3374 34.785C37.8953 34.3362 37.2835 34.058 36.6082 34.058C35.9325 34.058 35.3211 34.3358 34.8786 34.785C34.4362 35.2342 34.1622 35.8554 34.1622 36.541C34.1622 37.227 34.4362 37.8477 34.8786 38.2969C35.3211 38.7462 35.9325 39.0239 36.6082 39.0239C37.2835 39.0239 37.8953 38.7462 38.3374 38.2969C38.7803 37.8477 39.0539 37.227 39.0539 36.541C39.0539 35.8554 38.7803 35.2347 38.3374 34.785Z" fill="white"/>
<path fill-rule="evenodd" clip-rule="evenodd" d="M23.3918 18.6746C22.0905 18.6746 20.9125 19.2098 20.0594 20.0758C19.2068 20.9419 18.6792 22.1379 18.6792 23.459C18.6792 24.7797 19.2068 25.9762 20.0594 26.8418C20.9125 27.7079 22.0905 28.2435 23.3918 28.2435C24.6931 28.2435 25.8711 27.7079 26.7242 26.8418C27.5768 25.9762 28.1044 24.7797 28.1044 23.459C28.1044 22.1379 27.5768 20.9419 26.7242 20.0758C25.8711 19.2098 24.6931 18.6746 23.3918 18.6746ZM25.1214 21.7031C24.6789 21.2538 24.0675 20.9756 23.3918 20.9756C22.7165 20.9756 22.1047 21.2538 21.6622 21.7031C21.2197 22.1523 20.9462 22.773 20.9462 23.459C20.9462 24.1446 21.2197 24.7658 21.6622 25.215C22.1047 25.6638 22.7165 25.942 23.3918 25.942C24.0675 25.942 24.6789 25.6642 25.1214 25.215C25.5639 24.7658 25.8374 24.1446 25.8374 23.459C25.8374 22.773 25.5639 22.1523 25.1214 21.7031ZM35.6652 19.1958L22.4487 39.5455C22.1065 40.0744 22.251 40.7847 22.772 41.1322C23.2929 41.4797 23.9926 41.333 24.3348 40.8041L37.5513 20.4544C37.8936 19.9255 37.749 19.2152 37.2281 18.8677C36.7071 18.5202 36.0075 18.6669 35.6652 19.1958ZM36.6082 31.7564C35.3069 31.7564 34.1285 32.292 33.2759 33.1576C32.4233 34.0237 31.8956 35.2201 31.8956 36.5408C31.8956 37.862 32.4233 39.058 33.2759 39.924C34.1289 40.7897 35.3069 41.3253 36.6082 41.3253C37.9095 41.3253 39.0876 40.7897 39.9402 39.924C40.7932 39.058 41.3208 37.862 41.3208 36.5408C41.3208 35.2197 40.7932 34.0237 39.9402 33.1576C39.0876 32.292 37.9095 31.7564 36.6082 31.7564ZM38.3374 34.7849C37.8953 34.3361 37.2835 34.0579 36.6082 34.0579C35.9325 34.0579 35.3211 34.3356 34.8786 34.7849C34.4362 35.2341 34.1621 35.8553 34.1621 36.5408C34.1621 37.2268 34.4362 37.8476 34.8786 38.2968C35.3211 38.746 35.9325 39.0238 36.6082 39.0238C37.2835 39.0238 37.8953 38.746 38.3374 38.2968C38.7803 37.8476 39.0539 37.2268 39.0539 36.5408C39.0539 35.8553 38.7803 35.2346 38.3374 34.7849Z" fill="white"/>
<path fill-rule="evenodd" clip-rule="evenodd" d="M23.3918 18.6746C22.0905 18.6746 20.9125 19.2098 20.0594 20.0758C19.2068 20.9419 18.6792 22.1379 18.6792 23.459C18.6792 24.7797 19.2068 25.9762 20.0594 26.8418C20.9125 27.7079 22.0905 28.2435 23.3918 28.2435C24.6931 28.2435 25.8711 27.7079 26.7242 26.8418C27.5768 25.9762 28.1044 24.7797 28.1044 23.459C28.1044 22.1379 27.5768 20.9419 26.7242 20.0758C25.8711 19.2098 24.6931 18.6746 23.3918 18.6746ZM25.1214 21.7031C24.6789 21.2538 24.0675 20.9756 23.3918 20.9756C22.7165 20.9756 22.1047 21.2538 21.6622 21.7031C21.2197 22.1523 20.9462 22.773 20.9462 23.459C20.9462 24.1446 21.2197 24.7658 21.6622 25.215C22.1047 25.6638 22.7165 25.942 23.3918 25.942C24.0675 25.942 24.6789 25.6642 25.1214 25.215C25.5639 24.7658 25.8374 24.1446 25.8374 23.459C25.8374 22.773 25.5639 22.1523 25.1214 21.7031ZM35.6652 19.1958L22.4487 39.5455C22.1065 40.0744 22.251 40.7847 22.772 41.1322C23.2929 41.4797 23.9926 41.333 24.3348 40.8041L37.5513 20.4544C37.8936 19.9255 37.749 19.2152 37.2281 18.8677C36.7071 18.5202 36.0075 18.6669 35.6652 19.1958ZM36.6082 31.7564C35.3069 31.7564 34.1285 32.292 33.2759 33.1576C32.4233 34.0237 31.8956 35.2201 31.8956 36.5408C31.8956 37.862 32.4233 39.058 33.2759 39.924C34.1289 40.7897 35.3069 41.3253 36.6082 41.3253C37.9095 41.3253 39.0876 40.7897 39.9402 39.924C40.7932 39.058 41.3208 37.862 41.3208 36.5408C41.3208 35.2197 40.7932 34.0237 39.9402 33.1576C39.0876 32.292 37.9095 31.7564 36.6082 31.7564ZM38.3374 34.7849C37.8953 34.3361 37.2835 34.0579 36.6082 34.0579C35.9325 34.0579 35.3211 34.3356 34.8786 34.7849C34.4362 35.2341 34.1621 35.8553 34.1621 36.5408C34.1621 37.2268 34.4362 37.8476 34.8786 38.2968C35.3211 38.746 35.9325 39.0238 36.6082 39.0238C37.2835 39.0238 37.8953 38.746 38.3374 38.2968C38.7803 37.8476 39.0539 37.2268 39.0539 36.5408C39.0539 35.8553 38.7803 35.2346 38.3374 34.7849Z" fill="url(#paint0_linear)"/>
<defs>
<linearGradient id="paint0_linear" x1="18.6792" y1="18.6746" x2="42.1889" y2="19.6146" gradientUnits="userSpaceOnUse">
<stop stop-color="#F37535"/>
<stop offset="1" stop-color="#FDC630"/>
</linearGradient>
</defs>
</svg>
