<svg width="470" height="351" viewBox="0 0 470 351" fill="none" xmlns="http://www.w3.org/2000/svg">
<g clip-path="url(#clip0)">
<path opacity="0.11" d="M453.138 243.919C447.606 219.842 436.29 211.66 426.248 195.64C413.989 176.077 405.8 161.922 411.474 138.645C420.763 100.601 431.764 4.66882 338.424 9.15192C304.979 10.7665 276.376 36.5051 254.907 62.8237C236.644 85.2236 207.365 84.769 183.46 88.2645C154.086 92.5595 123.879 100.303 95.935 113.063C38.3814 139.35 18.0757 182.614 15.2625 240C14.4138 257.337 14.2252 284.753 37.7842 318.909C69.5943 365.01 120.798 375.309 184.796 361.028C199.444 357.752 226.009 402.107 240.5 398C255.556 393.736 288.519 379.798 304 379.5C340.085 378.81 345.654 369.838 381 361.028C399.687 356.373 418.279 326.919 432.738 312.859C450.812 295.302 458.969 269.344 453.138 243.919Z" fill="url(#paint0_linear)"/>
<path d="M158.755 351C180.963 351 199.489 348.847 199.489 346.834C199.489 344.82 180.963 343.709 158.755 343.709C136.547 343.709 119.066 344.82 119.066 346.834C119.066 348.847 136.547 351 158.755 351Z" fill="#C8DBFB"/>
<path d="M367.644 351C389.852 351 408.377 348.847 408.377 346.834C408.377 344.82 389.852 343.709 367.644 343.709C345.436 343.709 327.955 344.82 327.955 346.834C327.955 348.847 345.436 351 367.644 351Z" fill="#C8DBFB"/>
<path d="M453.666 81.2016C453.551 80.5063 453.425 79.8214 453.289 79.1572" stroke="#C8DBFB" stroke-linecap="round" stroke-linejoin="round"/>
<path d="M451.542 75.1672C444.331 50.8006 421.32 53.1563 400.527 53.1978C378.144 53.2394 31.6436 53.9554 31.6436 53.9554C-3.18218 54.028 0.197851 103.882 27.4578 103.82C43.1336 103.789 49.0984 132.981 21.9954 133.033C5.73356 133.064 5.21034 153.508 16.1457 157.607" stroke="#C8DBFB" stroke-linecap="round" stroke-linejoin="round" stroke-dasharray="3.99 3.99"/>
<path d="M18.1562 158.146C18.816 158.261 19.5176 158.324 20.2507 158.313" stroke="#C8DBFB" stroke-linecap="round" stroke-linejoin="round"/>
<path d="M24.5409 157.695C25.0019 160.412 23.1683 162.983 20.4336 163.452C17.6989 163.91 15.1108 162.088 14.6393 159.371C14.1783 156.654 16.0119 154.082 18.7466 153.614C21.4919 153.156 24.0799 154.978 24.5409 157.695Z" fill="#5193F4"/>
<path d="M458.431 83.5643C457.938 86.271 455.319 88.0719 452.594 87.5722C449.87 87.083 448.057 84.4804 448.56 81.7738C449.053 79.0672 451.672 77.2662 454.397 77.7659C457.11 78.2656 458.923 80.8577 458.431 83.5643Z" fill="#5193F4"/>
<path d="M75.5801 121.61C74.8571 125.677 73.7988 129.649 72.5099 133.569C69.7332 142.025 65.898 150.168 62.021 158.206C59.9987 162.408 51.794 172.13 47.3931 173.98C47.9065 163.015 47.9484 150.21 46.67 139.14C45.4441 128.478 49.2897 120.398 45.0983 110.509C44.5639 109.244 44.0085 107.98 43.4531 106.715C41.3679 102.011 39.3037 97.2863 38.654 92.2166C37.8157 85.788 39.8171 78.4605 45.3917 75.1155C49.4049 72.7113 54.6337 72.8368 58.9194 74.7288C63.2051 76.6207 66.642 80.0807 69.2511 83.9587C76.5546 94.788 77.8749 108.774 75.5801 121.61Z" fill="url(#paint1_linear)"/>
<path d="M56.089 86.1016C64.2936 97.6626 65.0062 111.126 65.7187 125.269C66.4312 139.412 63.0257 153.743 56.0156 166.056" stroke="white" stroke-miterlimit="10" stroke-linecap="round" stroke-linejoin="round"/>
<path d="M55.7446 299.321C49.9919 294.252 44.1764 289.109 39.9221 282.733C36.2232 277.182 33.8341 270.879 30.6068 265.036C28.5215 261.262 26.0486 257.614 24.8436 253.475C23.6386 249.335 23.9215 244.422 26.8764 241.276C29.9571 237.983 35.2487 237.482 39.4296 239.175C43.6105 240.868 46.8065 244.381 49.2375 248.165C52.4753 253.192 54.6444 258.91 55.5455 264.816C56.3628 270.168 56.1533 275.645 56.9915 280.997C57.767 285.983 59.454 290.771 61.5706 295.339C63.4882 299.478 68.3607 306.868 69.5971 311.112C66.1497 312.816 58.1966 301.475 55.7446 299.321Z" fill="#C8D7EE"/>
<path d="M35.6367 246.744C41.1065 249.127 43.2755 255.639 44.4177 261.482C45.717 268.13 45.4236 275.333 48.4833 281.385C54.2465 292.789 61.7386 305.761 67.3131 309.639" stroke="white" stroke-miterlimit="10" stroke-linecap="round" stroke-linejoin="round"/>
<path d="M27.4399 283.725C22.6722 281.844 16.2908 281.07 13.2311 285.178C10.6744 288.617 11.9946 293.499 13.7655 297.398C15.2639 300.69 17.1605 304.046 20.3041 305.833C22.4522 307.056 24.9775 307.422 27.4399 307.715C34.3033 308.53 41.2086 308.927 48.1244 308.906C56.13 308.885 65.833 312.147 72.4659 317.133C63.9679 301.37 43.5034 290.049 27.4399 283.725Z" fill="#C8D7EE"/>
<path d="M19.0684 293.969C25.1459 294.231 31.2758 294.649 37.1018 296.373C43.0641 298.13 66.0014 308.635 69.5851 313.098" stroke="white" stroke-miterlimit="10" stroke-linecap="round" stroke-linejoin="round"/>
<path d="M79.4992 251.363C73.2855 241.663 62.6603 234.889 51.2283 233.352C42.7826 232.224 34.096 233.792 25.7551 232.046C16.9951 230.217 9.09437 224.582 4.52576 216.9C-0.0428507 209.217 -1.2374 199.621 1.32983 191.06C3.2893 184.558 7.76361 178.391 14.2393 176.311C17.7705 175.182 21.6266 175.339 25.2312 176.196C28.5634 176.99 31.6545 178.38 34.5047 180.189C41.0223 184.307 46.2929 190.642 50.2538 197.373C53.8479 203.488 62.7127 213.011 68.7483 219.21C72.29 222.826 74.8572 225.304 74.8572 225.304C78.9858 230.436 77.0472 245.248 79.4992 251.363Z" fill="#C8D7EE"/>
<path d="M12.3535 195.116C32.6503 204.252 54.7808 216.231 69.1782 233.186" stroke="white" stroke-miterlimit="10" stroke-linecap="round" stroke-linejoin="round"/>
<path opacity="0.2" d="M71.1144 230.906C71.1144 230.906 40.8736 206.446 34.4922 180.199C41.0098 184.317 46.2805 190.652 50.2413 197.383C53.8354 203.498 62.7002 213.021 68.7358 219.22C69.4484 222.502 70.2342 226.349 71.1144 230.906Z" fill="#5275A0"/>
<path opacity="0.2" d="M72.5099 133.568C69.7331 142.024 65.898 150.167 62.021 158.206C59.9986 162.408 51.794 172.129 47.393 173.979C47.9065 163.014 47.9484 150.209 46.67 139.139C45.444 128.477 49.2896 120.397 45.0982 110.509C44.5638 109.244 44.0085 107.979 43.4531 106.714C43.8408 106.84 44.2181 106.976 44.5848 107.132C51.4796 110.08 54.6651 117.355 55.2519 124.422C55.7444 130.254 54.686 136.098 53.9002 141.899C53.5334 144.575 53.24 147.314 53.8163 149.937C53.8268 149.969 53.8373 149.99 53.8373 150.021C54.5603 153.146 59.1394 152.969 59.7262 149.802L61.5599 140.091C62.1048 137.185 62.7021 134.143 65.0912 132.115C66.0342 131.31 67.2497 130.808 68.4862 130.85C70.4561 130.923 71.6926 132.073 72.5099 133.568Z" fill="#5275A0"/>
<path d="M71.1265 224.77C66.3483 199.882 63.8335 196.046 65.9397 189.805C68.6222 181.85 67.1133 173.864 69.6386 165.857C72.1639 157.861 73.8824 149.258 71.8495 141.115C71.2104 138.544 69.9005 135.742 66.7989 135.627C65.552 135.586 64.347 136.087 63.4039 136.892C61.0148 138.92 60.4175 141.962 59.8726 144.868L58.0494 154.579C57.4521 157.735 52.8835 157.924 52.1605 154.788C52.15 154.756 52.15 154.735 52.1395 154.704C51.5527 152.08 51.8566 149.342 52.2129 146.666C52.9988 140.854 54.0571 135.021 53.5751 129.178C52.9883 122.112 49.8028 114.836 42.8975 111.899C40.456 110.854 37.6897 110.624 35.112 111.282C27.9133 113.122 26.0482 120.147 27.1065 126.136C27.8504 130.359 29.8309 134.237 31.6227 138.126C36.0027 147.627 32.7858 156.345 33.3936 166.788C35.0596 195.628 71.1265 224.77 71.1265 224.77Z" fill="#C8D7EE"/>
<path d="M39 118.84C42.5522 136.548 46.1463 154.38 53.0412 171.084C55.0635 175.976 56.0485 182.426 67.7529 195.743" stroke="white" stroke-miterlimit="10" stroke-linecap="round" stroke-linejoin="round"/>
<path d="M177.568 123.377C173.89 119.185 170.495 114.92 166.922 110.812C164.606 108.147 162.217 105.544 159.618 103.077C158.33 101.844 156.999 100.652 155.595 99.4917C147.296 92.6555 138.033 86.9795 128.131 82.7565C122.158 80.206 115.85 78.105 110.778 74.0388C105.707 69.983 102.06 63.314 103.747 57.0527C104.973 52.537 108.819 49.0248 113.23 47.415C117.631 45.8157 122.514 45.9412 127.093 46.9237C139.877 49.6729 150.555 58.8401 157.816 69.6799C157.942 69.868 158.078 70.0666 158.204 70.2652C163.527 78.3663 167.247 87.3767 170.485 96.5545C171.522 99.5022 172.507 102.471 173.481 105.429C174.948 109.851 179.454 118.997 177.568 123.377Z" fill="url(#paint2_linear)"/>
<path d="M119.088 57.5659C133.035 60.221 142.905 69.43 153.248 79.1304C163.59 88.8307 171.093 101.51 174.603 115.235" stroke="white" stroke-miterlimit="10" stroke-linecap="round" stroke-linejoin="round"/>
<path opacity="0.2" d="M166.921 110.813C166.806 112.255 166.848 113.698 167.12 115.161C163.631 114.367 161.21 108.963 159.617 103.078C158.056 97.3597 157.281 91.1716 157.04 88.3179C156.568 82.297 156.956 76.1925 158.203 70.2656C163.526 78.3667 167.246 87.3771 170.484 96.5548C169.373 99.8475 168.419 103.182 167.634 106.548C167.298 107.98 167.036 109.391 166.921 110.813Z" fill="#5275A0"/>
<path d="M191.129 60.5863C189.945 65.8023 186.791 70.3076 184.004 74.886C182.537 77.2901 181.164 79.7675 179.886 82.2762C175.788 90.3041 172.666 98.8233 170.602 107.593C169.92 110.468 169.543 113.29 170.088 116.207C163.214 114.639 160.469 95.1438 160.008 89.3529C159.18 78.9208 160.961 68.2274 165.268 58.6734C167.144 54.4818 169.575 50.3633 173.316 47.6769C177.046 44.9905 182.327 44.0497 186.277 46.3911C188.656 47.8023 190.186 50.1438 190.93 52.8093C191.663 55.2866 191.695 58.0671 191.129 60.5863Z" fill="#C8D7EE"/>
<path d="M167.456 110.457C163.181 99.7431 165.779 77.0706 172.632 62.8232C174.697 58.527 177.641 54.5026 181.759 52.1089" stroke="white" stroke-miterlimit="10" stroke-linecap="round" stroke-linejoin="round"/>
<path opacity="0.2" d="M191.128 60.5866C189.944 65.8026 186.79 70.3078 184.002 74.8862C182.535 77.2904 181.163 79.7678 179.884 82.2765C178.009 79.1197 176.72 75.6389 176.363 72.0012C175.787 65.928 178.113 59.4263 183.059 55.8514C185.375 54.1894 188.089 53.2381 190.928 52.8096C191.662 55.2869 191.693 58.0674 191.128 60.5866Z" fill="#5275A0"/>
<path d="M230.79 105.952C230.465 107.948 229.868 109.872 229.008 111.722C225.959 118.307 219.557 123.952 209.969 128.551C209.969 128.551 209.435 118.14 209.319 115.349C208.848 103.412 195.865 96.8159 187.65 88.1086C183.469 83.6661 180.294 78.0633 179.707 71.9901C179.131 65.9169 181.457 59.4152 186.403 55.8403C190.552 52.8507 195.98 52.2026 201.094 52.5894C209.33 53.2479 217.639 56.687 222.763 63.1051C222.983 63.3455 223.172 63.6068 223.36 63.8577C226.494 68.133 228.107 73.3385 229.291 78.5232C231.345 87.5023 232.267 96.8473 230.79 105.952Z" fill="#C8D7EE"/>
<path d="M189.934 62.248C198.924 66.8892 207.925 72.492 213.154 81.1261C220.457 93.1784 218.865 108.858 213.238 121.767" stroke="white" stroke-miterlimit="10" stroke-linecap="round" stroke-linejoin="round"/>
<path d="M381.143 182.938C386.875 173.531 383.941 161.426 385.942 150.607C387.472 142.287 392.114 134.572 398.757 129.304C402.928 126.001 408.785 123.638 413.49 126.116C414.506 126.649 415.722 127.412 416.707 126.806C417.294 126.45 417.524 125.719 417.671 125.05C418.865 119.206 416.047 112.82 418.352 107.311C419.589 104.342 422.156 102.126 424.87 100.402C430.109 97.067 436.239 95.1541 442.442 94.9033C444.087 94.8406 445.806 94.9033 447.283 95.635C449.945 96.9625 451.16 100.276 450.804 103.224C450.448 106.172 448.813 108.816 447.011 111.179C440.996 119.029 432.184 125.802 431.021 135.607C430.874 136.841 430.874 138.158 431.44 139.266C431.995 140.342 433.022 141.105 433.598 142.161C435.453 145.558 431.869 149.416 428.38 151.078C425.184 152.604 421.726 153.555 418.195 153.889C415.764 154.119 413.029 154.172 411.373 155.959C408.324 159.262 411.824 164.541 411.185 168.983C410.787 171.754 408.775 173.99 406.742 175.935C402.98 179.541 398.873 182.771 394.482 185.583C390.919 187.862 387.158 189.869 384.004 192.67C380.85 195.471 378.303 199.266 378.094 203.478" fill="#C8D7EE"/>
<path d="M388.697 173.792C389.63 169.235 391.757 165.012 393.863 160.862C397.153 154.37 400.507 147.785 405.473 142.465C409.246 138.419 413.846 135.221 417.681 131.238C420.416 128.395 422.742 125.175 424.576 121.684C425.571 119.792 426.43 117.806 427.761 116.144C429.354 114.168 431.523 112.757 433.419 111.064C435.976 108.785 438.03 105.952 439.413 102.816" stroke="white" stroke-miterlimit="10" stroke-linecap="round" stroke-linejoin="round"/>
<path d="M463.411 189.472C462.122 194.426 460.204 199.329 456.914 203.259C454.64 205.967 451.811 208.109 448.72 209.855C447.127 210.764 445.451 211.559 443.764 212.27C437.204 215.019 430.152 216.576 423.048 216.848C412.695 217.235 402.049 214.956 392.115 217.904C387.557 219.252 383.355 221.709 379.908 224.96C377.749 226.977 375.895 229.308 374.428 231.869L375.779 223.298C378.284 214.078 380.841 204.691 385.954 196.611C389.255 191.374 393.54 186.817 398.099 182.625C405.381 175.914 413.46 170.008 422.377 165.691C429.586 162.2 437.592 159.743 445.556 160.716C453.509 161.677 461.326 166.695 463.809 174.294C465.402 179.176 464.71 184.507 463.411 189.472Z" fill="url(#paint3_linear)"/>
<path d="M382.549 216.775C390.156 205.548 401.546 196.914 414.435 192.628C422.461 189.952 430.959 188.938 439.091 186.597C447.222 184.256 455.343 180.283 460.11 173.301" stroke="white" stroke-miterlimit="10" stroke-linecap="round" stroke-linejoin="round"/>
<path d="M387.555 299.112C388.006 287.583 393.979 276.942 401.24 267.952C407.286 260.457 414.59 253.6 423.612 250.182C426.441 249.116 429.543 248.395 432.477 249.116C435.41 249.837 438.072 252.335 438.124 255.356C438.166 257.896 436.458 260.123 434.656 261.921C428.725 267.848 421.065 271.642 413.877 275.98C401.534 283.423 389.798 293.353 384.904 306.889" fill="#C8D7EE"/>
<path d="M392.125 289.025C399.669 272.238 419.201 257.228 432.079 255.356" stroke="white" stroke-miterlimit="10" stroke-linecap="round" stroke-linejoin="round"/>
<path d="M382.839 308.279C382.734 306.346 389.053 301.297 390.478 300.011C398.368 292.872 407.736 287.624 417.638 284.53C421.641 283.276 425.906 282.366 429.908 283.328C433.922 284.29 437.589 287.572 437.987 291.879C438.365 296.06 435.556 300.157 431.962 302.175C428.368 304.203 424.177 304.506 420.174 304.276C413.992 303.92 407.914 302.384 401.711 302.426C395.508 302.467 386.79 303.105 382.839 308.279Z" fill="#C8D7EE"/>
<path d="M389.273 302.416C401.963 295.559 421.149 291.095 435.085 292.778" stroke="white" stroke-miterlimit="10" stroke-linecap="round" stroke-linejoin="round"/>
<path opacity="0.2" d="M230.787 105.951C230.462 107.948 229.865 109.871 229.006 111.721C224.553 102.303 220.634 90.0104 219.691 74.9164C219.439 70.8292 220.581 66.6271 222.761 63.1045C222.981 63.3449 223.169 63.6062 223.358 63.8571C226.491 68.1324 228.105 73.338 229.289 78.5226C231.343 87.5017 232.265 96.8467 230.787 105.951Z" fill="#5275A0"/>
<path d="M274.682 105.429C284.155 102.073 294.004 99.3975 302.618 94.2128C305.227 92.6448 307.731 90.826 309.586 88.4218C311.43 86.0177 312.572 82.9445 312.163 79.934C311.744 76.8818 309.785 73.9549 310.445 70.934C310.885 68.948 312.373 67.4009 313.515 65.7075C316.229 61.704 317.036 56.4671 315.663 51.826C314.175 46.8504 310.435 42.8573 308.307 38.1221C306.568 34.2441 305.95 29.8852 306.537 25.6831C298.583 25.7876 291.332 30.1256 283.515 31.5681C277.532 32.6761 271.318 32.0699 265.388 33.4288C254.584 35.9061 245.74 45.3974 244.064 56.3312C239.055 55.4741 233.659 57.272 230.169 60.9723C226.471 64.9027 224.385 70.495 224.721 75.8783C227.162 115.004 249.618 135.408 249.618 135.408C249.618 135.408 271.067 106.704 274.682 105.429Z" fill="#C8D7EE"/>
<path d="M253.483 105.158C252.498 95.5098 255.883 85.9662 259.76 77.0707C263.542 68.4052 267.901 59.907 273.748 52.4645C279.595 45.0219 287.025 38.6456 295.795 35.0498" stroke="white" stroke-miterlimit="10" stroke-linecap="round" stroke-linejoin="round"/>
<path d="M261.918 40.9663C260.923 49.5691 261.625 59.9384 263.867 68.3008" stroke="white" stroke-miterlimit="10" stroke-linecap="round" stroke-linejoin="round"/>
<path d="M265.48 65.2273C275.33 58.9242 290.482 55.0984 302.166 55.7674" stroke="white" stroke-miterlimit="10" stroke-linecap="round" stroke-linejoin="round"/>
<path d="M241.391 66.8379C253.252 71.824 253.734 89.2177 254.059 94.162" stroke="white" stroke-miterlimit="10" stroke-linecap="round" stroke-linejoin="round"/>
<path d="M257.287 83.1018C266.361 76.6105 279.47 74.6558 289.121 77.0809" stroke="white" stroke-miterlimit="10" stroke-linecap="round" stroke-linejoin="round"/>
<path d="M282.036 36.5034C279.312 39.8588 278.631 43.8519 278.903 46.6219" stroke="white" stroke-miterlimit="10" stroke-linecap="round" stroke-linejoin="round"/>
<path d="M281.492 44.1644C285.673 42.032 291.269 41.5407 297.252 43.0355" stroke="white" stroke-miterlimit="10" stroke-linecap="round" stroke-linejoin="round"/>
<path d="M48.179 63.0836C49.2897 63.0209 56.8971 57.4076 59.8206 55.5156C60.6484 54.9825 61.4762 54.4285 62.0525 53.6341C62.6288 52.8397 62.9012 51.7526 62.4821 50.8641C61.9582 49.7665 61.099 48.6689 58.9299 48.6689C55.1472 48.6794 53.8269 49.9233 51.9827 51.8153C45.8842 58.108 48.179 63.0836 48.179 63.0836Z" fill="#C8D7EE"/>
<path d="M82.254 85.736C85.5652 87.2204 89.0965 88.6942 92.7011 88.2343C94.0947 88.0566 95.6245 87.4189 96.0856 86.1019C96.4838 84.973 95.9389 83.6663 95.0377 82.8719C94.1366 82.0775 92.9525 81.6907 91.779 81.4085C87.378 80.3318 81.1852 80.9277 76.8262 82.1611C76.8262 82.1716 80.2841 84.858 82.254 85.736Z" fill="#C8D7EE"/>
<path d="M104.051 36.9728C102.573 36.0425 100.939 34.7986 100.949 33.053C100.949 31.3073 102.773 29.9798 104.522 29.9693C106.272 29.9589 107.896 30.9101 109.217 32.0704C114.781 36.9519 114.089 42.5129 114.089 42.5129C114.089 42.5129 105.696 38.0077 104.051 36.9728Z" fill="#C8D7EE"/>
<path d="M108.441 22.0979C107.141 21.5439 105.811 20.8749 105.046 19.6833C104.679 19.1083 104.469 18.3766 104.689 17.7286C105.067 16.6519 105.748 15.6798 108.483 16.1711C117.127 17.739 119.013 23.6449 119.013 23.6449C119.013 23.6449 110.735 23.0805 108.441 22.0979Z" fill="#C8D7EE"/>
<path d="M133.777 35.1643C137.246 34.8612 140.829 33.1469 143.009 30.4396C143.837 29.4152 144.591 28.2967 144.864 27.011C145.136 25.7253 144.843 24.2619 143.847 23.4047C142.632 22.3594 140.704 22.5267 139.373 23.4047C138.032 24.2828 137.172 25.7253 136.481 27.1574C135.548 29.0807 133.777 35.1643 133.777 35.1643Z" fill="#C8D7EE"/>
<path d="M71.8595 161.29C63.4662 153.91 55.0625 146.52 46.6692 139.14C42.1949 135.21 37.6263 131.154 34.7971 125.917C28.7091 114.659 32.2194 100.035 40.445 90.22C48.6706 80.4046 60.7209 74.6137 72.834 70.4011C84.9366 66.1886 97.5422 63.2304 109.079 57.6485C116.32 54.1468 123.592 48.9412 125.583 41.1642C126.777 36.4917 125.771 31.2966 122.921 27.4081C120.071 23.5091 115.418 20.9795 110.588 20.6973" stroke="white" stroke-miterlimit="10" stroke-linecap="round" stroke-linejoin="round"/>
<path d="M139.635 27.126C137.34 34.1504 128.402 38.4256 124.326 44.5197" stroke="white" stroke-miterlimit="10" stroke-linecap="round" stroke-linejoin="round"/>
<path d="M107.549 35.2158C109.309 37.066 111.415 38.6026 112.956 40.6409C116.204 44.958 116.466 51.9719 111.667 56.3204" stroke="white" stroke-miterlimit="10" stroke-linecap="round" stroke-linejoin="round"/>
<path d="M62.3438 74.5508C69.752 80.2476 79.4865 84.0421 88.8333 84.3975" stroke="white" stroke-miterlimit="10" stroke-linecap="round" stroke-linejoin="round"/>
<path d="M45.3802 84.9304C41.9642 74.8956 45.684 62.8746 54.1716 56.5088" stroke="white" stroke-miterlimit="10" stroke-linecap="round" stroke-linejoin="round"/>
<path d="M316.169 42.5346C315.77 41.2907 315.791 39.7645 316.703 38.8342C317.436 38.1025 318.652 37.768 319.605 38.1861C326.972 41.4161 326.175 52.883 326.175 52.883C326.175 52.883 319.186 51.8795 316.169 42.5346Z" fill="#C8D7EE"/>
<path d="M315.989 64.0049C311.222 72.5973 328.155 71.9387 334.264 66.8795C334.264 66.8795 320.087 56.6147 315.989 64.0049Z" fill="#C8D7EE"/>
<path d="M337.395 43.182C336.243 41.614 335.834 39.2726 337.092 37.7778C338.024 36.6698 339.648 36.3248 341.073 36.5966C342.498 36.8684 344.636 38.1855 345.548 39.3144C351.122 46.2343 348.503 52.9973 348.503 52.9973C348.503 52.9973 339.282 45.7639 337.395 43.182Z" fill="#C8D7EE"/>
<path d="M404.659 64.4538C404.25 63.1158 404.345 61.4851 405.382 60.5443C406.042 59.9485 406.975 59.7395 407.855 59.8022C408.735 59.8649 409.584 60.1889 410.391 60.5548C412.12 61.3388 413.461 62.7186 414.289 64.4224C416.384 68.729 414.959 74.0496 414.959 74.0496C414.959 74.0496 405.675 67.7883 404.659 64.4538Z" fill="#C8D7EE"/>
<path d="M383.502 80.2174C380.505 77.5937 375.926 76.8202 372.269 78.4195C371.336 78.8272 370.456 79.4021 369.869 80.2174C368.528 82.0676 368.999 84.7645 370.393 86.5728C371.776 88.3812 373.882 89.4787 375.968 90.4195C379.74 92.1234 385.587 92.4683 389.6 93.4927C389.59 93.4822 389.569 85.538 383.502 80.2174Z" fill="#C8D7EE"/>
<path d="M321.439 44.3735C323.933 52.5059 330.985 58.6523 338.834 61.9659C346.682 65.2899 355.327 66.168 363.846 66.7115C372.354 67.2656 380.968 67.5373 389.193 69.7638C397.209 71.938 405.204 76.4537 408.641 84.0008C412.833 93.1889 409.123 104.165 403.234 112.381C397.356 120.586 389.434 127.203 383.744 135.544C381.135 139.37 378.945 143.865 379.48 148.464C380.182 154.6 385.369 159.116 390.178 163.004" stroke="white" stroke-miterlimit="10" stroke-linecap="round" stroke-linejoin="round"/>
<path d="M341.055 41.3945C346.692 47.614 351.198 57.3458 352.298 65.6663" stroke="white" stroke-miterlimit="10" stroke-linecap="round" stroke-linejoin="round"/>
<path d="M322.098 65.4363C325.325 66.2935 328.594 67.1506 331.926 67.1611C335.259 67.1715 339.125 65.3213 341.525 63.0112" stroke="white" stroke-miterlimit="10" stroke-linecap="round" stroke-linejoin="round"/>
<path d="M410.17 64.9668C413.188 67.8727 415.032 71.9807 415.189 76.1619C415.346 80.3431 413.02 85.4233 410.222 88.5487" stroke="white" stroke-miterlimit="10" stroke-linecap="round" stroke-linejoin="round"/>
<path d="M378.566 83.9585C384.602 89.4986 389.852 93.9829 396.558 98.6867C399.618 100.84 405.695 103.589 408.399 102.878" stroke="white" stroke-miterlimit="10" stroke-linecap="round" stroke-linejoin="round"/>
<path opacity="0.2" d="M448.718 209.855C447.125 210.764 445.448 211.559 443.761 212.269C437.202 215.019 430.15 216.576 423.045 216.848C412.693 217.235 402.047 214.956 392.113 217.904C387.555 219.252 383.353 221.708 379.906 224.959C379.56 225.127 379.214 225.315 378.868 225.513C378.04 218.52 395.519 209.405 400.831 207.032C410.419 202.747 421.107 200.844 431.585 201.681C436.175 202.046 440.88 202.945 444.663 205.548C446.287 206.667 447.712 208.161 448.718 209.855Z" fill="#5275A0"/>
<path d="M431.585 205.861C436.175 206.227 440.88 207.126 444.663 209.729C448.456 212.332 451.117 216.983 450.237 221.488C449.21 226.736 443.772 230.154 438.449 230.792C433.126 231.429 427.813 229.976 422.563 228.9C410.943 226.516 398.955 225.962 387.167 227.29C384.223 227.614 381.435 228.199 378.868 229.704C378.04 222.711 395.529 213.596 400.842 211.224C410.419 206.927 421.107 205.025 431.585 205.861Z" fill="#C8D7EE"/>
<path d="M383.416 225.283C392.092 217.673 414.38 212.51 430.139 214.172C434.886 214.674 439.675 216.085 443.321 219.158" stroke="white" stroke-miterlimit="10" stroke-linecap="round" stroke-linejoin="round"/>
<path d="M367.195 139.776L451.956 139.599C461.9 139.578 469.979 147.606 470 157.526C470.021 167.445 461.973 175.505 452.029 175.526L394.052 175.641" stroke="white" stroke-miterlimit="10" stroke-linecap="round" stroke-linejoin="round" stroke-dasharray="4 4"/>
<path d="M110.746 201.857L51.4693 201.983C45.8529 201.993 41.3157 206.54 41.3262 212.143C41.3367 217.746 45.8948 222.272 51.5113 222.262L68.7903 222.23" stroke="white" stroke-miterlimit="10" stroke-linecap="round" stroke-linejoin="round" stroke-dasharray="4 4"/>
<path d="M16.1362 247.652C-4.17104 247.694 -4.59018 277.914 21.2392 277.851C47.0791 277.799 386.026 277.098 402.006 277.067C417.985 277.036 419.673 252.157 399.921 252.199C360.595 252.283 359.296 233.572 381.122 233.53" stroke="#C8DBFB" stroke-miterlimit="10" stroke-linecap="round" stroke-linejoin="round" stroke-dasharray="4 4"/>
<path d="M20.895 246.806C21.356 249.534 19.5223 252.116 16.7874 252.586C14.0525 253.046 11.4644 251.217 10.9928 248.489C10.5318 245.76 12.3655 243.179 15.1004 242.708C17.8353 242.248 20.4234 244.088 20.895 246.806Z" fill="#5193F4"/>
<path d="M390.868 233.666C391.329 236.395 389.495 238.977 386.76 239.447C384.025 239.907 381.437 238.078 380.965 235.349C380.504 232.621 382.338 230.039 385.073 229.569C387.808 229.109 390.407 230.938 390.868 233.666Z" fill="white"/>
<path opacity="0.2" d="M396.339 321.02L81.0521 321.668C76.8502 321.678 73.4238 318.281 73.4238 314.09L72.9942 105.731C72.9837 101.539 76.3892 98.1208 80.5911 98.1208L395.878 97.4727C400.08 97.4622 403.506 100.859 403.506 105.051L403.936 313.41C403.946 317.602 400.541 321.009 396.339 321.02Z" fill="#5275A0"/>
<path d="M390.167 317.038L74.8802 317.686C70.6784 317.697 67.2519 314.299 67.2519 310.108L66.8223 101.749C66.8118 97.5569 70.2173 94.1388 74.4192 94.1388L389.706 93.4907C393.908 93.4803 397.334 96.8775 397.334 101.069L397.764 309.428C397.774 313.62 394.369 317.038 390.167 317.038Z" fill="white"/>
<path d="M389.184 93.4903L75.2487 94.1383C70.6696 94.1488 66.9707 97.8596 66.9707 102.428L66.9812 109.619L397.504 108.94L397.493 101.748C397.483 97.1697 393.763 93.4798 389.184 93.4903Z" fill="url(#paint4_linear)"/>
<path d="M75.6263 317.686L123.062 317.592L122.633 109.494L66.9082 109.609L67.3169 309.449C67.3273 314.007 71.0472 317.696 75.6263 317.686Z" fill="#C8DBFB"/>
<path d="M389.787 95.5711C392.826 95.5711 395.299 98.038 395.309 101.069L395.739 309.428C395.75 312.47 393.277 314.937 390.227 314.948L74.9303 315.596C71.8915 315.596 69.4186 313.129 69.4081 310.097L68.9785 101.738C68.9785 100.264 69.5444 98.8847 70.5922 97.8394C71.6296 96.7941 73.0127 96.2192 74.4902 96.2192L389.766 95.5711H389.787ZM389.787 93.4805C389.777 93.4805 389.777 93.4805 389.766 93.4805L74.4797 94.1286C70.2779 94.139 66.8724 97.5467 66.8828 101.738L67.3124 310.097C67.3229 314.289 70.7284 317.676 74.9303 317.676C74.9303 317.676 74.9408 317.676 74.9513 317.676L390.238 317.028C394.44 317.017 397.845 313.61 397.835 309.418L397.405 101.059C397.395 96.8777 393.989 93.4805 389.787 93.4805Z" fill="url(#paint5_linear)"/>
<path d="M115.067 301.787L78.5075 301.86C76.8938 301.86 75.584 300.564 75.584 298.954V298.588C75.584 296.978 76.8833 295.672 78.497 295.672L115.056 295.599C116.67 295.599 117.98 296.895 117.98 298.505V298.87C117.98 300.47 116.681 301.776 115.067 301.787Z" fill="white"/>
<path d="M110.666 160.609L79.5451 160.671C76.5901 160.682 74.1906 158.288 74.1801 155.34L74.1172 124.295C74.1067 121.347 76.5063 118.954 79.4612 118.943L110.582 118.88C113.537 118.87 115.937 121.264 115.947 124.211L116.01 155.257C116.01 158.204 113.621 160.598 110.666 160.609Z" fill="white"/>
<path d="M243.9 253.609L135.469 253.829C133.363 253.829 131.655 252.136 131.645 250.035V249.564C131.645 247.463 133.342 245.759 135.448 245.749L243.879 245.529C245.986 245.529 247.694 247.223 247.704 249.324V249.794C247.715 251.895 246.007 253.609 243.9 253.609Z" fill="#C8DBFB"/>
<path d="M237.634 130.369L151.952 130.547C149.845 130.547 148.137 128.854 148.127 126.752V126.282C148.127 124.181 149.824 122.477 151.931 122.467L237.613 122.289C239.719 122.289 241.427 123.982 241.438 126.083V126.554C241.448 128.655 239.74 130.369 237.634 130.369Z" fill="#C8DBFB"/>
<path d="M373.087 216.815L258.84 217.055C256.734 217.055 255.026 215.362 255.016 213.261V212.791C255.016 210.69 256.713 208.986 258.819 208.975L373.066 208.735C375.172 208.735 376.88 210.428 376.891 212.529V213C376.901 215.111 375.193 216.815 373.087 216.815Z" fill="#C8DBFB"/>
<path d="M243.932 270.314L135.5 270.533C133.394 270.533 131.686 268.84 131.676 266.739V266.268C131.676 264.167 133.373 262.463 135.479 262.453L243.911 262.233C246.017 262.233 247.725 263.927 247.735 266.028V266.498C247.746 268.61 246.038 270.314 243.932 270.314Z" fill="#C8DBFB"/>
<path d="M243.973 287.028L135.541 287.248C133.435 287.248 131.727 285.555 131.717 283.453V282.983C131.717 280.882 133.414 279.178 135.52 279.168L243.952 278.948C246.058 278.948 247.766 280.642 247.776 282.743V283.213C247.776 285.314 246.079 287.018 243.973 287.028Z" fill="#C8DBFB"/>
<path d="M370.772 297.92L261.492 298.149C258.013 298.16 255.184 295.348 255.184 291.878L255.09 245.059C255.079 241.588 257.898 238.766 261.377 238.766L370.657 238.536C374.136 238.526 376.965 241.338 376.965 244.808L377.059 291.627C377.059 295.097 374.251 297.909 370.772 297.92Z" fill="#C8DBFB"/>
<path d="M85.1109 101.707C85.1109 103.181 83.9164 104.373 82.4494 104.373C80.9824 104.373 79.7773 103.181 79.7773 101.718C79.7773 100.244 80.9719 99.0522 82.4389 99.0522C83.9059 99.0522 85.1109 100.233 85.1109 101.707Z" fill="#C8DBFB"/>
<path d="M93.7423 104.352C95.218 104.352 96.4143 103.159 96.4143 101.687C96.4143 100.214 95.218 99.021 93.7423 99.021C92.2666 99.021 91.0703 100.214 91.0703 101.687C91.0703 103.159 92.2666 104.352 93.7423 104.352Z" fill="#C8DBFB"/>
<path d="M107.722 101.666C107.722 103.14 106.528 104.331 105.061 104.331C103.583 104.331 102.389 103.14 102.389 101.676C102.389 100.202 103.583 99.0108 105.05 99.0108C106.517 99.0004 107.722 100.192 107.722 101.666Z" fill="#C8DBFB"/>
<path d="M143.941 127.315C144.366 123.082 141.27 119.306 137.027 118.882C132.783 118.458 128.998 121.546 128.573 125.779C128.147 130.012 131.243 133.788 135.487 134.212C139.731 134.637 143.515 131.549 143.941 127.315Z" fill="#C8DBFB"/>
<path d="M112.834 167.122L78.6218 167.195C77.8254 167.195 77.1863 166.557 77.1758 165.763V165.585C77.1758 164.791 77.815 164.153 78.6113 164.142L112.824 164.069C113.62 164.069 114.259 164.707 114.27 165.501V165.679C114.27 166.474 113.63 167.122 112.834 167.122Z" fill="white"/>
<path d="M112.844 173.634L78.6316 173.707C77.8352 173.707 77.196 173.07 77.1855 172.275V172.098C77.1855 171.303 77.8247 170.666 78.6211 170.655L112.833 170.582C113.63 170.582 114.269 171.22 114.279 172.014V172.192C114.29 172.986 113.64 173.634 112.844 173.634Z" fill="white"/>
<path d="M152.023 187.411L142.351 187.505L142.425 227.938L134.073 227.958C131.129 227.969 128.74 225.586 128.729 222.648L128.572 147.878C128.562 144.91 130.972 142.495 133.948 142.495L151.918 142.453L152.023 187.411Z" fill="#C8DBFB"/>
<path d="M214.779 142.327V143.372C217.671 143.372 220.028 145.714 220.028 148.599L220.175 221.498C220.186 224.383 217.828 226.745 214.936 226.745L135.017 226.913C132.124 226.913 129.767 224.571 129.767 221.686L129.62 148.787C129.61 145.902 131.967 143.54 134.859 143.54L214.768 143.372L214.779 142.327ZM214.779 142.327H214.768L134.859 142.494C131.381 142.505 128.562 145.317 128.572 148.787L128.719 221.686C128.729 225.156 131.548 227.958 135.017 227.958H135.027L214.936 227.791C218.415 227.78 221.233 224.968 221.223 221.498L221.076 148.599C221.066 145.139 218.247 142.327 214.779 142.327Z" fill="#C8DBFB"/>
<path d="M348.211 202.328L241.624 178.296C238.229 177.533 236.102 174.167 236.867 170.78L248.854 117.857C249.619 114.47 252.993 112.348 256.388 113.111L362.975 137.143C366.37 137.906 368.497 141.272 367.732 144.658L355.745 197.582C354.969 200.969 351.606 203.091 348.211 202.328Z" fill="#C8DBFB"/>
<path d="M141.921 346.265L127.01 346.296L123.363 327.345L145.494 327.292L141.921 346.265Z" fill="#0056EC"/>
<path d="M127.489 327.334C127.489 328.881 127.196 331.474 128.233 331.515C129.271 331.557 128.841 329.048 130.015 329.122C130.769 329.163 129.669 337.359 132.509 337.557C134.458 337.693 134.101 333.543 134.3 330.94C134.437 329.184 136.69 329.529 136.711 330.69C136.731 331.996 136.648 332.864 136.711 334.348C136.815 336.825 140.629 336.167 140.493 332.864C140.357 329.561 140.483 327.324 140.483 327.324L127.489 327.334Z" fill="#C8DBFB"/>
<path d="M123.917 338.78C123.613 338.78 123.32 338.748 123.037 338.685C121.937 338.445 121.172 337.87 120.742 336.971C119.223 333.752 123.225 327.731 123.383 327.459L123.592 328.546C123.561 328.609 120.071 333.783 121.444 336.679C121.769 337.368 122.345 337.797 123.215 337.985C123.456 338.037 123.707 338.058 123.959 338.058C129.334 338.048 138.513 328.065 138.618 327.95C138.996 327.501 139.698 327.929 139.446 328.306C139.016 328.787 129.691 338.769 123.917 338.78Z" fill="#0C2340"/>
<path opacity="0.2" d="M280.648 79.5671C259.45 78.7622 230.267 94.3998 240.62 132.637C240.4 135.867 242.338 138.177 244.402 137.55C246.467 136.923 244.643 130.787 244.643 130.787C248.175 102.355 254.776 97.4417 265.978 97.5462L292.268 97.4939C298.765 98.4451 310.574 102.982 312.345 125.738L318.894 126.94C319.407 110.497 315.415 80.8946 280.648 79.5671Z" fill="#5275A0"/>
<path d="M280.648 76.2428C259.45 75.438 230.267 91.0756 240.62 129.313L244.643 127.462C248.175 99.0303 254.776 94.1174 265.978 94.2219L292.268 94.1697C298.765 95.1209 310.888 100.88 312.659 123.637L318.894 123.626C319.407 107.173 315.415 77.5704 280.648 76.2428Z" fill="url(#paint6_linear)"/>
<path d="M276.31 76.8604L273.166 83.7593C273.166 83.7593 273.543 87.6478 277.368 87.5642C281.192 87.4806 281.706 85.7245 281.706 85.7245L282.209 77.8011L276.31 76.8604Z" fill="#FFB9A3"/>
<path d="M292.489 71.1112C288.905 77.4352 287.312 79.4108 282.618 80.3621C276.541 81.5955 269.73 77.5084 272.894 67.4317C275.472 59.2157 279.391 60.4805 283.215 60.7941C287.05 61.0972 296.366 64.2645 292.489 71.1112Z" fill="#FFB9A3"/>
<path d="M278.228 66.1142C277.275 65.6229 276.049 66.041 275.305 66.8145C274.54 67.6194 274.173 68.811 274.498 69.8668C273.031 69.8877 271.742 71.3197 271.878 72.7832C270.872 70.4521 271.417 68.0166 271.218 65.6229C271.019 63.2291 271.281 60.6368 272.832 58.8075C273.471 58.0549 274.288 57.48 275.158 57.0201C278.459 55.264 282.619 55.2117 285.972 56.8633C286.663 57.2082 288.403 58.2953 290.834 57.71C295.465 56.5915 298.169 59.7169 295.392 62.6438C296.283 62.9678 297.268 63.365 297.666 64.2222C297.771 64.4417 297.823 64.7135 297.687 64.9121C297.592 65.048 297.425 65.1211 297.257 65.1734C296.482 65.4347 295.633 65.4974 294.816 65.3615C295.13 65.6229 296.848 65.7274 297.362 66.7309C298.745 69.3859 293.275 68.048 292.437 67.7762C293.391 67.9539 295.884 69.9399 295.088 71.3093C294.931 71.5811 291.557 73.5358 288.015 69.4278C287.187 68.4765 286.16 67.588 284.945 67.264C283.991 67.0131 282.985 67.3581 282.053 67.7135C281.372 67.9643 279.643 69.0201 279.15 68.3929C278.626 67.7135 279.328 66.6577 278.228 66.1142Z" fill="#0C2340"/>
<path d="M313.342 123.626C312.399 126.856 311.456 127.17 312.587 127.682C313.73 128.194 314.652 126.386 314.652 126.386L319.912 127.431C319.912 127.431 318.728 124.024 317.9 123.616C317.062 123.208 313.342 123.626 313.342 123.626Z" fill="#FFB9A3"/>
<path d="M244.645 127.452C245.336 129.156 245.525 129.166 246.479 131.215C248.312 135.125 244.027 141.302 241.365 134.56C240.632 132.71 240.621 129.313 240.621 129.313L244.645 127.452Z" fill="#FFB9A3"/>
<path d="M285.707 57.4176C289.302 57.6162 293.723 55.0866 296.542 58.327C296.804 58.6301 297.328 58.2329 297.098 57.8984C294.405 54.0413 289.406 56.9158 285.718 56.8113C285.33 56.8113 285.33 57.3967 285.707 57.4176Z" fill="#0C2340"/>
<path d="M287.154 55.4418C284.692 55.8703 282.334 54.7101 279.872 55.0968C277.87 55.4104 276.089 56.4348 274.58 57.7414C274.192 58.0759 274.695 58.7345 275.135 58.4522C277.252 57.062 279.285 55.8599 281.925 56.0585C283.843 56.1944 285.467 56.7588 287.374 56.1944C287.856 56.048 287.647 55.3581 287.154 55.4418Z" fill="#0C2340"/>
<path d="M273.176 58.7867C271.447 59.8634 270.451 61.2954 270.242 63.3547C270.095 64.839 270.053 68.2362 271.552 69.0725C271.908 69.2711 272.285 68.8007 271.992 68.4975C271.028 67.5254 270.944 64.9017 271.017 63.6683C271.122 61.7763 271.918 60.3338 273.427 59.2048C273.668 59.0271 273.459 58.609 273.176 58.7867Z" fill="#0C2340"/>
<path d="M299.76 64.6723C298.869 63.1357 296.595 61.7769 294.845 62.749C294.573 62.9058 294.699 63.3239 295.003 63.3239C295.768 63.3344 296.47 63.2403 297.214 63.4702C298.062 63.7316 298.775 64.2229 299.278 64.9441C299.487 65.2264 299.938 64.9859 299.76 64.6723Z" fill="#0C2340"/>
<path d="M183.164 224.132C194.282 228.209 203.932 240.92 201.711 250.171C199.207 260.613 191.987 265.118 191.987 265.118L189.713 260.927C189.713 260.927 195.487 251.927 194.984 247.672C194.177 240.868 185.564 236.31 185.564 236.31L183.164 224.132Z" fill="url(#paint7_linear)"/>
<path d="M155.795 341.958C155.795 341.958 148.974 344.707 147.266 346.265L160.783 346.233L160.772 341.948L155.795 341.958Z" fill="#0C2340"/>
<path d="M185.668 341.697C185.668 341.697 187.607 343.934 187.963 346.182L178.742 346.202C178.899 344.655 179.56 343.161 180.461 341.708L185.668 341.697Z" fill="#0C2340"/>
<path d="M186.233 341.896L179.936 341.906C180.061 334.505 178.532 309.282 177.054 290.425C176.184 279.366 175.325 270.481 174.822 268.683L178.196 267.941L190.928 265.119C193.107 275.049 188.078 320.645 186.233 341.896Z" fill="url(#paint8_linear)"/>
<path d="M163.088 268.286C158.173 276 156.905 331.777 154.852 342.115L160.824 342.449C160.824 342.449 167.688 307.286 182.295 267.752L163.088 268.286Z" fill="white"/>
<path opacity="0.1" d="M184.808 267.752C181.927 275.561 179.338 283.202 177.054 290.425C176.184 279.366 175.325 270.481 174.822 268.683L178.196 267.941L184.808 267.752Z" fill="black"/>
<path d="M163.088 268.286C158.173 276 156.905 331.777 154.852 342.115L160.824 342.449C160.824 342.449 167.688 307.286 182.295 267.752L163.088 268.286Z" fill="url(#paint9_linear)"/>
<path d="M166.838 206.018C166.838 206.018 163.013 220.548 172.57 220.537L172.004 224.248L179.255 225.042L177.683 219.868C177.683 219.868 179.119 210.732 179.213 209.081C179.402 205.997 170.746 200.561 166.838 206.018Z" fill="#FFB9A3"/>
<path d="M143.229 189.729L140.41 189.735L140.434 201.599L143.252 201.593L143.229 189.729Z" fill="#0C2340"/>
<path d="M149.895 189.71L133.737 189.742C132.606 189.742 131.684 188.832 131.684 187.703V187.285C131.684 186.156 132.595 185.236 133.727 185.236L149.885 185.205C151.016 185.205 151.938 186.115 151.938 187.243V187.662C151.938 188.79 151.027 189.71 149.895 189.71Z" fill="#0056EC"/>
<path d="M139.646 204.69C139.572 202.004 137.34 202.704 138.566 198.314C139.321 195.596 144.948 198.753 144.246 200.635C143.544 202.516 142.737 205.495 142.737 205.495L139.646 204.69Z" fill="#FFB9A3"/>
<path d="M172.632 223.391C158.35 224.331 157.407 229.14 151.015 228.387C141.553 227.279 143.208 209.75 144.382 203.467L138.734 203.478C138.734 203.478 128.549 243.398 160.718 236.018C159.482 243.011 167.487 254.436 159.723 268.297C171.93 271.6 183.331 272.415 193.086 268.234C191.378 265.934 196.586 242.739 186.39 226.046C184.399 222.774 173.68 223.328 172.632 223.391Z" fill="#0056EC"/>
<path d="M172.632 223.391C158.35 224.331 157.407 229.14 151.015 228.387C141.553 227.279 143.208 209.75 144.382 203.467L138.734 203.478C138.734 203.478 128.549 243.398 160.718 236.018C159.482 243.011 167.487 254.436 159.723 268.297C171.93 271.6 183.331 272.415 193.086 268.234C191.378 265.934 196.586 242.739 186.39 226.046C184.399 222.774 173.68 223.328 172.632 223.391Z" fill="url(#paint10_linear)"/>
<path d="M170.674 208.809C171.607 209.049 172.686 209.227 173.189 210.011C173.514 210.523 173.493 211.161 173.461 211.756C173.629 211.129 174.331 210.68 174.991 210.763C175.662 210.837 176.228 211.432 176.238 212.081C176.249 212.384 176.144 212.676 176.029 212.959C175.746 213.669 175.389 214.338 174.97 214.976C176.133 215.405 177.118 218.812 177.695 219.868C179.654 219.377 184.024 217.694 184.401 210.763C184.579 207.533 183.594 203.666 180.084 201.523C177.6 200.007 173.493 199.986 170.653 200.708C168.348 201.293 164.68 203.593 166.388 206.269C167.248 207.617 169.134 208.412 170.674 208.809Z" fill="#0C2340"/>
<path d="M182.902 204.386C184.233 203.947 185.92 204.177 186.716 205.285C187.334 206.153 187.282 207.282 187.481 208.317C187.575 208.819 187.754 209.32 188.141 209.665C188.602 210.073 189.273 210.177 189.902 210.209C191.442 210.292 192.993 210.094 194.512 210.355C196.032 210.616 197.582 211.463 198.012 212.874C198.253 213.658 198.117 214.515 198.41 215.278C198.84 216.428 200.066 217.087 201.135 217.756C203.408 219.177 205.347 221.101 206.741 223.327C207.631 224.738 208.312 226.306 208.417 227.947C208.522 229.589 209.716 231.763 209.392 233.373C209.046 235.118 207.327 237.481 203.932 238.568C198.064 240.449 196.199 241.265 190.572 237.93C189.891 237.522 188.571 236.163 187.953 235.672C187.471 235.285 187.167 234.731 186.999 234.157C186.528 232.547 187.072 230.812 187.911 229.348C188.749 227.885 189.891 226.589 190.75 225.136C191.264 224.258 191.683 223.285 191.641 222.282C191.62 221.906 191.526 221.519 191.253 221.247C191.012 221.017 190.677 220.902 190.342 220.839C189.105 220.599 187.743 220.85 186.632 220.296C185.543 219.763 184.945 218.446 185.281 217.317C185.501 216.564 186.077 215.927 186.234 215.163C186.465 214.055 185.773 212.927 184.809 212.278C183.845 211.63 182.661 211.38 181.498 211.191C180.922 211.097 180.324 211.003 179.863 210.669C179.287 210.261 179.025 209.54 179.035 208.86C179.077 206.686 180.848 205.076 182.902 204.386Z" fill="#0C2340"/>
<path d="M181.856 210.23C188.919 211.756 180.001 218.436 183.742 221.634C184.811 222.544 186.047 222.261 187.294 222.429C192.094 223.087 189.463 226.338 189.139 228.889C189.086 229.275 189.725 229.348 189.809 228.983C190.218 227.227 191.832 225.073 191.004 223.202C190.27 221.551 188.447 221.749 186.949 221.697C185.073 221.645 183.009 221.697 183.711 217.986C183.868 217.16 184.528 216.324 184.853 215.54C185.22 214.641 185.471 213.753 185.272 212.77C184.926 211.108 183.543 210.136 181.95 209.875C181.72 209.833 181.615 210.178 181.856 210.23Z" fill="#0C2340"/>
<path d="M167.292 201.606C172.74 198.847 178.168 199.401 182.768 203.446C183.083 203.718 183.502 203.3 183.229 202.986C179.195 198.449 172.017 197.655 167.145 201.345C166.998 201.46 167.124 201.69 167.292 201.606Z" fill="#0C2340"/>
<path d="M350.307 218.654L347.949 223.389L353.723 225.741L354.341 220.295L350.307 218.654Z" fill="#FFB9A3"/>
<path d="M353.796 203.236C340.708 208.923 346.073 222.7 354.037 221.08C357.914 220.296 359.874 207.836 359.874 207.836L353.796 203.236Z" fill="#FFB9A3"/>
<path d="M358.144 201.271C357.714 200.477 357.306 199.62 356.593 199.055C355.881 198.491 354.76 198.303 354.099 198.919C353.219 199.735 353.733 201.261 354.623 202.066C353.858 202.16 352.947 201.627 352.381 202.16C351.951 202.557 352.098 203.268 352.349 203.801C352.926 205.045 353.869 206.132 355.032 206.864C354.372 207.24 353.596 207.972 353.995 208.62C354.11 208.797 354.288 208.923 354.403 209.101C354.655 209.519 354.414 210.062 354.152 210.48C353.743 211.16 353.293 211.818 352.821 212.456C353.272 211.839 354.372 212.09 354.697 212.78C355.022 213.47 354.739 214.317 354.236 214.881C353.953 215.195 353.596 215.456 353.177 215.55C352.821 215.634 351.228 220.526 352.465 221.487C353.995 222.669 359.192 221.644 359.946 220.306C360.701 221.121 361.801 221.738 362.891 221.519C363.981 221.299 364.808 219.961 364.222 219.02C365.395 219.449 366.831 219.073 367.638 218.111C368.444 217.149 368.56 215.675 367.921 214.599C368.56 214.411 368.696 213.543 368.528 212.895C368.193 211.588 367.124 210.48 365.825 210.114C366.485 210.125 367.009 209.456 367.04 208.797C367.072 208.139 366.726 207.512 366.307 206.999C365.081 205.484 363.624 205.087 361.812 204.857C359.967 204.648 358.951 202.776 358.144 201.271Z" fill="#0C2340"/>
<path d="M345.874 341.049C345.874 341.049 338.214 344.718 337.188 345.857C337.188 345.857 352.256 346.536 353.44 345.826C354.624 345.115 351.03 341.038 351.03 341.038L345.874 341.049Z" fill="#0C2340"/>
<path d="M374.366 336.898C374.366 336.898 367.639 342.073 366.863 343.4C366.863 343.4 382.749 341.048 382.749 340.013C382.749 338.979 379.396 335.822 379.396 335.822L374.366 336.898Z" fill="#0C2340"/>
<path d="M353.283 270.219C353 271.776 342.511 313.066 372.521 337.829L381.208 335.843C381.208 335.843 371.096 326.383 366.328 309.344C361.823 293.236 365.396 291.658 368.099 282.794C371.096 272.979 368.864 265.85 368.864 265.85L353.283 270.219Z" fill="url(#paint11_linear)"/>
<path d="M353.283 270.219C353 271.776 342.511 313.066 372.521 337.829L381.208 335.843C381.208 335.843 371.096 326.383 366.328 309.344C361.823 293.236 365.396 291.658 368.099 282.794C371.096 272.979 368.864 265.85 368.864 265.85L353.283 270.219Z" fill="black" fill-opacity="0.15"/>
<path d="M338.939 270.094C334.181 281.435 326.019 320.08 343.811 341.832L352.697 341.812C352.697 341.812 345.697 334.16 344.911 316.4C344.125 298.641 348.652 290.843 351.848 284.989C355.044 279.136 357.999 269.174 357.999 269.174L338.939 270.094Z" fill="url(#paint12_linear)"/>
<path d="M332.671 199.797C330.314 208.097 329.538 223.442 341.358 229.62L349.269 227.696C349.269 227.696 334.998 220.233 338.057 201.376L332.671 199.797Z" fill="url(#paint13_linear)"/>
<path d="M332.671 199.797C330.314 208.097 329.538 223.442 341.358 229.62L349.269 227.696C349.269 227.696 334.998 220.233 338.057 201.376L332.671 199.797Z" fill="black" fill-opacity="0.1"/>
<path d="M310.865 195.543L317.005 194.791C317.005 194.791 316.261 220.526 346.062 222.7C368.811 224.352 370.592 266.937 370.592 266.937C363.257 271.86 350.955 273.355 335.185 272.226C335.185 272.226 336.191 241.85 333.687 233.529C333.697 233.529 308.937 225.752 310.865 195.543Z" fill="url(#paint14_linear)"/>
<path d="M303.353 190.87C302.315 192.072 306.653 193.598 310.866 195.543L316.262 194.884C316.262 194.884 316.325 193.808 316.262 192.689C316.199 191.571 315.634 190.933 314.994 191.895C314.355 192.856 311.631 193.18 310.342 192.302C309.053 191.424 304.39 189.668 303.353 190.87Z" fill="#FFB9A3"/>
<path d="M332.672 199.797C330.691 197.863 331.226 197.978 331.226 197.978L337.251 199.337C337.251 199.337 338.571 196.4 339.703 196.327C340.824 196.243 338.854 198.344 339.305 199.128C339.755 199.912 338.068 201.386 338.068 201.386L332.672 199.797Z" fill="#FFB9A3"/>
<path d="M361.528 204.114C362.764 204.427 364.022 204.553 365.049 205.399C366.065 206.236 366.516 207.668 365.793 208.828C365.447 209.372 366.264 209.8 366.631 209.319C367.574 208.096 367.312 206.424 366.369 205.263C365.279 203.936 363.257 203.382 361.601 203.56C361.297 203.591 361.193 204.03 361.528 204.114Z" fill="#0C2340"/>
<path d="M366.978 215.268C367.795 215.749 368.476 216.522 368.131 217.536C367.806 218.467 366.863 219.021 366.098 219.554C365.731 219.815 366.045 220.369 366.454 220.16C367.586 219.564 368.78 218.728 368.958 217.348C369.115 216.146 368.309 215.237 367.303 214.693C366.936 214.495 366.611 215.049 366.978 215.268Z" fill="#0C2340"/>
<path d="M353.208 221.498C355.985 223.223 359.915 222.94 362.209 220.515C362.492 220.212 362.105 219.648 361.748 219.92C359.233 221.77 356.383 222.376 353.439 221.111C353.177 220.996 352.957 221.341 353.208 221.498Z" fill="#0C2340"/>
<path d="M367.335 205.935C368.928 207.45 367.335 209.52 366.308 210.816C366.078 211.098 366.434 211.485 366.717 211.224C367.629 210.377 368.54 209.436 368.666 208.14C368.76 207.157 368.352 206.227 367.482 205.746C367.367 205.684 367.241 205.84 367.335 205.935Z" fill="#0C2340"/>
<path d="M190.091 14.9687L187.629 8.9791L211.342 0L190.091 14.9687Z" fill="white"/>
<path d="M191.283 11.2788L211.339 0L197.371 14.1533L191.283 11.2788Z" fill="#5193F4"/>
<path d="M182.199 6.54356L211.34 0L187.627 8.9791L182.199 6.54356Z" fill="#5193F4"/>
<path d="M191.284 11.2783L190.09 14.9682L193.705 12.4177L191.284 11.2783Z" fill="#0056EC"/>
<path d="M187.3 14.1736C181.107 13.1283 172.703 19.3792 176.318 25.881C177.544 28.097 183.894 27.1353 183.423 24.6893C183.192 23.5186 181.757 23.0169 180.573 23.1528C173.657 23.9472 173.374 29.7277 173.688 31.2015C175.27 38.8113 186.964 36.2399 190.894 35.1632" stroke="#C8DBFB" stroke-miterlimit="10" stroke-linecap="round" stroke-linejoin="round" stroke-dasharray="4 4"/>
</g>
<defs>
<linearGradient id="paint0_linear" x1="21.3349" y1="168.941" x2="459.893" y2="207.607" gradientUnits="userSpaceOnUse">
<stop stop-color="#E1EBFE"/>
<stop offset="1" stop-color="#F2F8FF"/>
</linearGradient>
<linearGradient id="paint1_linear" x1="57.5387" y1="173.98" x2="57.5387" y2="73.3096" gradientUnits="userSpaceOnUse">
<stop stop-color="#29225E"/>
<stop offset="1" stop-color="#3F368C"/>
</linearGradient>
<linearGradient id="paint2_linear" x1="140.676" y1="123.377" x2="140.676" y2="46.1963" gradientUnits="userSpaceOnUse">
<stop stop-color="#29225E"/>
<stop offset="1" stop-color="#3F368C"/>
</linearGradient>
<linearGradient id="paint3_linear" x1="419.58" y1="231.869" x2="419.58" y2="160.501" gradientUnits="userSpaceOnUse">
<stop stop-color="#29225E"/>
<stop offset="1" stop-color="#3F368C"/>
</linearGradient>
<linearGradient id="paint4_linear" x1="232.237" y1="109.619" x2="232.237" y2="93.4902" gradientUnits="userSpaceOnUse">
<stop stop-color="#29225E"/>
<stop offset="1" stop-color="#3F368C"/>
</linearGradient>
<linearGradient id="paint5_linear" x1="232.359" y1="317.676" x2="232.359" y2="93.4805" gradientUnits="userSpaceOnUse">
<stop stop-color="#29225E"/>
<stop offset="1" stop-color="#3F368C"/>
</linearGradient>
<linearGradient id="paint6_linear" x1="275.4" y1="108.073" x2="328.801" y2="74.9622" gradientUnits="userSpaceOnUse">
<stop stop-color="#FCC73C"/>
<stop offset="1" stop-color="#FC7A3C"/>
</linearGradient>
<linearGradient id="paint7_linear" x1="191.824" y1="248.724" x2="208.565" y2="245.571" gradientUnits="userSpaceOnUse">
<stop stop-color="#FCC73C"/>
<stop offset="1" stop-color="#FC7A3C"/>
</linearGradient>
<linearGradient id="paint8_linear" x1="183.144" y1="341.906" x2="183.144" y2="265.119" gradientUnits="userSpaceOnUse">
<stop stop-color="#29225E"/>
<stop offset="1" stop-color="#3F368C"/>
</linearGradient>
<linearGradient id="paint9_linear" x1="168.573" y1="342.449" x2="168.573" y2="267.752" gradientUnits="userSpaceOnUse">
<stop stop-color="#29225E"/>
<stop offset="1" stop-color="#3F368C"/>
</linearGradient>
<linearGradient id="paint10_linear" x1="162.853" y1="244.034" x2="208.927" y2="228.454" gradientUnits="userSpaceOnUse">
<stop stop-color="#FCC73C"/>
<stop offset="1" stop-color="#FC7A3C"/>
</linearGradient>
<linearGradient id="paint11_linear" x1="366.245" y1="337.829" x2="366.245" y2="265.85" gradientUnits="userSpaceOnUse">
<stop stop-color="#29225E"/>
<stop offset="1" stop-color="#3F368C"/>
</linearGradient>
<linearGradient id="paint12_linear" x1="345.437" y1="341.832" x2="345.437" y2="269.174" gradientUnits="userSpaceOnUse">
<stop stop-color="#29225E"/>
<stop offset="1" stop-color="#3F368C"/>
</linearGradient>
<linearGradient id="paint13_linear" x1="339.52" y1="217.691" x2="355.123" y2="213.833" gradientUnits="userSpaceOnUse">
<stop stop-color="#FCC73C"/>
<stop offset="1" stop-color="#FC7A3C"/>
</linearGradient>
<linearGradient id="paint14_linear" x1="338.222" y1="241.466" x2="388.241" y2="225.725" gradientUnits="userSpaceOnUse">
<stop stop-color="#FCC73C"/>
<stop offset="1" stop-color="#FC7A3C"/>
</linearGradient>
<clipPath id="clip0">
<rect width="470" height="351" fill="white"/>
</clipPath>
</defs>
</svg>
