<svg width="42" height="42" viewBox="0 0 42 42" fill="none" xmlns="http://www.w3.org/2000/svg">
<path fill-rule="evenodd" clip-rule="evenodd" d="M29.2852 17.1446L29.3404 17.1447C29.7933 17.1468 30.1589 17.5158 30.1568 17.9688C30.1547 18.4206 29.7879 18.7853 29.3366 18.7853H29.3327L29.2852 18.7852C28.8322 18.7852 28.4648 18.4179 28.4648 17.9649C28.4648 17.5118 28.8322 17.1446 29.2852 17.1446ZM37.0357 22.0562C35.9641 20.3865 34.4544 19.0503 32.6698 18.1924C32.2614 17.9961 31.7713 18.168 31.575 18.5764C31.3787 18.9847 31.5506 19.4748 31.9589 19.6711C35.0688 21.166 37.0782 24.3602 37.0782 27.8086C37.0782 29.2842 36.7145 30.7476 36.0265 32.0407C35.8137 32.4406 35.9654 32.9374 36.3653 33.1502C36.4881 33.2155 36.62 33.2465 36.7499 33.2465C37.0434 33.2465 37.3273 33.0885 37.4748 32.8113C38.2886 31.2819 38.7188 29.552 38.7188 27.8086C38.7188 25.7611 38.1368 23.772 37.0357 22.0562ZM28.0506 26.9356C27.0555 26.9356 26.2459 26.2349 26.2459 25.3736C26.2459 24.5123 27.0555 23.8116 28.0506 23.8116C29.0457 23.8116 29.8553 24.5123 29.8553 25.3736C29.8553 25.8266 30.2226 26.1939 30.6756 26.1939C31.1286 26.1939 31.4959 25.8266 31.4959 25.3736C31.4959 23.8704 30.3758 22.6065 28.8709 22.2634V21.8368C28.8709 21.3838 28.5036 21.0164 28.0506 21.0164C27.5976 21.0164 27.2303 21.3838 27.2303 21.8368V22.2634C25.7253 22.6065 24.6053 23.8704 24.6053 25.3736C24.6053 27.1395 26.1508 28.5762 28.0506 28.5762C29.0457 28.5762 29.8553 29.2769 29.8553 30.1382C29.8553 30.9995 29.0457 31.7003 28.0506 31.7003C27.0555 31.7003 26.2459 30.9995 26.2459 30.1382C26.2459 29.6852 25.8786 29.3179 25.4256 29.3179C24.9726 29.3179 24.6053 29.6852 24.6053 30.1382C24.6053 31.6414 25.7253 32.9054 27.2303 33.2484V33.6028C27.2303 34.0558 27.5976 34.4231 28.0506 34.4231C28.5036 34.4231 28.8709 34.0558 28.8709 33.6028V33.2484C30.3758 32.9054 31.4959 31.6414 31.4959 30.1382C31.4959 28.3723 29.9503 26.9356 28.0506 26.9356ZM24.1504 35.9462C21.0406 34.4512 19.0312 31.257 19.0312 27.8086C19.0312 26.3331 19.395 24.8697 20.083 23.5766C20.2958 23.1767 20.1441 22.6799 19.7441 22.4671C19.3443 22.2543 18.8473 22.406 18.6346 22.806C17.8208 24.3354 17.3906 26.0653 17.3906 27.8086C17.3906 29.8561 17.9726 31.8452 19.0737 33.5611C20.1453 35.2308 21.655 36.5669 23.4396 37.4249C23.5542 37.48 23.6753 37.506 23.7945 37.506C24.0999 37.506 24.3931 37.3346 24.5344 37.041C24.7305 36.6326 24.5587 36.1425 24.1504 35.9462ZM26.7766 36.8319L26.8241 36.832C27.2771 36.832 27.6444 37.1994 27.6444 37.6524C27.6444 38.1053 27.2771 38.4727 26.8241 38.4727L26.7692 38.4725C26.3162 38.4704 25.9505 38.1014 25.9526 37.6483C25.9547 37.1952 26.3215 36.8311 26.7766 36.8319Z" fill="white"/>
<path fill-rule="evenodd" clip-rule="evenodd" d="M29.2852 17.1446L29.3404 17.1447C29.7933 17.1468 30.1589 17.5158 30.1568 17.9688C30.1547 18.4206 29.7879 18.7853 29.3366 18.7853H29.3327L29.2852 18.7852C28.8322 18.7852 28.4648 18.4179 28.4648 17.9649C28.4648 17.5118 28.8322 17.1446 29.2852 17.1446ZM37.0357 22.0562C35.9641 20.3865 34.4544 19.0503 32.6698 18.1924C32.2614 17.9961 31.7713 18.168 31.575 18.5764C31.3787 18.9847 31.5506 19.4748 31.9589 19.6711C35.0688 21.166 37.0782 24.3602 37.0782 27.8086C37.0782 29.2842 36.7145 30.7476 36.0265 32.0407C35.8137 32.4406 35.9654 32.9374 36.3653 33.1502C36.4881 33.2155 36.62 33.2465 36.7499 33.2465C37.0434 33.2465 37.3273 33.0885 37.4748 32.8113C38.2886 31.2819 38.7188 29.552 38.7188 27.8086C38.7188 25.7611 38.1368 23.772 37.0357 22.0562ZM28.0506 26.9356C27.0555 26.9356 26.2459 26.2349 26.2459 25.3736C26.2459 24.5123 27.0555 23.8116 28.0506 23.8116C29.0457 23.8116 29.8553 24.5123 29.8553 25.3736C29.8553 25.8266 30.2226 26.1939 30.6756 26.1939C31.1286 26.1939 31.4959 25.8266 31.4959 25.3736C31.4959 23.8704 30.3758 22.6065 28.8709 22.2634V21.8368C28.8709 21.3838 28.5036 21.0164 28.0506 21.0164C27.5976 21.0164 27.2303 21.3838 27.2303 21.8368V22.2634C25.7253 22.6065 24.6053 23.8704 24.6053 25.3736C24.6053 27.1395 26.1508 28.5762 28.0506 28.5762C29.0457 28.5762 29.8553 29.2769 29.8553 30.1382C29.8553 30.9995 29.0457 31.7003 28.0506 31.7003C27.0555 31.7003 26.2459 30.9995 26.2459 30.1382C26.2459 29.6852 25.8786 29.3179 25.4256 29.3179C24.9726 29.3179 24.6053 29.6852 24.6053 30.1382C24.6053 31.6414 25.7253 32.9054 27.2303 33.2484V33.6028C27.2303 34.0558 27.5976 34.4231 28.0506 34.4231C28.5036 34.4231 28.8709 34.0558 28.8709 33.6028V33.2484C30.3758 32.9054 31.4959 31.6414 31.4959 30.1382C31.4959 28.3723 29.9503 26.9356 28.0506 26.9356ZM24.1504 35.9462C21.0406 34.4512 19.0312 31.257 19.0312 27.8086C19.0312 26.3331 19.395 24.8697 20.083 23.5766C20.2958 23.1767 20.1441 22.6799 19.7441 22.4671C19.3443 22.2543 18.8473 22.406 18.6346 22.806C17.8208 24.3354 17.3906 26.0653 17.3906 27.8086C17.3906 29.8561 17.9726 31.8452 19.0737 33.5611C20.1453 35.2308 21.655 36.5669 23.4396 37.4249C23.5542 37.48 23.6753 37.506 23.7945 37.506C24.0999 37.506 24.3931 37.3346 24.5344 37.041C24.7305 36.6326 24.5587 36.1425 24.1504 35.9462ZM26.7766 36.8319L26.8241 36.832C27.2771 36.832 27.6444 37.1994 27.6444 37.6524C27.6444 38.1053 27.2771 38.4727 26.8241 38.4727L26.7692 38.4725C26.3162 38.4704 25.9505 38.1014 25.9526 37.6483C25.9547 37.1952 26.3215 36.8311 26.7766 36.8319Z" fill="url(#paint0_linear)"/>
<path d="M31.7796 14.3692C31.6798 14.1313 31.5574 13.9071 31.4151 13.6992H33.5507C35.6314 13.6992 37.3241 12.0064 37.3241 9.92576C37.3241 7.84513 35.6314 6.15233 33.5507 6.15233H26.9817C27.3993 5.54514 27.6445 4.81055 27.6445 4.01952C27.6445 1.93889 25.9517 0.246094 23.871 0.246094H3.77343C1.69279 0.246094 0 1.93889 0 4.01952C0 6.10016 1.69279 7.79295 3.77343 7.79295H10.3425C9.92486 8.40015 9.67967 9.13474 9.67967 9.92576C9.67967 10.7168 9.92478 11.4514 10.3425 12.0586H8.20311C6.12247 12.0586 4.42968 13.7514 4.42968 15.832C4.42968 17.0269 4.98864 18.0933 5.85825 18.7851C4.98864 19.477 4.42968 20.5433 4.42968 21.7382C4.42968 22.9332 4.98864 23.9995 5.85825 24.6914C4.98864 25.3832 4.42968 26.4495 4.42968 27.6445C4.42968 28.8394 4.98864 29.9057 5.85825 30.5976C4.98864 31.2894 4.42968 32.3558 4.42968 33.5507C4.42968 35.6314 6.12247 37.3241 8.20311 37.3241H17.8705C20.4172 40.0482 24.0402 41.7539 28.0547 41.7539C35.7441 41.7539 42 35.4981 42 27.8086C42 21.4088 37.6663 16.0029 31.7796 14.3692ZM33.5507 7.79295C34.7268 7.79295 35.6835 8.74977 35.6835 9.92576C35.6835 11.1018 34.7268 12.0586 33.5507 12.0586H28.3007H13.4531C12.277 12.0586 11.3203 11.1018 11.3203 9.92576C11.3203 8.74977 12.277 7.79295 13.4531 7.79295H33.5507ZM3.77343 6.15233C2.59735 6.15233 1.64062 5.19552 1.64062 4.01952C1.64062 2.84353 2.59735 1.88672 3.77343 1.88672H23.871C25.0471 1.88672 26.0039 2.84353 26.0039 4.01952C26.0039 5.19552 25.0471 6.15233 23.871 6.15233H3.77343ZM8.20311 13.6992H28.3007C28.6311 13.6992 28.9475 13.776 29.2314 13.9135C28.8434 13.8809 28.4511 13.8633 28.0547 13.8633C24.2038 13.8633 20.7125 15.4325 18.1865 17.9648H8.20311C7.02711 17.9648 6.0703 17.008 6.0703 15.832C6.0703 14.656 7.02711 13.6992 8.20311 13.6992ZM8.20311 19.6054H16.7848C15.8536 20.8813 15.1336 22.3203 14.6763 23.871H8.20311C7.02703 23.871 6.0703 22.9143 6.0703 21.7382C6.0703 20.5622 7.02703 19.6054 8.20311 19.6054ZM8.20311 25.5117H14.2997C14.1752 26.2592 14.1094 27.0263 14.1094 27.8086C14.1094 28.4768 14.1577 29.1339 14.249 29.7773H8.20311C7.02703 29.7773 6.0703 28.8206 6.0703 27.6445C6.0703 26.4684 7.02703 25.5117 8.20311 25.5117ZM8.20311 35.6835C7.02703 35.6835 6.0703 34.7268 6.0703 33.5507C6.0703 32.3746 7.02703 31.4179 8.20311 31.4179H14.584C14.9979 32.9612 15.6703 34.3994 16.5522 35.6835H8.20311ZM28.0547 40.1133C21.2699 40.1133 15.7501 34.5934 15.7501 27.8086C15.7501 21.0238 21.2699 15.504 28.0547 15.504C34.8395 15.504 40.3594 21.0238 40.3594 27.8086C40.3594 34.5934 34.8395 40.1133 28.0547 40.1133Z" fill="white"/>
<defs>
<linearGradient id="paint0_linear" x1="17.3906" y1="17.1446" x2="39.5365" y2="18.0304" gradientUnits="userSpaceOnUse">
<stop stop-color="#F37535"/>
<stop offset="1" stop-color="#FDC630"/>
</linearGradient>
</defs>
</svg>
