<svg width="60" height="60" viewBox="0 0 60 60" fill="none" xmlns="http://www.w3.org/2000/svg">
<g clip-path="url(#clip0)">
<path d="M32.6087 20.8696H27.3913C23.7965 20.8696 20.8696 23.7966 20.8696 27.3913V32.6087C20.8696 36.2035 23.7965 39.1304 27.3913 39.1304H32.6087C36.2034 39.1304 39.1304 36.2035 39.1304 32.6087V27.3913C39.1304 23.7966 36.2034 20.8696 32.6087 20.8696ZM36.5217 32.6087C36.5217 34.7662 34.7661 36.5218 32.6087 36.5218H27.3913C25.2338 36.5218 23.4782 34.7662 23.4782 32.6087V27.3913C23.4782 25.2339 25.2338 23.4783 27.3913 23.4783H32.6087C34.7661 23.4783 36.5217 25.2339 36.5217 27.3913V32.6087Z" fill="white"/>
<path d="M9.1305 0C8.4105 0 7.82611 0.584388 7.82611 1.30439V6.52182C7.82611 7.2417 8.4105 7.82609 9.1305 7.82609C9.85049 7.82609 10.4349 7.2417 10.4349 6.5217V1.30439C10.4348 0.584388 9.85049 0 9.1305 0Z" fill="white"/>
<path d="M9.1305 20.8696C8.4105 20.8696 7.82611 21.454 7.82611 22.174V58.6957C7.82611 59.4156 8.4105 60 9.1305 60C9.85049 60 10.4348 59.4156 10.4348 58.6957V22.1739C10.4348 21.4539 9.85049 20.8696 9.1305 20.8696Z" fill="white"/>
<path d="M30 36.5217C29.2799 36.5217 28.6956 37.1061 28.6956 37.8261V58.6956C28.6956 59.4156 29.2799 60 30 60C30.72 60 31.3043 59.4156 31.3043 58.6956V37.826C31.3043 37.106 30.72 36.5217 30 36.5217Z" fill="white"/>
<path d="M30 0C29.2799 0 28.6956 0.584388 28.6956 1.30439V22.174C28.6956 22.894 29.2799 23.4784 30 23.4784C30.72 23.4784 31.3043 22.8939 31.3043 22.1739V1.30439C31.3043 0.584388 30.72 0 30 0Z" fill="white"/>
<path d="M50.8695 0C50.1495 0 49.5651 0.584388 49.5651 1.30439V37.8261C49.5651 38.5461 50.1495 39.1305 50.8695 39.1305C51.5895 39.1305 52.1739 38.5461 52.1739 37.8261V1.30439C52.1739 0.584388 51.5895 0 50.8695 0Z" fill="white"/>
<path d="M50.8695 52.1738C50.1495 52.1738 49.5651 52.7582 49.5651 53.4782V58.6955C49.5651 59.4155 50.1495 59.9999 50.8695 59.9999C51.5895 59.9999 52.1739 59.4155 52.1739 58.6955V53.4781C52.1739 52.7581 51.5895 52.1738 50.8695 52.1738Z" fill="white"/>
<path d="M11.7391 5.21753H6.52169C2.92695 5.21753 0 8.14448 0 11.7392V16.9567C0 20.5514 2.92695 23.4783 6.52169 23.4783H11.7391C15.3339 23.4783 18.2608 20.5514 18.2608 16.9567V11.7392C18.2608 8.14448 15.3339 5.21753 11.7391 5.21753ZM15.6522 16.9567C15.6522 19.1141 13.8966 20.8697 11.7391 20.8697H6.52169C4.36426 20.8697 2.60865 19.1141 2.60865 16.9567V11.7392C2.60865 9.58179 4.36426 7.82618 6.52169 7.82618H11.7391C13.8966 7.82618 15.6522 9.58179 15.6522 11.7392V16.9567Z" fill="white"/>
<path d="M11.7391 5.21753H6.52169C2.92695 5.21753 0 8.14448 0 11.7392V16.9567C0 20.5514 2.92695 23.4783 6.52169 23.4783H11.7391C15.3339 23.4783 18.2608 20.5514 18.2608 16.9567V11.7392C18.2608 8.14448 15.3339 5.21753 11.7391 5.21753ZM15.6522 16.9567C15.6522 19.1141 13.8966 20.8697 11.7391 20.8697H6.52169C4.36426 20.8697 2.60865 19.1141 2.60865 16.9567V11.7392C2.60865 9.58179 4.36426 7.82618 6.52169 7.82618H11.7391C13.8966 7.82618 15.6522 9.58179 15.6522 11.7392V16.9567Z" fill="url(#paint0_linear)"/>
<path d="M53.4782 36.5217H48.2608C44.666 36.5217 41.7391 39.4487 41.7391 43.0434V48.2608C41.7391 51.8556 44.666 54.7825 48.2608 54.7825H53.4782C57.0729 54.7825 59.9999 51.8556 59.9999 48.2608V43.0434C60 39.4487 57.0731 36.5217 53.4782 36.5217ZM57.3912 48.2608C57.3912 50.4183 55.6356 52.1739 53.4782 52.1739H48.2608C46.1033 52.1739 44.3477 50.4183 44.3477 48.2608V43.0434C44.3477 40.886 46.1033 39.1304 48.2608 39.1304H53.4782C55.6356 39.1304 57.3912 40.886 57.3912 43.0434V48.2608Z" fill="white"/>
<path d="M53.4782 36.5217H48.2608C44.666 36.5217 41.7391 39.4487 41.7391 43.0434V48.2608C41.7391 51.8556 44.666 54.7825 48.2608 54.7825H53.4782C57.0729 54.7825 59.9999 51.8556 59.9999 48.2608V43.0434C60 39.4487 57.0731 36.5217 53.4782 36.5217ZM57.3912 48.2608C57.3912 50.4183 55.6356 52.1739 53.4782 52.1739H48.2608C46.1033 52.1739 44.3477 50.4183 44.3477 48.2608V43.0434C44.3477 40.886 46.1033 39.1304 48.2608 39.1304H53.4782C55.6356 39.1304 57.3912 40.886 57.3912 43.0434V48.2608Z" fill="url(#paint1_linear)"/>
</g>
<defs>
<linearGradient id="paint0_linear" x1="0" y1="5.21753" x2="18.9609" y2="5.97597" gradientUnits="userSpaceOnUse">
<stop stop-color="#F37535"/>
<stop offset="1" stop-color="#FDC630"/>
</linearGradient>
<linearGradient id="paint1_linear" x1="41.7391" y1="36.5217" x2="60.7" y2="37.2802" gradientUnits="userSpaceOnUse">
<stop stop-color="#F37535"/>
<stop offset="1" stop-color="#FDC630"/>
</linearGradient>
<clipPath id="clip0">
<rect width="60" height="60" fill="white"/>
</clipPath>
</defs>
</svg>
