<svg width="60" height="60" viewBox="0 0 60 60" fill="none" xmlns="http://www.w3.org/2000/svg">
<g clip-path="url(#clip0)">
<path d="M44.7391 37.273C44.681 37.2085 44.6137 37.1521 44.5404 37.1055L40.54 35.1055C40.155 34.9137 39.6904 34.9892 39.386 35.2927L37.4291 37.2501C37.4222 37.2309 37.4153 37.2167 37.4085 37.197C36.8587 35.6727 36.4824 34.0911 36.2865 32.4825C37.4707 31.3161 38.4297 29.9424 39.1168 28.429C39.5014 27.6018 39.8209 26.7458 40.0717 25.8687C41.4148 25.5387 44.0927 24.3293 44.0927 19.9297C44.171 18.7898 43.8703 17.656 43.2367 16.7052C43.7911 14.9057 44.9712 10.5199 43.9874 8.5524C43.3017 7.40844 42.356 6.4421 41.2267 5.73257C41.4958 4.07912 41.4404 2.38906 41.0628 0.757126C40.9667 0.373061 40.6535 0.0823808 40.2635 0.0146316C39.8735 -0.0526598 39.4803 0.115798 39.261 0.44493C37.9642 2.39043 32.357 2.21785 27.849 2.07915C26.5599 2.03887 25.2873 1.99996 24.093 1.99996C18.934 1.99996 16.0926 4.8413 16.0926 9.99985C16.17 12.2443 16.4689 14.4754 16.9857 16.6603C16.3238 17.6161 16.0084 18.7702 16.0926 19.9297C16.0926 24.3146 18.7541 25.5309 20.1017 25.8655C20.3494 26.7421 20.6657 27.5981 21.0479 28.4253C21.7355 29.9511 22.7028 31.3344 23.8994 32.5045C23.7048 34.1089 23.3272 35.6864 22.7746 37.2052C22.7687 37.2217 22.7627 37.2336 22.7568 37.2501L20.7998 35.2927C20.4954 34.9883 20.0308 34.9128 19.6454 35.1055L15.6454 37.1055C15.5722 37.1521 15.5058 37.208 15.4476 37.2725C10.312 37.7825 6.33172 41.988 6.10376 47.1433C5.87625 52.2987 9.47016 56.8388 14.5404 57.8001C15.2151 59.1441 16.5889 59.9951 18.0931 60.0001H42.0928C43.597 59.9951 44.9707 59.1441 45.6455 57.8001C50.7157 56.8392 54.31 52.2996 54.0825 47.1442C53.855 41.9889 49.8743 37.7834 44.7391 37.2735V37.273ZM40.2901 37.2167L42.405 38.2737L33.999 46.6801L31.6901 44.9483L37.744 39.7596C37.755 39.7495 37.7605 39.7362 37.7715 39.7262C37.7802 39.7179 37.7916 39.7156 37.7998 39.7074L40.2901 37.2167ZM40.6407 23.4737C40.9149 21.7461 41.0591 20.0002 41.0724 18.2511C41.2601 18.1014 41.489 18.0121 41.7284 17.9947C41.7316 17.997 42.0928 18.3064 42.0928 19.9301C42.0928 21.9182 41.407 22.9454 40.6407 23.4737ZM42.1985 9.44733C42.7098 10.47 42.0566 13.7045 41.3498 16.0336C41.2583 16.0465 41.1676 16.0639 41.0779 16.0858C41.1488 13.6185 40.5377 11.1791 39.3118 9.03625C39.6318 8.80051 39.9184 8.5231 40.1647 8.21136C40.2933 8.04611 40.4109 7.87308 40.5167 7.69226C41.1928 8.15414 41.7655 8.75198 42.1985 9.44733ZM24.093 3.99993C25.2676 3.99993 26.5191 4.03884 27.7876 4.07775C32.216 4.21508 36.768 4.35607 39.3796 2.92144C39.5911 4.3254 39.3114 5.75958 38.5881 6.98135C37.9697 7.7037 37.0404 8.08319 36.0933 7.99988H36.0928C35.1164 7.99988 34.0146 7.91565 32.8487 7.8273C28.9014 7.52609 24.4295 7.18597 21.6064 9.80255C20.0775 11.2198 19.2654 13.288 19.123 16.0899C19.0471 16.0698 18.9729 16.057 18.8987 16.0437C18.4373 14.0593 18.1672 12.0355 18.0931 9.99985C18.0931 5.90652 19.9997 3.99993 24.093 3.99993ZM18.0931 19.9297C18.0931 18.3087 18.4529 17.9979 18.4501 17.9979C18.6914 18.0158 18.9221 18.1046 19.113 18.2529C19.1262 19.9993 19.2686 21.7429 19.5378 23.4687C18.7742 22.9399 18.0931 21.9123 18.0931 19.9297ZM22.8561 27.5711C22.4212 26.6442 22.0784 25.6769 21.8321 24.6831C21.3107 22.3892 21.0658 20.0414 21.102 17.6894C21.0928 17.4628 21.0928 17.2357 21.0928 17C21.0928 14.3124 21.7058 12.4379 22.9664 11.2697C25.1477 9.24774 29.1586 9.55216 32.6976 9.82224C33.902 9.91333 35.04 9.99985 36.0928 9.99985H36.0933C36.5506 9.99939 37.0065 9.95087 37.4533 9.85474C38.5519 11.3983 39.093 13.6157 39.093 16.62C39.093 16.9904 39.093 17.3515 39.083 17.7187C39.1177 20.0615 38.8692 22.3998 38.3437 24.6831C38.0937 25.6774 37.7472 26.6451 37.3091 27.5721C35.6044 31.1737 33.1764 32.9998 30.0929 32.9998C26.9847 32.9998 24.5503 31.1747 22.8561 27.5711ZM30.0929 34.9997C31.6273 35.0066 33.1357 34.6051 34.4641 33.837C34.6921 35.2199 35.0505 36.5786 35.5344 37.8946C35.6465 38.2013 35.7559 38.4778 35.8658 38.7346L30.0929 43.6831L24.32 38.7346C24.4295 38.4792 24.537 38.2055 24.6483 37.9047C25.1335 36.59 25.4915 35.2318 25.7181 33.8485C27.0497 34.6102 28.5589 35.0075 30.0929 34.9997ZM19.8958 37.2167L22.3855 39.7069C22.3938 39.7152 22.4057 39.7175 22.4139 39.7257C22.4249 39.7358 22.4304 39.7495 22.4418 39.7591L28.4953 44.9479L26.1868 46.6801L17.7809 38.2737L19.8958 37.2167ZM16.0926 56.0001V49.9998C16.0926 49.4477 15.6449 49 15.0929 49C14.5404 49 14.0927 49.4477 14.0927 49.9998V55.6399C10.2328 54.4923 7.73386 50.7629 8.13944 46.7561C8.54502 42.7497 11.7411 39.5971 15.753 39.2464L15.9123 39.2336L25.3857 48.707C25.7377 49.0591 26.2948 49.0989 26.6926 48.8L29.0927 47V58.0001H18.0931C16.9889 57.9987 16.094 57.1043 16.0926 56.0001ZM46.0927 55.6399V49.9998C46.0927 49.4477 45.645 49 45.0929 49C44.5404 49 44.0927 49.4477 44.0927 49.9998V56.0001C44.0918 57.1043 43.1969 57.9987 42.0928 58.0001H31.0927V47L33.4927 48.8C33.891 49.0989 34.4481 49.0591 34.8001 48.707L44.2731 39.2336L44.4242 39.246C48.4392 39.5907 51.6413 42.7428 52.0496 46.7519C52.4575 50.761 49.9562 54.4932 46.0927 55.6399Z" fill="white"/>
<mask id="mask0" mask-type="alpha" maskUnits="userSpaceOnUse" x="14" y="-1" width="31" height="20">
<path d="M19.1178 18.3078H21.1382C21.7969 17.1817 21.2724 14.2974 21.938 14.1012L37.456 9.85268L39.3171 9.04519L40.1984 9.48273L41.9361 12.8425L41.0714 16.09L41.3578 16.0327L43.2344 16.707L43.5646 16.6728L44.5418 14.1012L44.914 9.21561L43.5646 6.74956L42.2153 5.07451L41.9361 2.05012L40.5402 -0.741699L38.8652 -0.416081L34.2123 0.793795L25.837 1.259L16.9832 2.28284L14.5304 10.5184L16.9832 16.6728C17.2012 17.2783 18.0631 17.8132 18.4669 18.005L19.1178 18.3078Z" fill="#C4C4C4"/>
</mask>
<g mask="url(#mask0)">
<path d="M44.7391 37.273C44.681 37.2085 44.6137 37.1521 44.5404 37.1055L40.54 35.1055C40.155 34.9137 39.6904 34.9892 39.386 35.2927L37.4291 37.2501C37.4222 37.2309 37.4153 37.2167 37.4085 37.197C36.8587 35.6727 36.4824 34.0911 36.2865 32.4825C37.4707 31.3161 38.4297 29.9424 39.1168 28.429C39.5014 27.6018 39.8209 26.7458 40.0717 25.8687C41.4148 25.5387 44.0927 24.3293 44.0927 19.9297C44.171 18.7898 43.8703 17.656 43.2367 16.7052C43.7911 14.9057 44.9712 10.5199 43.9874 8.5524C43.3017 7.40844 42.356 6.4421 41.2267 5.73257C41.4958 4.07912 41.4404 2.38906 41.0628 0.757126C40.9667 0.373061 40.6535 0.0823808 40.2635 0.0146316C39.8735 -0.0526598 39.4803 0.115798 39.261 0.44493C37.9642 2.39043 32.357 2.21785 27.849 2.07915C26.5599 2.03887 25.2873 1.99996 24.093 1.99996C18.934 1.99996 16.0926 4.8413 16.0926 9.99985C16.17 12.2443 16.4689 14.4754 16.9857 16.6603C16.3238 17.6161 16.0084 18.7702 16.0926 19.9297C16.0926 24.3146 18.7541 25.5309 20.1017 25.8655C20.3494 26.7421 20.6657 27.5981 21.0479 28.4253C21.7355 29.9511 22.7028 31.3344 23.8994 32.5045C23.7048 34.1089 23.3272 35.6864 22.7746 37.2052C22.7687 37.2217 22.7627 37.2336 22.7568 37.2501L20.7998 35.2927C20.4954 34.9883 20.0308 34.9128 19.6454 35.1055L15.6454 37.1055C15.5722 37.1521 15.5058 37.208 15.4476 37.2725C10.312 37.7825 6.33172 41.988 6.10376 47.1433C5.87625 52.2987 9.47016 56.8388 14.5404 57.8001C15.2151 59.1441 16.5889 59.9951 18.0931 60.0001H42.0928C43.597 59.9951 44.9707 59.1441 45.6455 57.8001C50.7157 56.8392 54.31 52.2996 54.0825 47.1442C53.855 41.9889 49.8743 37.7834 44.7391 37.2735V37.273ZM40.2901 37.2167L42.405 38.2737L33.999 46.6801L31.6901 44.9483L37.744 39.7596C37.755 39.7495 37.7605 39.7362 37.7715 39.7262C37.7802 39.7179 37.7916 39.7156 37.7998 39.7074L40.2901 37.2167ZM40.6407 23.4737C40.9149 21.7461 41.0591 20.0002 41.0724 18.2511C41.2601 18.1014 41.489 18.0121 41.7284 17.9947C41.7316 17.997 42.0928 18.3064 42.0928 19.9301C42.0928 21.9182 41.407 22.9454 40.6407 23.4737ZM42.1985 9.44733C42.7098 10.47 42.0566 13.7045 41.3498 16.0336C41.2583 16.0465 41.1676 16.0639 41.0779 16.0858C41.1488 13.6185 40.5377 11.1791 39.3118 9.03625C39.6318 8.80051 39.9184 8.5231 40.1647 8.21136C40.2933 8.04611 40.4109 7.87308 40.5167 7.69226C41.1928 8.15414 41.7655 8.75198 42.1985 9.44733ZM24.093 3.99993C25.2676 3.99993 26.5191 4.03884 27.7876 4.07775C32.216 4.21508 36.768 4.35607 39.3796 2.92144C39.5911 4.3254 39.3114 5.75958 38.5881 6.98135C37.9697 7.7037 37.0404 8.08319 36.0933 7.99988H36.0928C35.1164 7.99988 34.0146 7.91565 32.8487 7.8273C28.9014 7.52609 24.4295 7.18597 21.6064 9.80255C20.0775 11.2198 19.2654 13.288 19.123 16.0899C19.0471 16.0698 18.9729 16.057 18.8987 16.0437C18.4373 14.0593 18.1672 12.0355 18.0931 9.99985C18.0931 5.90652 19.9997 3.99993 24.093 3.99993ZM18.0931 19.9297C18.0931 18.3087 18.4529 17.9979 18.4501 17.9979C18.6914 18.0158 18.9221 18.1046 19.113 18.2529C19.1262 19.9993 19.2686 21.7429 19.5378 23.4687C18.7742 22.9399 18.0931 21.9123 18.0931 19.9297ZM22.8561 27.5711C22.4212 26.6442 22.0784 25.6769 21.8321 24.6831C21.3107 22.3892 21.0658 20.0414 21.102 17.6894C21.0928 17.4628 21.0928 17.2357 21.0928 17C21.0928 14.3124 21.7058 12.4379 22.9664 11.2697C25.1477 9.24774 29.1586 9.55216 32.6976 9.82224C33.902 9.91333 35.04 9.99985 36.0928 9.99985H36.0933C36.5506 9.99939 37.0065 9.95087 37.4533 9.85474C38.5519 11.3983 39.093 13.6157 39.093 16.62C39.093 16.9904 39.093 17.3515 39.083 17.7187C39.1177 20.0615 38.8692 22.3998 38.3437 24.6831C38.0937 25.6774 37.7472 26.6451 37.3091 27.5721C35.6044 31.1737 33.1764 32.9998 30.0929 32.9998C26.9847 32.9998 24.5503 31.1747 22.8561 27.5711ZM30.0929 34.9997C31.6273 35.0066 33.1357 34.6051 34.4641 33.837C34.6921 35.2199 35.0505 36.5786 35.5344 37.8946C35.6465 38.2013 35.7559 38.4778 35.8658 38.7346L30.0929 43.6831L24.32 38.7346C24.4295 38.4792 24.537 38.2055 24.6483 37.9047C25.1335 36.59 25.4915 35.2318 25.7181 33.8485C27.0497 34.6102 28.5589 35.0075 30.0929 34.9997ZM19.8958 37.2167L22.3855 39.7069C22.3938 39.7152 22.4057 39.7175 22.4139 39.7257C22.4249 39.7358 22.4304 39.7495 22.4418 39.7591L28.4953 44.9479L26.1868 46.6801L17.7809 38.2737L19.8958 37.2167ZM16.0926 56.0001V49.9998C16.0926 49.4477 15.6449 49 15.0929 49C14.5404 49 14.0927 49.4477 14.0927 49.9998V55.6399C10.2328 54.4923 7.73386 50.7629 8.13944 46.7561C8.54502 42.7497 11.7411 39.5971 15.753 39.2464L15.9123 39.2336L25.3857 48.707C25.7377 49.0591 26.2948 49.0989 26.6926 48.8L29.0927 47V58.0001H18.0931C16.9889 57.9987 16.094 57.1043 16.0926 56.0001ZM46.0927 55.6399V49.9998C46.0927 49.4477 45.645 49 45.0929 49C44.5404 49 44.0927 49.4477 44.0927 49.9998V56.0001C44.0918 57.1043 43.1969 57.9987 42.0928 58.0001H31.0927V47L33.4927 48.8C33.891 49.0989 34.4481 49.0591 34.8001 48.707L44.2731 39.2336L44.4242 39.246C48.4392 39.5907 51.6413 42.7428 52.0496 46.7519C52.4575 50.761 49.9562 54.4932 46.0927 55.6399Z" fill="white"/>
<path d="M44.7391 37.273C44.681 37.2085 44.6137 37.1521 44.5404 37.1055L40.54 35.1055C40.155 34.9137 39.6904 34.9892 39.386 35.2927L37.4291 37.2501C37.4222 37.2309 37.4153 37.2167 37.4085 37.197C36.8587 35.6727 36.4824 34.0911 36.2865 32.4825C37.4707 31.3161 38.4297 29.9424 39.1168 28.429C39.5014 27.6018 39.8209 26.7458 40.0717 25.8687C41.4148 25.5387 44.0927 24.3293 44.0927 19.9297C44.171 18.7898 43.8703 17.656 43.2367 16.7052C43.7911 14.9057 44.9712 10.5199 43.9874 8.5524C43.3017 7.40844 42.356 6.4421 41.2267 5.73257C41.4958 4.07912 41.4404 2.38906 41.0628 0.757126C40.9667 0.373061 40.6535 0.0823808 40.2635 0.0146316C39.8735 -0.0526598 39.4803 0.115798 39.261 0.44493C37.9642 2.39043 32.357 2.21785 27.849 2.07915C26.5599 2.03887 25.2873 1.99996 24.093 1.99996C18.934 1.99996 16.0926 4.8413 16.0926 9.99985C16.17 12.2443 16.4689 14.4754 16.9857 16.6603C16.3238 17.6161 16.0084 18.7702 16.0926 19.9297C16.0926 24.3146 18.7541 25.5309 20.1017 25.8655C20.3494 26.7421 20.6657 27.5981 21.0479 28.4253C21.7355 29.9511 22.7028 31.3344 23.8994 32.5045C23.7048 34.1089 23.3272 35.6864 22.7746 37.2052C22.7687 37.2217 22.7627 37.2336 22.7568 37.2501L20.7998 35.2927C20.4954 34.9883 20.0308 34.9128 19.6454 35.1055L15.6454 37.1055C15.5722 37.1521 15.5058 37.208 15.4476 37.2725C10.312 37.7825 6.33172 41.988 6.10376 47.1433C5.87625 52.2987 9.47016 56.8388 14.5404 57.8001C15.2151 59.1441 16.5889 59.9951 18.0931 60.0001H42.0928C43.597 59.9951 44.9707 59.1441 45.6455 57.8001C50.7157 56.8392 54.31 52.2996 54.0825 47.1442C53.855 41.9889 49.8743 37.7834 44.7391 37.2735V37.273ZM40.2901 37.2167L42.405 38.2737L33.999 46.6801L31.6901 44.9483L37.744 39.7596C37.755 39.7495 37.7605 39.7362 37.7715 39.7262C37.7802 39.7179 37.7916 39.7156 37.7998 39.7074L40.2901 37.2167ZM40.6407 23.4737C40.9149 21.7461 41.0591 20.0002 41.0724 18.2511C41.2601 18.1014 41.489 18.0121 41.7284 17.9947C41.7316 17.997 42.0928 18.3064 42.0928 19.9301C42.0928 21.9182 41.407 22.9454 40.6407 23.4737ZM42.1985 9.44733C42.7098 10.47 42.0566 13.7045 41.3498 16.0336C41.2583 16.0465 41.1676 16.0639 41.0779 16.0858C41.1488 13.6185 40.5377 11.1791 39.3118 9.03625C39.6318 8.80051 39.9184 8.5231 40.1647 8.21136C40.2933 8.04611 40.4109 7.87308 40.5167 7.69226C41.1928 8.15414 41.7655 8.75198 42.1985 9.44733ZM24.093 3.99993C25.2676 3.99993 26.5191 4.03884 27.7876 4.07775C32.216 4.21508 36.768 4.35607 39.3796 2.92144C39.5911 4.3254 39.3114 5.75958 38.5881 6.98135C37.9697 7.7037 37.0404 8.08319 36.0933 7.99988H36.0928C35.1164 7.99988 34.0146 7.91565 32.8487 7.8273C28.9014 7.52609 24.4295 7.18597 21.6064 9.80255C20.0775 11.2198 19.2654 13.288 19.123 16.0899C19.0471 16.0698 18.9729 16.057 18.8987 16.0437C18.4373 14.0593 18.1672 12.0355 18.0931 9.99985C18.0931 5.90652 19.9997 3.99993 24.093 3.99993ZM18.0931 19.9297C18.0931 18.3087 18.4529 17.9979 18.4501 17.9979C18.6914 18.0158 18.9221 18.1046 19.113 18.2529C19.1262 19.9993 19.2686 21.7429 19.5378 23.4687C18.7742 22.9399 18.0931 21.9123 18.0931 19.9297ZM22.8561 27.5711C22.4212 26.6442 22.0784 25.6769 21.8321 24.6831C21.3107 22.3892 21.0658 20.0414 21.102 17.6894C21.0928 17.4628 21.0928 17.2357 21.0928 17C21.0928 14.3124 21.7058 12.4379 22.9664 11.2697C25.1477 9.24774 29.1586 9.55216 32.6976 9.82224C33.902 9.91333 35.04 9.99985 36.0928 9.99985H36.0933C36.5506 9.99939 37.0065 9.95087 37.4533 9.85474C38.5519 11.3983 39.093 13.6157 39.093 16.62C39.093 16.9904 39.093 17.3515 39.083 17.7187C39.1177 20.0615 38.8692 22.3998 38.3437 24.6831C38.0937 25.6774 37.7472 26.6451 37.3091 27.5721C35.6044 31.1737 33.1764 32.9998 30.0929 32.9998C26.9847 32.9998 24.5503 31.1747 22.8561 27.5711ZM30.0929 34.9997C31.6273 35.0066 33.1357 34.6051 34.4641 33.837C34.6921 35.2199 35.0505 36.5786 35.5344 37.8946C35.6465 38.2013 35.7559 38.4778 35.8658 38.7346L30.0929 43.6831L24.32 38.7346C24.4295 38.4792 24.537 38.2055 24.6483 37.9047C25.1335 36.59 25.4915 35.2318 25.7181 33.8485C27.0497 34.6102 28.5589 35.0075 30.0929 34.9997ZM19.8958 37.2167L22.3855 39.7069C22.3938 39.7152 22.4057 39.7175 22.4139 39.7257C22.4249 39.7358 22.4304 39.7495 22.4418 39.7591L28.4953 44.9479L26.1868 46.6801L17.7809 38.2737L19.8958 37.2167ZM16.0926 56.0001V49.9998C16.0926 49.4477 15.6449 49 15.0929 49C14.5404 49 14.0927 49.4477 14.0927 49.9998V55.6399C10.2328 54.4923 7.73386 50.7629 8.13944 46.7561C8.54502 42.7497 11.7411 39.5971 15.753 39.2464L15.9123 39.2336L25.3857 48.707C25.7377 49.0591 26.2948 49.0989 26.6926 48.8L29.0927 47V58.0001H18.0931C16.9889 57.9987 16.094 57.1043 16.0926 56.0001ZM46.0927 55.6399V49.9998C46.0927 49.4477 45.645 49 45.0929 49C44.5404 49 44.0927 49.4477 44.0927 49.9998V56.0001C44.0918 57.1043 43.1969 57.9987 42.0928 58.0001H31.0927V47L33.4927 48.8C33.891 49.0989 34.4481 49.0591 34.8001 48.707L44.2731 39.2336L44.4242 39.246C48.4392 39.5907 51.6413 42.7428 52.0496 46.7519C52.4575 50.761 49.9562 54.4932 46.0927 55.6399Z" fill="url(#paint0_linear)"/>
</g>
</g>
<defs>
<linearGradient id="paint0_linear" x1="6.09354" y1="0" x2="55.9617" y2="1.59575" gradientUnits="userSpaceOnUse">
<stop stop-color="#F37535"/>
<stop offset="1" stop-color="#FDC630"/>
</linearGradient>
<clipPath id="clip0">
<rect width="60" height="60" fill="white"/>
</clipPath>
</defs>
</svg>
