<svg width="60" height="60" viewBox="0 0 60 60" fill="none" xmlns="http://www.w3.org/2000/svg">
<path d="M56.3368 51.4886L46.6505 34.6405C49.5756 30.9891 51.3282 26.3598 51.3282 21.3282C51.3282 9.56783 41.7603 0 29.9999 0C18.2395 0 8.67167 9.56783 8.67167 21.3282C8.67167 26.3598 10.4241 30.9891 13.3494 34.6405L3.66305 51.4886C3.44063 51.8756 3.45727 52.3553 3.70606 52.726C3.95485 53.0966 4.39302 53.2937 4.83493 53.2343L12.3951 52.2191L15.296 59.2739C15.4659 59.687 15.8559 59.9677 16.3017 59.9974C16.3279 59.9992 16.3541 60 16.3801 60C16.7967 60 17.1845 59.7782 17.3947 59.4141L27.1732 42.4772C27.1748 42.4746 27.1758 42.4719 27.1773 42.4692C28.1012 42.5919 29.0432 42.6564 30.0002 42.6564C30.9571 42.6564 31.8991 42.5919 32.823 42.4692C32.8245 42.4718 32.8256 42.4745 32.8271 42.4772L42.6056 59.4141C42.8159 59.7782 43.2038 60 43.6202 60C43.6463 60 43.6724 59.9992 43.6986 59.9974C44.1444 59.9677 44.5344 59.687 44.7043 59.2739L47.6053 52.2191L55.1655 53.2343C55.6084 53.2937 56.0456 53.0966 56.2944 52.726C56.5425 52.3553 56.5592 51.8756 56.3368 51.4886ZM16.5568 56.1776L14.4451 51.0421L16.3401 47.9497C16.6783 47.3978 16.5051 46.6763 15.9533 46.3382C15.4014 46.0001 14.6799 46.1732 14.3418 46.725L12.4269 49.85L6.88033 50.5947L14.9987 36.474C17.6579 39.108 21.0043 41.049 24.7422 42.0001L16.5568 56.1776ZM29.9998 40.3127C19.5317 40.3127 11.0153 31.7963 11.0153 21.3282C11.0153 10.8602 19.5317 2.34376 29.9998 2.34376C40.4679 2.34376 48.9843 10.8602 48.9843 21.3282C48.9843 31.7963 40.4679 40.3127 29.9998 40.3127ZM47.5729 49.85L45.6579 46.725C45.3198 46.1732 44.5983 45.9999 44.0465 46.3382C43.4946 46.6764 43.3214 47.3978 43.6596 47.9497L45.5547 51.0421L43.4429 56.1776L35.2576 42.0001C38.9954 41.049 42.3419 39.108 45.0011 36.474L53.1194 50.5947L47.5729 49.85Z" fill="white"/>
<path d="M29.9998 6.09375C27.3847 6.09375 24.8045 6.76782 22.5382 8.04329C21.9742 8.36064 21.7743 9.07525 22.0916 9.63928C22.409 10.2033 23.1236 10.4035 23.6876 10.0859C25.6038 9.00752 27.7865 8.43751 29.9998 8.43751C37.1078 8.43751 42.8905 14.2203 42.8905 21.3282C42.8905 23.2705 42.4697 25.1367 41.6398 26.875C41.361 27.459 41.6084 28.1585 42.1925 28.4374C42.3555 28.5153 42.5273 28.5521 42.6966 28.5521C43.1339 28.5521 43.5538 28.3058 43.7549 27.8848C44.7365 25.8287 45.2343 23.6228 45.2343 21.3282C45.2343 12.9279 38.4002 6.09375 29.9998 6.09375Z" fill="white"/>
<path d="M37.8033 33.0874C37.491 32.5206 36.7782 32.3142 36.2114 32.6266C34.321 33.6683 32.1731 34.2189 29.9998 34.2189C22.8919 34.2189 17.1091 28.4361 17.1091 21.3282C17.1091 19.4662 17.4972 17.6704 18.2623 15.9907C18.5306 15.4017 18.2706 14.7068 17.6816 14.4385C17.0926 14.1702 16.3977 14.4301 16.1293 15.0191C15.2242 17.0059 14.7653 19.1286 14.7653 21.3282C14.7653 29.7285 21.5994 36.5627 29.9997 36.5627C32.5674 36.5627 35.1065 35.9114 37.3425 34.6793C37.9093 34.3669 38.1157 33.6543 37.8033 33.0874Z" fill="white"/>
<path fill-rule="evenodd" clip-rule="evenodd" d="M18.8516 10.9454C19.2927 10.4719 20.0343 10.4454 20.5078 10.8866C20.9814 11.3277 21.0076 12.0693 20.5665 12.5429L20.5459 12.565C20.3149 12.8146 20.0006 12.9411 19.6854 12.9411C19.4006 12.9411 19.1153 12.838 18.8899 12.6294C18.4148 12.1899 18.3861 11.4485 18.8256 10.9734L18.8516 10.9454ZM39.3741 18.8472C39.2362 18.423 38.8692 18.114 38.4279 18.0499L33.3299 17.3104L31.0488 12.6915C30.8512 12.2917 30.444 12.0386 29.9981 12.0386H29.9979C29.5517 12.0387 29.1445 12.2921 28.9472 12.6921L26.6687 17.3122L21.571 18.0543C21.1295 18.1185 20.763 18.4279 20.6253 18.8521C20.4876 19.2764 20.6026 19.7421 20.9221 20.0533L24.6119 23.6481L23.7425 28.7255C23.6671 29.1652 23.8481 29.6094 24.209 29.8716C24.4131 30.0198 24.6548 30.0952 24.8976 30.0952C25.0842 30.0952 25.2715 30.0506 25.4431 29.9604L30.0021 27.562L34.5623 29.9579C34.9571 30.1655 35.4356 30.1308 35.7964 29.8684C36.1573 29.6061 36.3379 29.1618 36.2624 28.7222L35.3903 23.6452L39.0782 20.0486C39.3973 19.7371 39.512 19.2714 39.3741 18.8472ZM33.3126 22.3975C33.0365 22.6668 32.9106 23.0547 32.9758 23.4349L33.5503 26.7789L30.5467 25.2008C30.2053 25.0214 29.7974 25.0215 29.456 25.201L26.4532 26.7807L27.0259 23.4364C27.091 23.0563 26.9648 22.6684 26.6886 22.3992L24.2583 20.0315L27.6159 19.5427C27.9976 19.4872 28.3275 19.2473 28.4981 18.9015L29.9988 15.8586L31.5013 18.9008C31.6721 19.2466 32.0021 19.4862 32.3838 19.5415L35.7416 20.0286L33.3126 22.3975ZM40.9045 30.284C40.4401 29.8333 39.6982 29.8444 39.2475 30.3089L39.2215 30.3356C38.7694 30.7986 38.7781 31.5406 39.2412 31.9927C39.4691 32.2153 39.7645 32.3261 40.0597 32.3261C40.3643 32.3261 40.6687 32.2081 40.8983 31.9729L40.9292 31.9412C41.3801 31.4768 41.3689 30.7348 40.9045 30.284Z" fill="white"/>
<path fill-rule="evenodd" clip-rule="evenodd" d="M18.8516 10.9454C19.2927 10.4719 20.0343 10.4454 20.5078 10.8866C20.9814 11.3277 21.0076 12.0693 20.5665 12.5429L20.5459 12.565C20.3149 12.8146 20.0006 12.9411 19.6854 12.9411C19.4006 12.9411 19.1153 12.838 18.8899 12.6294C18.4148 12.1899 18.3861 11.4485 18.8256 10.9734L18.8516 10.9454ZM39.3741 18.8472C39.2362 18.423 38.8692 18.114 38.4279 18.0499L33.3299 17.3104L31.0488 12.6915C30.8512 12.2917 30.444 12.0386 29.9981 12.0386H29.9979C29.5517 12.0387 29.1445 12.2921 28.9472 12.6921L26.6687 17.3122L21.571 18.0543C21.1295 18.1185 20.763 18.4279 20.6253 18.8521C20.4876 19.2764 20.6026 19.7421 20.9221 20.0533L24.6119 23.6481L23.7425 28.7255C23.6671 29.1652 23.8481 29.6094 24.209 29.8716C24.4131 30.0198 24.6548 30.0952 24.8976 30.0952C25.0842 30.0952 25.2715 30.0506 25.4431 29.9604L30.0021 27.562L34.5623 29.9579C34.9571 30.1655 35.4356 30.1308 35.7964 29.8684C36.1573 29.6061 36.3379 29.1618 36.2624 28.7222L35.3903 23.6452L39.0782 20.0486C39.3973 19.7371 39.512 19.2714 39.3741 18.8472ZM33.3126 22.3975C33.0365 22.6668 32.9106 23.0547 32.9758 23.4349L33.5503 26.7789L30.5467 25.2008C30.2053 25.0214 29.7974 25.0215 29.456 25.201L26.4532 26.7807L27.0259 23.4364C27.091 23.0563 26.9648 22.6684 26.6886 22.3992L24.2583 20.0315L27.6159 19.5427C27.9976 19.4872 28.3275 19.2473 28.4981 18.9015L29.9988 15.8586L31.5013 18.9008C31.6721 19.2466 32.0021 19.4862 32.3838 19.5415L35.7416 20.0286L33.3126 22.3975ZM40.9045 30.284C40.4401 29.8333 39.6982 29.8444 39.2475 30.3089L39.2215 30.3356C38.7694 30.7986 38.7781 31.5406 39.2412 31.9927C39.4691 32.2153 39.7645 32.3261 40.0597 32.3261C40.3643 32.3261 40.6687 32.2081 40.8983 31.9729L40.9292 31.9412C41.3801 31.4768 41.3689 30.7348 40.9045 30.284Z" fill="url(#paint0_linear)"/>
<defs>
<linearGradient id="paint0_linear" x1="18.5139" y1="10.5723" x2="42.1288" y2="11.56" gradientUnits="userSpaceOnUse">
<stop stop-color="#F37535"/>
<stop offset="1" stop-color="#FDC630"/>
</linearGradient>
</defs>
</svg>
