<svg width="42" height="42" viewBox="0 0 42 42" fill="none" xmlns="http://www.w3.org/2000/svg">
<path d="M41.1797 7.87524H29.1315L26.9168 5.15279C26.7611 4.96125 26.5273 4.8501 26.2805 4.8501H15.7193C15.4725 4.8501 15.2388 4.96125 15.083 5.15271L12.868 7.87524H0.820311C0.367253 7.87524 0 8.24249 0 8.69555V17.1034C0 17.3956 0.155449 17.6657 0.408105 17.8126L1.46065 18.4244V36.3298C1.46065 36.7828 1.82798 37.1501 2.28096 37.1501H21H39.7186C40.1716 37.1501 40.5389 36.7828 40.5389 36.3298V18.4247L41.5919 17.8126C41.8446 17.6658 42 17.3957 42 17.1035V8.69555C42 8.24249 41.6327 7.87524 41.1797 7.87524ZM16.1094 6.4908H25.8903L27.0166 7.87532H14.983L16.1094 6.4908ZM21 35.5095H3.10127V19.378L10.2878 23.5552C10.4129 23.6279 10.5552 23.6663 10.7 23.6663H16.1805V24.7429C16.1805 25.1959 16.5478 25.5632 17.0008 25.5632H24.999C25.452 25.5632 25.8193 25.1959 25.8193 24.7429V23.6663H31.2998C31.4447 23.6663 31.5868 23.628 31.712 23.5552L38.8982 19.3783V35.5095H21ZM17.8212 23.9225V22.8459V21.7693H24.1787V22.8459V23.9225H17.8212ZM40.3595 16.6314L31.0789 22.0256H25.8195V20.9489C25.8195 20.4959 25.4521 20.1286 24.9991 20.1286H17.0009C16.548 20.1286 16.1806 20.4959 16.1806 20.9489V22.0256H10.9212L1.64062 16.6315V9.51586H13.2566C13.257 9.51586 13.2573 9.51586 13.2576 9.51586C13.2579 9.51586 13.2581 9.51586 13.2584 9.51586H28.7357C28.7361 9.51586 28.7366 9.51586 28.737 9.51586H40.3595V16.6314Z" fill="white"/>
<path fill-rule="evenodd" clip-rule="evenodd" d="M4.38867 11.3101H8.57513C9.02819 11.3101 9.39544 11.6773 9.39544 12.1304C9.39544 12.5834 9.0281 12.9507 8.57513 12.9507H4.38867C3.93569 12.9507 3.56836 12.5834 3.56836 12.1304C3.56836 11.6773 3.93569 11.3101 4.38867 11.3101ZM10.932 11.3107H10.9513C11.4044 11.3107 11.7716 11.678 11.7716 12.131C11.7716 12.5841 11.4044 12.9513 10.9513 12.9513H10.932C10.479 12.9513 10.1116 12.5841 10.1116 12.131C10.1116 11.678 10.479 11.3107 10.932 11.3107ZM29.821 32.3306H29.8017C29.3487 32.3306 28.9814 32.6978 28.9814 33.1509C28.9814 33.6039 29.3487 33.9712 29.8017 33.9712H29.821C30.274 33.9712 30.6414 33.6039 30.6414 33.1509C30.6414 32.6978 30.2741 32.3306 29.821 32.3306ZM32.178 32.3306H36.3647C36.8176 32.3306 37.185 32.6978 37.185 33.1509C37.185 33.6039 36.8176 33.9712 36.3647 33.9712H32.178C31.7251 33.9712 31.3577 33.6039 31.3577 33.1509C31.3577 32.6978 31.725 32.3306 32.178 32.3306Z" fill="white"/>
<path fill-rule="evenodd" clip-rule="evenodd" d="M4.38867 11.3101H8.57513C9.02819 11.3101 9.39544 11.6773 9.39544 12.1304C9.39544 12.5834 9.0281 12.9507 8.57513 12.9507H4.38867C3.93569 12.9507 3.56836 12.5834 3.56836 12.1304C3.56836 11.6773 3.93569 11.3101 4.38867 11.3101ZM10.932 11.3107H10.9513C11.4044 11.3107 11.7716 11.678 11.7716 12.131C11.7716 12.5841 11.4044 12.9513 10.9513 12.9513H10.932C10.479 12.9513 10.1116 12.5841 10.1116 12.131C10.1116 11.678 10.479 11.3107 10.932 11.3107ZM29.821 32.3306H29.8017C29.3487 32.3306 28.9814 32.6978 28.9814 33.1509C28.9814 33.6039 29.3487 33.9712 29.8017 33.9712H29.821C30.274 33.9712 30.6414 33.6039 30.6414 33.1509C30.6414 32.6978 30.2741 32.3306 29.821 32.3306ZM32.178 32.3306H36.3647C36.8176 32.3306 37.185 32.6978 37.185 33.1509C37.185 33.6039 36.8176 33.9712 36.3647 33.9712H32.178C31.7251 33.9712 31.3577 33.6039 31.3577 33.1509C31.3577 32.6978 31.725 32.3306 32.178 32.3306Z" fill="url(#paint0_linear)"/>
<mask id="mask0" mask-type="alpha" maskUnits="userSpaceOnUse" x="12" y="15" width="8" height="5">
<rect x="12.3281" y="15.2456" width="7.34898" height="4.2735" fill="#C4C4C4"/>
</mask>
<g mask="url(#mask0)">
<path d="M41.1797 7.87524H29.1315L26.9168 5.15279C26.7611 4.96125 26.5273 4.8501 26.2805 4.8501H15.7193C15.4725 4.8501 15.2388 4.96125 15.083 5.15271L12.868 7.87524H0.820311C0.367253 7.87524 0 8.24249 0 8.69555V17.1034C0 17.3956 0.155449 17.6657 0.408105 17.8126L1.46065 18.4244V36.3298C1.46065 36.7828 1.82798 37.1501 2.28096 37.1501H21H39.7186C40.1716 37.1501 40.5389 36.7828 40.5389 36.3298V18.4247L41.5919 17.8126C41.8446 17.6658 42 17.3957 42 17.1035V8.69555C42 8.24249 41.6327 7.87524 41.1797 7.87524ZM16.1094 6.4908H25.8903L27.0166 7.87532H14.983L16.1094 6.4908ZM21 35.5095H3.10127V19.378L10.2878 23.5552C10.4129 23.6279 10.5552 23.6663 10.7 23.6663H16.1805V24.7429C16.1805 25.1959 16.5478 25.5632 17.0008 25.5632H24.999C25.452 25.5632 25.8193 25.1959 25.8193 24.7429V23.6663H31.2998C31.4447 23.6663 31.5868 23.628 31.712 23.5552L38.8982 19.3783V35.5095H21ZM17.8212 23.9225V22.8459V21.7693H24.1787V22.8459V23.9225H17.8212ZM40.3595 16.6314L31.0789 22.0256H25.8195V20.9489C25.8195 20.4959 25.4521 20.1286 24.9991 20.1286H17.0009C16.548 20.1286 16.1806 20.4959 16.1806 20.9489V22.0256H10.9212L1.64062 16.6315V9.51586H13.2566C13.257 9.51586 13.2573 9.51586 13.2576 9.51586C13.2579 9.51586 13.2581 9.51586 13.2584 9.51586H28.7357C28.7361 9.51586 28.7366 9.51586 28.737 9.51586H40.3595V16.6314Z" fill="white"/>
<path d="M41.1797 7.87524H29.1315L26.9168 5.15279C26.7611 4.96125 26.5273 4.8501 26.2805 4.8501H15.7193C15.4725 4.8501 15.2388 4.96125 15.083 5.15271L12.868 7.87524H0.820311C0.367253 7.87524 0 8.24249 0 8.69555V17.1034C0 17.3956 0.155449 17.6657 0.408105 17.8126L1.46065 18.4244V36.3298C1.46065 36.7828 1.82798 37.1501 2.28096 37.1501H21H39.7186C40.1716 37.1501 40.5389 36.7828 40.5389 36.3298V18.4247L41.5919 17.8126C41.8446 17.6658 42 17.3957 42 17.1035V8.69555C42 8.24249 41.6327 7.87524 41.1797 7.87524ZM16.1094 6.4908H25.8903L27.0166 7.87532H14.983L16.1094 6.4908ZM21 35.5095H3.10127V19.378L10.2878 23.5552C10.4129 23.6279 10.5552 23.6663 10.7 23.6663H16.1805V24.7429C16.1805 25.1959 16.5478 25.5632 17.0008 25.5632H24.999C25.452 25.5632 25.8193 25.1959 25.8193 24.7429V23.6663H31.2998C31.4447 23.6663 31.5868 23.628 31.712 23.5552L38.8982 19.3783V35.5095H21ZM17.8212 23.9225V22.8459V21.7693H24.1787V22.8459V23.9225H17.8212ZM40.3595 16.6314L31.0789 22.0256H25.8195V20.9489C25.8195 20.4959 25.4521 20.1286 24.9991 20.1286H17.0009C16.548 20.1286 16.1806 20.4959 16.1806 20.9489V22.0256H10.9212L1.64062 16.6315V9.51586H13.2566C13.257 9.51586 13.2573 9.51586 13.2576 9.51586C13.2579 9.51586 13.2581 9.51586 13.2584 9.51586H28.7357C28.7361 9.51586 28.7366 9.51586 28.737 9.51586H40.3595V16.6314Z" fill="url(#paint1_linear)"/>
</g>
<defs>
<linearGradient id="paint0_linear" x1="3.56836" y1="11.3101" x2="38.407" y2="13.3773" gradientUnits="userSpaceOnUse">
<stop stop-color="#F37535"/>
<stop offset="1" stop-color="#FDC630"/>
</linearGradient>
<linearGradient id="paint1_linear" x1="0" y1="4.8501" x2="43.5622" y2="7.11587" gradientUnits="userSpaceOnUse">
<stop stop-color="#F37535"/>
<stop offset="1" stop-color="#FDC630"/>
</linearGradient>
</defs>
</svg>
