<svg width="46" height="46" viewBox="0 0 46 46" fill="none" xmlns="http://www.w3.org/2000/svg">
<path d="M8.62358 35.1518L13.1481 42.9889C14.1244 44.6819 16.3207 45.3087 18.0575 44.3046C19.7761 43.3114 20.3668 41.1155 19.3725 39.3955L16.6772 34.7264L19.0114 33.3788C19.441 33.1303 19.5884 32.581 19.3403 32.1515L18.1719 30.1279C18.3113 30.1009 19.2273 29.9212 35.3805 26.7524C37.3774 26.644 38.5738 24.46 37.5652 22.714L34.5793 17.5424L36.4874 14.6523C36.6748 14.368 36.6861 14.0027 36.5159 13.7079L34.719 10.5956C34.5488 10.3008 34.2255 10.1282 33.8869 10.1482L30.4303 10.3556L27.1156 4.61401C26.6355 3.78226 25.7753 3.27864 24.8151 3.26671C24.8035 3.26636 24.7923 3.26636 24.7807 3.26636C23.8528 3.26636 23.0105 3.72821 22.5115 4.50908L10.7749 19.4603L3.14487 23.8655C0.143876 25.5974 -0.895644 29.4474 0.842973 32.4565C2.43138 35.2079 5.78017 36.2903 8.62358 35.1518ZM17.8168 40.2943C18.313 41.1527 18.0193 42.2512 17.1584 42.7485C16.2947 43.2479 15.1948 42.9411 14.7042 42.0908L10.212 34.3091L13.3242 32.5123C18.5232 41.5184 17.7332 40.15 17.8168 40.2943ZM15.7788 33.1699L14.8804 31.6138L16.4365 30.7154L17.3349 32.2715L15.7788 33.1699ZM33.4405 11.9749L34.6821 14.1255L33.5749 15.8024L31.4348 12.0953L33.4405 11.9749ZM24.0142 5.4942C24.2553 5.09973 24.6379 5.05902 24.793 5.06323C24.9464 5.06499 25.3286 5.11272 25.5591 5.5121L36.0091 23.6125C36.3495 24.2017 35.9357 24.9426 35.2531 24.9594C35.1306 24.9622 35.0741 24.9843 34.7604 25.0429L23.7065 5.89674C23.9384 5.59843 23.9683 5.56966 24.0142 5.4942ZM22.5108 7.41988L32.8965 25.4086L17.2223 28.483L12.4563 20.2282L22.5108 7.41988ZM2.39909 31.558C2.00462 30.8754 1.79616 30.1005 1.79616 29.3165C1.79616 27.714 2.6574 26.2218 4.04331 25.4216L11.0459 21.3786L15.538 29.1593L8.53549 33.2026C6.39012 34.4407 3.6376 33.703 2.39909 31.558Z" fill="white"/>
<path fill-rule="evenodd" clip-rule="evenodd" d="M34.4853 5.39551L35.4163 1.92389C35.5448 1.44449 36.0375 1.16022 36.5166 1.28867C36.996 1.41712 37.2802 1.90985 37.1518 2.38926L36.2211 5.86087C36.0923 6.34062 35.5995 6.62419 35.1205 6.4961C34.6411 6.3673 34.3568 5.87491 34.4853 5.39551ZM39.6583 7.97399L44.6646 5.18813C45.098 4.94667 45.6452 5.10249 45.8863 5.53627C46.1277 5.9697 45.9719 6.51683 45.5381 6.75829L40.5321 9.54415C40.0977 9.78595 39.5509 9.62908 39.3101 9.196C39.0687 8.76258 39.2248 8.21544 39.6583 7.97399ZM12.3054 28.9508C12.735 28.703 12.882 28.1531 12.6343 27.7235C12.3861 27.2943 11.8365 27.1469 11.407 27.3947C10.9774 27.6428 10.83 28.1928 11.0781 28.622C11.3259 29.0515 11.8759 29.1989 12.3054 28.9508ZM9.52202 29.5204C9.2739 29.0908 8.72431 28.9434 8.29474 29.1915L6.73862 30.09C6.30975 30.3378 5.75911 30.19 5.51134 29.7611C5.26321 29.3316 4.71362 29.1842 4.28406 29.4323C3.85449 29.6804 3.70709 30.23 3.95522 30.6596C4.69467 31.9406 6.34415 32.3922 7.63705 31.6461L9.19318 30.7477C9.62274 30.4995 9.77014 29.9503 9.52202 29.5204ZM44.1396 14.4932L40.6683 13.5632C40.1889 13.4348 39.6961 13.719 39.5677 14.1984C39.4392 14.6778 39.7239 15.1702 40.2033 15.2987L43.6749 16.2287C44.1571 16.3582 44.6474 16.0694 44.7751 15.5935C44.9036 15.1141 44.619 14.6213 44.1396 14.4932Z" fill="white"/>
<path fill-rule="evenodd" clip-rule="evenodd" d="M34.4853 5.39551L35.4163 1.92389C35.5448 1.44449 36.0375 1.16022 36.5166 1.28867C36.996 1.41712 37.2802 1.90985 37.1518 2.38926L36.2211 5.86087C36.0923 6.34062 35.5995 6.62419 35.1205 6.4961C34.6411 6.3673 34.3568 5.87491 34.4853 5.39551ZM39.6583 7.97399L44.6646 5.18813C45.098 4.94667 45.6452 5.10249 45.8863 5.53627C46.1277 5.9697 45.9719 6.51683 45.5381 6.75829L40.5321 9.54415C40.0977 9.78595 39.5509 9.62908 39.3101 9.196C39.0687 8.76258 39.2248 8.21544 39.6583 7.97399ZM12.3054 28.9508C12.735 28.703 12.882 28.1531 12.6343 27.7235C12.3861 27.2943 11.8365 27.1469 11.407 27.3947C10.9774 27.6428 10.83 28.1928 11.0781 28.622C11.3259 29.0515 11.8759 29.1989 12.3054 28.9508ZM9.52202 29.5204C9.2739 29.0908 8.72431 28.9434 8.29474 29.1915L6.73862 30.09C6.30975 30.3378 5.75911 30.19 5.51134 29.7611C5.26321 29.3316 4.71362 29.1842 4.28406 29.4323C3.85449 29.6804 3.70709 30.23 3.95522 30.6596C4.69467 31.9406 6.34415 32.3922 7.63705 31.6461L9.19318 30.7477C9.62274 30.4995 9.77014 29.9503 9.52202 29.5204ZM44.1396 14.4932L40.6683 13.5632C40.1889 13.4348 39.6961 13.719 39.5677 14.1984C39.4392 14.6778 39.7239 15.1702 40.2033 15.2987L43.6749 16.2287C44.1571 16.3582 44.6474 16.0694 44.7751 15.5935C44.9036 15.1141 44.619 14.6213 44.1396 14.4932Z" fill="url(#paint0_linear)"/>
<defs>
<linearGradient id="paint0_linear" x1="45.9999" y1="32.0067" x2="16.7226" y2="-8.14062" gradientUnits="userSpaceOnUse">
<stop stop-color="#FDC830"/>
<stop offset="1" stop-color="#F37335"/>
</linearGradient>
</defs>
</svg>
