<svg width="50" height="50" viewBox="0 0 50 50" fill="none" xmlns="http://www.w3.org/2000/svg">
<g clip-path="url(#clip0)">
<path d="M49.4596 2.92012C49.4472 2.43115 49.3732 1.89063 48.9194 1.58887C48.4006 1.24434 47.8024 1.47734 47.224 1.70332C45.8348 2.24531 44.4286 2.59756 42.7988 2.81201C42.3979 2.86475 42.1154 3.23262 42.1683 3.63369C42.221 4.03467 42.5889 4.31729 42.9899 4.26426C44.7398 4.03418 46.2544 3.654 47.7566 3.06797C47.8102 3.04707 47.901 3.01162 47.9958 2.97695C48.0247 4.19043 47.7051 5.12969 47.0189 5.84785C45.9115 7.00664 43.7899 7.62344 40.7128 7.68096C40.3084 7.68857 39.9866 8.02256 39.9942 8.42705C40.0018 8.82686 40.3281 9.1457 40.7263 9.1457C40.731 9.1457 40.7356 9.1457 40.7403 9.14561C42.4639 9.11338 43.9172 8.91816 45.1179 8.55615C45.1385 9.54932 44.8937 10.3406 44.375 10.957C44.0254 11.3727 43.541 11.7168 42.926 11.9892C42.9202 11.9918 42.9143 11.9941 42.9086 11.997C41.8405 12.4657 40.3801 12.7193 38.5399 12.753C38.1354 12.7605 37.8136 13.0943 37.821 13.4988C37.8283 13.8987 38.1548 14.2178 38.553 14.2178C38.5576 14.2178 38.5622 14.2178 38.5668 14.2177C40.1307 14.1891 41.4538 14.013 42.5502 13.6863C42.4982 14.3883 42.2486 15.0319 41.8019 15.6075C40.8245 16.8668 39.0677 17.5821 37.6942 17.7563C37.5279 17.4487 37.3403 17.1462 37.1318 16.8516C36.1928 15.5204 34.7481 14.3823 33.2663 13.8067C31.6469 13.1806 30.3013 13.3029 29.5736 14.1428C28.8978 14.9263 28.9282 16.2387 29.2202 17.3377C28.6069 17.2399 27.9836 17.1277 27.3542 17.0026V11.3024C29.6291 10.902 31.5939 9.66416 32.9373 7.76875L32.9671 7.72686C34.8163 5.15928 36.8891 4.80176 39.6154 4.57705C40.0186 4.54385 40.3184 4.19004 40.2852 3.78691C40.2519 3.38379 39.8992 3.0832 39.495 3.11719C36.5791 3.35752 33.9857 3.80586 31.7785 6.8707L31.7421 6.92168C30.6764 8.42539 29.1387 9.43125 27.3541 9.81006V7.825C28.5061 7.05977 29.2675 5.75059 29.2675 4.26631C29.2673 1.91387 27.3534 0 25.0011 0C22.6473 0 20.7321 1.91387 20.7321 4.26631C20.7321 5.75 21.4934 7.05879 22.6454 7.82412V9.81016C20.8678 9.43174 19.3314 8.42754 18.2608 6.92627L18.2215 6.87129C15.8111 3.52373 13.0075 3.30879 9.76124 3.05986C7.71583 2.90303 5.39747 2.7252 2.77833 1.70342C2.19932 1.47744 1.60059 1.24375 1.08077 1.58916C0.626178 1.89131 0.552252 2.43145 0.53985 2.91895C0.496783 4.5293 0.961529 5.85518 1.92149 6.85977C2.34092 7.29873 2.84952 7.67276 3.44932 7.98408C3.30606 9.5794 3.65938 10.8959 4.50577 11.9014C4.89893 12.3684 5.39014 12.7634 5.98321 13.0879C5.90967 14.3523 6.27608 15.5337 7.05684 16.5319C8.26661 18.0789 10.1944 18.879 11.7092 19.1501C11.3222 20.3592 11.2611 21.5812 11.5628 22.6589C12.0431 24.3749 13.3499 25.706 15.4465 26.6147L19.2524 28.2666C18.0803 28.8889 17.094 29.5667 16.3109 30.2913C16.0141 30.566 15.996 31.0295 16.2708 31.3264C16.4152 31.4824 16.6115 31.5613 16.8086 31.5613C16.9865 31.5613 17.1649 31.4969 17.3059 31.3665C18.2196 30.5209 19.4665 29.7362 21.0148 29.0314L23.1596 29.9623L21.5262 30.6716C19.008 31.7633 17.8231 32.926 17.9036 34.2261C17.9822 35.4953 19.2852 36.5362 21.6714 37.2361L23.1565 37.6724C23.1598 37.6733 23.1632 37.6743 23.1664 37.6753L30.4883 39.8258C32.8648 40.5226 34.3163 41.9496 34.4707 43.741C34.5908 45.1361 33.8674 46.4692 32.6702 47.0582C31.4763 47.6457 30.7053 47.6372 30.4993 47.5602C30.5062 47.4595 30.5676 47.1512 31.001 46.548C31.9479 45.2349 32.2476 44.1262 31.9171 43.1587C31.6026 42.238 30.7372 41.5621 29.345 41.1499L20.4465 38.5111C20.2659 38.4575 19.8665 38.324 19.8393 38.3164C16.976 37.3276 15.4399 35.7284 15.7042 33.9707C15.7643 33.5706 15.4888 33.1977 15.0888 33.1375C14.6868 33.078 14.3157 33.353 14.2556 33.7529C13.9432 35.8314 15.1856 37.6892 17.6502 38.972C15.5472 39.9799 14.2388 41.645 14.069 43.6152C13.8972 45.6072 14.9474 47.5191 16.6821 48.3726C17.482 48.7661 18.4085 49.0633 19.2033 49.0633C19.7879 49.0632 20.3016 48.9025 20.6413 48.5012C21.0273 48.0453 21.2617 47.188 20.1862 45.6911C19.5465 44.804 19.3051 44.1114 19.4686 43.6329C19.6582 43.0776 20.4456 42.7398 21.0732 42.5542L22.6453 42.0881V47.6441C22.6453 48.9431 23.7021 49.9998 25.001 49.9998C26.2983 49.9998 27.3538 48.9431 27.3538 47.6441V42.0872L28.9289 42.5543C29.5552 42.7397 30.3415 43.0772 30.5309 43.632C30.6944 44.1108 30.4528 44.8036 29.8122 45.6922C28.7375 47.188 28.972 48.0454 29.3579 48.5013C29.6977 48.9026 30.211 49.0634 30.7958 49.0634C31.5907 49.0634 32.5171 48.7662 33.317 48.3727C35.0518 47.5193 36.102 45.6075 35.9303 43.6153C35.7601 41.6405 34.4458 39.9721 32.3342 38.9649C34.4229 37.8537 35.626 36.2886 35.6983 34.5162C35.7911 32.2454 34.0374 30.0111 30.8282 28.2322L34.5553 26.6148C36.6509 25.706 37.9567 24.3752 38.4368 22.6595C38.7387 21.5804 38.6772 20.3568 38.2892 19.1467C39.8158 18.866 41.7565 18.0549 42.9589 16.5059C43.7279 15.5149 44.0885 14.3429 44.0159 13.0886C44.6102 12.7637 45.1022 12.368 45.4958 11.9001C46.3417 10.8945 46.6943 9.57842 46.5503 7.98398C47.15 7.67275 47.6585 7.29873 48.0778 6.85986C49.0378 5.85527 49.5026 4.5294 49.4596 2.92012ZM20.6573 41.1499C19.2635 41.5623 18.3972 42.2384 18.0825 43.1595C17.7521 44.1269 18.0517 45.2354 18.9976 46.547C19.4315 47.1512 19.493 47.4596 19.5 47.5603C19.2941 47.6372 18.5231 47.6457 17.329 47.0583C16.1319 46.4693 15.4084 45.1362 15.5286 43.7411C15.683 41.9497 17.1346 40.5227 19.5144 39.8248L19.6293 39.7905C19.7609 39.8333 22.425 40.6257 22.425 40.6257L20.6573 41.1499ZM25.8891 47.6443C25.8891 48.1356 25.4907 48.5352 25.0011 48.5352C24.5099 48.5352 24.1103 48.1356 24.1103 47.6443V41.654L25.0014 41.3898L25.8891 41.6531V47.6443ZM29.9295 18.9251C30.3064 19.4464 30.9286 20.0242 31.9412 20.3658C32.9717 20.7135 33.255 21.0561 33.2608 21.1888C33.2746 21.5034 32.5169 22.2869 30.7892 23.044L27.3539 24.5499V18.4972C28.2283 18.666 29.0901 18.8086 29.9295 18.9251ZM25.0011 1.46484C26.5457 1.46484 27.8025 2.72158 27.8025 4.26631C27.8025 5.8125 26.5458 7.07051 25.0011 7.07051C23.4549 7.07051 22.197 5.8125 22.197 4.26631C22.197 2.72158 23.4549 1.46484 25.0011 1.46484ZM25.0011 8.53525C25.3056 8.53525 25.6024 8.50254 25.8891 8.4416V10.6646V10.6674V17.5969V17.6018V25.1921L24.9993 25.5821L24.1103 25.1924V17.6006C24.1103 17.5991 24.1103 17.5977 24.1103 17.5962V10.6674C24.1103 10.6664 24.1103 10.6655 24.1103 10.6646V8.44111C24.3978 8.50234 24.6956 8.53525 25.0011 8.53525ZM20.0698 18.9249C20.9187 18.8072 21.7807 18.6651 22.6454 18.4979V24.5502L19.2104 23.0442C17.4838 22.2868 16.7267 21.503 16.7405 21.1884C16.7464 21.0559 17.0293 20.7134 18.0574 20.3661C19.0694 20.0258 19.6919 19.448 20.0698 18.9249ZM8.21085 15.6296C7.75557 15.0475 7.50157 14.3964 7.44942 13.6862C8.54581 14.0131 9.86905 14.1892 11.433 14.2179C11.4376 14.218 11.4422 14.218 11.4468 14.218C11.845 14.218 12.1715 13.8987 12.1788 13.499C12.1861 13.0945 11.8644 12.7606 11.46 12.7532C8.54708 12.6999 6.58448 12.096 5.62676 10.9582C5.10782 10.3416 4.86251 9.5501 4.88253 8.55645C6.08301 8.91836 7.53624 9.11338 9.25938 9.1457C9.26407 9.1458 9.26876 9.1458 9.27344 9.1458C9.67159 9.1458 9.99796 8.82676 10.0055 8.42715C10.013 8.02266 9.69122 7.68867 9.28692 7.68106C6.20977 7.62354 4.08819 7.00684 2.98087 5.84795C2.29463 5.12979 1.97501 4.19043 2.00401 2.97607C2.09981 3.01094 2.192 3.04697 2.2461 3.06807C5.06807 4.16914 7.50186 4.35576 9.64913 4.52041C12.7673 4.75947 15.0201 4.93223 17.0349 7.73027L17.0682 7.77676C18.4167 9.66787 20.3794 10.9028 22.6454 11.3026V17.0034C22.0212 17.1278 21.3982 17.2398 20.7797 17.3382C21.0716 16.2399 21.1024 14.9271 20.4262 14.1434C19.7009 13.302 18.3556 13.1795 16.7354 13.8072C15.253 14.3819 13.8072 15.5201 12.8678 16.8519C12.659 17.1469 12.4712 17.4499 12.3048 17.7579C10.9454 17.5956 9.19708 16.8907 8.21085 15.6296ZM25.8891 31.1471V36.4263L25.0005 36.6874L24.1103 36.426V31.1468L24.999 30.7608L25.8891 31.1471ZM27.8903 32.0157C29.9544 32.9105 30.6608 33.6977 30.6336 34.1357C30.6054 34.5909 29.7539 35.2916 27.915 35.831L27.3539 35.9958V31.7828L27.8903 32.0157ZM19.3657 34.1357C19.3387 33.6976 20.045 32.9105 22.1094 32.0156L22.6454 31.7828V35.9957L22.0841 35.8309C20.2454 35.2915 19.394 34.5908 19.3657 34.1357ZM34.2348 34.4566C34.1719 35.9942 32.7543 37.37 30.3341 38.2523L27.6006 37.4501L28.3277 37.2364C30.7142 36.5364 32.017 35.4955 32.0957 34.2263C32.1762 32.9262 30.9912 31.7634 28.4733 30.6719L16.0295 25.2709C14.3573 24.5461 13.3291 23.5345 12.9735 22.2642C12.5935 20.9061 13.0012 19.1987 14.0642 17.6971C14.0645 17.6968 14.0647 17.6964 14.0649 17.6961C14.8446 16.5907 16.0408 15.6475 17.2648 15.173C18.1985 14.8112 19.0423 14.7811 19.317 15.0999C19.67 15.5091 19.5181 16.9442 19.028 17.8392C18.8251 18.2063 18.4109 18.7017 17.5898 18.9778C16.0956 19.4822 15.3175 20.2044 15.2772 21.1239C15.2133 22.5788 17.0608 23.7007 18.6221 24.3855L28.5118 28.7214C32.1764 30.3272 34.3158 32.4712 34.2348 34.4566ZM37.0262 22.2648C36.6708 23.535 35.6435 24.5463 33.9724 25.2711L29.1064 27.3828C29.1042 27.3818 29.1021 27.3809 29.0999 27.3799L26.8234 26.3818L31.3771 24.3856C32.9392 23.7012 34.788 22.5798 34.7241 21.1245C34.6838 20.2046 33.905 19.4824 32.4093 18.9778C31.588 18.7008 31.174 18.2058 30.9729 17.842C30.4815 16.9442 30.3294 15.5091 30.6815 15.1011C30.962 14.7773 31.7884 14.8063 32.7367 15.1729C33.9595 15.6478 35.155 16.5911 35.9353 17.6972C36.9983 19.199 37.4062 20.9065 37.0262 22.2648Z" fill="white"/>
<mask id="mask0" mask-type="alpha" maskUnits="userSpaceOnUse" x="-2" y="-1" width="25" height="21">
<path d="M22.6377 18.7513V11.3099V9.80859C22.3268 9.25391 21.5917 8.00625 21.1391 7.45307C20.5733 6.76158 17.5245 3.8385 16.9587 3.52419C16.393 3.20988 11.364 1.95264 10.8297 1.82692C10.2954 1.70119 6.36648 0.0668346 5.10924 -0.34174C4.10345 -0.6686 1.736 -0.477932 0.677998 -0.34174C0.0805761 1.68031 -1.09541 5.76841 -1.01998 5.94442C-0.925682 6.16444 3.63156 15.2794 3.82015 15.7509C3.97101 16.1281 8.15823 18.4644 10.233 19.5855L11.7065 19.1563C11.8347 18.7594 12.1584 18.0586 12.3042 17.7579L11.9438 16.7224L16.4292 12.578L20.6311 12.8533L21.457 16.0554L20.7743 17.3384C20.6782 17.8079 20.2626 18.5968 20.0669 18.9326L22.6377 18.7513Z" fill="#C4C4C4"/>
</mask>
<g mask="url(#mask0)">
<path d="M49.4576 2.92012C49.4452 2.43115 49.3713 1.89063 48.9175 1.58887C48.3986 1.24434 47.8005 1.47734 47.2221 1.70332C45.8328 2.24531 44.4267 2.59756 42.7969 2.81201C42.3959 2.86475 42.1135 3.23262 42.1663 3.63369C42.2191 4.03467 42.5869 4.31729 42.988 4.26426C44.7378 4.03418 46.2524 3.654 47.7547 3.06797C47.8082 3.04707 47.899 3.01162 47.9939 2.97695C48.0228 4.19043 47.7031 5.12969 47.0169 5.84785C45.9096 7.00664 43.788 7.62344 40.7108 7.68096C40.3064 7.68857 39.9847 8.02256 39.9923 8.42705C39.9998 8.82686 40.3262 9.1457 40.7243 9.1457C40.729 9.1457 40.7337 9.1457 40.7384 9.14561C42.4619 9.11338 43.9152 8.91816 45.1159 8.55615C45.1365 9.54932 44.8917 10.3406 44.3731 10.957C44.0234 11.3727 43.5391 11.7168 42.924 11.9892C42.9183 11.9918 42.9123 11.9941 42.9066 11.997C41.8386 12.4657 40.3781 12.7193 38.5379 12.753C38.1334 12.7605 37.8116 13.0943 37.819 13.4988C37.8264 13.8987 38.1528 14.2178 38.5511 14.2178C38.5557 14.2178 38.5603 14.2178 38.5648 14.2177C40.1287 14.1891 41.4519 14.013 42.5482 13.6863C42.4963 14.3883 42.2467 15.0319 41.7999 15.6075C40.8226 16.8668 39.0657 17.5821 37.6923 17.7563C37.526 17.4487 37.3384 17.1462 37.1299 16.8516C36.1908 15.5204 34.7462 14.3823 33.2644 13.8067C31.6449 13.1806 30.2993 13.3029 29.5717 14.1428C28.8958 14.9263 28.9263 16.2387 29.2183 17.3377C28.605 17.2399 27.9816 17.1277 27.3523 17.0026V11.3024C29.6272 10.902 31.5919 9.66416 32.9354 7.76875L32.9651 7.72686C34.8144 5.15928 36.8871 4.80176 39.6135 4.57705C40.0166 4.54385 40.3164 4.19004 40.2832 3.78691C40.2499 3.38379 39.8973 3.0832 39.4931 3.11719C36.5772 3.35752 33.9838 3.80586 31.7766 6.8707L31.7401 6.92168C30.6744 8.42539 29.1367 9.43125 27.3522 9.81006V7.825C28.5041 7.05977 29.2655 5.75059 29.2655 4.26631C29.2653 1.91387 27.3515 0 24.9991 0C22.6453 0 20.7302 1.91387 20.7302 4.26631C20.7302 5.75 21.4914 7.05879 22.6435 7.82412V9.81016C20.8658 9.43174 19.3294 8.42754 18.2589 6.92627L18.2195 6.87129C15.8092 3.52373 13.0056 3.30879 9.75928 3.05986C7.71387 2.90303 5.39551 2.7252 2.77637 1.70342C2.19737 1.47744 1.59864 1.24375 1.07881 1.58916C0.624225 1.89131 0.550299 2.43145 0.537896 2.91895C0.49483 4.5293 0.959576 5.85518 1.91954 6.85977C2.33897 7.29873 2.84756 7.67276 3.44737 7.98408C3.30411 9.5794 3.65743 10.8959 4.50381 11.9014C4.89698 12.3684 5.38819 12.7634 5.98126 13.0879C5.90772 14.3523 6.27413 15.5337 7.05489 16.5319C8.26465 18.0789 10.1925 18.879 11.7072 19.1501C11.3202 20.3592 11.2592 21.5812 11.5608 22.6589C12.0411 24.3749 13.348 25.706 15.4445 26.6147L19.2505 28.2666C18.0783 28.8889 17.092 29.5667 16.309 30.2913C16.0121 30.566 15.994 31.0295 16.2689 31.3264C16.4133 31.4824 16.6096 31.5613 16.8066 31.5613C16.9846 31.5613 17.163 31.4969 17.3039 31.3665C18.2177 30.5209 19.4646 29.7362 21.0128 29.0314L23.1576 29.9623L21.5242 30.6716C19.0061 31.7633 17.8211 32.926 17.9017 34.2261C17.9803 35.4953 19.2832 36.5362 21.6694 37.2361L23.1546 37.6724C23.1578 37.6733 23.1612 37.6743 23.1645 37.6753L30.4863 39.8258C32.8628 40.5226 34.3144 41.9496 34.4688 43.741C34.5889 45.1361 33.8654 46.4692 32.6683 47.0582C31.4743 47.6457 30.7033 47.6372 30.4974 47.5602C30.5042 47.4595 30.5656 47.1512 30.999 46.548C31.9459 45.2349 32.2456 44.1262 31.9151 43.1587C31.6007 42.238 30.7353 41.5621 29.3431 41.1499L20.4445 38.5111C20.264 38.4575 19.8646 38.324 19.8373 38.3164C16.974 37.3276 15.438 35.7284 15.7023 33.9707C15.7623 33.5706 15.4868 33.1977 15.0868 33.1375C14.6849 33.078 14.3138 33.353 14.2536 33.7529C13.9412 35.8314 15.1837 37.6892 17.6482 38.972C15.5452 39.9799 14.2368 41.645 14.067 43.6152C13.8952 45.6072 14.9454 47.5191 16.6802 48.3726C17.4801 48.7661 18.4065 49.0633 19.2014 49.0633C19.7859 49.0632 20.2996 48.9025 20.6394 48.5012C21.0253 48.0453 21.2598 47.188 20.1843 45.6911C19.5445 44.804 19.3031 44.1114 19.4666 43.6329C19.6563 43.0776 20.4437 42.7398 21.0712 42.5542L22.6434 42.0881V47.6441C22.6434 48.9431 23.7001 49.9998 24.999 49.9998C26.2964 49.9998 27.3519 48.9431 27.3519 47.6441V42.0872L28.927 42.5543C29.5532 42.7397 30.3396 43.0772 30.5289 43.632C30.6925 44.1108 30.4509 44.8036 29.8103 45.6922C28.7356 47.188 28.97 48.0454 29.356 48.5013C29.6957 48.9026 30.2091 49.0634 30.7939 49.0634C31.5888 49.0634 32.5151 48.7662 33.315 48.3727C35.0498 47.5193 36.1 45.6075 35.9283 43.6153C35.7581 41.6405 34.4439 39.9721 32.3322 38.9649C34.4209 37.8537 35.624 36.2886 35.6964 34.5162C35.7892 32.2454 34.0355 30.0111 30.8263 28.2322L34.5533 26.6148C36.6489 25.706 37.9548 24.3752 38.4349 22.6595C38.7367 21.5804 38.6752 20.3568 38.2872 19.1467C39.8139 18.866 41.7546 18.0549 42.9569 16.5059C43.726 15.5149 44.0865 14.3429 44.014 13.0886C44.6082 12.7637 45.1002 12.368 45.4939 11.9001C46.3398 10.8945 46.6924 9.57842 46.5483 7.98398C47.1481 7.67275 47.6566 7.29873 48.0759 6.85986C49.0358 5.85527 49.5007 4.5294 49.4576 2.92012ZM20.6554 41.1499C19.2615 41.5623 18.3952 42.2384 18.0806 43.1595C17.7501 44.1269 18.0497 45.2354 18.9956 46.547C19.4296 47.1512 19.491 47.4596 19.4981 47.5603C19.2922 47.6372 18.5211 47.6457 17.3271 47.0583C16.13 46.4693 15.4065 45.1362 15.5267 43.7411C15.6811 41.9497 17.1326 40.5227 19.5124 39.8248L19.6273 39.7905C19.759 39.8333 22.4231 40.6257 22.4231 40.6257L20.6554 41.1499ZM25.8871 47.6443C25.8871 48.1356 25.4888 48.5352 24.9991 48.5352C24.5079 48.5352 24.1083 48.1356 24.1083 47.6443V41.654L24.9994 41.3898L25.8871 41.6531V47.6443ZM29.9275 18.9251C30.3044 19.4464 30.9267 20.0242 31.9393 20.3658C32.9697 20.7135 33.253 21.0561 33.2589 21.1888C33.2727 21.5034 32.5149 22.2869 30.7872 23.044L27.352 24.5499V18.4972C28.2264 18.666 29.0882 18.8086 29.9275 18.9251ZM24.9991 1.46484C26.5438 1.46484 27.8005 2.72158 27.8005 4.26631C27.8005 5.8125 26.5439 7.07051 24.9991 7.07051C23.4529 7.07051 22.195 5.8125 22.195 4.26631C22.195 2.72158 23.4529 1.46484 24.9991 1.46484ZM24.9991 8.53525C25.3036 8.53525 25.6005 8.50254 25.8871 8.4416V10.6646V10.6674V17.5969V17.6018V25.1921L24.9974 25.5821L24.1083 25.1924V17.6006C24.1083 17.5991 24.1083 17.5977 24.1083 17.5962V10.6674C24.1083 10.6664 24.1083 10.6655 24.1083 10.6646V8.44111C24.3958 8.50234 24.6937 8.53525 24.9991 8.53525ZM20.0679 18.9249C20.9167 18.8072 21.7787 18.6651 22.6435 18.4979V24.5502L19.2084 23.0442C17.4818 22.2868 16.7247 21.503 16.7386 21.1884C16.7444 21.0559 17.0273 20.7134 18.0555 20.3661C19.0675 20.0258 19.6899 19.448 20.0679 18.9249ZM8.20889 15.6296C7.75362 15.0475 7.49962 14.3964 7.44747 13.6862C8.54385 14.0131 9.8671 14.1892 11.4311 14.2179C11.4357 14.218 11.4402 14.218 11.4448 14.218C11.8431 14.218 12.1695 13.8987 12.1769 13.499C12.1842 13.0945 11.8624 12.7606 11.458 12.7532C8.54512 12.6999 6.58253 12.096 5.62481 10.9582C5.10587 10.3416 4.86055 9.5501 4.88057 8.55645C6.08106 8.91836 7.53428 9.11338 9.25743 9.1457C9.26212 9.1458 9.2668 9.1458 9.27149 9.1458C9.66963 9.1458 9.996 8.82676 10.0035 8.42715C10.011 8.02266 9.68926 7.68867 9.28497 7.68106C6.20782 7.62354 4.08624 7.00684 2.97891 5.84795C2.29268 5.12979 1.97305 4.19043 2.00206 2.97607C2.09786 3.01094 2.19004 3.04697 2.24415 3.06807C5.06612 4.16914 7.49991 4.35576 9.64717 4.52041C12.7653 4.75947 15.0182 4.93223 17.0329 7.73027L17.0662 7.77676C18.4148 9.66787 20.3774 10.9028 22.6435 11.3026V17.0034C22.0192 17.1278 21.3962 17.2398 20.7777 17.3382C21.0696 16.2399 21.1004 14.9271 20.4242 14.1434C19.6989 13.302 18.3536 13.1795 16.7334 13.8072C15.2511 14.3819 13.8053 15.5201 12.8658 16.8519C12.657 17.1469 12.4692 17.4499 12.3028 17.7579C10.9435 17.5956 9.19512 16.8907 8.20889 15.6296ZM25.8871 31.1471V36.4263L24.9985 36.6874L24.1083 36.426V31.1468L24.9971 30.7608L25.8871 31.1471ZM27.8884 32.0157C29.9524 32.9105 30.6588 33.6977 30.6316 34.1357C30.6034 34.5909 29.752 35.2916 27.9131 35.831L27.352 35.9958V31.7828L27.8884 32.0157ZM19.3638 34.1357C19.3367 33.6976 20.0431 32.9105 22.1074 32.0156L22.6435 31.7828V35.9957L22.0821 35.8309C20.2435 35.2915 19.392 34.5908 19.3638 34.1357ZM34.2328 34.4566C34.1699 35.9942 32.7523 37.37 30.3321 38.2523L27.5986 37.4501L28.3258 37.2364C30.7122 36.5364 32.015 35.4955 32.0938 34.2263C32.1742 32.9262 30.9893 31.7634 28.4714 30.6719L16.0275 25.2709C14.3554 24.5461 13.3272 23.5345 12.9716 22.2642C12.5915 20.9061 12.9992 19.1987 14.0622 17.6971C14.0625 17.6968 14.0627 17.6964 14.063 17.6961C14.8427 16.5907 16.0389 15.6475 17.2629 15.173C18.1966 14.8112 19.0403 14.7811 19.315 15.0999C19.6681 15.5091 19.5161 16.9442 19.0261 17.8392C18.8232 18.2063 18.409 18.7017 17.5878 18.9778C16.0937 19.4822 15.3155 20.2044 15.2752 21.1239C15.2113 22.5788 17.0589 23.7007 18.6201 24.3855L28.5099 28.7214C32.1744 30.3272 34.3139 32.4712 34.2328 34.4566ZM37.0242 22.2648C36.6689 23.535 35.6415 24.5463 33.9704 25.2711L29.1044 27.3828C29.1023 27.3818 29.1001 27.3809 29.098 27.3799L26.8215 26.3818L31.3751 24.3856C32.9372 23.7012 34.786 22.5798 34.7222 21.1245C34.6818 20.2046 33.903 19.4824 32.4073 18.9778C31.586 18.7008 31.1721 18.2058 30.9709 17.842C30.4795 16.9442 30.3274 15.5091 30.6795 15.1011C30.9601 14.7773 31.7864 14.8063 32.7348 15.1729C33.9575 15.6478 35.153 16.5911 35.9333 17.6972C36.9964 19.199 37.4042 20.9065 37.0242 22.2648Z" fill="white"/>
<path d="M49.4576 2.92012C49.4452 2.43115 49.3713 1.89063 48.9175 1.58887C48.3986 1.24434 47.8005 1.47734 47.2221 1.70332C45.8328 2.24531 44.4267 2.59756 42.7969 2.81201C42.3959 2.86475 42.1135 3.23262 42.1663 3.63369C42.2191 4.03467 42.5869 4.31729 42.988 4.26426C44.7378 4.03418 46.2524 3.654 47.7547 3.06797C47.8082 3.04707 47.899 3.01162 47.9939 2.97695C48.0228 4.19043 47.7031 5.12969 47.0169 5.84785C45.9096 7.00664 43.788 7.62344 40.7108 7.68096C40.3064 7.68857 39.9847 8.02256 39.9923 8.42705C39.9998 8.82686 40.3262 9.1457 40.7243 9.1457C40.729 9.1457 40.7337 9.1457 40.7384 9.14561C42.4619 9.11338 43.9152 8.91816 45.1159 8.55615C45.1365 9.54932 44.8917 10.3406 44.3731 10.957C44.0234 11.3727 43.5391 11.7168 42.924 11.9892C42.9183 11.9918 42.9123 11.9941 42.9066 11.997C41.8386 12.4657 40.3781 12.7193 38.5379 12.753C38.1334 12.7605 37.8116 13.0943 37.819 13.4988C37.8264 13.8987 38.1528 14.2178 38.5511 14.2178C38.5557 14.2178 38.5603 14.2178 38.5648 14.2177C40.1287 14.1891 41.4519 14.013 42.5482 13.6863C42.4963 14.3883 42.2467 15.0319 41.7999 15.6075C40.8226 16.8668 39.0657 17.5821 37.6923 17.7563C37.526 17.4487 37.3384 17.1462 37.1299 16.8516C36.1908 15.5204 34.7462 14.3823 33.2644 13.8067C31.6449 13.1806 30.2993 13.3029 29.5717 14.1428C28.8958 14.9263 28.9263 16.2387 29.2183 17.3377C28.605 17.2399 27.9816 17.1277 27.3523 17.0026V11.3024C29.6272 10.902 31.5919 9.66416 32.9354 7.76875L32.9651 7.72686C34.8144 5.15928 36.8871 4.80176 39.6135 4.57705C40.0166 4.54385 40.3164 4.19004 40.2832 3.78691C40.2499 3.38379 39.8973 3.0832 39.4931 3.11719C36.5772 3.35752 33.9838 3.80586 31.7766 6.8707L31.7401 6.92168C30.6744 8.42539 29.1367 9.43125 27.3522 9.81006V7.825C28.5041 7.05977 29.2655 5.75059 29.2655 4.26631C29.2653 1.91387 27.3515 0 24.9991 0C22.6453 0 20.7302 1.91387 20.7302 4.26631C20.7302 5.75 21.4914 7.05879 22.6435 7.82412V9.81016C20.8658 9.43174 19.3294 8.42754 18.2589 6.92627L18.2195 6.87129C15.8092 3.52373 13.0056 3.30879 9.75928 3.05986C7.71387 2.90303 5.39551 2.7252 2.77637 1.70342C2.19737 1.47744 1.59864 1.24375 1.07881 1.58916C0.624225 1.89131 0.550299 2.43145 0.537896 2.91895C0.49483 4.5293 0.959576 5.85518 1.91954 6.85977C2.33897 7.29873 2.84756 7.67276 3.44737 7.98408C3.30411 9.5794 3.65743 10.8959 4.50381 11.9014C4.89698 12.3684 5.38819 12.7634 5.98126 13.0879C5.90772 14.3523 6.27413 15.5337 7.05489 16.5319C8.26465 18.0789 10.1925 18.879 11.7072 19.1501C11.3202 20.3592 11.2592 21.5812 11.5608 22.6589C12.0411 24.3749 13.348 25.706 15.4445 26.6147L19.2505 28.2666C18.0783 28.8889 17.092 29.5667 16.309 30.2913C16.0121 30.566 15.994 31.0295 16.2689 31.3264C16.4133 31.4824 16.6096 31.5613 16.8066 31.5613C16.9846 31.5613 17.163 31.4969 17.3039 31.3665C18.2177 30.5209 19.4646 29.7362 21.0128 29.0314L23.1576 29.9623L21.5242 30.6716C19.0061 31.7633 17.8211 32.926 17.9017 34.2261C17.9803 35.4953 19.2832 36.5362 21.6694 37.2361L23.1546 37.6724C23.1578 37.6733 23.1612 37.6743 23.1645 37.6753L30.4863 39.8258C32.8628 40.5226 34.3144 41.9496 34.4688 43.741C34.5889 45.1361 33.8654 46.4692 32.6683 47.0582C31.4743 47.6457 30.7033 47.6372 30.4974 47.5602C30.5042 47.4595 30.5656 47.1512 30.999 46.548C31.9459 45.2349 32.2456 44.1262 31.9151 43.1587C31.6007 42.238 30.7353 41.5621 29.3431 41.1499L20.4445 38.5111C20.264 38.4575 19.8646 38.324 19.8373 38.3164C16.974 37.3276 15.438 35.7284 15.7023 33.9707C15.7623 33.5706 15.4868 33.1977 15.0868 33.1375C14.6849 33.078 14.3138 33.353 14.2536 33.7529C13.9412 35.8314 15.1837 37.6892 17.6482 38.972C15.5452 39.9799 14.2368 41.645 14.067 43.6152C13.8952 45.6072 14.9454 47.5191 16.6802 48.3726C17.4801 48.7661 18.4065 49.0633 19.2014 49.0633C19.7859 49.0632 20.2996 48.9025 20.6394 48.5012C21.0253 48.0453 21.2598 47.188 20.1843 45.6911C19.5445 44.804 19.3031 44.1114 19.4666 43.6329C19.6563 43.0776 20.4437 42.7398 21.0712 42.5542L22.6434 42.0881V47.6441C22.6434 48.9431 23.7001 49.9998 24.999 49.9998C26.2964 49.9998 27.3519 48.9431 27.3519 47.6441V42.0872L28.927 42.5543C29.5532 42.7397 30.3396 43.0772 30.5289 43.632C30.6925 44.1108 30.4509 44.8036 29.8103 45.6922C28.7356 47.188 28.97 48.0454 29.356 48.5013C29.6957 48.9026 30.2091 49.0634 30.7939 49.0634C31.5888 49.0634 32.5151 48.7662 33.315 48.3727C35.0498 47.5193 36.1 45.6075 35.9283 43.6153C35.7581 41.6405 34.4439 39.9721 32.3322 38.9649C34.4209 37.8537 35.624 36.2886 35.6964 34.5162C35.7892 32.2454 34.0355 30.0111 30.8263 28.2322L34.5533 26.6148C36.6489 25.706 37.9548 24.3752 38.4349 22.6595C38.7367 21.5804 38.6752 20.3568 38.2872 19.1467C39.8139 18.866 41.7546 18.0549 42.9569 16.5059C43.726 15.5149 44.0865 14.3429 44.014 13.0886C44.6082 12.7637 45.1002 12.368 45.4939 11.9001C46.3398 10.8945 46.6924 9.57842 46.5483 7.98398C47.1481 7.67275 47.6566 7.29873 48.0759 6.85986C49.0358 5.85527 49.5007 4.5294 49.4576 2.92012ZM20.6554 41.1499C19.2615 41.5623 18.3952 42.2384 18.0806 43.1595C17.7501 44.1269 18.0497 45.2354 18.9956 46.547C19.4296 47.1512 19.491 47.4596 19.4981 47.5603C19.2922 47.6372 18.5211 47.6457 17.3271 47.0583C16.13 46.4693 15.4065 45.1362 15.5267 43.7411C15.6811 41.9497 17.1326 40.5227 19.5124 39.8248L19.6273 39.7905C19.759 39.8333 22.4231 40.6257 22.4231 40.6257L20.6554 41.1499ZM25.8871 47.6443C25.8871 48.1356 25.4888 48.5352 24.9991 48.5352C24.5079 48.5352 24.1083 48.1356 24.1083 47.6443V41.654L24.9994 41.3898L25.8871 41.6531V47.6443ZM29.9275 18.9251C30.3044 19.4464 30.9267 20.0242 31.9393 20.3658C32.9697 20.7135 33.253 21.0561 33.2589 21.1888C33.2727 21.5034 32.5149 22.2869 30.7872 23.044L27.352 24.5499V18.4972C28.2264 18.666 29.0882 18.8086 29.9275 18.9251ZM24.9991 1.46484C26.5438 1.46484 27.8005 2.72158 27.8005 4.26631C27.8005 5.8125 26.5439 7.07051 24.9991 7.07051C23.4529 7.07051 22.195 5.8125 22.195 4.26631C22.195 2.72158 23.4529 1.46484 24.9991 1.46484ZM24.9991 8.53525C25.3036 8.53525 25.6005 8.50254 25.8871 8.4416V10.6646V10.6674V17.5969V17.6018V25.1921L24.9974 25.5821L24.1083 25.1924V17.6006C24.1083 17.5991 24.1083 17.5977 24.1083 17.5962V10.6674C24.1083 10.6664 24.1083 10.6655 24.1083 10.6646V8.44111C24.3958 8.50234 24.6937 8.53525 24.9991 8.53525ZM20.0679 18.9249C20.9167 18.8072 21.7787 18.6651 22.6435 18.4979V24.5502L19.2084 23.0442C17.4818 22.2868 16.7247 21.503 16.7386 21.1884C16.7444 21.0559 17.0273 20.7134 18.0555 20.3661C19.0675 20.0258 19.6899 19.448 20.0679 18.9249ZM8.20889 15.6296C7.75362 15.0475 7.49962 14.3964 7.44747 13.6862C8.54385 14.0131 9.8671 14.1892 11.4311 14.2179C11.4357 14.218 11.4402 14.218 11.4448 14.218C11.8431 14.218 12.1695 13.8987 12.1769 13.499C12.1842 13.0945 11.8624 12.7606 11.458 12.7532C8.54512 12.6999 6.58253 12.096 5.62481 10.9582C5.10587 10.3416 4.86055 9.5501 4.88057 8.55645C6.08106 8.91836 7.53428 9.11338 9.25743 9.1457C9.26212 9.1458 9.2668 9.1458 9.27149 9.1458C9.66963 9.1458 9.996 8.82676 10.0035 8.42715C10.011 8.02266 9.68926 7.68867 9.28497 7.68106C6.20782 7.62354 4.08624 7.00684 2.97891 5.84795C2.29268 5.12979 1.97305 4.19043 2.00206 2.97607C2.09786 3.01094 2.19004 3.04697 2.24415 3.06807C5.06612 4.16914 7.49991 4.35576 9.64717 4.52041C12.7653 4.75947 15.0182 4.93223 17.0329 7.73027L17.0662 7.77676C18.4148 9.66787 20.3774 10.9028 22.6435 11.3026V17.0034C22.0192 17.1278 21.3962 17.2398 20.7777 17.3382C21.0696 16.2399 21.1004 14.9271 20.4242 14.1434C19.6989 13.302 18.3536 13.1795 16.7334 13.8072C15.2511 14.3819 13.8053 15.5201 12.8658 16.8519C12.657 17.1469 12.4692 17.4499 12.3028 17.7579C10.9435 17.5956 9.19512 16.8907 8.20889 15.6296ZM25.8871 31.1471V36.4263L24.9985 36.6874L24.1083 36.426V31.1468L24.9971 30.7608L25.8871 31.1471ZM27.8884 32.0157C29.9524 32.9105 30.6588 33.6977 30.6316 34.1357C30.6034 34.5909 29.752 35.2916 27.9131 35.831L27.352 35.9958V31.7828L27.8884 32.0157ZM19.3638 34.1357C19.3367 33.6976 20.0431 32.9105 22.1074 32.0156L22.6435 31.7828V35.9957L22.0821 35.8309C20.2435 35.2915 19.392 34.5908 19.3638 34.1357ZM34.2328 34.4566C34.1699 35.9942 32.7523 37.37 30.3321 38.2523L27.5986 37.4501L28.3258 37.2364C30.7122 36.5364 32.015 35.4955 32.0938 34.2263C32.1742 32.9262 30.9893 31.7634 28.4714 30.6719L16.0275 25.2709C14.3554 24.5461 13.3272 23.5345 12.9716 22.2642C12.5915 20.9061 12.9992 19.1987 14.0622 17.6971C14.0625 17.6968 14.0627 17.6964 14.063 17.6961C14.8427 16.5907 16.0389 15.6475 17.2629 15.173C18.1966 14.8112 19.0403 14.7811 19.315 15.0999C19.6681 15.5091 19.5161 16.9442 19.0261 17.8392C18.8232 18.2063 18.409 18.7017 17.5878 18.9778C16.0937 19.4822 15.3155 20.2044 15.2752 21.1239C15.2113 22.5788 17.0589 23.7007 18.6201 24.3855L28.5099 28.7214C32.1744 30.3272 34.3139 32.4712 34.2328 34.4566ZM37.0242 22.2648C36.6689 23.535 35.6415 24.5463 33.9704 25.2711L29.1044 27.3828C29.1023 27.3818 29.1001 27.3809 29.098 27.3799L26.8215 26.3818L31.3751 24.3856C32.9372 23.7012 34.786 22.5798 34.7222 21.1245C34.6818 20.2046 33.903 19.4824 32.4073 18.9778C31.586 18.7008 31.1721 18.2058 30.9709 17.842C30.4795 16.9442 30.3274 15.5091 30.6795 15.1011C30.9601 14.7773 31.7864 14.8063 32.7348 15.1729C33.9575 15.6478 35.153 16.5911 35.9333 17.6972C36.9964 19.199 37.4042 20.9065 37.0242 22.2648Z" fill="url(#paint0_linear)"/>
</g>
<mask id="mask1" mask-type="alpha" maskUnits="userSpaceOnUse" x="27" y="-1" width="25" height="21">
<path d="M27.3642 18.7513V11.3099V9.80859C27.6752 9.25391 28.4103 8.00625 28.8629 7.45307C29.4287 6.76158 32.4775 3.8385 33.0432 3.52419C33.609 3.20988 38.6379 1.95264 39.1723 1.82692C39.7066 1.70119 43.6355 0.0668346 44.8927 -0.34174C45.8985 -0.6686 48.266 -0.477932 49.324 -0.34174C49.9214 1.68031 51.0974 5.76841 51.0219 5.94442C50.9276 6.16444 46.3704 15.2794 46.1818 15.7509C46.0309 16.1281 41.8437 18.4644 39.769 19.5855L38.2954 19.1563C38.1673 18.7594 37.8436 18.0586 37.6978 17.7579L38.0581 16.7224L33.5728 12.578L29.3708 12.8533L28.5449 16.0554L29.2276 17.3384C29.3238 17.8079 29.7393 18.5968 29.9351 18.9326L27.3642 18.7513Z" fill="#C4C4C4"/>
</mask>
<g mask="url(#mask1)">
<path d="M0.542377 2.92012C0.554779 2.43115 0.628708 1.89063 1.08252 1.58887C1.60136 1.24434 2.1995 1.47734 2.77792 1.70332C4.16718 2.24531 5.57333 2.59756 7.20312 2.81201C7.6041 2.86475 7.88652 3.23262 7.83368 3.63369C7.78095 4.03467 7.41308 4.31729 7.012 4.26426C5.2622 4.03418 3.74755 3.654 2.2453 3.06797C2.19179 3.04707 2.10097 3.01162 2.00615 2.97695C1.97724 4.19043 2.29687 5.12969 2.9831 5.84785C4.09042 7.00664 6.21201 7.62344 9.28915 7.68096C9.69355 7.68857 10.0153 8.02256 10.0077 8.42705C10.0002 8.82686 9.67382 9.1457 9.27568 9.1457C9.27099 9.1457 9.2663 9.1457 9.26162 9.14561C7.53808 9.11338 6.08476 8.91816 4.88408 8.55615C4.86347 9.54932 5.10829 10.3406 5.62695 10.957C5.97655 11.3727 6.46093 11.7168 7.07597 11.9892C7.08173 11.9918 7.08769 11.9941 7.09335 11.997C8.16142 12.4657 9.62187 12.7193 11.4621 12.753C11.8666 12.7605 12.1884 13.0943 12.181 13.4988C12.1736 13.8987 11.8472 14.2178 11.4489 14.2178C11.4443 14.2178 11.4397 14.2178 11.4352 14.2177C9.87128 14.1891 8.54814 14.013 7.45175 13.6863C7.5037 14.3883 7.75331 15.0319 8.20009 15.6075C9.17744 16.8668 10.9343 17.5821 12.3077 17.7563C12.474 17.4487 12.6616 17.1462 12.8701 16.8516C13.8092 15.5204 15.2538 14.3823 16.7356 13.8067C18.3551 13.1806 19.7007 13.3029 20.4283 14.1428C21.1042 14.9263 21.0737 16.2387 20.7817 17.3377C21.395 17.2399 22.0184 17.1277 22.6477 17.0026V11.3024C20.3728 10.902 18.4081 9.66416 17.0646 7.76875L17.0349 7.72686C15.1856 5.15928 13.1129 4.80176 10.3865 4.57705C9.98339 4.54385 9.68359 4.19004 9.71679 3.78691C9.75009 3.38379 10.1027 3.0832 10.5069 3.11719C13.4228 3.35752 16.0162 3.80586 18.2234 6.8707L18.2599 6.92168C19.3256 8.42539 20.8633 9.43125 22.6478 9.81006V7.825C21.4959 7.05977 20.7345 5.75059 20.7345 4.26631C20.7347 1.91387 22.6485 0 25.0009 0C27.3547 0 29.2698 1.91387 29.2698 4.26631C29.2698 5.75 28.5086 7.05879 27.3565 7.82412V9.81016C29.1342 9.43174 30.6706 8.42754 31.7411 6.92627L31.7805 6.87129C34.1908 3.52373 36.9944 3.30879 40.2407 3.05986C42.2861 2.90303 44.6045 2.7252 47.2236 1.70342C47.8026 1.47744 48.4014 1.24375 48.9212 1.58916C49.3758 1.89131 49.4497 2.43145 49.4621 2.91895C49.5052 4.5293 49.0404 5.85518 48.0805 6.85977C47.661 7.29873 47.1524 7.67276 46.5526 7.98408C46.6959 9.5794 46.3426 10.8959 45.4962 11.9014C45.103 12.3684 44.6118 12.7634 44.0187 13.0879C44.0923 14.3523 43.7259 15.5337 42.9451 16.5319C41.7353 18.0789 39.8075 18.879 38.2928 19.1501C38.6798 20.3592 38.7408 21.5812 38.4392 22.6589C37.9589 24.3749 36.652 25.706 34.5555 26.6147L30.7495 28.2666C31.9217 28.8889 32.908 29.5667 33.691 30.2913C33.9879 30.566 34.006 31.0295 33.7311 31.3264C33.5867 31.4824 33.3904 31.5613 33.1934 31.5613C33.0154 31.5613 32.837 31.4969 32.6961 31.3665C31.7823 30.5209 30.5354 29.7362 28.9872 29.0314L26.8424 29.9623L28.4758 30.6716C30.9939 31.7633 32.1789 32.926 32.0983 34.2261C32.0197 35.4953 30.7168 36.5362 28.3306 37.2361L26.8454 37.6724C26.8422 37.6733 26.8388 37.6743 26.8355 37.6753L19.5137 39.8258C17.1372 40.5226 15.6856 41.9496 15.5312 43.741C15.4111 45.1361 16.1346 46.4692 17.3317 47.0582C18.5257 47.6457 19.2967 47.6372 19.5026 47.5602C19.4958 47.4595 19.4344 47.1512 19.001 46.548C18.0541 45.2349 17.7544 44.1262 18.0849 43.1587C18.3993 42.238 19.2647 41.5621 20.6569 41.1499L29.5555 38.5111C29.736 38.4575 30.1354 38.324 30.1627 38.3164C33.026 37.3276 34.562 35.7284 34.2977 33.9707C34.2377 33.5706 34.5132 33.1977 34.9132 33.1375C35.3151 33.078 35.6862 33.353 35.7464 33.7529C36.0588 35.8314 34.8163 37.6892 32.3518 38.972C34.4548 39.9799 35.7632 41.645 35.933 43.6152C36.1048 45.6072 35.0546 47.5191 33.3198 48.3726C32.5199 48.7661 31.5935 49.0633 30.7986 49.0633C30.2141 49.0632 29.7004 48.9025 29.3606 48.5012C28.9747 48.0453 28.7402 47.188 29.8157 45.6911C30.4555 44.804 30.6969 44.1114 30.5334 43.6329C30.3437 43.0776 29.5563 42.7398 28.9288 42.5542L27.3566 42.0881V47.6441C27.3566 48.9431 26.2999 49.9998 25.001 49.9998C23.7036 49.9998 22.6481 48.9431 22.6481 47.6441V42.0872L21.073 42.5543C20.4468 42.7397 19.6604 43.0772 19.4711 43.632C19.3075 44.1108 19.5491 44.8036 20.1897 45.6922C21.2644 47.188 21.03 48.0454 20.644 48.5013C20.3043 48.9026 19.7909 49.0634 19.2061 49.0634C18.4112 49.0634 17.4849 48.7662 16.685 48.3727C14.9502 47.5193 13.9 45.6075 14.0717 43.6153C14.2419 41.6405 15.5561 39.9721 17.6678 38.9649C15.5791 37.8537 14.376 36.2886 14.3036 34.5162C14.2108 32.2454 15.9645 30.0111 19.1737 28.2322L15.4467 26.6148C13.3511 25.706 12.0452 24.3752 11.5651 22.6595C11.2633 21.5804 11.3248 20.3568 11.7128 19.1467C10.1861 18.866 8.2454 18.0549 7.04306 16.5059C6.27402 15.5149 5.91347 14.3429 5.98603 13.0886C5.39179 12.7637 4.8998 12.368 4.50615 11.9001C3.66025 10.8945 3.30761 9.57842 3.45165 7.98398C2.85194 7.67275 2.34345 7.29873 1.92411 6.85986C0.964153 5.85527 0.49931 4.5294 0.542377 2.92012ZM29.3446 41.1499C30.7385 41.5623 31.6048 42.2384 31.9194 43.1595C32.2499 44.1269 31.9503 45.2354 31.0044 46.547C30.5704 47.1512 30.509 47.4596 30.5019 47.5603C30.7078 47.6372 31.4789 47.6457 32.6729 47.0583C33.87 46.4693 34.5935 45.1362 34.4733 43.7411C34.3189 41.9497 32.8674 40.5227 30.4876 39.8248L30.3727 39.7905C30.241 39.8333 27.5769 40.6257 27.5769 40.6257L29.3446 41.1499ZM24.1129 47.6443C24.1129 48.1356 24.5112 48.5352 25.0009 48.5352C25.4921 48.5352 25.8917 48.1356 25.8917 47.6443V41.654L25.0006 41.3898L24.1129 41.6531V47.6443ZM20.0725 18.9251C19.6956 19.4464 19.0733 20.0242 18.0607 20.3658C17.0303 20.7135 16.747 21.0561 16.7411 21.1888C16.7273 21.5034 17.4851 22.2869 19.2128 23.044L22.648 24.5499V18.4972C21.7736 18.666 20.9118 18.8086 20.0725 18.9251ZM25.0009 1.46484C23.4562 1.46484 22.1995 2.72158 22.1995 4.26631C22.1995 5.8125 23.4561 7.07051 25.0009 7.07051C26.5471 7.07051 27.805 5.8125 27.805 4.26631C27.805 2.72158 26.5471 1.46484 25.0009 1.46484ZM25.0009 8.53525C24.6964 8.53525 24.3995 8.50254 24.1129 8.4416V10.6646V10.6674V17.5969V17.6018V25.1921L25.0026 25.5821L25.8917 25.1924V17.6006C25.8917 17.5991 25.8917 17.5977 25.8917 17.5962V10.6674C25.8917 10.6664 25.8917 10.6655 25.8917 10.6646V8.44111C25.6042 8.50234 25.3063 8.53525 25.0009 8.53525ZM29.9321 18.9249C29.0833 18.8072 28.2213 18.6651 27.3565 18.4979V24.5502L30.7916 23.0442C32.5182 22.2868 33.2753 21.503 33.2614 21.1884C33.2556 21.0559 32.9727 20.7134 31.9445 20.3661C30.9325 20.0258 30.3101 19.448 29.9321 18.9249ZM41.7911 15.6296C42.2464 15.0475 42.5004 14.3964 42.5525 13.6862C41.4561 14.0131 40.1329 14.1892 38.5689 14.2179C38.5643 14.218 38.5598 14.218 38.5552 14.218C38.1569 14.218 37.8305 13.8987 37.8231 13.499C37.8158 13.0945 38.1376 12.7606 38.542 12.7532C41.4549 12.6999 43.4175 12.096 44.3752 10.9582C44.8941 10.3416 45.1394 9.5501 45.1194 8.55645C43.9189 8.91836 42.4657 9.11338 40.7426 9.1457C40.7379 9.1458 40.7332 9.1458 40.7285 9.1458C40.3304 9.1458 40.004 8.82676 39.9965 8.42715C39.989 8.02266 40.3107 7.68867 40.715 7.68106C43.7922 7.62354 45.9138 7.00684 47.0211 5.84795C47.7073 5.12979 48.0269 4.19043 47.9979 2.97607C47.9021 3.01094 47.81 3.04697 47.7559 3.06807C44.9339 4.16914 42.5001 4.35576 40.3528 4.52041C37.2347 4.75947 34.9818 4.93223 32.9671 7.73027L32.9338 7.77676C31.5852 9.66787 29.6226 10.9028 27.3565 11.3026V17.0034C27.9808 17.1278 28.6038 17.2398 29.2223 17.3382C28.9304 16.2399 28.8996 14.9271 29.5758 14.1434C30.3011 13.302 31.6464 13.1795 33.2666 13.8072C34.7489 14.3819 36.1947 15.5201 37.1342 16.8519C37.343 17.1469 37.5308 17.4499 37.6972 17.7579C39.0565 17.5956 40.8049 16.8907 41.7911 15.6296ZM24.1129 31.1471V36.4263L25.0015 36.6874L25.8917 36.426V31.1468L25.0029 30.7608L24.1129 31.1471ZM22.1116 32.0157C20.0476 32.9105 19.3412 33.6977 19.3684 34.1357C19.3966 34.5909 20.248 35.2916 22.0869 35.831L22.648 35.9958V31.7828L22.1116 32.0157ZM30.6362 34.1357C30.6633 33.6976 29.9569 32.9105 27.8926 32.0156L27.3565 31.7828V35.9957L27.9179 35.8309C29.7565 35.2915 30.608 34.5908 30.6362 34.1357ZM15.7672 34.4566C15.8301 35.9942 17.2477 37.37 19.6679 38.2523L22.4014 37.4501L21.6742 37.2364C19.2878 36.5364 17.985 35.4955 17.9062 34.2263C17.8258 32.9262 19.0107 31.7634 21.5286 30.6719L33.9725 25.2709C35.6446 24.5461 36.6728 23.5345 37.0284 22.2642C37.4085 20.9061 37.0008 19.1987 35.9378 17.6971C35.9375 17.6968 35.9373 17.6964 35.937 17.6961C35.1573 16.5907 33.9611 15.6475 32.7371 15.173C31.8034 14.8112 30.9597 14.7811 30.685 15.0999C30.3319 15.5091 30.4839 16.9442 30.9739 17.8392C31.1768 18.2063 31.591 18.7017 32.4122 18.9778C33.9063 19.4822 34.6845 20.2044 34.7248 21.1239C34.7887 22.5788 32.9411 23.7007 31.3799 24.3855L21.4901 28.7214C17.8256 30.3272 15.6861 32.4712 15.7672 34.4566ZM12.9758 22.2648C13.3311 23.535 14.3585 24.5463 16.0296 25.2711L20.8956 27.3828C20.8977 27.3818 20.8999 27.3809 20.902 27.3799L23.1785 26.3818L18.6249 24.3856C17.0628 23.7012 15.214 22.5798 15.2778 21.1245C15.3182 20.2046 16.097 19.4824 17.5927 18.9778C18.414 18.7008 18.8279 18.2058 19.0291 17.842C19.5205 16.9442 19.6726 15.5091 19.3205 15.1011C19.0399 14.7773 18.2136 14.8063 17.2652 15.1729C16.0425 15.6478 14.847 16.5911 14.0667 17.6972C13.0036 19.199 12.5958 20.9065 12.9758 22.2648Z" fill="white"/>
<path d="M0.542377 2.92012C0.554779 2.43115 0.628708 1.89063 1.08252 1.58887C1.60136 1.24434 2.1995 1.47734 2.77792 1.70332C4.16718 2.24531 5.57333 2.59756 7.20312 2.81201C7.6041 2.86475 7.88652 3.23262 7.83368 3.63369C7.78095 4.03467 7.41308 4.31729 7.012 4.26426C5.2622 4.03418 3.74755 3.654 2.2453 3.06797C2.19179 3.04707 2.10097 3.01162 2.00615 2.97695C1.97724 4.19043 2.29687 5.12969 2.9831 5.84785C4.09042 7.00664 6.21201 7.62344 9.28915 7.68096C9.69355 7.68857 10.0153 8.02256 10.0077 8.42705C10.0002 8.82686 9.67382 9.1457 9.27568 9.1457C9.27099 9.1457 9.2663 9.1457 9.26162 9.14561C7.53808 9.11338 6.08476 8.91816 4.88408 8.55615C4.86347 9.54932 5.10829 10.3406 5.62695 10.957C5.97655 11.3727 6.46093 11.7168 7.07597 11.9892C7.08173 11.9918 7.08769 11.9941 7.09335 11.997C8.16142 12.4657 9.62187 12.7193 11.4621 12.753C11.8666 12.7605 12.1884 13.0943 12.181 13.4988C12.1736 13.8987 11.8472 14.2178 11.4489 14.2178C11.4443 14.2178 11.4397 14.2178 11.4352 14.2177C9.87128 14.1891 8.54814 14.013 7.45175 13.6863C7.5037 14.3883 7.75331 15.0319 8.20009 15.6075C9.17744 16.8668 10.9343 17.5821 12.3077 17.7563C12.474 17.4487 12.6616 17.1462 12.8701 16.8516C13.8092 15.5204 15.2538 14.3823 16.7356 13.8067C18.3551 13.1806 19.7007 13.3029 20.4283 14.1428C21.1042 14.9263 21.0737 16.2387 20.7817 17.3377C21.395 17.2399 22.0184 17.1277 22.6477 17.0026V11.3024C20.3728 10.902 18.4081 9.66416 17.0646 7.76875L17.0349 7.72686C15.1856 5.15928 13.1129 4.80176 10.3865 4.57705C9.98339 4.54385 9.68359 4.19004 9.71679 3.78691C9.75009 3.38379 10.1027 3.0832 10.5069 3.11719C13.4228 3.35752 16.0162 3.80586 18.2234 6.8707L18.2599 6.92168C19.3256 8.42539 20.8633 9.43125 22.6478 9.81006V7.825C21.4959 7.05977 20.7345 5.75059 20.7345 4.26631C20.7347 1.91387 22.6485 0 25.0009 0C27.3547 0 29.2698 1.91387 29.2698 4.26631C29.2698 5.75 28.5086 7.05879 27.3565 7.82412V9.81016C29.1342 9.43174 30.6706 8.42754 31.7411 6.92627L31.7805 6.87129C34.1908 3.52373 36.9944 3.30879 40.2407 3.05986C42.2861 2.90303 44.6045 2.7252 47.2236 1.70342C47.8026 1.47744 48.4014 1.24375 48.9212 1.58916C49.3758 1.89131 49.4497 2.43145 49.4621 2.91895C49.5052 4.5293 49.0404 5.85518 48.0805 6.85977C47.661 7.29873 47.1524 7.67276 46.5526 7.98408C46.6959 9.5794 46.3426 10.8959 45.4962 11.9014C45.103 12.3684 44.6118 12.7634 44.0187 13.0879C44.0923 14.3523 43.7259 15.5337 42.9451 16.5319C41.7353 18.0789 39.8075 18.879 38.2928 19.1501C38.6798 20.3592 38.7408 21.5812 38.4392 22.6589C37.9589 24.3749 36.652 25.706 34.5555 26.6147L30.7495 28.2666C31.9217 28.8889 32.908 29.5667 33.691 30.2913C33.9879 30.566 34.006 31.0295 33.7311 31.3264C33.5867 31.4824 33.3904 31.5613 33.1934 31.5613C33.0154 31.5613 32.837 31.4969 32.6961 31.3665C31.7823 30.5209 30.5354 29.7362 28.9872 29.0314L26.8424 29.9623L28.4758 30.6716C30.9939 31.7633 32.1789 32.926 32.0983 34.2261C32.0197 35.4953 30.7168 36.5362 28.3306 37.2361L26.8454 37.6724C26.8422 37.6733 26.8388 37.6743 26.8355 37.6753L19.5137 39.8258C17.1372 40.5226 15.6856 41.9496 15.5312 43.741C15.4111 45.1361 16.1346 46.4692 17.3317 47.0582C18.5257 47.6457 19.2967 47.6372 19.5026 47.5602C19.4958 47.4595 19.4344 47.1512 19.001 46.548C18.0541 45.2349 17.7544 44.1262 18.0849 43.1587C18.3993 42.238 19.2647 41.5621 20.6569 41.1499L29.5555 38.5111C29.736 38.4575 30.1354 38.324 30.1627 38.3164C33.026 37.3276 34.562 35.7284 34.2977 33.9707C34.2377 33.5706 34.5132 33.1977 34.9132 33.1375C35.3151 33.078 35.6862 33.353 35.7464 33.7529C36.0588 35.8314 34.8163 37.6892 32.3518 38.972C34.4548 39.9799 35.7632 41.645 35.933 43.6152C36.1048 45.6072 35.0546 47.5191 33.3198 48.3726C32.5199 48.7661 31.5935 49.0633 30.7986 49.0633C30.2141 49.0632 29.7004 48.9025 29.3606 48.5012C28.9747 48.0453 28.7402 47.188 29.8157 45.6911C30.4555 44.804 30.6969 44.1114 30.5334 43.6329C30.3437 43.0776 29.5563 42.7398 28.9288 42.5542L27.3566 42.0881V47.6441C27.3566 48.9431 26.2999 49.9998 25.001 49.9998C23.7036 49.9998 22.6481 48.9431 22.6481 47.6441V42.0872L21.073 42.5543C20.4468 42.7397 19.6604 43.0772 19.4711 43.632C19.3075 44.1108 19.5491 44.8036 20.1897 45.6922C21.2644 47.188 21.03 48.0454 20.644 48.5013C20.3043 48.9026 19.7909 49.0634 19.2061 49.0634C18.4112 49.0634 17.4849 48.7662 16.685 48.3727C14.9502 47.5193 13.9 45.6075 14.0717 43.6153C14.2419 41.6405 15.5561 39.9721 17.6678 38.9649C15.5791 37.8537 14.376 36.2886 14.3036 34.5162C14.2108 32.2454 15.9645 30.0111 19.1737 28.2322L15.4467 26.6148C13.3511 25.706 12.0452 24.3752 11.5651 22.6595C11.2633 21.5804 11.3248 20.3568 11.7128 19.1467C10.1861 18.866 8.2454 18.0549 7.04306 16.5059C6.27402 15.5149 5.91347 14.3429 5.98603 13.0886C5.39179 12.7637 4.8998 12.368 4.50615 11.9001C3.66025 10.8945 3.30761 9.57842 3.45165 7.98398C2.85194 7.67275 2.34345 7.29873 1.92411 6.85986C0.964153 5.85527 0.49931 4.5294 0.542377 2.92012ZM29.3446 41.1499C30.7385 41.5623 31.6048 42.2384 31.9194 43.1595C32.2499 44.1269 31.9503 45.2354 31.0044 46.547C30.5704 47.1512 30.509 47.4596 30.5019 47.5603C30.7078 47.6372 31.4789 47.6457 32.6729 47.0583C33.87 46.4693 34.5935 45.1362 34.4733 43.7411C34.3189 41.9497 32.8674 40.5227 30.4876 39.8248L30.3727 39.7905C30.241 39.8333 27.5769 40.6257 27.5769 40.6257L29.3446 41.1499ZM24.1129 47.6443C24.1129 48.1356 24.5112 48.5352 25.0009 48.5352C25.4921 48.5352 25.8917 48.1356 25.8917 47.6443V41.654L25.0006 41.3898L24.1129 41.6531V47.6443ZM20.0725 18.9251C19.6956 19.4464 19.0733 20.0242 18.0607 20.3658C17.0303 20.7135 16.747 21.0561 16.7411 21.1888C16.7273 21.5034 17.4851 22.2869 19.2128 23.044L22.648 24.5499V18.4972C21.7736 18.666 20.9118 18.8086 20.0725 18.9251ZM25.0009 1.46484C23.4562 1.46484 22.1995 2.72158 22.1995 4.26631C22.1995 5.8125 23.4561 7.07051 25.0009 7.07051C26.5471 7.07051 27.805 5.8125 27.805 4.26631C27.805 2.72158 26.5471 1.46484 25.0009 1.46484ZM25.0009 8.53525C24.6964 8.53525 24.3995 8.50254 24.1129 8.4416V10.6646V10.6674V17.5969V17.6018V25.1921L25.0026 25.5821L25.8917 25.1924V17.6006C25.8917 17.5991 25.8917 17.5977 25.8917 17.5962V10.6674C25.8917 10.6664 25.8917 10.6655 25.8917 10.6646V8.44111C25.6042 8.50234 25.3063 8.53525 25.0009 8.53525ZM29.9321 18.9249C29.0833 18.8072 28.2213 18.6651 27.3565 18.4979V24.5502L30.7916 23.0442C32.5182 22.2868 33.2753 21.503 33.2614 21.1884C33.2556 21.0559 32.9727 20.7134 31.9445 20.3661C30.9325 20.0258 30.3101 19.448 29.9321 18.9249ZM41.7911 15.6296C42.2464 15.0475 42.5004 14.3964 42.5525 13.6862C41.4561 14.0131 40.1329 14.1892 38.5689 14.2179C38.5643 14.218 38.5598 14.218 38.5552 14.218C38.1569 14.218 37.8305 13.8987 37.8231 13.499C37.8158 13.0945 38.1376 12.7606 38.542 12.7532C41.4549 12.6999 43.4175 12.096 44.3752 10.9582C44.8941 10.3416 45.1394 9.5501 45.1194 8.55645C43.9189 8.91836 42.4657 9.11338 40.7426 9.1457C40.7379 9.1458 40.7332 9.1458 40.7285 9.1458C40.3304 9.1458 40.004 8.82676 39.9965 8.42715C39.989 8.02266 40.3107 7.68867 40.715 7.68106C43.7922 7.62354 45.9138 7.00684 47.0211 5.84795C47.7073 5.12979 48.0269 4.19043 47.9979 2.97607C47.9021 3.01094 47.81 3.04697 47.7559 3.06807C44.9339 4.16914 42.5001 4.35576 40.3528 4.52041C37.2347 4.75947 34.9818 4.93223 32.9671 7.73027L32.9338 7.77676C31.5852 9.66787 29.6226 10.9028 27.3565 11.3026V17.0034C27.9808 17.1278 28.6038 17.2398 29.2223 17.3382C28.9304 16.2399 28.8996 14.9271 29.5758 14.1434C30.3011 13.302 31.6464 13.1795 33.2666 13.8072C34.7489 14.3819 36.1947 15.5201 37.1342 16.8519C37.343 17.1469 37.5308 17.4499 37.6972 17.7579C39.0565 17.5956 40.8049 16.8907 41.7911 15.6296ZM24.1129 31.1471V36.4263L25.0015 36.6874L25.8917 36.426V31.1468L25.0029 30.7608L24.1129 31.1471ZM22.1116 32.0157C20.0476 32.9105 19.3412 33.6977 19.3684 34.1357C19.3966 34.5909 20.248 35.2916 22.0869 35.831L22.648 35.9958V31.7828L22.1116 32.0157ZM30.6362 34.1357C30.6633 33.6976 29.9569 32.9105 27.8926 32.0156L27.3565 31.7828V35.9957L27.9179 35.8309C29.7565 35.2915 30.608 34.5908 30.6362 34.1357ZM15.7672 34.4566C15.8301 35.9942 17.2477 37.37 19.6679 38.2523L22.4014 37.4501L21.6742 37.2364C19.2878 36.5364 17.985 35.4955 17.9062 34.2263C17.8258 32.9262 19.0107 31.7634 21.5286 30.6719L33.9725 25.2709C35.6446 24.5461 36.6728 23.5345 37.0284 22.2642C37.4085 20.9061 37.0008 19.1987 35.9378 17.6971C35.9375 17.6968 35.9373 17.6964 35.937 17.6961C35.1573 16.5907 33.9611 15.6475 32.7371 15.173C31.8034 14.8112 30.9597 14.7811 30.685 15.0999C30.3319 15.5091 30.4839 16.9442 30.9739 17.8392C31.1768 18.2063 31.591 18.7017 32.4122 18.9778C33.9063 19.4822 34.6845 20.2044 34.7248 21.1239C34.7887 22.5788 32.9411 23.7007 31.3799 24.3855L21.4901 28.7214C17.8256 30.3272 15.6861 32.4712 15.7672 34.4566ZM12.9758 22.2648C13.3311 23.535 14.3585 24.5463 16.0296 25.2711L20.8956 27.3828C20.8977 27.3818 20.8999 27.3809 20.902 27.3799L23.1785 26.3818L18.6249 24.3856C17.0628 23.7012 15.214 22.5798 15.2778 21.1245C15.3182 20.2046 16.097 19.4824 17.5927 18.9778C18.414 18.7008 18.8279 18.2058 19.0291 17.842C19.5205 16.9442 19.6726 15.5091 19.3205 15.1011C19.0399 14.7773 18.2136 14.8063 17.2652 15.1729C16.0425 15.6478 14.847 16.5911 14.0667 17.6972C13.0036 19.199 12.5958 20.9065 12.9758 22.2648Z" fill="url(#paint1_linear)"/>
</g>
</g>
<defs>
<linearGradient id="paint0_linear" x1="0.535156" y1="0" x2="51.3395" y2="1.9885" gradientUnits="userSpaceOnUse">
<stop stop-color="#F37535"/>
<stop offset="1" stop-color="#FDC630"/>
</linearGradient>
<linearGradient id="paint1_linear" x1="49.4648" y1="0" x2="-1.33954" y2="1.9885" gradientUnits="userSpaceOnUse">
<stop stop-color="#F37535"/>
<stop offset="1" stop-color="#FDC630"/>
</linearGradient>
<clipPath id="clip0">
<rect width="50" height="50" fill="white"/>
</clipPath>
</defs>
</svg>
