<svg width="50" height="50" viewBox="0 0 50 50" fill="none" xmlns="http://www.w3.org/2000/svg">
<path d="M3.51562 48.4375H7.8125C8.41484 48.4375 8.95937 48.2023 9.375 47.8281C9.79062 48.2031 10.3352 48.4375 10.9375 48.4375C11.5398 48.4375 12.0844 48.2023 12.5 47.8281C12.9156 48.2031 13.4602 48.4375 14.0625 48.4375C14.6648 48.4375 15.2094 48.2023 15.625 47.8281C16.0406 48.2031 16.5852 48.4375 17.1875 48.4375H21.4844C22.5617 48.4375 23.4375 47.5609 23.4375 46.4844C23.4375 45.4078 22.5617 44.5312 21.4844 44.5312H20.3125C19.8813 44.5312 19.5312 44.1805 19.5312 43.75V35.1562C19.5312 33.2703 18.1867 31.6922 16.4062 31.3289V30.4688C16.4062 29.1977 15.7867 28.0773 14.8438 27.3641V2.34375C14.8438 1.9125 14.4945 1.5625 14.0625 1.5625H10.9375C10.5055 1.5625 10.1562 1.9125 10.1562 2.34375V27.3641C9.21328 28.0781 8.59375 29.1984 8.59375 30.4688V31.3289C6.81328 31.6922 5.46875 33.2703 5.46875 35.1562V43.75C5.46875 44.1805 5.11875 44.5312 4.6875 44.5312H3.51562C2.43828 44.5312 1.5625 45.4078 1.5625 46.4844C1.5625 47.5609 2.43828 48.4375 3.51562 48.4375ZM10.9375 46.875C10.5063 46.875 10.1562 46.5242 10.1562 46.0938V44.5312V34.375V33.5938C10.1562 33.1633 10.5063 32.8125 10.9375 32.8125H11.7188V34.375V44.5312V46.0938C11.7188 46.5242 11.3687 46.875 10.9375 46.875ZM14.0625 46.875C13.6313 46.875 13.2812 46.5242 13.2812 46.0938V44.5312V34.375V32.8125H14.0625C14.4937 32.8125 14.8438 33.1633 14.8438 33.5938V46.0938C14.8438 46.5242 14.4937 46.875 14.0625 46.875ZM17.9688 35.1562V43.75C17.9688 45.0422 19.0203 46.0938 20.3125 46.0938H21.4844C21.6992 46.0938 21.875 46.2687 21.875 46.4844C21.875 46.7 21.6992 46.875 21.4844 46.875H17.1875C16.7563 46.875 16.4062 46.5242 16.4062 46.0938V33.5938V32.9461C17.3156 33.2688 17.9688 34.1375 17.9688 35.1562ZM11.7188 3.125H13.2812V26.6414C13.0289 26.5898 12.7672 26.5625 12.5 26.5625C12.2328 26.5625 11.9711 26.5898 11.7188 26.6414V3.125ZM10.1562 30.4688C10.1562 29.1766 11.2078 28.125 12.5 28.125C13.7922 28.125 14.8438 29.1766 14.8438 30.4688V31.25H14.0625H12.5H10.9375H10.1562V30.4688ZM3.51562 46.0938H4.6875C5.97969 46.0938 7.03125 45.0422 7.03125 43.75V35.1562C7.03125 34.1375 7.68437 33.2688 8.59375 32.9461V33.5938V34.375V44.5312V46.0938C8.59375 46.5242 8.24375 46.875 7.8125 46.875H3.51562C3.30078 46.875 3.125 46.7 3.125 46.4844C3.125 46.2687 3.30078 46.0938 3.51562 46.0938Z" fill="white"/>
<path d="M35.1562 19.5312H36.7188V21.0938H35.1562V19.5312Z" fill="white"/>
<path d="M36.7188 17.9688H38.2812V19.5312H36.7188V17.9688Z" fill="white"/>
<path d="M38.2812 19.5312H39.8438V21.0938H38.2812V19.5312Z" fill="white"/>
<path d="M36.7188 21.0938H38.2812V22.6562H36.7188V21.0938Z" fill="white"/>
<path d="M42.9688 15.625H44.5312V17.1875H42.9688V15.625Z" fill="white"/>
<path d="M44.5312 14.0625H46.0938V15.625H44.5312V14.0625Z" fill="white"/>
<path d="M46.0938 15.625H47.6562V17.1875H46.0938V15.625Z" fill="white"/>
<path d="M44.5312 17.1875H46.0938V18.75H44.5312V17.1875Z" fill="white"/>
<path d="M29.2117 28.2867C28.8562 28.1789 28.4922 28.125 28.125 28.125C26.2352 28.125 24.6555 29.475 24.2969 31.2609C23.0539 31.3172 22.0586 32.3375 22.0586 33.5938C22.0586 34.8859 23.1102 35.9375 24.4023 35.9375H24.4937L24.7742 38.1828L23.3695 39.5867C22.9094 40.0484 22.6562 40.6602 22.6562 41.3117C22.6562 42.3164 23.2328 43.1797 24.1617 43.5641C24.4727 43.693 24.7945 43.7563 25.1102 43.7563C25.2305 43.7563 25.3484 43.7391 25.4664 43.7211L25.7992 46.3844C25.9453 47.5547 26.9453 48.4375 28.125 48.4375H40.8078C41.9875 48.4375 42.9875 47.5547 43.1336 46.3844L44.4398 35.9375H44.5312C45.8234 35.9375 46.875 34.8859 46.875 33.5938C46.875 32.3016 45.8234 31.25 44.5312 31.25H44.4203C44.0742 29.9195 42.8828 28.9266 41.4516 28.9062C40.2695 26.5148 37.8586 25 35.1562 25C32.7102 25 30.4922 26.2422 29.2117 28.2867ZM23.6203 33.5938C23.6203 33.1633 23.9703 32.8125 24.4016 32.8125H30.1445L28.582 34.375H24.4016C23.9711 34.375 23.6203 34.0242 23.6203 33.5938ZM26.068 35.9375H27.0195L26.1734 36.7836L26.068 35.9375ZM24.7594 42.1211C24.6328 42.068 24.2187 41.8547 24.2187 41.3117C24.2187 41.0773 24.3102 40.857 24.475 40.6922L32.3547 32.8125H34.8328L25.7141 41.9305C25.3312 42.3148 24.8859 42.1727 24.7594 42.1211ZM41.5836 46.1906C41.5344 46.5813 41.2008 46.875 40.8078 46.875H28.125C27.732 46.875 27.3984 46.5813 27.35 46.1906L26.9406 42.9141L33.9172 35.9375H42.8648L41.5836 46.1906ZM45.3125 33.5938C45.3125 34.0242 44.9625 34.375 44.5312 34.375H35.4797L37.0422 32.8125H44.5312C44.9625 32.8125 45.3125 33.1633 45.3125 33.5938ZM40.2375 30.0195C40.3766 30.3687 40.7422 30.5719 41.1109 30.4992C41.2062 30.4813 41.3047 30.4688 41.4062 30.4688C41.982 30.4688 42.4805 30.7852 42.7516 31.25H25.925C26.2484 30.343 27.1078 29.6875 28.125 29.6875C28.4859 29.6875 28.8461 29.7797 29.1953 29.9617C29.382 30.0586 29.5992 30.0758 29.7984 30.0109C29.9984 29.9461 30.1633 29.8023 30.2562 29.6148C31.1875 27.732 33.0648 26.5625 35.1562 26.5625C37.4109 26.5625 39.4047 27.9195 40.2375 30.0195Z" fill="white"/>
<path d="M29.2117 28.2867C28.8562 28.1789 28.4922 28.125 28.125 28.125C26.2352 28.125 24.6555 29.475 24.2969 31.2609C23.0539 31.3172 22.0586 32.3375 22.0586 33.5938C22.0586 34.8859 23.1102 35.9375 24.4023 35.9375H24.4937L24.7742 38.1828L23.3695 39.5867C22.9094 40.0484 22.6562 40.6602 22.6562 41.3117C22.6562 42.3164 23.2328 43.1797 24.1617 43.5641C24.4727 43.693 24.7945 43.7563 25.1102 43.7563C25.2305 43.7563 25.3484 43.7391 25.4664 43.7211L25.7992 46.3844C25.9453 47.5547 26.9453 48.4375 28.125 48.4375H40.8078C41.9875 48.4375 42.9875 47.5547 43.1336 46.3844L44.4398 35.9375H44.5312C45.8234 35.9375 46.875 34.8859 46.875 33.5938C46.875 32.3016 45.8234 31.25 44.5312 31.25H44.4203C44.0742 29.9195 42.8828 28.9266 41.4516 28.9062C40.2695 26.5148 37.8586 25 35.1562 25C32.7102 25 30.4922 26.2422 29.2117 28.2867ZM23.6203 33.5938C23.6203 33.1633 23.9703 32.8125 24.4016 32.8125H30.1445L28.582 34.375H24.4016C23.9711 34.375 23.6203 34.0242 23.6203 33.5938ZM26.068 35.9375H27.0195L26.1734 36.7836L26.068 35.9375ZM24.7594 42.1211C24.6328 42.068 24.2187 41.8547 24.2187 41.3117C24.2187 41.0773 24.3102 40.857 24.475 40.6922L32.3547 32.8125H34.8328L25.7141 41.9305C25.3312 42.3148 24.8859 42.1727 24.7594 42.1211ZM41.5836 46.1906C41.5344 46.5813 41.2008 46.875 40.8078 46.875H28.125C27.732 46.875 27.3984 46.5813 27.35 46.1906L26.9406 42.9141L33.9172 35.9375H42.8648L41.5836 46.1906ZM45.3125 33.5938C45.3125 34.0242 44.9625 34.375 44.5312 34.375H35.4797L37.0422 32.8125H44.5312C44.9625 32.8125 45.3125 33.1633 45.3125 33.5938ZM40.2375 30.0195C40.3766 30.3687 40.7422 30.5719 41.1109 30.4992C41.2062 30.4813 41.3047 30.4688 41.4062 30.4688C41.982 30.4688 42.4805 30.7852 42.7516 31.25H25.925C26.2484 30.343 27.1078 29.6875 28.125 29.6875C28.4859 29.6875 28.8461 29.7797 29.1953 29.9617C29.382 30.0586 29.5992 30.0758 29.7984 30.0109C29.9984 29.9461 30.1633 29.8023 30.2562 29.6148C31.1875 27.732 33.0648 26.5625 35.1562 26.5625C37.4109 26.5625 39.4047 27.9195 40.2375 30.0195Z" fill="url(#paint0_linear)"/>
<defs>
<linearGradient id="paint0_linear" x1="22.0586" y1="25" x2="47.8214" y2="26.0911" gradientUnits="userSpaceOnUse">
<stop stop-color="#F37535"/>
<stop offset="1" stop-color="#FDC630"/>
</linearGradient>
</defs>
</svg>
