<svg width="50" height="50" viewBox="0 0 50 50" fill="none" xmlns="http://www.w3.org/2000/svg">
<g clip-path="url(#clip0)">
<path d="M49.7638 17.9791L41.6994 9.9146C41.5834 9.79888 41.4349 9.72126 41.2736 9.69202L32.4027 8.07913C31.9645 7.9994 31.5446 8.29002 31.4649 8.72822C31.4562 8.7756 31.4519 8.82368 31.4519 8.87187C31.4496 9.12812 31.4266 9.38376 31.3833 9.63638L25.8068 8.24284V7.98478C27.9887 7.53942 29.3965 5.4095 28.9511 3.22756C28.5057 1.04562 26.3758 -0.36213 24.1939 0.0832296C22.3168 0.466392 20.9685 2.11739 20.9681 4.0332H22.581C22.581 2.69702 23.6641 1.61386 25.0003 1.61386C26.3365 1.61386 27.4197 2.69702 27.4197 4.0332C27.4197 5.36938 26.3365 6.45253 25.0003 6.45253C24.555 6.45253 24.1939 6.81362 24.1939 7.25898V8.24203L18.6173 9.63638C18.5741 9.38376 18.5511 9.12812 18.5488 8.87187C18.5489 8.63266 18.4428 8.40584 18.2592 8.25252C18.0767 8.09708 17.8332 8.03327 17.598 8.07913L8.72706 9.69202C8.56577 9.72126 8.41729 9.79888 8.30126 9.9146L0.236811 17.9791C-0.0780052 18.294 -0.0780052 18.8045 0.236811 19.1194L6.68837 25.5709C7.00329 25.8857 7.51377 25.8857 7.82868 25.5709L9.67786 23.7218V29.033H4.03275C1.8125 29.0265 0.00747794 30.8213 0.00102638 33.0415C-0.00270343 34.3239 0.605558 35.531 1.63841 36.291C-0.143126 37.5927 -0.532135 40.0922 0.769669 41.8737C1.01271 42.2064 1.30575 42.4994 1.63841 42.7425C-0.149779 44.0584 -0.532639 46.5749 0.783278 48.3631C1.54335 49.3958 2.7505 50.0041 4.03275 50.0005H33.0648C33.2787 50.0005 33.4837 49.9154 33.6349 49.7642L40.0865 43.3126C40.2358 43.1607 40.3182 42.9555 40.3155 42.7425H40.3228V23.7218L42.172 25.5709C42.4869 25.8857 42.9974 25.8857 43.3123 25.5709L49.7638 19.1194C50.0786 18.8045 50.0786 18.2939 49.7638 17.9791ZM25.0003 9.70251L30.8648 11.1686C29.6493 13.2405 27.4014 14.4852 25.0003 14.4162C22.5992 14.4852 20.3514 13.2405 19.1359 11.1686L25.0003 9.70251ZM1.61341 33.0652C1.61341 31.729 2.69657 30.6459 4.03275 30.6459H21.7745C23.1107 30.6459 24.1939 31.729 24.1939 33.0652C24.1939 34.4014 23.1107 35.4846 21.7745 35.4846H4.03275C2.69657 35.4846 1.61341 34.4013 1.61341 33.0652ZM1.61341 39.5168C1.61341 38.1806 2.69657 37.0975 4.03275 37.0975H21.7745C23.1107 37.0975 24.1939 38.1806 24.1939 39.5168C24.1939 40.853 23.1107 41.9361 21.7745 41.9361H4.03275C2.69657 41.9361 1.61341 40.8529 1.61341 39.5168ZM21.7745 48.3877H20.1616H4.03275C2.69657 48.3877 1.61341 47.3045 1.61341 45.9683C1.61341 44.6322 2.69657 43.549 4.03275 43.549H21.7745C23.1107 43.549 24.1939 44.6322 24.1939 45.9683C24.1939 47.3045 23.1107 48.3877 21.7745 48.3877ZM33.8712 47.2474V43.549H37.5696L33.8712 47.2474ZM42.7421 23.8605L37.6672 18.7855L36.5268 19.9258L38.7099 22.1089V41.9361H33.0648C32.6194 41.9361 32.2583 42.2972 32.2583 42.7426V48.3877H24.9794C26.3216 46.6488 26.0001 44.1511 24.2613 42.8088C24.2322 42.7863 24.2027 42.7642 24.1729 42.7426C25.9544 41.4409 26.3435 38.9414 25.0417 37.1597C24.7987 36.8271 24.5057 36.534 24.1729 36.291C25.9612 34.9751 26.3441 32.4586 25.028 30.6704C24.2672 29.6364 23.0582 29.0281 21.7745 29.033H11.2908V22.1089L13.4738 19.9258L12.3335 18.7855L7.25853 23.8605L1.94728 18.5492L9.26335 11.2331L17.0052 9.82589C17.5326 13.3226 20.9165 16.0291 24.9987 16.0291C29.0809 16.0291 32.4648 13.3226 32.9922 9.82589L40.7341 11.2331L48.0534 18.5492L42.7421 23.8605Z" fill="white"/>
<path d="M22.5812 32.2581H3.22656V33.8709H22.5812V32.2581Z" fill="white"/>
<path d="M22.5812 32.2581H3.22656V33.8709H22.5812V32.2581Z" fill="url(#paint0_linear)"/>
<path d="M21.7748 38.7095H3.22656V40.3224H21.7748V38.7095Z" fill="white"/>
<path d="M21.7748 38.7095H3.22656V40.3224H21.7748V38.7095Z" fill="url(#paint1_linear)"/>
<path d="M21.7748 45.1611H3.22656V46.774H21.7748V45.1611Z" fill="white"/>
<path d="M21.7748 45.1611H3.22656V46.774H21.7748V45.1611Z" fill="url(#paint2_linear)"/>
</g>
<defs>
<linearGradient id="paint0_linear" x1="3.22656" y1="32.2581" x2="19.5862" y2="40.1107" gradientUnits="userSpaceOnUse">
<stop stop-color="#F37535"/>
<stop offset="1" stop-color="#FDC630"/>
</linearGradient>
<linearGradient id="paint1_linear" x1="3.22656" y1="38.7095" x2="19.1478" y2="46.0332" gradientUnits="userSpaceOnUse">
<stop stop-color="#F37535"/>
<stop offset="1" stop-color="#FDC630"/>
</linearGradient>
<linearGradient id="paint2_linear" x1="3.22656" y1="45.1611" x2="19.1478" y2="52.4849" gradientUnits="userSpaceOnUse">
<stop stop-color="#F37535"/>
<stop offset="1" stop-color="#FDC630"/>
</linearGradient>
<clipPath id="clip0">
<rect width="50" height="50" fill="white"/>
</clipPath>
</defs>
</svg>
