<svg width="48" height="48" viewBox="0 0 48 48" fill="none" xmlns="http://www.w3.org/2000/svg">
<path d="M42.9112 40.7949L39.8561 34.8805C39.6934 34.5656 39.3688 34.3678 39.0144 34.3677C39.0142 34.3677 39.0141 34.3677 39.014 34.3677C38.6598 34.3677 38.3351 34.5652 38.1723 34.8798C36.0676 38.9469 34.9816 41.0502 34.9445 41.1311C34.6755 41.7186 34.5391 42.3447 34.5391 42.9919C34.5391 45.4595 36.5465 47.467 39.014 47.467C41.4815 47.467 43.4891 45.4595 43.4891 42.9919C43.4891 42.2689 43.3064 41.5725 42.914 40.8004C42.9132 40.7986 42.9122 40.7968 42.9112 40.7949ZM39.014 45.5715C37.5917 45.5715 36.4346 44.4144 36.4346 42.992C36.4346 42.623 36.5114 42.2662 36.6631 41.9312C36.7637 41.7305 37.9267 39.4801 39.0135 37.3794L41.2256 41.6618C41.4801 42.1634 41.5937 42.5738 41.5937 42.992C41.5936 44.4143 40.4365 45.5715 39.014 45.5715Z" fill="white"/>
<path d="M42.9112 40.7949L39.8561 34.8805C39.6934 34.5656 39.3688 34.3678 39.0144 34.3677C39.0142 34.3677 39.0141 34.3677 39.014 34.3677C38.6598 34.3677 38.3351 34.5652 38.1723 34.8798C36.0676 38.9469 34.9816 41.0502 34.9445 41.1311C34.6755 41.7186 34.5391 42.3447 34.5391 42.9919C34.5391 45.4595 36.5465 47.467 39.014 47.467C41.4815 47.467 43.4891 45.4595 43.4891 42.9919C43.4891 42.2689 43.3064 41.5725 42.914 40.8004C42.9132 40.7986 42.9122 40.7968 42.9112 40.7949ZM39.014 45.5715C37.5917 45.5715 36.4346 44.4144 36.4346 42.992C36.4346 42.623 36.5114 42.2662 36.6631 41.9312C36.7637 41.7305 37.9267 39.4801 39.0135 37.3794L41.2256 41.6618C41.4801 42.1634 41.5937 42.5738 41.5937 42.992C41.5936 44.4143 40.4365 45.5715 39.014 45.5715Z" fill="url(#paint0_linear)"/>
<path d="M36.0163 32.2159L41.5928 29.7456C42.4739 29.3552 43.1442 28.6427 43.4801 27.7394C43.8159 26.8361 43.774 25.8589 43.3618 24.9877L42.1723 22.4725C41.953 22.0087 41.4046 21.8037 40.9347 22.0099L39.8759 22.4745L38.2393 19.2034C35.45 13.6208 28.5076 11.1888 22.8425 13.8279L17.0285 16.4962V10.3416L17.9843 6.68184C18.1278 6.30694 18.4892 6.05719 18.8932 6.05719H29.6353C33.4592 6.05719 35.7877 1.56872 35.885 1.37766C36.0345 1.08384 36.0207 0.733406 35.8483 0.452344C35.6761 0.171281 35.3701 0 35.0404 0H12.2048C11.7283 0 11.2385 0.0229687 10.7488 0.0683437C8.82819 0.246187 7.37966 1.84266 7.37966 3.78159V10.218C7.37966 10.2196 7.37984 10.2211 7.37994 10.2227V22.7399C7.37994 23.2633 7.80425 23.6877 8.32775 23.6877C8.85116 23.6877 9.27556 23.2634 9.27556 22.7399V11.166H15.133V17.9738C15.133 18.2967 15.2973 18.5974 15.5691 18.7717C15.8409 18.946 16.1828 18.9699 16.476 18.8352L23.638 15.5483C28.3865 13.3362 34.2051 15.3705 36.5438 20.051L38.1378 23.237L32.8994 25.5356L31.1694 22.4229C30.0751 20.4532 27.6307 19.684 25.6039 20.6722L15.6652 25.5209C15.3396 25.6797 15.133 26.0104 15.133 26.3727V41.738H9.27547V31.0715C9.27547 30.5481 8.85116 30.1237 8.32766 30.1237C7.80425 30.1237 7.37984 30.548 7.37984 31.0715V41.74C5.67284 41.7817 4.29688 43.1823 4.29688 44.8991V47.0522C4.29688 47.5756 4.72119 48 5.24469 48H19.3496C19.873 48 20.2974 47.5757 20.2974 47.0522V44.8991C20.2974 43.156 18.8793 41.738 17.1362 41.738H17.0284V26.9648L26.4348 22.3759C27.5558 21.8295 28.9075 22.2544 29.5124 23.3436L31.156 26.3006L30.6505 26.5224C30.4196 26.6238 30.2385 26.8131 30.1474 27.0483C30.0565 27.2835 30.0629 27.5453 30.1655 27.7758L31.3408 30.416C31.9278 31.7343 33.2274 32.5192 34.5863 32.5192C35.0652 32.5193 35.5514 32.4218 36.0163 32.2159ZM9.27528 3.78159C9.27528 2.82778 9.98403 2.04291 10.9238 1.95581C11.3555 1.91578 11.7866 1.89553 12.2049 1.89553H33.2788C32.4675 2.92744 31.175 4.16166 29.6353 4.16166H18.8933C17.6721 4.16166 16.5828 4.9365 16.1829 6.08972C16.1747 6.11316 16.1676 6.13678 16.1613 6.16078L15.3492 9.27009H9.27528V3.78159ZM18.4018 44.8992V46.1045H6.1925V44.8992C6.1925 44.2014 6.76025 43.6337 7.45803 43.6337H17.1362C17.8341 43.6336 18.4018 44.2013 18.4018 44.8992ZM33.0726 29.6452L32.2847 27.8754L40.8526 24.1159L41.6483 25.798C41.8401 26.2035 41.8596 26.6583 41.7033 27.0788C41.547 27.4991 41.235 27.8307 40.8249 28.0124L35.2484 30.4827C34.4181 30.8507 33.442 30.4749 33.0726 29.6452Z" fill="white"/>
<path d="M7.45157 27.1933C7.76985 27.9704 8.9106 27.9501 9.21042 27.1717C9.5272 26.3494 8.59523 25.5654 7.83941 26.0181C7.4422 26.2559 7.27354 26.7661 7.45157 27.1933Z" fill="white"/>
<defs>
<linearGradient id="paint0_linear" x1="34.5391" y1="34.3677" x2="43.8401" y2="34.6219" gradientUnits="userSpaceOnUse">
<stop stop-color="#F37535"/>
<stop offset="1" stop-color="#FDC630"/>
</linearGradient>
</defs>
</svg>
