<svg width="54" height="54" viewBox="0 0 54 54" fill="none" xmlns="http://www.w3.org/2000/svg">
<path d="M46.125 42.7485H28.125C27.504 42.7485 27 43.2526 27 43.8736C27 44.4946 27.504 44.9986 28.125 44.9986H46.1251C46.7461 44.9986 47.2501 44.4946 47.2501 43.8736C47.2501 43.2526 46.746 42.7485 46.125 42.7485Z" fill="white"/>
<path d="M46.125 47.2485H28.125C27.504 47.2485 27 47.7526 27 48.3736C27 48.9946 27.504 49.4986 28.125 49.4986H46.1251C46.7461 49.4986 47.2501 48.9946 47.2501 48.3736C47.25 47.7526 46.746 47.2485 46.125 47.2485Z" fill="white"/>
<path d="M46.125 20.2485H28.125C27.504 20.2485 27 20.7526 27 21.3736C27 21.9946 27.504 22.4986 28.125 22.4986H46.1251C46.7461 22.4986 47.2501 21.9946 47.2501 21.3736C47.2501 20.7526 46.746 20.2485 46.125 20.2485Z" fill="white"/>
<path d="M54 21.3737V16.8737C54 15.7937 53.6782 14.7924 53.1473 13.9329C53.1316 13.9013 53.1292 13.8654 53.1113 13.8362L46.1543 2.65373C45.1215 0.993227 43.335 0.000976562 41.3775 0.000976562H12.6293C10.6695 0.000976562 8.88521 0.993227 7.85247 2.65373L0.895535 13.8362C0.88425 13.8542 0.88425 13.8744 0.87307 13.8947C0.328535 14.7609 0 15.7779 0 16.8737V21.3737C0 23.2187 0.906715 24.8477 2.28604 25.8737C0.906715 26.9019 0 28.5287 0 30.3737V34.8737C0 36.7187 0.906715 38.3477 2.28604 39.3737C0.906715 40.4019 0 42.0287 0 43.8737V48.3737C0 51.4742 2.5245 53.9987 5.62496 53.9987H48.3749C51.4754 53.9987 53.9999 51.4742 53.9999 48.3737V43.8737C53.9999 42.0287 53.0932 40.3996 51.7139 39.3736C53.0933 38.3477 54 36.7187 54 34.8737V30.3737C54 28.5287 53.0933 26.8996 51.714 25.8736C53.0933 24.8477 54 23.221 54 21.3737ZM9.76272 3.84173C10.3815 2.84494 11.4524 2.24873 12.6269 2.24873H41.3752C42.5497 2.24873 43.6207 2.84494 44.2394 3.84173L48.8812 11.3005C48.7124 11.2848 48.5482 11.2487 48.3749 11.2487H5.62496C5.45168 11.2487 5.28968 11.2847 5.12093 11.3005L9.76272 3.84173ZM51.75 43.8737V48.3737C51.75 50.2345 50.2358 51.7487 48.375 51.7487H5.62496C3.76418 51.7487 2.24996 50.2345 2.24996 48.3737V43.8737C2.24996 42.0129 3.76418 40.4987 5.62496 40.4987H48.3749C50.2357 40.4987 51.75 42.013 51.75 43.8737ZM51.75 30.3737V34.8737C51.75 36.7345 50.2358 38.2487 48.375 38.2487H5.62496C3.76418 38.2487 2.24996 36.7345 2.24996 34.8737V30.3737C2.24996 28.5129 3.76418 26.9987 5.62496 26.9987H48.3749C50.2357 26.9987 51.75 28.513 51.75 30.3737ZM51.75 21.3737C51.75 23.2345 50.2358 24.7487 48.375 24.7487H5.62496C3.76418 24.7487 2.24996 23.2345 2.24996 21.3737V16.8737C2.24996 15.0129 3.76418 13.4987 5.62496 13.4987H48.3749C50.2357 13.4987 51.7499 15.0129 51.7499 16.8737V21.3737H51.75Z" fill="white"/>
<path d="M46.125 15.7485H28.125C27.504 15.7485 27 16.2526 27 16.8736C27 17.4946 27.504 17.9986 28.125 17.9986H46.1251C46.7461 17.9986 47.2501 17.4946 47.2501 16.8736C47.2501 16.2526 46.746 15.7485 46.125 15.7485Z" fill="white"/>
<path d="M46.125 33.7485H28.125C27.504 33.7485 27 34.2526 27 34.8736C27 35.4946 27.504 35.9986 28.125 35.9986H46.1251C46.7461 35.9986 47.2501 35.4946 47.2501 34.8736C47.2501 34.2526 46.746 33.7485 46.125 33.7485Z" fill="white"/>
<path d="M46.125 29.2485H28.125C27.504 29.2485 27 29.7526 27 30.3736C27 30.9946 27.504 31.4986 28.125 31.4986H46.1251C46.7461 31.4986 47.2501 30.9946 47.2501 30.3736C47.2501 29.7526 46.746 29.2485 46.125 29.2485Z" fill="white"/>
<path fill-rule="evenodd" clip-rule="evenodd" d="M4.50003 19.1235C4.50003 17.2628 6.01425 15.7485 7.87503 15.7485C9.73571 15.7485 11.25 17.2628 11.25 19.1235C11.25 20.9843 9.73582 22.4985 7.87503 22.4985C6.01425 22.4985 4.50003 20.9843 4.50003 19.1235ZM6.75 19.1234C6.75 19.7444 7.25403 20.2485 7.87503 20.2485C8.49603 20.2485 9.00007 19.7444 9.00007 19.1234C9.00007 18.5024 8.49603 17.9984 7.87503 17.9984C7.25403 17.9984 6.75 18.5024 6.75 19.1234ZM7.87503 29.2485C6.01425 29.2485 4.50003 30.7628 4.50003 32.6235C4.50003 34.4843 6.01425 35.9985 7.87503 35.9985C9.73582 35.9985 11.25 34.4843 11.25 32.6235C11.25 30.7628 9.73571 29.2485 7.87503 29.2485ZM7.87503 33.7485C7.25403 33.7485 6.75 33.2444 6.75 32.6234C6.75 32.0024 7.25403 31.4984 7.87503 31.4984C8.49603 31.4984 9.00007 32.0024 9.00007 32.6234C9.00007 33.2444 8.49603 33.7485 7.87503 33.7485ZM7.87503 42.7485C6.01425 42.7485 4.50003 44.2627 4.50003 46.1235C4.50003 47.9843 6.01425 49.4985 7.87503 49.4985C9.73582 49.4985 11.25 47.9843 11.25 46.1235C11.25 44.2627 9.73571 42.7485 7.87503 42.7485ZM7.87503 47.2485C7.25403 47.2485 6.75 46.7444 6.75 46.1234C6.75 45.5024 7.25403 44.9984 7.87503 44.9984C8.49603 44.9984 9.00007 45.5024 9.00007 46.1234C8.99996 46.7445 8.49603 47.2485 7.87503 47.2485Z" fill="white"/>
<path fill-rule="evenodd" clip-rule="evenodd" d="M4.50003 19.1235C4.50003 17.2628 6.01425 15.7485 7.87503 15.7485C9.73571 15.7485 11.25 17.2628 11.25 19.1235C11.25 20.9843 9.73582 22.4985 7.87503 22.4985C6.01425 22.4985 4.50003 20.9843 4.50003 19.1235ZM6.75 19.1234C6.75 19.7444 7.25403 20.2485 7.87503 20.2485C8.49603 20.2485 9.00007 19.7444 9.00007 19.1234C9.00007 18.5024 8.49603 17.9984 7.87503 17.9984C7.25403 17.9984 6.75 18.5024 6.75 19.1234ZM7.87503 29.2485C6.01425 29.2485 4.50003 30.7628 4.50003 32.6235C4.50003 34.4843 6.01425 35.9985 7.87503 35.9985C9.73582 35.9985 11.25 34.4843 11.25 32.6235C11.25 30.7628 9.73571 29.2485 7.87503 29.2485ZM7.87503 33.7485C7.25403 33.7485 6.75 33.2444 6.75 32.6234C6.75 32.0024 7.25403 31.4984 7.87503 31.4984C8.49603 31.4984 9.00007 32.0024 9.00007 32.6234C9.00007 33.2444 8.49603 33.7485 7.87503 33.7485ZM7.87503 42.7485C6.01425 42.7485 4.50003 44.2627 4.50003 46.1235C4.50003 47.9843 6.01425 49.4985 7.87503 49.4985C9.73582 49.4985 11.25 47.9843 11.25 46.1235C11.25 44.2627 9.73571 42.7485 7.87503 42.7485ZM7.87503 47.2485C7.25403 47.2485 6.75 46.7444 6.75 46.1234C6.75 45.5024 7.25403 44.9984 7.87503 44.9984C8.49603 44.9984 9.00007 45.5024 9.00007 46.1234C8.99996 46.7445 8.49603 47.2485 7.87503 47.2485Z" fill="url(#paint0_linear)"/>
<defs>
<linearGradient id="paint0_linear" x1="11.25" y1="49.4985" x2="-1.73074" y2="46.9024" gradientUnits="userSpaceOnUse">
<stop stop-color="#FDC830"/>
<stop offset="1" stop-color="#F37335"/>
</linearGradient>
</defs>
</svg>
