<svg width="21" height="21" viewBox="0 0 21 21" fill="none" xmlns="http://www.w3.org/2000/svg">
<path d="M11.4406 11.9323C11.1267 11.942 10.8128 11.9474 10.5003 11.9474C10.1868 11.9474 9.87177 11.9424 9.55714 11.9323C6.90837 11.8597 4.79758 11.4856 3.27781 10.9519C2.56339 10.7109 1.9518 10.4273 1.47949 10.1029V12.6687V12.8491V13.0295V13.4946C2.50638 14.5666 5.95148 15.5553 10.5 15.5553C15.0484 15.5553 18.4935 14.5666 19.5204 13.4946V13.0295V12.8491V12.6687V10.1029C19.0449 10.4295 18.4279 10.7152 17.7073 10.957C16.1883 11.4881 14.0818 11.8601 11.4406 11.9323Z" fill="white"/>
<path d="M1.47949 5.37222V7.938V8.11841V8.29882V8.76392C2.43133 9.75761 5.4604 10.6799 9.52069 10.809C9.56219 10.8105 9.60477 10.8108 9.64662 10.8119C9.76425 10.8152 9.88151 10.8184 10.0009 10.8202C10.1658 10.8231 10.3322 10.8246 10.5 10.8246C10.6677 10.8246 10.8341 10.8231 10.999 10.8206C11.118 10.8188 11.2357 10.8155 11.3533 10.8123C11.3951 10.8112 11.4377 10.8105 11.4792 10.8094C15.5395 10.6799 18.5686 9.75761 19.5204 8.76428V8.29882V8.11841V7.938V5.37222C17.7643 6.57844 14.0519 7.21637 10.5 7.21637C6.94806 7.21637 3.23596 6.57844 1.47949 5.37222Z" fill="white"/>
<path d="M19.4717 3.08211C19.0669 1.53023 15.9537 0 10.5 0C5.0599 0 1.95 1.52265 1.53253 3.07057C1.50186 3.12361 1.47949 3.1817 1.47949 3.24737V3.42778V4.07941C2.50313 5.1478 5.92369 6.13391 10.5 6.13391C15.0762 6.13391 18.4971 5.1478 19.5204 4.07941V3.42778V3.24737C19.5204 3.18675 19.5002 3.13227 19.4717 3.08211Z" fill="white"/>
<path d="M1.47949 14.7935V17.7526C1.47949 17.8111 1.49501 17.8663 1.52171 17.9154C1.94783 19.6816 5.76024 21 10.5 21C15.2288 21 19.0351 19.687 19.4753 17.9273C19.5042 17.8753 19.5204 17.8158 19.5204 17.7526V14.7943C18.0284 15.8446 14.9543 16.6702 10.5 16.6702C6.04529 16.6702 2.97112 15.8439 1.47949 14.7935Z" fill="white"/>
</svg>
