<svg id="Слой_1" data-name="Слой 1" xmlns="http://www.w3.org/2000/svg" viewBox="0 0 25 25.0001">
  <title>send</title>
  <path d="M18.3779,28.3533a.8065.8065,0,0,0-1.1406,0l-2.1128,2.1129a.8063.8063,0,1,0,1.1406,1.14l2.1128-2.1129A.8057.8057,0,0,0,18.3779,28.3533ZM12.6467,22.622a.8059.8059,0,0,0-1.14,0L9.3937,24.7349a.8063.8063,0,0,0,1.14,1.1406l2.1129-2.1129A.8065.8065,0,0,0,12.6467,22.622Zm3.821,1.91a.8069.8069,0,0,0-1.1406,0L9.9723,29.887a.8066.8066,0,0,0,1.1406,1.1407l5.3548-5.3548A.8065.8065,0,0,0,16.4677,24.5323ZM32.9594,9.0577l-7.642,23.3868a.807.807,0,0,1-1.4637.1547l-5.1391-8.8381a.8064.8064,0,0,1,.0494-.8861l1.8453-2.4843-2.4844,1.8452a.8062.8062,0,0,1-.8861.0494l-8.838-5.1391a.807.807,0,0,1,.1547-1.4636L31.9423,8.0405A.8073.8073,0,0,1,32.9594,9.0577Z" transform="translate(-8.0005 -7.9996)" style="fill: #fdab3e"/>
</svg>
