<svg width="30" height="30" viewBox="0 0 30 30" fill="none" xmlns="http://www.w3.org/2000/svg">
<g clip-path="url(#clip0)">
<path d="M28.0056 15.3886C27.8849 15.1416 27.8849 14.8584 28.0056 14.6115L29.1245 12.3225C29.7475 11.048 29.2539 9.52901 28.0008 8.86415L25.7503 7.67001C25.5075 7.54122 25.341 7.31201 25.2935 7.04136L24.8533 4.53187C24.6082 3.13465 23.3158 2.19575 21.9115 2.39444L19.3888 2.75127C19.1166 2.78971 18.8473 2.70217 18.6498 2.5111L16.8187 0.739702C15.7991 -0.24666 14.2019 -0.246719 13.1823 0.739702L11.3512 2.51127C11.1536 2.70241 10.8844 2.78977 10.6121 2.75145L8.08951 2.39461C6.68473 2.19581 5.39275 3.13482 5.14765 4.53204L4.7075 7.04142C4.65998 7.31212 4.49351 7.54128 4.25076 7.67013L2.00019 8.86426C0.747109 9.52906 0.253518 11.0482 0.876483 12.3227L1.99532 14.6116C2.11603 14.8585 2.11603 15.1418 1.99532 15.3887L0.876425 17.6776C0.253459 18.9521 0.74705 20.4711 2.00013 21.1359L4.2507 22.3301C4.49351 22.4589 4.65998 22.6881 4.7075 22.9587L5.14765 25.4682C5.37077 26.7402 6.46143 27.6322 7.71492 27.6321C7.83838 27.6321 7.96365 27.6234 8.08957 27.6056L10.6122 27.2488C10.8842 27.2102 11.1537 27.2979 11.3512 27.4889L13.1823 29.2603C13.6922 29.7536 14.3462 30.0001 15.0005 30.0001C15.6546 30 16.309 29.7535 16.8186 29.2603L18.6498 27.4889C18.8474 27.2979 19.1167 27.2106 19.3888 27.2488L21.9115 27.6056C23.3164 27.8043 24.6082 26.8654 24.8533 25.4682L25.2935 22.9588C25.341 22.6881 25.5075 22.4589 25.7503 22.3301L28.0008 21.1359C29.2539 20.4711 29.7475 18.952 29.1245 17.6775L28.0056 15.3886ZM27.1898 19.6074L24.9393 20.8016C24.2217 21.1824 23.7296 21.8596 23.5893 22.6597L23.1491 25.1692C23.0662 25.6419 22.6292 25.9594 22.1538 25.8923L19.6312 25.5355C18.8267 25.4215 18.0306 25.6805 17.4468 26.2452L15.6156 28.0166C15.2707 28.3502 14.7303 28.3502 14.3853 28.0166L12.5542 26.2452C12.0607 25.7678 11.4156 25.5091 10.7421 25.5091C10.6188 25.5091 10.4944 25.5178 10.3698 25.5354L7.84717 25.8923C7.37221 25.9594 6.93481 25.6418 6.85184 25.1691L6.41163 22.6596C6.27124 21.8595 5.77917 21.1822 5.06158 20.8015L2.811 19.6074C2.38702 19.3824 2.22003 18.8685 2.43079 18.4373L3.54969 16.1484C3.90641 15.4185 3.90641 14.5815 3.54969 13.8516L2.43079 11.5627C2.22003 11.1315 2.38702 10.6176 2.811 10.3926L5.06158 9.19848C5.77911 8.81768 6.27124 8.14046 6.41157 7.34031L6.85172 4.83087C6.93469 4.35814 7.37168 4.04056 7.84705 4.10771L10.3697 4.46454C11.1739 4.57839 11.9702 4.31958 12.5541 3.7548L14.3853 1.98341C14.7301 1.64977 15.2705 1.64977 15.6155 1.98341L17.4466 3.7548C18.0305 4.31964 18.8267 4.57839 19.6311 4.46454L22.1537 4.10771C22.6287 4.0405 23.0661 4.35814 23.149 4.83087L23.5892 7.34037C23.7296 8.14052 24.2216 8.8178 24.9392 9.19848L27.1898 10.3926C27.6138 10.6176 27.7808 11.1315 27.57 11.5627L26.4511 13.8516C26.0944 14.5813 26.0944 15.4185 26.4511 16.1483L27.57 18.4372C27.7808 18.8685 27.6138 19.3825 27.1898 19.6074Z" fill="white"/>
<path d="M21.3219 8.67862C20.9841 8.34077 20.4362 8.34077 20.0984 8.67862L8.67917 20.0979C8.34132 20.4357 8.34132 20.9835 8.67917 21.3214C8.84809 21.4903 9.06952 21.5748 9.29088 21.5748C9.51225 21.5748 9.73373 21.4904 9.9026 21.3214L21.3218 9.90217C21.6598 9.56426 21.6598 9.01653 21.3219 8.67862Z" fill="white"/>
<path d="M11.5394 7.21381C9.79025 7.21381 8.36719 8.63686 8.36719 10.386C8.36719 12.1351 9.79025 13.5582 11.5394 13.5582C13.2885 13.5582 14.7116 12.1351 14.7116 10.386C14.7116 8.63686 13.2885 7.21381 11.5394 7.21381ZM11.5394 11.8279C10.7443 11.8279 10.0975 11.181 10.0975 10.3859C10.0975 9.59088 10.7443 8.94407 11.5394 8.94407C12.3344 8.94407 12.9813 9.59088 12.9813 10.3859C12.9812 11.181 12.3344 11.8279 11.5394 11.8279Z" fill="white"/>
<path d="M18.4613 16.4419C16.7121 16.4419 15.2891 17.865 15.2891 19.6141C15.2891 21.3632 16.7121 22.7863 18.4613 22.7863C20.2104 22.7863 21.6334 21.3632 21.6334 19.6141C21.6334 17.865 20.2104 16.4419 18.4613 16.4419ZM18.4613 21.056C17.6662 21.056 17.0193 20.4091 17.0193 19.6141C17.0193 18.819 17.6661 18.1722 18.4613 18.1722C19.2563 18.1722 19.9031 18.819 19.9031 19.6141C19.9031 20.4091 19.2563 21.056 18.4613 21.056Z" fill="white"/>
</g>
<defs>
<clipPath id="clip0">
<rect width="30" height="30" fill="white"/>
</clipPath>
</defs>
</svg>
