<svg width="30" height="30" viewBox="0 0 30 30" fill="none" xmlns="http://www.w3.org/2000/svg">
<path d="M25.6461 4.71611C24.2902 3.2603 22.6551 2.09262 20.8383 1.28276C19.0216 0.472885 17.0604 0.0374096 15.0718 0.00230603C13.0832 -0.0327975 11.1079 0.33319 9.26369 1.07844C7.41953 1.82368 5.74428 2.93292 4.3379 4.33997C2.93152 5.74703 1.82281 7.42307 1.07792 9.26812C0.333031 11.1132 -0.0327819 13.0894 0.00230493 15.079C0.0373917 17.0686 0.472659 19.0307 1.28214 20.8483C2.09163 22.6659 3.25874 24.3018 4.71386 25.6583C6.94982 27.8961 9.84305 29.359 12.97 29.8329C16.097 30.3067 19.2935 29.7667 22.0915 28.2919C22.2183 28.2249 22.3306 28.1336 22.4221 28.0231C22.5135 27.9127 22.5824 27.7853 22.6246 27.6483C22.6669 27.5112 22.6818 27.3672 22.6684 27.2244C22.655 27.0816 22.6137 26.9429 22.5467 26.8161C22.4797 26.6893 22.3885 26.5769 22.2781 26.4854C22.1677 26.3939 22.0404 26.325 21.9034 26.2827C21.7664 26.2404 21.6225 26.2255 21.4797 26.2389C21.337 26.2523 21.1983 26.2937 21.0716 26.3607C18.6314 27.6491 15.8365 28.1024 13.1144 27.6513C10.3923 27.2001 7.89286 25.8694 5.99822 23.8626C4.10357 21.8559 2.91806 19.2834 2.62296 16.5388C2.32787 13.7941 2.93944 11.0283 4.36415 8.66426C5.78886 6.30024 7.94829 4.46815 10.5122 3.44817C13.0761 2.42818 15.9034 2.27644 18.5617 3.01615C21.2199 3.75586 23.5629 5.3463 25.2322 7.54426C26.9015 9.74222 27.8053 12.4267 27.8054 15.1872C27.908 16.7432 27.4825 18.2883 26.5979 19.5722C26.3507 19.9219 26.027 20.2105 25.6514 20.4159C25.2758 20.6214 24.8582 20.7383 24.4306 20.7576C23.3317 20.7576 22.2209 19.8834 22.2209 17.9275V9.42415C22.2123 9.13995 22.0935 8.87025 21.8895 8.67224C21.6856 8.47423 21.4126 8.36348 21.1284 8.36348C20.8442 8.36348 20.5711 8.47423 20.3672 8.67224C20.1632 8.87025 20.0444 9.13995 20.0358 9.42415V9.90424C19.1662 9.02955 18.0942 8.38311 16.915 8.02227C15.7357 7.66142 14.4857 7.59733 13.2758 7.83567C12.0659 8.07402 10.9334 8.60743 9.97896 9.38859C9.02448 10.1698 8.27746 11.1745 7.80415 12.3138C7.33084 13.453 7.14588 14.6915 7.26568 15.9194C7.38547 17.1473 7.80632 18.3267 8.49089 19.3529C9.17546 20.379 10.1026 21.2203 11.19 21.8021C12.2775 22.3839 13.4916 22.6881 14.7248 22.6879C15.4527 22.6902 16.1769 22.5836 16.8733 22.3718C17.1451 22.2839 17.3717 22.0931 17.5047 21.8402C17.6376 21.5872 17.6664 21.2923 17.5847 21.0184C17.503 20.7446 17.3174 20.5136 17.0676 20.375C16.8179 20.2363 16.5238 20.201 16.2483 20.2766C15.7538 20.424 15.2407 20.4995 14.7248 20.5008C13.6744 20.5008 12.6475 20.1892 11.7741 19.6053C10.9007 19.0214 10.22 18.1916 9.81801 17.2206C9.41603 16.2497 9.31085 15.1813 9.51578 14.1506C9.72071 13.1198 10.2265 12.1731 10.9693 11.4299C11.7121 10.6868 12.6584 10.1807 13.6886 9.97572C14.7189 9.77069 15.7868 9.87592 16.7572 10.2781C17.7277 10.6803 18.5572 11.3613 19.1408 12.2351C19.7243 13.109 20.0358 14.1363 20.0358 15.1872V17.9324C20.0358 21.2239 22.2456 22.9487 24.4306 22.9487C25.191 22.9293 25.9369 22.7362 26.6112 22.384C27.2855 22.0318 27.8703 21.5299 28.3208 20.9167C29.496 19.2445 30.0833 17.2293 29.9905 15.1872C29.9945 13.2411 29.6126 11.3136 28.8669 9.51619C28.1211 7.7188 27.0264 6.08728 25.6461 4.71611Z" fill="white"/>
</svg>
