<svg width="112" height="112" viewBox="0 0 112 112" fill="none" xmlns="http://www.w3.org/2000/svg">
<path fill-rule="evenodd" clip-rule="evenodd" d="M10.0257 47.1377H14.9908L16.2325 48.3788L6.76724 57.8958L8.00893 59.1369L5.62897 61.5168L1.64648 57.7412L11.0083 48.4311L10.0257 47.1377ZM14.8879 54.0167L17.3184 56.6029L11.4743 62.4982L12.6637 63.7922L10.336 66.2744L6.45696 62.4982L14.8879 54.0167Z" fill="white"/>
<path fill-rule="evenodd" clip-rule="evenodd" d="M15.1454 52.2579H20.0076L25.3863 57.6367L15.1977 67.9299L11.4738 67.0502L20.5247 57.5855L15.1454 52.2579ZM10.5859 45.3203C10.7149 44.9182 10.8364 44.6579 11.0403 44.2552C11.1019 43.8624 11.1188 43.5812 10.8032 43.2634C10.704 43.031 10.6597 42.7788 10.6736 42.5265C10.6875 42.2742 10.7593 42.0285 10.8834 41.8084C11.1368 41.4604 11.4192 41.1425 11.7225 40.845C11.9834 40.6957 12.1559 40.7922 12.0897 41.0961L11.5615 42.2343C11.4871 42.6736 11.626 43.0902 11.9008 43.2994C12.1077 43.4766 12.2291 44.0013 11.9258 44.4254C11.6754 44.8345 11.3535 45.1186 10.902 45.401C10.7202 45.4481 10.615 45.4684 10.5859 45.3203ZM12.3825 45.3203C12.5115 44.9182 12.633 44.6579 12.8369 44.2552C12.8985 43.8624 12.9159 43.5812 12.5998 43.2634C12.5006 43.031 12.4563 42.7788 12.4702 42.5265C12.4841 42.2742 12.5559 42.0285 12.68 41.8084C12.9334 41.4604 13.2157 41.1425 13.5191 40.845C13.7799 40.6957 13.9519 40.7922 13.8863 41.0961L13.3581 42.2343C13.2837 42.6736 13.4226 43.0902 13.698 43.2994C13.9049 43.4766 14.0263 44.0013 13.723 44.4254C13.4726 44.8345 13.1507 45.1186 12.6992 45.401C12.5162 45.4481 12.411 45.4684 12.3825 45.3203ZM14.1791 45.3203C14.3081 44.9182 14.4296 44.6579 14.6335 44.2552C14.6951 43.8624 14.7119 43.5812 14.3964 43.2634C14.2973 43.031 14.2529 42.7789 14.2667 42.5266C14.2805 42.2743 14.3521 42.0286 14.476 41.8084C14.7294 41.4604 15.0118 41.1425 15.3156 40.845C15.576 40.6957 15.7485 40.7922 15.6823 41.0961L15.1541 42.2343C15.0797 42.6736 15.2186 43.0902 15.4934 43.2994C15.7003 43.4766 15.8223 44.0013 15.5184 44.4254C15.268 44.8345 14.9461 45.1186 14.4946 45.401C14.3128 45.4481 14.2082 45.4684 14.1791 45.3203ZM60.2124 52.9842H52.1318V55.1004H60.3269C60.7505 55.1004 61.1723 55.1004 61.1723 55.9458C61.1723 56.7913 60.7499 56.9057 60.3269 56.9057H52.1318V64.2571H60.4042C60.8266 64.2571 61.2496 64.2571 61.2496 65.1014C61.2496 65.9468 60.2909 65.9468 59.8673 65.9468H51.2864C50.8634 65.9468 50.441 65.5244 50.441 65.1014V56.7913H49.7484C49.4445 56.7198 49.1865 56.5641 49.0326 56.3032C48.8867 56.0545 48.8937 55.9331 48.9756 55.6733C49.1517 55.1173 49.3783 55.101 49.7484 55.101H50.441V52.14C50.441 51.717 50.8634 51.2946 51.2864 51.2946H60.4803C60.9039 51.2946 61.3257 51.2946 61.3257 52.14C61.3257 52.9842 60.6343 52.9842 60.2124 52.9842ZM85.0144 52.9842H76.9344V55.1004H85.13C85.5524 55.1004 85.9743 55.1004 85.9743 55.9458C85.9743 56.7913 85.5518 56.9057 85.13 56.9057H76.9344V64.2571H85.2061C85.6285 64.2571 86.0515 64.2571 86.0515 65.1014C86.0515 65.9468 85.0928 65.9468 84.6704 65.9468H76.0883C75.6659 65.9468 75.2429 65.5244 75.2429 65.1014V56.7913H74.5509C74.247 56.7198 73.989 56.5641 73.8351 56.3032C73.6886 56.0545 73.6968 55.9331 73.7781 55.6733C73.9542 55.1173 74.1808 55.101 74.5509 55.101H75.2429V52.14C75.2429 51.717 75.6665 51.2946 76.0883 51.2946H85.2828C85.7052 51.2946 86.1271 51.2946 86.1271 52.14C86.1277 52.9842 85.438 52.9842 85.0144 52.9842ZM105.6 53.0877V65.1351C105.6 65.5575 105.6 66.0427 104.754 66.178C103.91 65.9875 103.91 65.5575 103.91 65.1351V53.0877H100.607C100.324 53.0877 99.4586 53.0877 99.4586 52.2423C99.7584 51.4334 100.397 51.3968 100.68 51.3968H109.238C109.521 51.3968 110.17 51.3968 110.353 52.2423C110.353 53.0877 109.521 53.0877 109.238 53.0877H105.6Z" fill="white"/>
<path fill-rule="evenodd" clip-rule="evenodd" d="M62.8638 65.0849V61.5882H62.1636C61.7412 61.5882 61.2014 61.5882 61.2014 60.7427C61.2014 59.8973 61.9301 59.8973 62.3519 59.8973H62.8638V52.1729C62.8638 51.7505 63.5308 51.2665 63.9544 51.2665H72.5748C72.9972 51.2665 73.6573 51.3443 73.7729 52.0736C73.7729 52.919 73.1611 52.9567 72.7392 52.9567H64.6342V59.8967H72.2988C72.7224 59.8967 73.569 59.8967 73.569 60.7422C73.569 61.5876 72.7224 61.5876 72.2988 61.5876H64.6342V65.1819C64.6342 65.2714 64.6435 65.3342 64.6093 65.4155C64.2653 66.2429 63.3734 66.3742 62.9172 65.4678C62.8481 65.3289 62.8638 65.24 62.8638 65.0849ZM40.2611 59.7927L47.946 59.7584H47.9495C48.6404 59.7584 48.9123 60.1251 48.9123 60.7207V60.7015C48.92 60.8294 48.8975 60.9574 48.8467 61.0751C48.4742 62.555 47.5352 63.7624 46.3104 64.6148C45.0025 65.5247 43.3575 66.0343 41.7364 66.0343C40.7537 66.0344 39.7807 65.8405 38.8731 65.4637C37.9656 65.0869 37.1413 64.5346 36.4477 63.8385C35.7516 63.1449 35.1993 62.3207 34.8225 61.4132C34.4457 60.5056 34.2518 59.5326 34.252 58.5499C34.252 56.4819 35.0875 54.5505 36.4425 53.1433C37.7824 51.7511 39.6289 50.8696 41.6812 50.8696C42.7277 50.8696 43.7509 51.0823 44.684 51.4698C45.6311 51.8644 45.7904 51.8313 46.4824 52.5564C46.8124 52.9027 47.3935 53.3327 46.7014 53.9916C46.2686 54.2118 46.0321 54.2461 45.7596 54.1833C45.171 54.0479 45.0518 53.7162 44.5812 53.4913C44.4371 53.4227 44.2599 53.3646 43.9513 53.2362C43.2318 52.9382 42.4606 52.785 41.6818 52.7853C40.1728 52.7853 38.8114 53.4378 37.8202 54.4675C36.764 55.5645 36.1724 57.0271 36.1688 58.5499C36.1688 60.0821 36.7946 61.4743 37.8033 62.4835C38.812 63.4928 40.2327 64.0349 41.7649 64.0349C43.0037 64.0349 44.2273 63.7328 45.218 63.0443C45.7526 62.6718 46.2081 62.1012 46.5376 61.569L39.9636 61.5975C39.4848 61.5986 38.8945 61.7119 38.891 60.7544C38.8875 59.7968 39.7823 59.7951 40.2611 59.7927ZM48.8135 61.1442C48.812 61.1486 48.8099 61.1527 48.8071 61.1564L48.813 61.1483L48.8135 61.1442ZM96.4174 54.242C94.3995 52.3525 91.8998 52.3054 90.0782 54.1758V54.1793C90.0047 54.2543 89.9336 54.3316 89.865 54.4111H89.8685C89.6849 54.6249 89.5687 54.7847 89.5088 54.9305C89.4495 55.0758 89.4205 55.2641 89.4065 55.5401V55.536C89.3827 56.0392 89.51 56.4035 89.7389 56.6563C90.0341 56.9811 90.5163 57.1827 91.0834 57.2896C91.3647 57.343 91.4135 57.3518 91.46 57.3599C92.704 57.5871 95.2071 58.0444 96.7823 58.7544C97.4192 59.0426 97.8898 59.3877 98.2396 59.8532C98.5905 60.3174 98.7898 60.8642 98.8863 61.551C98.9689 62.1327 98.9097 62.7257 98.7137 63.2796C98.5423 63.7665 98.3256 64.1204 98.0374 64.4312C97.7718 64.7182 97.4685 64.9361 97.0897 65.1837C96.4161 65.6265 95.6697 65.947 94.8846 66.1302C94.1002 66.3097 93.2984 66.3388 92.4878 66.2371L92.4948 66.2406C91.1468 66.082 90.1253 65.7775 89.2706 65.3417C88.406 64.9013 87.7372 64.3429 87.0928 63.6758C86.7831 63.3545 86.4734 63.0338 87.1248 62.4254C87.7761 61.8182 88.2259 62.3836 88.5355 62.7043C89.0556 63.2412 89.4414 63.4411 90.0951 63.7746C90.761 64.1128 91.586 64.3545 92.7063 64.4864L92.7133 64.4899C93.3012 64.5678 93.8982 64.5408 94.4767 64.4103C95.0536 64.2755 95.602 64.0392 96.0961 63.7125C96.3616 63.5399 96.5662 63.3958 96.708 63.2424C96.8282 63.114 96.9235 62.9495 97.0101 62.7055C97.1155 62.4117 97.1478 62.0966 97.1042 61.7875C97.0508 61.3993 96.9543 61.1134 96.7969 60.9037C96.6394 60.6939 96.3895 60.5214 96.0299 60.3587C94.6522 59.7369 92.303 59.3076 91.1363 59.0943C90.8876 59.0502 90.8127 59.0362 90.7458 59.024C89.8109 58.8468 88.9754 58.4726 88.3944 57.83C87.8586 57.2396 87.5559 56.4622 87.6035 55.4599V55.4564C87.6262 54.9916 87.693 54.6307 87.8406 54.2734C87.987 53.9155 88.1916 53.6168 88.4873 53.2705H88.4908C88.5977 53.1467 88.693 53.041 88.7755 52.9562V52.9596C91.3745 50.2897 95.1287 50.7488 97.8666 53.3135C98.1925 53.6185 98.5179 53.9242 97.8985 54.5627C97.1728 54.6778 96.7428 54.5471 96.4174 54.242Z" fill="white"/>
</svg>
