<svg width="25" height="25" viewBox="0 0 25 25" fill="none" xmlns="http://www.w3.org/2000/svg">
<path d="M16.167 0H10.2049C7.54808 0 5.70899 0.582482 4.05374 1.94987C2.75195 3.07301 1.97505 4.7053 1.97505 6.31642C1.97505 8.79868 3.86759 11.4366 7.37458 11.4366C7.71177 11.4366 8.08511 11.402 8.41456 11.3713L8.36602 11.4893C8.22505 11.827 8.09157 12.1456 8.09157 12.6429C8.09157 13.6111 8.55863 14.2083 9.01021 14.7854L9.06701 14.8585L8.96606 14.8654C7.51787 14.9646 4.82237 15.1494 2.85342 16.3596C0.527901 17.7422 0.347168 19.7535 0.347168 20.3368C0.347168 22.6574 2.50977 24.9997 7.34153 24.9997C12.9597 24.9997 15.8995 21.9001 15.8995 18.8385C15.9 16.5739 14.5721 15.4559 13.1627 14.269L11.9737 13.3442C11.6063 13.0398 11.1488 12.661 11.1488 11.9592C11.1488 11.2693 11.6063 10.8139 12.0101 10.4121L12.0522 10.3695C13.3362 9.35818 14.7913 8.21155 14.7913 5.73136C14.7913 3.23773 13.2332 1.94909 12.4839 1.32969H14.4624C14.4867 1.32969 14.5109 1.32298 14.5311 1.30981L16.2354 0.238312C16.2839 0.207587 16.3067 0.148461 16.2906 0.0932075C16.2754 0.0379543 16.2243 0 16.167 0ZM8.93688 23.6336C5.51225 23.6336 3.21127 22.0341 3.21127 19.6534C3.21127 18.0988 4.15237 16.9692 6.00591 16.2976C7.49025 15.798 9.40627 15.7732 9.42538 15.7732C9.74992 15.7732 9.9131 15.7732 10.1723 15.8058C12.5686 17.5111 13.7206 18.4065 13.7206 20.1119C13.7204 22.2843 11.8872 23.6336 8.93688 23.6336ZM8.90461 10.5229C6.03044 10.5229 4.8376 6.74476 4.8376 4.72182C4.8376 3.69318 5.07152 2.90363 5.55279 2.30747C6.07511 1.65398 6.96948 1.23184 7.83131 1.23184C10.4703 1.23184 11.9296 4.77888 11.9296 7.23042C11.9296 7.61719 11.9296 8.79378 11.1168 9.61096C10.5702 10.1565 9.68124 10.5229 8.90461 10.5229Z" fill="white"/>
<path d="M24.5233 11.6763H21.3816V8.54572C21.3816 8.47446 21.3236 8.41663 21.2525 8.41663H19.9012C19.8299 8.41663 19.7721 8.47446 19.7721 8.54572V11.6763H16.6462C16.5749 11.6763 16.5171 11.7341 16.5171 11.8054V13.1749C16.5171 13.2459 16.5749 13.304 16.6462 13.304H19.7721V16.4547C19.7721 16.5257 19.8299 16.5838 19.9012 16.5838H21.2525C21.3236 16.5838 21.3816 16.5257 21.3816 16.4547V13.3034H24.5233C24.5946 13.3034 24.6524 13.2459 24.6524 13.1743V11.8054C24.6524 11.7339 24.5948 11.6763 24.5233 11.6763Z" fill="white"/>
</svg>
