<svg width="56" height="54" viewBox="0 0 56 54" fill="none" xmlns="http://www.w3.org/2000/svg">
<path d="M28.0175 36.5397C27.7113 36.3076 27.3597 36.1422 26.9857 36.0542C26.6116 35.9662 26.2232 35.9575 25.8455 36.0287C25.728 35.3196 25.3382 34.6843 24.7591 34.2584C24.18 33.8325 23.4575 33.6496 22.7455 33.7487C22.5666 33.7732 22.3904 33.8151 22.2195 33.8737C22.1111 33.5021 21.9255 33.1575 21.675 32.8625C21.4244 32.5674 21.1145 32.3284 20.7654 32.1611C20.4163 31.9938 20.0359 31.902 19.6489 31.8916C19.2619 31.8812 18.8771 31.9524 18.5195 32.1007C18.371 31.6583 18.1127 31.2607 17.7687 30.9452C17.4248 30.6297 17.0064 30.4066 16.5528 30.2967C16.0992 30.1868 15.6251 30.1937 15.1749 30.3169C14.7247 30.44 14.3131 30.6753 13.9785 31.0007L11.0785 30.8077L12.8585 16.3907L16.0385 16.6067H16.0925C16.2374 16.606 16.3793 16.5656 16.5027 16.4897C16.6262 16.4139 16.7264 16.3056 16.7925 16.1767L17.9845 13.8517C18.1325 13.5655 18.3742 13.3388 18.6692 13.2094C18.9643 13.08 19.2948 13.0557 19.6055 13.1407L21.3755 13.6297C21.4757 13.6574 21.5803 13.6652 21.6834 13.6524C21.7865 13.6397 21.8861 13.6068 21.9765 13.5556C22.0669 13.5044 22.1463 13.4359 22.2103 13.354C22.2742 13.2721 22.3213 13.1784 22.349 13.0782C22.3767 12.9781 22.3845 12.8735 22.3717 12.7704C22.359 12.6673 22.3261 12.5677 22.2749 12.4773C22.2237 12.3869 22.1552 12.3074 22.0733 12.2435C21.9914 12.1796 21.8977 12.1324 21.7975 12.1047L20.0275 11.6157C19.366 11.436 18.6629 11.4881 18.0352 11.7636C17.4075 12.0391 16.8931 12.5212 16.5775 13.1297L15.6235 14.9917L13.0495 14.8167L13.1105 14.3167C13.1999 13.5574 12.9858 12.7935 12.5148 12.1912C12.0438 11.5889 11.354 11.197 10.5955 11.1007L4.50054 10.3507C4.29402 10.3285 4.08705 10.3884 3.92433 10.5175C3.76161 10.6466 3.65619 10.8345 3.63085 11.0407C3.60551 11.2468 3.66227 11.4547 3.78888 11.6194C3.91549 11.784 4.10179 11.8923 4.30754 11.9207L10.4025 12.6707C10.5733 12.6918 10.7383 12.7462 10.8881 12.8311C11.0378 12.9159 11.1694 13.0294 11.2752 13.165C11.3811 13.3007 11.4592 13.4559 11.5051 13.6218C11.5509 13.7877 11.5637 13.9609 11.5425 14.1317L9.44954 31.1317C9.40656 31.4765 9.22861 31.7901 8.95473 32.0038C8.68084 32.2175 8.33338 32.3139 7.98854 32.2717L1.89354 31.5217C1.78965 31.5074 1.68393 31.5138 1.58254 31.5407C1.48116 31.5675 1.38613 31.6143 1.30298 31.6782C1.21983 31.7421 1.15023 31.822 1.09823 31.9131C1.04622 32.0041 1.01285 32.1047 1.00005 32.2088C0.987253 32.3129 0.995287 32.4185 1.02368 32.5194C1.05208 32.6204 1.10028 32.7147 1.16546 32.7969C1.23065 32.879 1.31153 32.9474 1.40339 32.998C1.49525 33.0487 1.59626 33.0805 1.70054 33.0917L7.79554 33.8417C8.3693 33.9127 8.95114 33.8098 9.46582 33.5465C9.9805 33.2832 10.4043 32.8715 10.6825 32.3647L12.8485 32.5087C12.6324 32.9289 12.5278 33.3975 12.5448 33.8697C12.5617 34.3419 12.6997 34.8019 12.9454 35.2055C13.1911 35.609 13.5363 35.9428 13.948 36.1747C14.3597 36.4065 14.824 36.5288 15.2965 36.5297C15.4247 36.5298 15.5526 36.5211 15.6795 36.5037H15.7035C15.7035 36.5117 15.7035 36.5197 15.7035 36.5287C15.7944 37.1883 16.1209 37.7926 16.6227 38.2301C17.1245 38.6676 17.7678 38.9087 18.4335 38.9087C18.5694 38.9083 18.7051 38.8979 18.8395 38.8777C18.8851 39.2415 19.003 39.5925 19.1863 39.9101C19.3695 40.2276 19.6145 40.5053 19.9067 40.7267C20.199 40.9481 20.5326 41.1088 20.8879 41.1993C21.2432 41.2898 21.613 41.3083 21.9755 41.2537C21.9755 41.2627 21.9755 41.2717 21.9755 41.2797C22.0674 41.9389 22.3944 42.5427 22.8962 42.9799C23.3981 43.417 24.041 43.6581 24.7065 43.6587C24.8347 43.6588 24.9626 43.6501 25.0895 43.6327C25.4487 43.5842 25.7947 43.4649 26.1074 43.2817C26.4201 43.0986 26.6935 42.8552 26.9115 42.5657L28.5475 40.4057C28.9892 39.8225 29.1814 39.0879 29.0821 38.3631C28.9827 37.6383 28.5999 36.9826 28.0175 36.5397ZM15.4635 34.9397C15.233 34.9716 14.9981 34.9345 14.7887 34.8329C14.5792 34.7314 14.4046 34.57 14.2869 34.3692C14.1691 34.1684 14.1136 33.9372 14.1272 33.7048C14.1409 33.4725 14.2231 33.2494 14.3635 33.0637L14.9635 32.2637C15.152 32.0148 15.4316 31.851 15.7408 31.8082C16.0501 31.7655 16.3636 31.8473 16.6125 32.0357C16.8614 32.2242 17.0253 32.5038 17.0681 32.813C17.1108 33.1223 17.029 33.4358 16.8405 33.6847L16.2405 34.4847C16.1472 34.6076 16.0305 34.7108 15.8972 34.7883C15.7638 34.8659 15.6165 34.9163 15.4635 34.9367V34.9397ZM17.7295 37.0877C17.6063 36.9944 17.5026 36.8778 17.4244 36.7444C17.3463 36.611 17.2951 36.4636 17.274 36.3105C17.2528 36.1573 17.262 36.0015 17.301 35.852C17.3401 35.7024 17.4082 35.562 17.5015 35.4387L18.1015 34.6387L18.6335 33.9387C18.8247 33.6976 19.1026 33.541 19.4078 33.5023C19.713 33.4636 20.0213 33.5459 20.2665 33.7317C20.5118 33.9175 20.6745 34.1919 20.72 34.4962C20.7654 34.8005 20.6898 35.1104 20.5095 35.3597L19.3745 36.8597C19.1856 37.1068 18.9066 37.2691 18.5984 37.3113C18.2902 37.3534 17.9779 37.272 17.7295 37.0847V37.0877ZM20.8675 39.4637C20.7443 39.3704 20.6406 39.2538 20.5624 39.1204C20.4843 38.987 20.4331 38.8396 20.412 38.6865C20.3908 38.5333 20.4 38.3775 20.439 38.228C20.4781 38.0784 20.5462 37.938 20.6395 37.8147L21.7745 36.3147L22.1865 35.7707C22.375 35.5218 22.6546 35.358 22.9638 35.3152C23.2731 35.2725 23.5866 35.3543 23.8355 35.5427C24.0844 35.7312 24.2483 36.0108 24.2911 36.32C24.3338 36.6293 24.252 36.9428 24.0635 37.1917L22.5165 39.2337C22.328 39.4824 22.0484 39.6461 21.7392 39.6889C21.43 39.7316 21.1165 39.6499 20.8675 39.4617V39.4637ZM27.2905 39.4517L25.6545 41.6117C25.5627 41.7387 25.4464 41.8461 25.3124 41.9276C25.1785 42.009 25.0297 42.0629 24.8746 42.086C24.7196 42.1092 24.5615 42.1011 24.4096 42.0623C24.2577 42.0235 24.1151 41.9548 23.9902 41.8602C23.8652 41.7655 23.7604 41.6469 23.682 41.5112C23.6035 41.3755 23.5529 41.2255 23.5332 41.07C23.5135 40.9145 23.525 40.7566 23.5672 40.6056C23.6093 40.4546 23.6812 40.3136 23.7785 40.1907L25.3255 38.1487L25.4145 38.0317C25.5064 37.9047 25.6227 37.7973 25.7566 37.7159C25.8906 37.6344 26.0394 37.5806 26.1945 37.5574C26.3495 37.5343 26.5076 37.5423 26.6595 37.5811C26.8113 37.6199 26.9539 37.6887 27.0789 37.7833C27.2038 37.8779 27.3086 37.9966 27.3871 38.1323C27.4656 38.268 27.5162 38.418 27.5359 38.5735C27.5556 38.729 27.544 38.8869 27.5019 39.0379C27.4598 39.1889 27.3879 39.3299 27.2905 39.4527V39.4517Z" fill="white"/>
<path d="M55.0007 32.2098C54.975 32.0016 54.8676 31.8121 54.7022 31.6831C54.5368 31.5541 54.3269 31.4961 54.1187 31.5218L48.0237 32.2718C47.6788 32.3142 47.3312 32.2179 47.0573 32.0041C46.7833 31.7904 46.6054 31.4766 46.5627 31.1318L46.5007 30.6248L46.4867 30.5068L44.4707 14.1298C44.4496 13.959 44.4623 13.7857 44.5082 13.6198C44.554 13.454 44.6321 13.2988 44.738 13.1631C44.8439 13.0274 44.9754 12.9139 45.1252 12.8291C45.2749 12.7443 45.4399 12.6898 45.6107 12.6688L51.7057 11.9188C51.81 11.9076 51.911 11.8757 52.0029 11.8251C52.0947 11.7745 52.1756 11.7061 52.2408 11.6239C52.306 11.5418 52.3542 11.4474 52.3826 11.3465C52.411 11.2455 52.419 11.1399 52.4062 11.0358C52.3934 10.9317 52.36 10.8312 52.308 10.7401C52.256 10.649 52.1864 10.5692 52.1033 10.5053C52.0201 10.4413 51.9251 10.3946 51.8237 10.3677C51.7223 10.3408 51.6166 10.3344 51.5127 10.3488L45.4177 11.0988C44.7049 11.1882 44.0507 11.5391 43.5818 12.0834C43.1129 12.6276 42.8627 13.3266 42.8797 14.0448L41.3427 14.2338L36.5837 11.5558C35.9128 11.1768 35.1419 11.0121 34.3747 11.0838L32.9417 11.2158C32.8369 11.2236 32.7348 11.2523 32.6412 11.3C32.5477 11.3478 32.4645 11.4137 32.3967 11.4939C32.3289 11.5741 32.2777 11.6671 32.2462 11.7673C32.2147 11.8675 32.2035 11.973 32.2131 12.0776C32.2228 12.1822 32.2533 12.2838 32.3027 12.3765C32.3521 12.4692 32.4195 12.5512 32.5009 12.6176C32.5823 12.684 32.6761 12.7335 32.7769 12.7632C32.8776 12.7929 32.9833 12.8023 33.0877 12.7908L34.5247 12.6578C34.972 12.6158 35.4215 12.7117 35.8127 12.9328L40.7477 15.7098C40.9046 15.8133 41.0932 15.8576 41.2797 15.8348L43.0647 15.6148L44.3737 26.2508L44.8267 29.9288H41.9797C41.7903 29.9289 41.6072 29.997 41.4637 30.1208L41.2437 30.2918L34.0957 24.1308C35.9553 23.5012 37.5772 22.3167 38.7427 20.7368C38.8753 20.5741 38.9379 20.3653 38.9166 20.1565C38.8953 19.9477 38.7919 19.7559 38.6292 19.6233C38.4665 19.4907 38.2578 19.4281 38.0489 19.4494C37.8401 19.4707 37.6483 19.5741 37.5157 19.7368C35.8887 21.7368 34.1767 22.7638 32.4297 22.7948C30.736 22.7087 29.144 21.9606 27.9967 20.7118C27.92 20.6229 27.8244 20.5522 27.7169 20.5048C27.6094 20.4575 27.4928 20.4346 27.3754 20.438C27.258 20.4413 27.1428 20.4708 27.0382 20.5242C26.9336 20.5776 26.8423 20.6536 26.7707 20.7468L24.6457 23.5118C24.1069 24.2196 23.3532 24.7338 22.4976 24.9773C21.642 25.2209 20.7305 25.1807 19.8997 24.8628L19.6727 24.7768C19.6008 24.7497 19.5358 24.7073 19.482 24.6525C19.4282 24.5977 19.387 24.5318 19.3613 24.4594C19.3356 24.3871 19.326 24.31 19.3332 24.2335C19.3403 24.1571 19.364 24.0831 19.4027 24.0168L24.9487 14.4708C25.126 14.1661 25.3735 13.9082 25.6706 13.7185C25.9677 13.5287 26.3057 13.4126 26.6567 13.3798L29.9407 13.0798C30.0455 13.0719 30.1476 13.0433 30.2412 12.9955C30.3348 12.9478 30.4179 12.8819 30.4857 12.8016C30.5535 12.7214 30.6047 12.6285 30.6362 12.5283C30.6677 12.4281 30.679 12.3226 30.6693 12.218C30.6596 12.1134 30.6291 12.0117 30.5797 11.919C30.5303 11.8263 30.463 11.7444 30.3815 11.678C30.3001 11.6116 30.2063 11.5621 30.1055 11.5323C30.0048 11.5026 29.8991 11.4932 29.7947 11.5048L26.5107 11.8048C25.9084 11.861 25.3283 12.0602 24.8185 12.3858C24.3087 12.7114 23.884 13.154 23.5797 13.6768L18.0337 23.2228C17.8785 23.4876 17.783 23.7831 17.7537 24.0886C17.7245 24.3942 17.7623 24.7024 17.8644 24.9919C17.9666 25.2813 18.1307 25.545 18.3452 25.7645C18.5598 25.984 18.8197 26.154 19.1067 26.2628L19.3337 26.3488C19.9851 26.596 20.676 26.7231 21.3727 26.7238C22.2479 26.7232 23.1111 26.5206 23.8953 26.1319C24.6794 25.7432 25.3633 25.1789 25.8937 24.4828L27.4787 22.4198C28.7193 23.5277 30.281 24.2109 31.9367 24.3698L42.2667 33.2698C42.4515 33.4281 42.5658 33.6534 42.5846 33.8961C42.6033 34.1387 42.525 34.3789 42.3667 34.5638L41.9667 35.0308C41.7227 35.3122 41.3771 35.4854 41.0057 35.5126C40.6342 35.5398 40.2671 35.4187 39.9847 35.1758C39.9533 35.1485 39.9199 35.1238 39.8847 35.1018L37.2027 32.7898C37.1239 32.7219 37.0325 32.6703 36.9338 32.6378C36.835 32.6053 36.7308 32.5925 36.6272 32.6003C36.5235 32.608 36.4223 32.6361 36.3295 32.683C36.2367 32.7298 36.154 32.7945 36.0862 32.8733C36.0184 32.9521 35.9667 33.0434 35.9342 33.1422C35.9017 33.2409 35.889 33.3451 35.8967 33.4488C35.9045 33.5525 35.9326 33.6536 35.9794 33.7464C36.0262 33.8393 36.0909 33.9219 36.1697 33.9898L38.3487 35.8688L37.3547 37.0228C37.2346 37.163 37.0879 37.278 36.9231 37.3613C36.7583 37.4445 36.5787 37.4944 36.3946 37.508C36.2105 37.5215 36.0255 37.4985 35.8503 37.4403C35.6751 37.3821 35.5131 37.2898 35.3737 37.1688L35.3617 37.1598L32.8697 35.0118C32.7909 34.9439 32.6995 34.8923 32.6008 34.8598C32.502 34.8273 32.3978 34.8145 32.2942 34.8223C32.1905 34.83 32.0893 34.8581 31.9965 34.905C31.9037 34.9518 31.821 35.0165 31.7532 35.0953C31.6854 35.1741 31.6337 35.2654 31.6012 35.3642C31.5687 35.4629 31.556 35.5671 31.5637 35.6708C31.5715 35.7745 31.5996 35.8756 31.6464 35.9684C31.6932 36.0613 31.7579 36.1439 31.8367 36.2118L33.7367 37.8538L32.7367 39.0148C32.5865 39.1891 32.3958 39.3239 32.1814 39.4075C31.9669 39.491 31.7353 39.5206 31.5067 39.4938C31.4028 39.4801 31.2973 39.4872 31.1962 39.5147C31.095 39.5422 31.0004 39.5895 30.9177 39.6538C30.835 39.7182 30.766 39.7983 30.7145 39.8896C30.6631 39.9809 30.6303 40.0815 30.618 40.1855C30.6058 40.2896 30.6143 40.395 30.6431 40.4958C30.672 40.5965 30.7205 40.6905 30.786 40.7723C30.8515 40.8541 30.9325 40.9221 31.0245 40.9723C31.1165 41.0225 31.2175 41.0539 31.3217 41.0648C31.8074 41.1222 32.2997 41.0595 32.7555 40.8822C33.2113 40.7049 33.6165 40.4183 33.9357 40.0478L35.0007 38.8008C35.5918 39.0817 36.2589 39.1606 36.8993 39.0253C37.5397 38.8899 38.1178 38.5479 38.5447 38.0518L39.6157 36.8088C40.2067 37.0883 40.873 37.1667 41.5127 37.032C42.1525 36.8973 42.7306 36.5569 43.1587 36.0628L43.5587 35.5948C43.9913 35.0925 44.2066 34.439 44.1575 33.778C44.1084 33.117 43.7988 32.5026 43.2967 32.0698L42.6477 31.5098H45.0207C45.1478 32.1702 45.5005 32.7659 46.0184 33.195C46.5363 33.624 47.1872 33.8597 47.8597 33.8618C47.9784 33.8616 48.0969 33.8543 48.2147 33.8398L54.3097 33.0898C54.4129 33.0774 54.5126 33.0448 54.6031 32.9939C54.6937 32.9429 54.7733 32.8746 54.8375 32.7929C54.9017 32.7112 54.9491 32.6176 54.9771 32.5176C55.0051 32.4175 55.0131 32.3129 55.0007 32.2098Z" fill="white"/>
<path d="M49.945 26.501C49.4861 26.501 49.0376 26.637 48.6561 26.892C48.2746 27.1469 47.9772 27.5092 47.8016 27.9332C47.626 28.3571 47.5801 28.8236 47.6696 29.2736C47.7591 29.7236 47.9801 30.137 48.3045 30.4615C48.629 30.7859 49.0424 31.0069 49.4924 31.0964C49.9424 31.1859 50.4089 31.14 50.8328 30.9644C51.2568 30.7888 51.6191 30.4914 51.874 30.1099C52.1289 29.7284 52.265 29.2798 52.265 28.821C52.2642 28.2059 52.0195 27.6163 51.5846 27.1814C51.1497 26.7465 50.5601 26.5018 49.945 26.501ZM49.945 29.559C49.799 29.559 49.6564 29.5157 49.535 29.4346C49.4136 29.3535 49.319 29.2382 49.2632 29.1034C49.2073 28.9685 49.1927 28.8202 49.2212 28.677C49.2497 28.5338 49.3199 28.4023 49.4232 28.2991C49.5264 28.1959 49.6579 28.1256 49.801 28.0972C49.9442 28.0687 50.0926 28.0833 50.2274 28.1392C50.3623 28.195 50.4775 28.2896 50.5586 28.411C50.6397 28.5323 50.683 28.675 50.683 28.821C50.6825 29.0165 50.6045 29.2038 50.4662 29.3419C50.3279 29.48 50.1405 29.5577 49.945 29.558V29.559Z" fill="white"/>
<path d="M8.30699 28.82C8.30699 28.3611 8.17093 27.9126 7.916 27.5311C7.66108 27.1496 7.29874 26.8522 6.87482 26.6766C6.45089 26.501 5.98442 26.4551 5.53438 26.5446C5.08435 26.6341 4.67096 26.8551 4.34651 27.1795C4.02205 27.504 3.80109 27.9174 3.71157 28.3674C3.62205 28.8174 3.668 29.2839 3.84359 29.7078C4.01919 30.1318 4.31655 30.4941 4.69807 30.749C5.07959 31.0039 5.52814 31.14 5.98699 31.14C6.60205 31.1392 7.19169 30.8945 7.6266 30.4596C8.06152 30.0247 8.3062 29.4351 8.30699 28.82ZM5.24899 28.82C5.24899 28.674 5.29228 28.5314 5.37337 28.41C5.45446 28.2886 5.56972 28.194 5.70457 28.1382C5.83943 28.0823 5.98781 28.0677 6.13097 28.0962C6.27413 28.1247 6.40563 28.1949 6.50884 28.2982C6.61205 28.4014 6.68234 28.5329 6.71081 28.676C6.73929 28.8192 6.72467 28.9676 6.66882 29.1024C6.61296 29.2373 6.51837 29.3525 6.397 29.4336C6.27564 29.5147 6.13296 29.558 5.98699 29.558C5.88986 29.5583 5.79363 29.5394 5.70381 29.5024C5.61398 29.4655 5.53232 29.4112 5.4635 29.3426C5.39468 29.2741 5.34005 29.1926 5.30272 29.103C5.2654 29.0133 5.24612 28.9171 5.24599 28.82H5.24899Z" fill="white"/>
</svg>
