<svg width="25" height="25" viewBox="0 0 25 25" fill="none" xmlns="http://www.w3.org/2000/svg">
<g clip-path="url(#clip0)">
<path d="M22.7677 22.3215C23.3296 22.3215 23.8166 22.1359 24.2305 21.7695L17.1476 14.6864C16.9777 14.808 16.813 14.9264 16.6574 15.0389C16.1273 15.4294 15.6971 15.7342 15.3668 15.9525C15.0365 16.1714 14.597 16.3945 14.0485 16.6222C13.4995 16.8503 12.9881 16.9639 12.5137 16.9639H12.4998H12.486C12.0115 16.9639 11.5001 16.8503 10.9512 16.6222C10.4023 16.3945 9.96288 16.1714 9.6329 15.9525C9.3026 15.7342 8.87263 15.4295 8.34231 15.0389C8.19452 14.9305 8.03062 14.8117 7.85343 14.6844L0.769165 21.7695C1.18307 22.1359 1.67032 22.3215 2.23223 22.3215H22.7677Z" fill="white"/>
<path d="M1.40919 10.2261C0.879184 9.87274 0.409181 9.46805 0 9.01221V19.7887L6.24284 13.5458C4.99392 12.6739 3.38474 11.5686 1.40919 10.2261Z" fill="white"/>
<path d="M23.605 10.2261C21.7047 11.5122 20.0897 12.6194 18.7597 13.5483L25 19.7889V9.01221C24.5999 9.45888 24.135 9.86329 23.605 10.2261Z" fill="white"/>
<path d="M22.7681 2.67853H2.23273C1.51631 2.67853 0.96552 2.92045 0.579668 3.4038C0.193499 3.88737 0.000732422 4.49213 0.000732422 5.2174C0.000732422 5.80324 0.256544 6.438 0.767942 7.12188C1.27934 7.80548 1.82351 8.34243 2.40017 8.733C2.71631 8.95636 3.66966 9.61913 5.26022 10.7211C6.11884 11.3161 6.86554 11.8347 7.5072 12.2822C8.05414 12.6633 8.52582 12.9933 8.91526 13.2672C8.95996 13.2986 9.03027 13.3489 9.12359 13.4156C9.22413 13.4878 9.35135 13.5795 9.50831 13.6928C9.81055 13.9114 10.0616 14.0881 10.2616 14.2231C10.4613 14.3581 10.7033 14.5089 10.9872 14.6764C11.2708 14.8437 11.5383 14.9694 11.7894 15.0531C12.0406 15.1367 12.273 15.1786 12.4869 15.1786H12.5008H12.5147C12.7285 15.1786 12.961 15.1367 13.2122 15.0531C13.4633 14.9694 13.7306 14.8439 14.0144 14.6764C14.298 14.5089 14.5397 14.3578 14.74 14.2231C14.94 14.0881 15.1911 13.9114 15.4934 13.6928C15.65 13.5795 15.7772 13.4878 15.8778 13.4158C15.9711 13.3488 16.0414 13.2989 16.0864 13.2672C16.3898 13.0561 16.8625 12.7275 17.4982 12.2861C18.6548 11.4825 20.3581 10.2997 22.6154 8.733C23.2943 8.25883 23.8615 7.68661 24.3173 7.01717C24.7723 6.34772 25.0005 5.64551 25.0005 4.91076C25.0005 4.29687 24.7793 3.77158 24.3379 3.33408C23.896 2.89712 23.3727 2.67853 22.7681 2.67853Z" fill="white"/>
</g>
<defs>
<clipPath id="clip0">
<rect width="25" height="25" fill="white"/>
</clipPath>
</defs>
</svg>
