<svg width="19" height="19" viewBox="0 0 19 19" fill="none" xmlns="http://www.w3.org/2000/svg">
<path d="M17.0135 11.7091L15.5793 10.3038L9.12618 3.98063C8.5495 3.42418 7.77901 3.11386 6.97764 3.11527C6.17628 3.11669 5.40689 3.42975 4.83218 3.98823C4.5509 4.2614 4.32715 4.5881 4.17409 4.94909C4.02104 5.31008 3.94179 5.69805 3.94101 6.09015C3.94023 6.48224 4.01794 6.87052 4.16956 7.23212C4.32117 7.59371 4.54363 7.9213 4.82382 8.19559L11.277 14.5203C11.4048 14.6452 11.5764 14.7151 11.755 14.7151C11.9337 14.7151 12.1053 14.6452 12.2331 14.5203C12.2958 14.4595 12.3456 14.3866 12.3797 14.3061C12.4137 14.2257 12.4313 14.1392 12.4313 14.0518C12.4313 13.9644 12.4137 13.8779 12.3797 13.7974C12.3456 13.7169 12.2958 13.6441 12.2331 13.5832L5.7799 7.25927C5.62333 7.10712 5.49886 6.92511 5.41387 6.72401C5.32887 6.52292 5.28508 6.30681 5.28508 6.08849C5.28508 5.87017 5.32887 5.65406 5.41387 5.45296C5.49886 5.25186 5.62333 5.06986 5.7799 4.91771C6.09994 4.6066 6.52867 4.43256 6.975 4.43256C7.42133 4.43256 7.85007 4.6066 8.1701 4.91771L14.6255 11.2409L16.0597 12.6461C16.3417 12.9201 16.5659 13.2478 16.719 13.6099C16.8721 13.9721 16.951 14.3612 16.951 14.7544C16.951 15.1476 16.8721 15.5367 16.719 15.8988C16.5659 16.261 16.3417 16.5887 16.0597 16.8626C15.4835 17.4226 14.7116 17.7359 13.9081 17.7359C13.1046 17.7359 12.3328 17.4226 11.7565 16.8626L10.5618 15.6915L3.86774 9.13267L3.3897 8.66375C2.99282 8.26581 2.67893 7.79301 2.46622 7.27279C2.25352 6.75257 2.14625 6.19529 2.15063 5.63328C2.15502 5.07127 2.27097 4.51573 2.49176 3.9989C2.71255 3.48206 3.03379 3.01421 3.43682 2.62251C4.26085 1.82198 5.36202 1.37033 6.51084 1.36169C7.65966 1.35306 8.7675 1.7881 9.60346 2.57615L16.7748 9.60159C16.8596 9.6841 16.9643 9.74324 17.0787 9.77321C17.1931 9.80318 17.3133 9.80297 17.4277 9.77259C17.5414 9.74333 17.6454 9.68468 17.7294 9.6025C17.8133 9.52033 17.8741 9.41753 17.9057 9.30443C17.9363 9.19187 17.9363 9.07317 17.9055 8.96064C17.8748 8.84812 17.8145 8.74587 17.7309 8.66451L10.5603 1.63907C9.47127 0.585539 8.0149 -0.00267522 6.49967 -0.000972878C4.98445 0.000729462 3.5294 0.592214 2.44274 1.64819C1.9107 2.16458 1.48756 2.78238 1.19833 3.46508C0.909099 4.14778 0.759643 4.88152 0.758793 5.62296C0.757943 6.3644 0.905716 7.09849 1.19338 7.78185C1.48105 8.46521 1.90277 9.08397 2.43362 9.60159L9.60422 16.627L10.8012 17.7982C11.6385 18.5812 12.7451 19.0117 13.8914 19.0004C15.0377 18.9891 16.1356 18.5368 16.9572 17.7374C17.3589 17.3465 17.6792 16.8799 17.8996 16.3646C18.1201 15.8493 18.2362 15.2954 18.2415 14.7349C18.2467 14.1745 18.1409 13.6185 17.9301 13.0992C17.7193 12.5798 17.4078 12.1074 17.0135 11.7091Z" fill="white"/>
</svg>
