<svg width="114" height="22" viewBox="0 0 114 22" fill="none" xmlns="http://www.w3.org/2000/svg">
<path d="M11.6176 8.12779C11.6176 10.8674 10.3599 12.7228 7.17458 12.7228H6.16808V3.99787C6.5259 3.97657 6.86007 3.97657 7.17458 3.97657C10.1906 3.97627 11.6176 5.47794 11.6176 8.12779ZM8.34801 16.5218C14.0474 16.5218 17.6509 13.4287 17.6509 8.04046C17.6506 2.11987 13.7956 0 7.50988 0C5.07897 0 2.14553 0.176156 0.0507812 0.44114V21.5589H6.16837V16.5218H8.34801ZM90.3141 8.12779C90.3141 10.8674 89.0581 12.7228 85.8719 12.7228H84.8688V3.99787C85.2235 3.97657 85.5583 3.97657 85.8719 3.97657C88.8883 3.97627 90.3141 5.47794 90.3141 8.12779ZM87.0482 16.5218C92.743 16.5218 96.3485 13.4287 96.3485 8.04046C96.3485 2.11987 92.494 0 86.2078 0C83.7775 0 80.8423 0.176156 78.7473 0.44114V21.5589H84.868V16.5218H87.0482ZM104.309 5.83056C104.309 4.68239 105.4 4.15152 107.158 4.15152C109.087 4.15152 111.184 4.59356 112.607 5.21446L112.105 0.618497C110.511 0.264984 109.087 0 106.49 0C101.544 0 98.1928 2.05505 98.1928 6.36232C98.1928 13.7822 107.749 12.2814 107.749 15.7271C107.749 17.0511 106.825 17.7576 104.561 17.7576C102.553 17.7576 99.4497 17.0511 97.6063 16.0797L98.2786 20.9407C100.121 21.6474 102.635 21.9997 104.647 21.9997C109.758 21.9997 113.949 20.2321 113.949 14.9301C113.949 7.8643 104.309 9.18832 104.309 5.83056ZM74.1396 0.44114H68.022V21.5589H74.1396V0.44114ZM49.3311 0.44114H43.2129V21.5589H49.3311V0.44114ZM59.9749 17.3164V0.44114H53.8567V21.5589H64.9207L65.8418 17.3164H59.9749ZM38.6875 0.44114H32.5694V8.83481H26.1997V0.44114H20.0804V21.5589H26.1994V13.2525H32.5691V21.5589H38.6872L38.6875 0.44114Z" fill="white"/>
</svg>
