<svg id="Слой_1" data-name="Слой 1" xmlns="http://www.w3.org/2000/svg" viewBox="0 0 17 16.9615">
  <title>phone</title>
  <path d="M16.6189,13.4353,13.9935,10.81a1.3689,1.3689,0,0,0-1.93.0364l-1.3227,1.3223c-.0835-.046-.17-.0941-.261-.1452A13.1646,13.1646,0,0,1,7.2983,9.7222,13.2357,13.2357,0,0,1,4.9927,6.535c-.049-.0885-.096-.1739-.1423-.255l.8877-.8864.4364-.4369a1.3677,1.3677,0,0,0,.0352-1.93L3.5844.4005a1.3676,1.3676,0,0,0-1.93.0363l-.74.7442.02.02a4.28,4.28,0,0,0-.61,1.0754A4.4608,4.4608,0,0,0,.0536,3.3674C-.293,6.2413,1.02,8.8679,4.5844,12.432c4.9267,4.9264,8.897,4.5542,9.0683,4.5361a4.436,4.436,0,0,0,1.0938-.2748,4.2661,4.2661,0,0,0,1.0716-.6071l.0162.0143.75-.734A1.37,1.37,0,0,0,16.6189,13.4353Z" transform="translate(0 -0.0195)" style="fill: #fdc830"/>
</svg>
