<svg width="84" height="14" viewBox="0 0 84 14" fill="none" xmlns="http://www.w3.org/2000/svg">
<path fill-rule="evenodd" clip-rule="evenodd" d="M46.0193 6.56662C46.0193 6.56662 45.2105 6.0665 44.7104 5.87299C44.7104 5.87299 43.1624 5.15551 42.8552 4.81414C42.8552 4.81414 42.2519 4.24555 42.6052 3.58513C42.6052 3.58513 42.753 3.15297 43.3906 3.15297C43.3906 3.15297 44.2207 3.19863 44.2207 3.88084V4.84319H47.1954L47.1902 3.42586C47.1902 3.42586 47.419 1.10479 43.6863 1.00259C43.6863 1.00259 40.7505 0.809596 39.9085 2.39087C39.9085 2.39087 39.578 2.74365 39.578 3.97214V4.85979C39.578 4.85979 39.5443 5.88389 40.0673 6.54379C40.0673 6.54379 40.363 6.97646 41.0913 7.45375C41.0913 7.45375 42.5704 8.25009 43.4581 8.70611C43.4581 8.70611 44.354 9.21764 44.2363 10.0316C44.2363 10.0316 44.1631 10.8674 43.2978 10.8331C43.2978 10.8331 42.5066 10.7979 42.5066 9.97818V9.01634H39.3368V10.4134C39.3368 10.4134 39.2481 13.0852 43.3211 13.0852C43.3211 13.0852 47.2131 13.1641 47.3946 10.3434V9.2057C47.3941 9.2057 47.5321 7.47709 46.0193 6.56662ZM30.7897 1.33513L29.7936 7.57722H29.5607L28.6093 1.39116H23.6403L23.3913 12.6951H26.3333L26.3686 4.17811H26.6L28.1595 12.6935H31.2546L32.7948 4.18122H32.9998L33.0708 12.6951H36.0285L35.7099 1.33513H30.7897ZM13.2764 1.38234L11.319 12.6821H14.4862L15.6457 3.92078H15.9062L17.0651 12.6821H20.2318L18.2749 1.38234H13.2764ZM79.7345 6.41098V8.07785H80.5469V9.86716C80.5469 10.7418 79.7993 10.7579 79.7993 10.7579C78.8904 10.7579 78.9246 9.92682 78.9246 9.92682V3.73765C78.9246 3.10006 79.7314 3.06582 79.7314 3.06582C80.5054 3.06582 80.5106 3.82637 80.5106 3.82637V4.76745H83.4926C83.5901 2.93041 83.2239 2.48581 83.2239 2.48581C82.4841 0.824644 79.6857 0.915432 79.6857 0.915432C75.3855 0.915432 75.8627 4.21494 75.8627 4.21494V10.1992C75.9551 13.2938 80.1926 12.9794 80.2642 12.9768C82.1489 12.7682 82.718 12.169 82.718 12.169C83.242 11.7799 83.3769 11.2409 83.3769 11.2409C83.5268 10.927 83.5642 9.92682 83.5642 9.92682V6.41098H79.7345ZM69.85 8.25009H69.7203L66.6942 1.33824H63.0735V12.6961H66.0203L65.8439 5.78532H65.9756L69.1107 12.6961H72.6213V1.33721H69.6373L69.85 8.25009ZM55.8805 9.86612C55.8805 9.86612 55.923 10.7984 55.0587 10.7984C55.0587 10.7984 54.1498 10.8472 54.1498 9.88947L54.1405 1.34499H50.9084V9.82151C50.9084 9.82151 50.5769 13.0297 55.1044 13.0297C55.1044 13.0297 59.0389 13.0764 59.0389 9.96884V1.34551H55.8805V9.86612ZM7.11473 6.56662C7.11473 6.56662 6.30697 6.0665 5.80634 5.87351C5.80634 5.87351 4.25931 5.15654 3.95218 4.81466C3.95218 4.81466 3.34883 4.24503 3.70265 3.58616C3.70265 3.58616 3.84998 3.15401 4.48706 3.15401C4.48706 3.15401 5.31764 3.19915 5.31764 3.88135V4.84371H8.29342L8.28771 3.42586C8.28771 3.42586 8.51495 1.10479 4.7838 1.00311C4.7838 1.00311 4.50262 0.984948 4.09018 1.0057C4.09018 1.0057 1.82981 1.1271 1.02154 2.36701C1.01687 2.37634 1.01012 2.38309 1.00546 2.39139C1.00546 2.39139 0.675505 2.74365 0.675505 3.97266V4.86031C0.675505 4.86031 0.641265 5.88441 1.16472 6.54431C1.16472 6.54431 1.46044 6.97698 2.18882 7.45427C2.18882 7.45427 3.66737 8.25061 4.55502 8.70663C4.55502 8.70663 5.45201 9.21712 5.3332 10.0321C5.3332 10.0321 5.26005 10.8679 4.39523 10.8337C4.39523 10.8337 3.60408 10.7984 3.60408 9.9787V9.01634H0.433748V10.4145C0.433748 10.4145 0.345035 13.0863 4.41806 13.0863C4.41806 13.0863 8.30899 13.1651 8.49212 10.3444V9.20778C8.49212 9.20674 8.62804 7.47709 7.11473 6.56662Z" fill="white"/>
</svg>
