<svg id="Слой_1" data-name="Слой 1" xmlns="http://www.w3.org/2000/svg" xmlns:xlink="http://www.w3.org/1999/xlink" viewBox="0 0 28.0001 26.1335">
  <defs>
    <linearGradient id="Безымянный_градиент" data-name="Безымянный градиент" x1="16.6533" y1="3.356" x2="10.6983" y2="7.8716" gradientTransform="matrix(1, 0, 0, -1, 0, 29.9149)" gradientUnits="userSpaceOnUse">
      <stop offset="0" stop-color="#fdc830"/>
      <stop offset="1" stop-color="#f37335"/>
    </linearGradient>
    <linearGradient id="Безымянный_градиент_2" data-name="Безымянный градиент 2" x1="28.3529" y1="5.5014" x2="6.1581" y2="32.893" xlink:href="#Безымянный_градиент"/>
  </defs>
  <title>send</title>
  <path d="M11.6106,20.84v5.324a.8611.8611,0,0,0,.5952.8175.8668.8668,0,0,0,.9659-.308L16.3,22.436Z" transform="translate(-1.3829 -0.8911)" style="fill: url(#Безымянный_градиент)"/>
  <path d="M29.0159,1.0487a.8963.8963,0,0,0-.9127-.061L1.8508,14.315a.8431.8431,0,0,0,.1216,1.5584l7.2982,2.425L24.8129,5.3814,12.7858,19.4691l12.231,4.0644a.9173.9173,0,0,0,.2827.0453.8981.8981,0,0,0,.455-.1237.8542.8542,0,0,0,.41-.601l3.209-20.9866a.8424.8424,0,0,0-.358-.8188Z" transform="translate(-1.3829 -0.8911)" style="fill: url(#Безымянный_градиент_2)"/>
</svg>
