<svg width="111" height="68" viewBox="0 0 111 68" fill="none" xmlns="http://www.w3.org/2000/svg">
<path d="M45.6127 67.9189C43.8374 67.6727 42.6405 67.0598 41.8714 66.0029C41.2509 65.1504 40.9676 64.057 40.84 62.0223C40.7321 60.3017 40.9183 58.2156 41.2734 57.1684C41.8624 55.4314 43.2254 54.413 45.4072 54.0799C46.6859 53.8847 49.6626 53.9157 50.8498 54.1367C52.8406 54.5072 54.1506 55.5676 54.6742 57.2322C55.3724 59.4522 55.2222 63.8583 54.3937 65.4569C53.7522 66.6949 52.6321 67.4543 50.9038 67.8233C50.2979 67.9527 50.1599 67.9606 48.2104 67.977C46.6792 67.9898 46.0172 67.975 45.6127 67.9189ZM49.9597 64.8707C50.9761 64.552 51.548 63.9268 51.7622 62.9004C51.9612 61.9464 51.973 60.2244 51.7874 59.2056C51.5751 58.0398 50.9257 57.3374 49.8075 57.0641C49.256 56.9293 46.6602 56.9305 46.1058 57.0658C45.0489 57.3238 44.3855 58.0155 44.1581 59.0966C43.9596 60.0403 43.9588 61.8008 44.1564 62.8511C44.3542 63.9028 44.9668 64.5836 45.9635 64.8597C46.4306 64.989 46.4985 64.9928 48.1271 64.9792C49.4062 64.9685 49.7039 64.9509 49.9597 64.8707ZM86.6407 67.964C85.4732 67.8258 84.7165 67.6219 83.975 67.2456C83.5796 67.045 83.3705 66.8896 82.9736 66.5017C82.2232 65.768 81.8912 65.0747 81.675 63.7897C81.3896 62.0936 81.3791 60.1191 81.646 58.3559C81.8152 57.2377 82.096 56.5047 82.6105 55.8378C82.9909 55.3448 83.4761 54.9687 84.1416 54.6511C85.1809 54.1551 86.0233 54.0053 88.0291 53.9595C90.1931 53.9101 91.4753 54.0426 92.5459 54.4262C94.3416 55.0695 95.2571 56.2642 95.578 58.3826C95.8796 60.3748 95.7777 63.2288 95.3536 64.6646C94.8884 66.2397 93.7533 67.2668 91.9721 67.7244C91.1174 67.9439 90.3901 68.0006 88.5399 67.9919C87.587 67.9874 86.7323 67.9748 86.6407 67.964ZM90.6115 64.8699C92.1406 64.3864 92.6086 63.3727 92.5372 60.6988C92.5203 60.0642 92.4716 59.3986 92.4245 59.1576C92.2049 58.0335 91.5458 57.3292 90.4669 57.0658C89.9125 56.9305 87.3167 56.9293 86.7652 57.0641C85.8401 57.2902 85.27 57.7806 84.9392 58.6351C84.5651 59.6011 84.5721 62.4006 84.9512 63.3945C85.2383 64.1475 85.7861 64.63 86.6146 64.8595C87.0825 64.989 87.1498 64.9928 88.7788 64.9792C90.0642 64.9685 90.3544 64.9511 90.6115 64.8699ZM20.7205 67.8306C17.5125 67.5936 15.8681 66.6156 15.4663 64.7052C15.1948 63.4147 15.4546 62.2256 16.1749 61.4624C17.0764 60.5069 18.4791 60.0494 22.0264 59.5537C24.375 59.2256 24.91 59.1046 25.4914 58.7704C25.971 58.4946 26.136 57.9497 25.8679 57.5267C25.7049 57.2694 25.2168 57.0271 24.6079 56.9011C23.8937 56.7533 21.5122 56.7703 20.2762 56.9319C19.3762 57.0495 17.9076 57.2844 17.0413 57.4493L16.6386 57.5259V54.6606L17.1523 54.544C18.9374 54.1386 21.0542 53.8879 22.6922 53.8879C26.5853 53.8879 28.5723 54.82 29.2398 56.9592C29.4384 57.5954 29.4788 58.4298 29.4522 61.3388C29.4257 64.2186 29.4153 64.3413 29.1341 65.0743C28.9479 65.5596 28.5003 66.1731 28.0906 66.5047C26.914 67.4569 25.053 67.9038 22.3492 67.8834C21.7894 67.8792 21.0565 67.8554 20.7205 67.8306V67.8306ZM24.2438 64.8687C25.2154 64.6519 25.867 64.2259 26.1416 63.6281C26.2627 63.3644 26.2747 63.2574 26.2917 62.2933L26.3103 61.2451L25.9033 61.4329C25.1374 61.7866 24.0132 62.0458 21.7641 62.3875C20.1525 62.6325 19.5818 62.7684 19.2201 62.9934C18.9328 63.1722 18.8045 63.4058 18.8045 63.7501C18.8045 64.3882 19.2943 64.745 20.4145 64.9232C21.102 65.0325 23.6738 64.996 24.2438 64.8687ZM4.86519 67.7776C3.61276 67.6842 1.70379 67.381 0.672281 67.1119L0.394605 67.0395L0.379833 65.531C0.368948 64.4184 0.381888 64.0225 0.429259 64.0225C0.464524 64.0225 0.733592 64.0952 1.0271 64.184C2.85137 64.736 4.86691 65.0036 7.19272 65.0028C10.0405 65.0019 10.9191 64.7109 10.9183 63.7691C10.9177 63.0056 10.3893 62.8091 7.50311 62.4988C5.85143 62.3212 4.52809 62.1272 3.75448 61.9493C1.91649 61.5266 0.846162 60.8785 0.34268 59.8835C0.0482882 59.3016 0.00585938 59.075 0.00585938 58.0835C0.00585938 57.2784 0.0199653 57.1425 0.140643 56.783C0.625076 55.3395 1.98658 54.4811 4.3376 54.1368C6.78892 53.7779 11.3707 54.0088 13.487 54.598L13.6953 54.6559V56.1031C13.6953 57.4593 13.6892 57.5479 13.5981 57.5128C13.5446 57.4923 13.1723 57.3925 12.7707 57.2911C11.1111 56.8721 9.69841 56.7208 7.39203 56.7149C6.46821 56.7125 5.58753 56.7372 5.32652 56.7727C4.09391 56.9405 3.59909 57.2251 3.4833 57.833C3.36785 58.4393 3.65396 58.7909 4.47644 59.0535C5.00702 59.2228 5.58437 59.3124 7.53087 59.5279C10.9842 59.91 12.1408 60.1773 13.1194 60.8196C14.0541 61.4329 14.4333 62.258 14.4286 63.6684C14.4245 64.9032 14.1582 65.5897 13.3924 66.3402C13.0286 66.6967 12.8474 66.8254 12.418 67.0322C11.5946 67.4288 10.6436 67.6555 9.28023 67.7805C8.58232 67.8445 5.73653 67.8426 4.86519 67.7775V67.7776ZM35.6376 67.6151C32.9736 67.3177 31.4494 66.2927 30.9031 64.4311L30.7752 63.9952L30.7577 59.0233L30.7402 54.0514H33.851L33.8672 58.6692C33.8858 63.9727 33.848 63.5899 34.4058 64.1336C34.7457 64.4651 35.1209 64.6613 35.715 64.8185C36.0482 64.9067 36.286 64.9203 37.381 64.9133C38.0835 64.909 38.9683 64.8779 39.3471 64.8446C39.726 64.8112 40.0485 64.7962 40.0639 64.8113C40.0936 64.8404 40.5165 67.2572 40.5179 67.406C40.5186 67.4779 40.3955 67.5042 39.8107 67.5573C38.8627 67.6434 36.2191 67.68 35.6376 67.6151ZM56.2907 63.7287C56.2907 59.801 56.3115 59.2946 56.5211 58.1108C56.7901 56.5916 57.3776 55.6357 58.4737 54.9336C59.0213 54.5829 59.6385 54.3479 60.4836 54.1685C61.1245 54.0324 61.2205 54.0269 62.9827 54.0256C64.5468 54.0244 64.8968 54.0393 65.3707 54.1267C66.4102 54.3185 67.1966 54.628 67.8194 55.0906C68.0184 55.2383 68.193 55.3592 68.2076 55.3592C68.2221 55.3592 68.3635 55.2588 68.5216 55.1361C69.0715 54.7097 69.8969 54.3688 70.9089 54.1503C71.6404 53.9923 74.3237 53.9453 75.3178 54.0731C77.6979 54.3792 79.1401 55.4266 79.715 57.2667C79.8833 57.8056 80.0522 58.9349 80.1142 59.936C80.1448 60.4305 80.1701 62.3491 80.1703 64.1996L80.1709 67.5642H76.9554L76.9342 63.6275C76.9106 59.2444 76.9022 59.1337 76.5357 58.372C76.2004 57.6749 75.6254 57.2571 74.7514 57.0755C74.2365 56.9685 72.5078 56.9667 71.9982 57.0726C71.1762 57.2436 70.5854 57.6669 70.258 58.3194C69.8474 59.1379 69.7862 59.9075 69.786 64.2542V67.5642H66.6205V64.0284C66.6205 60.5127 66.5894 59.729 66.421 59.0098C66.174 57.9545 65.4964 57.2974 64.4269 57.0761C63.9007 56.9673 62.1802 56.9663 61.6593 57.0746C61.1182 57.1871 60.7239 57.3811 60.3708 57.7088C59.9718 58.079 59.7525 58.5298 59.6071 59.2784C59.5032 59.8135 59.4936 60.1279 59.4722 63.7093L59.4492 67.5642H56.291V63.7287H56.2907ZM96.8871 63.7365C96.8871 59.8265 96.914 59.1498 97.1115 58.0433C97.5259 55.7223 98.8759 54.5015 101.496 54.0782C102.685 53.8861 105.544 53.9182 106.718 54.1367C108.743 54.5137 110.062 55.6055 110.567 57.3234C110.915 58.5072 110.993 59.7319 110.993 64.0041V67.5659L109.396 67.5514L107.8 67.537L107.765 63.5595C107.732 59.7227 107.718 59.4101 107.55 58.7889C107.38 58.164 106.906 57.5806 106.336 57.2977C105.892 57.077 105.432 56.9962 104.412 56.9602C103.326 56.9218 102.414 56.9919 101.877 57.1551C101.181 57.3664 100.651 57.867 100.381 58.5681C100.106 59.2808 100.094 59.485 100.069 63.6548L100.046 67.5642H96.8869V63.7365H96.8871ZM34.7153 47.9433C33.5823 47.782 32.5135 47.1983 31.8006 46.3517C31.4538 45.9398 31.0637 45.183 30.8967 44.598L30.7723 44.1621L30.7559 24.3289C30.7442 10.3308 30.7572 4.34347 30.7997 3.97814C31.0247 2.04419 32.4825 0.477911 34.4214 0.086914C34.8075 0.00905241 36.8458 0.000606964 55.1916 0.000988371C68.9894 0.0012608 75.648 0.0196228 75.8891 0.0579815C77.6055 0.331233 79.0606 1.63221 79.5424 3.3243C79.639 3.66359 79.6433 4.53287 79.6433 24.0293V44.3801L79.4599 44.8977C79.2197 45.576 78.9154 46.0706 78.429 46.573C77.8021 47.2208 77.1551 47.6016 76.2556 47.8523L75.8113 47.9762L55.4299 47.9834C44.1087 47.9875 34.9004 47.9696 34.7153 47.9433ZM59.2341 40.92C61.2567 40.8651 62.8965 40.7963 64.5099 40.6988C66.9011 40.5543 70.0403 40.2974 70.4679 40.2112C71.0673 40.0905 71.6143 39.6613 71.875 39.1076L72.035 38.7679V34.1638C72.035 28.9467 72.0491 29.1349 71.5881 28.2313C71.1688 27.4095 70.6814 26.9646 69.4803 26.3071C62.5676 22.523 49.6626 15.3643 49.5243 15.237C49.4224 15.143 49.2725 14.9436 49.1915 14.7938C49.0617 14.5541 49.0439 14.4589 49.0437 14.0037C49.0437 13.5896 49.0672 13.4357 49.1621 13.2342C49.3315 12.8746 49.6392 12.564 49.9602 12.4285C50.2373 12.3116 50.2392 12.3116 54.8052 12.3267L59.3729 12.3419L59.7901 12.508C60.0195 12.5995 61.1566 13.1984 62.3169 13.8392C63.4772 14.4799 64.6016 15.0824 64.8154 15.1782C65.534 15.5 65.5586 15.5021 68.5918 15.5021C71.2928 15.5021 71.3738 15.499 71.5627 15.3902C71.8298 15.2362 71.9933 14.9772 72.0354 14.6411C72.0549 14.4853 72.0619 13.2054 72.0509 11.7969C72.0336 9.55317 72.0195 9.20707 71.9373 9.00187C71.7176 8.45275 71.2036 7.98117 70.6451 7.81624C70.1243 7.66248 66.3605 7.3664 62.3163 7.16109C60.0216 7.0446 53.0194 6.99632 50.4873 7.07958C48.658 7.13968 46.0232 7.26249 45.1559 7.32809C44.9421 7.34428 44.2549 7.39457 43.6287 7.43995C41.5162 7.59295 40.0193 7.74236 39.7843 7.82376C39.2257 8.01713 38.8514 8.33239 38.5927 8.8274L38.4362 9.12708V18.6623L38.6119 19.1554C38.9104 19.9931 39.3596 20.6249 39.9688 21.0636C40.1216 21.1737 44.8623 23.811 50.5038 26.9244C56.1452 30.0377 60.8463 32.664 60.9507 32.7606C61.2704 33.0565 61.4251 33.4596 61.4265 34.0003C61.4276 34.3975 61.4059 34.5072 61.2739 34.7708C61.0708 35.1766 60.7138 35.4951 60.34 35.604C59.9109 35.729 51.6747 35.7312 51.1353 35.6064C50.6195 35.4872 50.2049 35.2826 47.9402 34.0308C46.8142 33.4083 45.7554 32.8394 45.5874 32.7665C44.9433 32.487 44.8049 32.4763 41.8516 32.4764C39.1085 32.4765 39.1021 32.4768 38.8805 32.5984C38.7338 32.6789 38.6154 32.8035 38.5319 32.9653L38.4054 33.2103L38.4208 36.0163L38.4362 38.8224L38.5669 39.1058C38.7287 39.457 39.1951 39.8998 39.5884 40.0758C39.9336 40.2302 40.2599 40.2723 42.518 40.4536C48.1528 40.906 53.8715 41.0656 59.2341 40.92Z" fill="white"/>
</svg>
