<svg width="21" height="21" viewBox="0 0 21 21" fill="none" xmlns="http://www.w3.org/2000/svg">
<path d="M12.6725 4.8591C13.1603 5.15102 13.5742 5.55136 13.8821 6.02906C14.1901 6.50676 14.3837 7.04895 14.448 7.61356C14.8565 7.80112 15.3005 7.89873 15.75 7.89979C16.149 7.90534 16.5451 7.83226 16.9158 7.68474C17.2865 7.53722 17.6245 7.31814 17.9105 7.04002C18.1964 6.7619 18.4248 6.43019 18.5824 6.06384C18.7401 5.69749 18.824 5.30367 18.8294 4.9049C18.8078 4.10697 18.4771 3.34859 17.9069 2.78971C17.3367 2.23082 16.5717 1.91511 15.7731 1.90917C14.9745 1.90323 14.2048 2.20752 13.6264 2.75787C13.048 3.30821 12.706 4.06159 12.6725 4.8591ZM10.6546 10.9872C11.46 10.9982 12.2367 10.6891 12.8142 10.1278C13.3916 9.56662 13.7224 8.79919 13.734 7.99424C13.714 7.19095 13.3807 6.42729 12.8052 5.86621C12.2297 5.30514 11.4576 4.9911 10.6537 4.9911C9.84976 4.9911 9.07767 5.30514 8.50218 5.86621C7.92669 6.42729 7.59337 7.19095 7.57336 7.99424C7.58493 8.79953 7.91604 9.56725 8.49389 10.1285C9.07173 10.6898 9.84896 10.9987 10.6546 10.9872ZM11.9614 11.1914H9.34786C8.3169 11.1784 7.32285 11.5745 6.58366 12.293C5.84447 13.0114 5.42048 13.9935 5.40464 15.024V18.1295L5.41323 18.1782L5.63373 18.245C7.36964 18.7882 9.17647 19.0714 10.9954 19.0855C12.5979 19.135 14.1924 18.8423 15.6727 18.2268L15.8779 18.1257H15.8999V15.024C15.8843 13.9943 15.461 13.0128 14.7228 12.2944C13.9846 11.576 12.9916 11.1794 11.9614 11.1914ZM17.0568 8.10205H14.4633C14.4489 8.58668 14.338 9.06357 14.1368 9.50477C13.9357 9.94597 13.6485 10.3426 13.292 10.6714C14.2468 10.9374 15.0893 11.506 15.6929 12.2918C16.2964 13.0777 16.6283 14.0381 16.6387 15.0287V15.9828C18.0583 15.9744 19.4625 15.6879 20.7719 15.1394L20.9771 15.0383H21V11.9337C20.9839 10.9034 20.5598 9.92155 19.8206 9.20331C19.0815 8.48507 18.0876 8.08905 17.0568 8.10205ZM5.25 7.89788C5.82824 7.89848 6.39529 7.73861 6.888 7.4361C7.04088 6.49292 7.55423 5.64594 8.31982 5.07377C8.31982 5.01748 8.32841 4.96215 8.32841 4.90585C8.31684 4.10107 7.98612 3.33379 7.4089 2.77259C6.83168 2.21139 6.05518 1.90217 5.25 1.91288C4.44458 1.90167 3.66769 2.21069 3.09021 2.77197C2.51273 3.33325 2.18195 4.10082 2.17064 4.90585C2.1822 5.71072 2.51309 6.47805 3.09054 7.03913C3.668 7.6002 4.44474 7.90909 5.25 7.89788ZM8.01818 10.6705C7.66346 10.3434 7.37721 9.94926 7.17599 9.51083C6.97478 9.07241 6.86262 8.59843 6.846 8.11636C6.75055 8.10969 6.65509 8.10205 6.55964 8.10205H3.94323C2.91243 8.08905 1.91852 8.48507 1.17935 9.20331C0.440194 9.92155 0.0160886 10.9034 0 11.9337L0 15.0373L0.00859091 15.085L0.229091 15.1528C1.67168 15.5989 3.16243 15.8711 4.66964 15.9637V15.0259C4.68067 14.0354 5.01311 13.0752 5.61697 12.2898C6.22082 11.5044 7.06346 10.9361 8.01818 10.6705Z" fill="white"/>
</svg>
