<svg width="80" height="80" viewBox="0 0 80 80" fill="none" xmlns="http://www.w3.org/2000/svg">
<path fill-rule="evenodd" clip-rule="evenodd" d="M18.1559 47.4378C19.5628 49.1759 21.736 50.4484 24.0078 50.4484C26.4341 50.4484 28.6218 49.0692 30.0702 47.185C31.5473 45.251 32.272 42.8102 32.272 40.3914C32.272 37.8659 31.4772 35.306 29.8805 33.3296C28.4948 31.6139 26.3358 30.3265 24.085 30.3265C21.6372 30.3265 19.4358 31.684 17.9729 33.5828C16.4891 35.5168 15.7715 37.9576 15.7715 40.3839C15.7715 42.9089 16.5526 45.4622 18.1559 47.4378ZM8.0212 30.7415H1.17773V30.9378H2.97856L10.047 50.2649L16.1235 30.9378H17.7554V30.7415H14.0628V30.9378H15.7578L11.4465 44.9198L6.34032 30.9378H8.0212V30.7415ZM47.253 37.1205V30.4037H47.0994C46.6284 30.7552 46.0797 31.1561 45.4675 31.1561C44.9757 31.1561 44.4764 30.9947 44.019 30.8257L43.6177 30.6709C43.069 30.4526 42.4855 30.27 41.8945 30.27C40.3825 30.27 38.9619 30.9378 37.7873 31.8455C35.171 33.8638 33.94 37.3172 33.94 40.5458C33.94 44.9621 36.5987 50.2861 41.5919 50.2861C42.6818 50.2861 43.6248 49.9703 44.6096 49.5341L45.0458 49.295C45.5302 49.0277 46.0718 48.8306 46.6279 48.8306C47.3941 48.8306 47.9922 49.2456 48.3723 49.8785H48.5051V42.1137H50.0105V41.9104H43.575V42.1137H45.333V47.3049C45.333 47.6494 45.3189 47.9864 45.1359 48.289C44.4258 49.4498 43.0047 50.1251 41.6687 50.1251C39.9874 50.1251 39.0802 49.3307 38.4543 47.7129C37.5611 45.4062 37.3644 42.8674 37.3644 40.4055C37.3644 37.6555 37.7301 30.4464 41.753 30.4464C43.5044 30.4464 44.8479 31.9791 45.6916 33.3437C46.4017 34.5112 46.8097 35.7982 47.0982 37.1205H47.253ZM56.0376 30.7415H49.1737V30.9378H51.0509V45.1588C51.0509 48.6899 54.4559 50.1877 57.5433 50.1877C60.2717 50.1877 63.1836 48.8302 63.1836 45.7644V30.9378H66.5881V49.6814H64.9774V49.8785H78.8257V42.5993H78.6709C78.6361 43.3028 78.5792 44.0129 78.4601 44.7093C78.2422 45.9544 77.6155 47.1078 76.7157 47.9939C75.6603 49.0344 74.177 49.6814 72.6853 49.6814H69.8092V40.1726C70.1536 40.1444 70.4911 40.1233 70.8355 40.1233C73.0232 40.1233 73.8458 42.1208 74.1483 43.9843H74.3243V36.1846H74.1483C74.0429 38.2386 73.417 39.8983 71.0049 39.8983C70.6035 39.8983 70.2022 39.8701 69.8092 39.8282V30.9378H71.7287C73.5079 30.9378 75.2386 31.0785 76.5111 32.5203C77.7699 33.948 78.1218 35.826 78.326 37.6547H78.4597V30.7411H60.7428V30.9378H62.8943V45.7083C62.8943 48.0225 60.9885 49.5976 58.7237 49.5976C56.6211 49.5976 54.216 48.1765 54.216 45.842V30.9382H56.0376V30.7415ZM24.0225 30.6142C27.7993 30.6142 28.7979 37.5913 28.7979 40.3836C28.7979 43.1759 27.7993 50.1592 24.0225 50.1596C20.2387 50.1596 19.2468 43.1826 19.2468 40.3836C19.2468 37.5842 20.2316 30.6142 24.0225 30.6142Z" fill="white"/>
</svg>
